<?xml version="1.0" encoding="utf-8"?>
<!-- Generator: Adobe Illustrator 27.5.0, SVG Export Plug-In . SVG Version: 6.00 Build 0)  -->
<svg version="1.1" xmlns="http://www.w3.org/2000/svg" xmlns:xlink="http://www.w3.org/1999/xlink" x="0px" y="0px"
	 viewBox="0 0 500 500" style="enable-background:new 0 0 500 500;" xml:space="preserve">
<g id="Background_Simple">
	<g>
		<path style="opacity:0.7;fill:#FFFFFF;" d="M67.931,167.086c0,0-27.877,71.988,11.297,144.503
			c39.174,72.516,119.879,110.802,184.469,143.548c64.59,32.746,131.661,16.799,163.534-36.838
			c31.873-53.637-11.845-91.928-11.897-168.418c-0.051-76.49,11.447-96.742-29.963-161.364
			c-41.41-64.623-143.059-78.925-219.9-30.996C88.631,105.45,67.931,167.086,67.931,167.086z"/>
	</g>
	<g>
		<path style="fill:#92E3A9;" d="M235.124,35.721C359.159,24.674,359.369,94.654,415.256,159.85
			c55.887,65.195,67.847,94.754,46.779,169.908c-21.068,75.154-92.064,134.07-179.892,100.688
			c-87.828-33.381-138.14-1.325-193.537-30.967s-75.969-86.913-35.419-154.41C93.736,177.572,82.183,49.341,235.124,35.721z"/>
		<path style="opacity:0.7;fill:#FFFFFF;" d="M235.124,35.721C359.159,24.674,359.369,94.654,415.256,159.85
			c55.887,65.195,67.847,94.754,46.779,169.908c-21.068,75.154-92.064,134.07-179.892,100.688
			c-87.828-33.381-138.14-1.325-193.537-30.967s-75.969-86.913-35.419-154.41C93.736,177.572,82.183,49.341,235.124,35.721z"/>
	</g>
</g>
<g id="Document">
	<g>
		
			<rect x="137.251" y="75.672" transform="matrix(0.9939 -0.1105 0.1105 0.9939 -21.9921 27.3123)" style="fill:#FFFFFF;stroke:#263238;stroke-linecap:round;stroke-linejoin:round;stroke-miterlimit:10;" width="196.113" height="272.62"/>
		
			<rect x="124.267" y="76.391" transform="matrix(0.9939 -0.1105 0.1105 0.9939 -9.1674 25.1615)" style="fill:#BFBFBF;stroke:#263238;stroke-linecap:round;stroke-linejoin:round;stroke-miterlimit:10;" width="196.113" height="37.722"/>
		<path style="fill:#FFFFFF;" d="M263.54,82.924l-84.136,9.358c-1.579,0.176-2.717,1.598-2.542,3.178
			c0.176,1.579,1.598,2.717,3.178,2.542l84.135-9.358c1.579-0.176,2.717-1.598,2.542-3.178
			C266.542,83.886,265.12,82.749,263.54,82.924z"/>
		<path style="fill:#FFFFFF;" d="M243.814,97.016l-42.068,4.679c-0.79,0.088-1.359,0.799-1.271,1.589
			c0.088,0.79,0.799,1.359,1.589,1.271l42.068-4.679c0.79-0.088,1.359-0.799,1.271-1.589
			C245.315,97.497,244.603,96.928,243.814,97.016z"/>
		<g>
			<path style="opacity:0.3;" d="M275.252,129.421l-110.22,12.26c-0.588,0.065-1.011,0.595-0.946,1.182
				c0.065,0.588,0.595,1.011,1.182,0.946l110.22-12.26c0.588-0.065,1.011-0.595,0.946-1.182S275.84,129.355,275.252,129.421z"/>
			<path style="opacity:0.3;" d="M276.103,137.073l-126.764,14.1c-0.588,0.065-1.011,0.595-0.946,1.182
				c0.065,0.588,0.595,1.011,1.182,0.946l126.764-14.1c0.588-0.065,1.011-0.595,0.946-1.182S276.691,137.007,276.103,137.073z"/>
			<path style="opacity:0.3;" d="M243.866,148.405l-93.676,10.42c-0.588,0.065-1.011,0.595-0.946,1.182
				c0.065,0.588,0.595,1.011,1.182,0.946l93.676-10.42c0.588-0.065,1.011-0.595,0.946-1.182
				C244.983,148.763,244.453,148.339,243.866,148.405z"/>
			<g>
				<path style="opacity:0.3;fill:none;stroke:#263238;stroke-linecap:round;stroke-linejoin:round;stroke-miterlimit:10;" d="
					M305.051,141.992l-11.185,1.244c-1.502,0.167-2.855-0.915-3.022-2.417l-1.244-11.185c-0.167-1.502,0.915-2.855,2.417-3.022
					l11.185-1.244c1.502-0.167,2.855,0.915,3.022,2.417l1.244,11.185C307.635,140.472,306.553,141.825,305.051,141.992z"/>
				
					<polyline style="fill:none;stroke:#92E3A9;stroke-width:3;stroke-linecap:round;stroke-linejoin:round;stroke-miterlimit:10;" points="
					294.015,133.949 297.686,137.419 302.534,130.008 				"/>
			</g>
		</g>
		<g>
			<path style="opacity:0.3;" d="M279.283,165.659l-110.22,12.26c-0.588,0.065-1.011,0.595-0.946,1.182
				c0.065,0.588,0.595,1.011,1.182,0.946l110.22-12.26c0.588-0.065,1.011-0.595,0.946-1.182
				C280.4,166.017,279.871,165.594,279.283,165.659z"/>
			<path style="opacity:0.3;" d="M280.134,173.311l-126.764,14.1c-0.588,0.065-1.011,0.595-0.946,1.182s0.595,1.011,1.182,0.946
				l126.764-14.1c0.588-0.065,1.011-0.595,0.946-1.182C281.251,173.669,280.722,173.245,280.134,173.311z"/>
			<path style="opacity:0.3;" d="M247.897,184.643l-93.676,10.42c-0.588,0.065-1.011,0.595-0.946,1.182
				c0.065,0.588,0.595,1.011,1.182,0.946l93.676-10.419c0.588-0.065,1.011-0.595,0.946-1.182
				C249.014,185.001,248.484,184.578,247.897,184.643z"/>
			<g>
				<path style="opacity:0.3;fill:none;stroke:#263238;stroke-linecap:round;stroke-linejoin:round;stroke-miterlimit:10;" d="
					M309.081,178.23l-11.185,1.244c-1.502,0.167-2.855-0.915-3.022-2.417l-1.244-11.185c-0.167-1.502,0.915-2.855,2.417-3.022
					l11.185-1.244c1.502-0.167,2.855,0.915,3.022,2.417l1.244,11.185C311.666,176.71,310.583,178.063,309.081,178.23z"/>
				
					<polyline style="fill:none;stroke:#92E3A9;stroke-width:3;stroke-linecap:round;stroke-linejoin:round;stroke-miterlimit:10;" points="
					298.046,170.188 301.716,173.657 306.565,166.246 				"/>
			</g>
		</g>
		<g>
			<path style="opacity:0.3;" d="M283.314,201.897l-110.22,12.26c-0.588,0.065-1.011,0.595-0.946,1.182
				c0.065,0.588,0.595,1.011,1.182,0.946l110.22-12.26c0.588-0.065,1.011-0.595,0.946-1.182
				C284.431,202.255,283.902,201.832,283.314,201.897z"/>
			<path style="opacity:0.3;" d="M284.165,209.549l-126.764,14.1c-0.588,0.065-1.011,0.595-0.946,1.182s0.595,1.011,1.182,0.946
				l126.764-14.1c0.588-0.065,1.011-0.595,0.946-1.182C285.282,209.907,284.753,209.484,284.165,209.549z"/>
			<path style="opacity:0.3;" d="M251.927,220.881l-93.676,10.42c-0.588,0.065-1.011,0.595-0.946,1.182s0.595,1.011,1.182,0.946
				l93.676-10.42c0.588-0.065,1.011-0.595,0.946-1.182S252.515,220.816,251.927,220.881z"/>
			<g>
				<path style="opacity:0.3;fill:none;stroke:#263238;stroke-linecap:round;stroke-linejoin:round;stroke-miterlimit:10;" d="
					M313.112,214.469l-11.185,1.244c-1.502,0.167-2.855-0.915-3.022-2.417l-1.244-11.185c-0.167-1.502,0.915-2.855,2.417-3.022
					l11.185-1.244c1.502-0.167,2.855,0.915,3.022,2.417l1.244,11.185C315.696,212.949,314.614,214.301,313.112,214.469z"/>
				
					<polyline style="fill:none;stroke:#92E3A9;stroke-width:3;stroke-linecap:round;stroke-linejoin:round;stroke-miterlimit:10;" points="
					302.077,206.426 305.747,209.895 310.596,202.484 				"/>
			</g>
		</g>
		<g>
			<path style="opacity:0.3;" d="M287.345,238.135l-110.22,12.26c-0.588,0.065-1.011,0.595-0.946,1.182
				c0.065,0.588,0.595,1.011,1.182,0.946l110.22-12.26c0.588-0.065,1.011-0.595,0.946-1.182
				C288.462,238.493,287.932,238.07,287.345,238.135z"/>
			<path style="opacity:0.3;" d="M288.196,245.787l-126.764,14.1c-0.588,0.065-1.011,0.595-0.946,1.182
				c0.065,0.588,0.595,1.011,1.182,0.946l126.764-14.1c0.588-0.065,1.011-0.595,0.946-1.182
				C289.313,246.145,288.783,245.722,288.196,245.787z"/>
			<path style="opacity:0.3;" d="M255.958,257.119l-93.676,10.42c-0.588,0.065-1.011,0.595-0.946,1.182
				c0.065,0.588,0.595,1.011,1.182,0.946l93.676-10.42c0.588-0.065,1.011-0.595,0.946-1.182
				C257.075,257.477,256.546,257.054,255.958,257.119z"/>
			<g>
				<path style="opacity:0.3;fill:none;stroke:#263238;stroke-linecap:round;stroke-linejoin:round;stroke-miterlimit:10;" d="
					M317.143,250.707l-11.185,1.244c-1.502,0.167-2.855-0.915-3.022-2.417l-1.244-11.185c-0.167-1.502,0.915-2.855,2.417-3.022
					l11.185-1.244c1.502-0.167,2.855,0.915,3.022,2.417l1.244,11.185C319.727,249.187,318.645,250.54,317.143,250.707z"/>
				
					<polyline style="fill:none;stroke:#92E3A9;stroke-width:3;stroke-linecap:round;stroke-linejoin:round;stroke-miterlimit:10;" points="
					306.108,242.664 309.778,246.133 314.627,238.723 				"/>
			</g>
		</g>
		<g>
			<path style="opacity:0.3;" d="M291.376,274.373l-110.22,12.26c-0.588,0.065-1.011,0.595-0.946,1.182
				c0.065,0.588,0.595,1.011,1.182,0.946l110.22-12.26c0.588-0.065,1.011-0.595,0.946-1.182
				C292.493,274.731,291.963,274.308,291.376,274.373z"/>
			<path style="opacity:0.3;" d="M292.227,282.025l-126.764,14.1c-0.588,0.065-1.011,0.595-0.946,1.182
				c0.065,0.588,0.595,1.011,1.182,0.946l126.764-14.1c0.588-0.065,1.011-0.595,0.946-1.182
				C293.344,282.383,292.814,281.96,292.227,282.025z"/>
			<path style="opacity:0.3;" d="M259.989,293.357l-93.676,10.42c-0.588,0.065-1.011,0.595-0.946,1.182
				c0.065,0.588,0.595,1.011,1.182,0.946l93.676-10.42c0.588-0.065,1.011-0.595,0.946-1.182
				C261.106,293.715,260.577,293.292,259.989,293.357z"/>
			<g>
				<path style="opacity:0.3;fill:none;stroke:#263238;stroke-linecap:round;stroke-linejoin:round;stroke-miterlimit:10;" d="
					M321.174,286.945l-11.185,1.244c-1.502,0.167-2.855-0.915-3.022-2.417l-1.244-11.185c-0.167-1.502,0.915-2.855,2.417-3.022
					l11.185-1.244c1.502-0.167,2.855,0.915,3.022,2.417l1.244,11.185C323.758,285.425,322.676,286.778,321.174,286.945z"/>
				
					<polyline style="fill:none;stroke:#92E3A9;stroke-width:3;stroke-linecap:round;stroke-linejoin:round;stroke-miterlimit:10;" points="
					310.139,278.902 313.809,282.371 318.658,274.961 				"/>
			</g>
		</g>
		<g>
			<path style="opacity:0.3;" d="M294.451,302.025l-110.22,12.26c-0.588,0.065-1.011,0.595-0.946,1.182
				c0.065,0.588,0.595,1.011,1.182,0.946l110.22-12.26c0.588-0.065,1.011-0.595,0.946-1.182
				C295.568,302.383,295.039,301.96,294.451,302.025z"/>
			<path style="opacity:0.3;" d="M295.302,309.677l-126.764,14.1c-0.588,0.065-1.011,0.595-0.946,1.182
				c0.065,0.588,0.595,1.011,1.182,0.946l126.764-14.1c0.588-0.065,1.011-0.595,0.946-1.182
				C296.419,310.035,295.89,309.611,295.302,309.677z"/>
			<path style="opacity:0.3;" d="M263.065,321.009l-93.676,10.42c-0.588,0.065-1.011,0.595-0.946,1.182
				c0.065,0.588,0.595,1.011,1.182,0.946l93.676-10.42c0.588-0.065,1.011-0.595,0.946-1.182
				C264.182,321.367,263.652,320.944,263.065,321.009z"/>
			<g>
				<path style="opacity:0.3;fill:none;stroke:#263238;stroke-linecap:round;stroke-linejoin:round;stroke-miterlimit:10;" d="
					M324.249,314.596l-11.185,1.244c-1.502,0.167-2.855-0.915-3.022-2.417l-1.244-11.185c-0.167-1.502,0.915-2.855,2.417-3.022
					l11.185-1.244c1.502-0.167,2.855,0.915,3.022,2.417l1.244,11.185C326.834,313.076,325.751,314.429,324.249,314.596z"/>
				
					<polyline style="fill:none;stroke:#92E3A9;stroke-width:3;stroke-linecap:round;stroke-linejoin:round;stroke-miterlimit:10;" points="
					313.214,306.553 316.884,310.023 321.733,302.612 				"/>
			</g>
		</g>
	</g>
</g>
<g id="Stamp">
	<g>
		<g>
			<path style="fill:none;" d="M225.721,203.232c-0.664-1.171-1.321-1.293-2.14-0.828l-1.218,0.691l3.147,5.548l1.218-0.691
				c0.819-0.465,1.051-1.092,0.388-2.262L225.721,203.232z"/>
			<path style="fill:#92E3A9;" d="M202.811,231.268c0.132-0.988-0.12-2.087-0.79-3.269l-1.235-2.177l-2.435,1.381l1.328,2.341
				c0.664,1.171,0.388,1.884-0.431,2.349c-0.819,0.465-1.573,0.336-2.237-0.835l-2.867-5.055c-1.021,0.2-2.043,0.399-3.064,0.599
				l3.263,5.753c1.487,2.622,3.648,3.377,6.177,1.943c0.44-0.25,0.794-0.532,1.11-0.828c-0.319-0.596-0.059-1.481,0.528-1.898
				C202.357,231.429,202.58,231.336,202.811,231.268z"/>
			<path style="fill:#92E3A9;" d="M189.51,223.834l0.578,1.019c1.126-0.016,2.251-0.032,3.377-0.047l-1.473-2.596
				c-0.664-1.17-0.401-1.908,0.418-2.372c0.819-0.465,1.587-0.312,2.251,0.858l0.996,1.756l2.435-1.381l-0.903-1.592
				c-1.487-2.622-3.648-3.376-6.176-1.943c-0.642,0.364-1.148,0.782-1.525,1.243c0.77,0.185,1.534,0.342,1.779,0.25
				c-0.799,0.3-1.599,0.599-2.398,0.899C188.486,221.069,188.691,222.39,189.51,223.834z"/>
			<path style="fill:#92E3A9;" d="M208.196,213.173c0.302-0.202,0.68-0.249,1.011-0.397c1.29-0.576,1.583-2.434,1.474-3.741
				l-1.327-1.656l-3.582,2.032l2.237,3.943C208.063,213.284,208.125,213.22,208.196,213.173z"/>
			<path style="fill:#92E3A9;" d="M223.448,221.044l2.435-1.381l-9.295-16.387l-2.304,1.307c0.739,0.175,1.269,0.523,1.287,1.068
				c-0.716,0.096-1.601-0.003-2.378,0.14l4.68,12.133l-0.047,0.027l-5.913-7.379c-0.004,0.348-0.085,0.679-0.362,0.87
				c-0.271,0.187-0.66,0.185-0.875,0.433c-0.187,0.216-0.176,0.549-0.351,0.775c-0.169,0.217-0.464,0.281-0.69,0.438
				c-0.301,0.21-0.456,0.57-0.705,0.841c-0.115,0.125-0.277,0.222-0.442,0.269l6.579,11.598l2.247-1.275l-6.573-11.587l0.047-0.027
				l8.445,10.525l2.435-1.381l-4.934-12.734l0.047-0.027L223.448,221.044z"/>
			<path style="fill:#92E3A9;" d="M229.604,206.745c0.355,0.134,0.571,0.479,0.743,0.878c0.253-1.049-0.003-2.243-0.749-3.558
				l-1.208-2.13c-1.487-2.622-3.562-3.333-6.136-1.873l-3.792,2.151l9.295,16.387l2.417-1.371c-0.782-0.492-1.651-0.905-2.398-1.443
				c-0.331-0.238-0.65-0.517-0.822-0.886c-0.172-0.37-0.162-0.848,0.117-1.145c0.306-0.326,0.804-0.32,1.241-0.174l-1.474-2.598
				l1.218-0.691c0.762-0.432,1.316-0.931,1.711-1.478C229.261,207.998,228.369,206.279,229.604,206.745z M226.728,207.952
				l-1.218,0.691l-3.147-5.548l1.218-0.691c0.819-0.465,1.476-0.343,2.14,0.828l1.394,2.458
				C227.78,206.86,227.547,207.487,226.728,207.952z"/>
			<path style="fill:#92E3A9;" d="M243.393,209.73l-1.328-2.341l-4.237,2.403l-6.203-10.935c-0.09,0.078-0.181,0.154-0.271,0.224
				c-0.195,0.152-0.402,0.308-0.646,0.348c-0.244,0.04-0.534-0.082-0.592-0.322c-0.037-0.154,0.025-0.312,0.055-0.467
				c0.162-0.835-0.384-1.709-0.841-2.593l-2.045,1.16l9.295,16.387L243.393,209.73z"/>
			<path style="fill:#92E3A9;" d="M242.23,204.044c0.28-0.736,1.146-1.054,1.637-1.669c0.051-0.064,0.086-0.136,0.127-0.204
				l-0.952-1.679l2.528-1.434c-0.04-0.136-0.106-0.275-0.244-0.426c-0.166-0.181-1.149-0.36-1.15-0.362
				c-0.286-0.489,0.108-1.219,0.674-1.248c0.171-0.009,0.365,0.029,0.495-0.082c0.108-0.092,0.121-0.243,0.133-0.389l-0.23-0.406
				l-3.535,2.005l-2.589-4.565l4.448-2.523l-1.328-2.341l-7.022,3.983l6.88,12.129C242.12,204.565,242.134,204.295,242.23,204.044z"
				/>
			<path style="fill:#92E3A9;" d="M251.54,205.109l-1.328-2.341l-4.448,2.523l-1.33-2.345c-0.547,0.514-1.093,1.027-1.639,1.541
				c-0.193,0.182-0.386,0.367-0.573,0.557l2.296,4.048L251.54,205.109z"/>
			<path style="fill:#92E3A9;" d="M248.23,186.083c-0.044,0.347-0.246,0.733-0.594,0.769c-0.169,0.018-0.334-0.053-0.501-0.082
				c-0.306-0.054-0.635,0.029-0.923-0.088c-0.069-0.028-0.125-0.066-0.178-0.107l-2.944,1.67l1.328,2.341l2.692-1.527l7.967,14.045
				l2.575-1.461l-7.967-14.045l2.692-1.527l-1.328-2.341l-2.756,1.563C248.245,185.549,248.263,185.821,248.23,186.083z"/>
			<path style="fill:#92E3A9;" d="M259.461,195.945l2.004,3.534l2.701-1.532c0.069-0.174,0.146-0.345,0.239-0.508
				c0.519-0.912,1.446-1.503,2.336-2.058c0.414-0.258,0.828-0.516,1.243-0.774l-0.824-1.452l-4.448,2.523l-2.722-4.799l3.535-2.005
				l-1.328-2.341l-3.535,2.005l-2.589-4.565l4.448-2.523l-1.328-2.341l-7.022,3.983l5.053,8.908
				C258.457,191.401,259.072,193.742,259.461,195.945z"/>
			<path style="fill:#92E3A9;" d="M207.674,228.356c0.417,0.079,0.668,0.49,0.985,0.773c0.126,0.112,0.264,0.197,0.407,0.265
				c0.186-0.083,0.37-0.155,0.559-0.262c2.528-1.434,3.06-3.716,1.572-6.338l-0.148-0.26c-1.153-0.033-2.306-0.066-3.459-0.098
				l1.125,1.983c0.664,1.171,0.401,1.907-0.418,2.372c-0.819,0.465-1.587,0.312-2.251-0.858l-5.019-8.849
				c-0.664-1.17-0.401-1.908,0.418-2.372c0.819-0.465,1.587-0.312,2.251,0.859l3.397,5.988c1.041-0.253,2.109-0.394,3.18-0.394
				l-3.909-6.891c-1.487-2.622-3.718-3.337-6.246-1.903c-2.528,1.434-3.059,3.716-1.572,6.338l4.833,8.521
				c0.868,1.531,1.996,2.391,3.283,2.573c-0.01-0.059-0.03-0.117-0.035-0.177C206.572,228.991,207.05,228.238,207.674,228.356z"/>
			<path style="fill:#92E3A9;" d="M242.205,181.333l7.846-4.45c-2.253,0.622-4.23,2.501-6.553,2.242
				c-0.429-0.048-0.885-0.166-1.276,0.018c-0.564,0.266-0.689,1.065-0.423,1.629C241.899,180.984,242.044,181.164,242.205,181.333z"
				/>
			<path style="fill:#92E3A9;" d="M222.51,192.504c-0.015-0.175,0.011-0.35,0.102-0.508c0.196,0.075,0.398,0.105,0.601,0.108
				l2.708-1.536c0.449-0.46,0.892-0.925,1.441-1.254c0.499-0.299,1.062-0.471,1.618-0.64c0.201-0.061,0.402-0.122,0.603-0.183
				l4.976-2.822c0.058-0.101,0.121-0.2,0.214-0.274c0.074-0.059,0.164-0.084,0.251-0.117c-1.722-0.521-3.444-1.042-5.167-1.563
				l-1.387,0.787c-0.049,0.367-0.099,0.734-0.149,1.101c-1.986,1.06-3.971,2.121-5.957,3.181c-0.609,0.325-1.238,0.657-1.925,0.725
				c-0.257,0.026-0.514,0.01-0.771-0.015l-8.475,4.807c0.071,0.401,0.176,0.796,0.336,1.17c-0.497-0.092-0.969-0.293-1.39-0.572
				l-1.74,0.987c1.239,0.819,2.458,1.667,3.654,2.549L222.51,192.504z"/>
			<path style="fill:#92E3A9;" d="M258.807,171.916c-1.365-0.766-2.729-1.533-4.094-2.299l-1.943,1.102
				c1.131,1.146,2.603,1.953,4.187,2.246L258.807,171.916z"/>
			<path style="fill:#92E3A9;" d="M280.861,196.133l-15.481-27.292c-1.248-2.201-4.054-2.975-6.255-1.727l-1.861,1.055
				c0.237,0.232,0.473,0.463,0.71,0.695c0.748,0.732,1.504,1.483,2.199,2.276l0.936-0.531c0.273-0.155,0.621-0.059,0.775,0.214
				l15.48,27.292c0.155,0.272,0.059,0.62-0.214,0.775l-21.072,11.952c1.818,0.105,3.664-0.15,5.48,0.057
				c0.652,0.074,1.303,0.208,1.954,0.348l15.621-8.861C281.335,201.139,282.11,198.333,280.861,196.133z"/>
			<path style="fill:#92E3A9;" d="M186.012,230.859l-7.295-12.861c-0.155-0.273-0.059-0.621,0.214-0.775l21.023-11.925
				c-0.074-0.16-0.159-0.315-0.226-0.479c0.3-0.015,0.598,0.025,0.886,0.104l8.482-4.811c-0.276-0.096-0.55-0.199-0.82-0.306
				c-1.332-0.528-2.663-1.056-3.995-1.585l-3.196,1.813c1.158,0.71,2.315,1.42,3.473,2.131c-1.203-0.738-3.679-0.835-5.804-0.808
				l-21.806,12.369c-2.201,1.248-2.975,4.054-1.727,6.255l6.316,11.135c0.295-0.074,0.59-0.145,0.883-0.195
				c0.797-0.137,1.612-0.13,2.421-0.122C185.231,230.804,185.625,230.813,186.012,230.859z"/>
			<path style="fill:#92E3A9;" d="M211.938,235.881c0.364,0.312,0.76,0.587,1.201,0.773c0.455,0.192,1.048,0.678,0.697,1.025
				c-1.619,0.736-3.613,0.19-5.208,0.977c-0.868,0.428-1.705,1.254-2.638,0.997c1.124,0.674,2.13,1.537,2.986,2.529l39.71-22.524
				c0.028-0.161,0.055-0.323,0.083-0.484c0.091-0.528,0.198-1.091,0.569-1.478c0.495-0.517,1.292-0.563,2.008-0.574
				c0.513-0.008,1.053,0.014,1.539,0.154l4.942-2.803c-0.67-1.175-1.484-2.264-2.401-3.259L211.938,235.881z"/>
			<path style="fill:#92E3A9;" d="M205.514,242.495c-0.832-0.274-1.909-0.827-2.595-1.498l-7.947,4.507
				c-0.272,0.155-0.62,0.059-0.775-0.214l-6.962-12.275c-0.699-0.163-1.402-0.377-2.099-0.236c-0.804,0.162-1.514,1.102-1.072,1.792
				c0.833,0.001,1.646,0.5,2.023,1.242c-0.435,0.344-0.908,0.621-1.405,0.849l6.019,10.611c1.248,2.201,4.054,2.975,6.254,1.727
				l10.386-5.891c-0.042-0.021-0.083-0.047-0.126-0.067C206.674,242.794,206.081,242.682,205.514,242.495z"/>
		</g>
		<g style="opacity:0.2;">
			<g>
				<path d="M202.811,231.268c0.132-0.988-0.12-2.087-0.79-3.269l-1.235-2.177l-2.435,1.381l1.328,2.341
					c0.664,1.171,0.388,1.884-0.431,2.349c-0.819,0.465-1.573,0.336-2.237-0.835l-2.867-5.055c-1.021,0.2-2.043,0.399-3.064,0.599
					l3.263,5.753c1.487,2.622,3.648,3.377,6.177,1.943c0.44-0.25,0.794-0.532,1.11-0.828c-0.319-0.596-0.059-1.481,0.528-1.898
					C202.357,231.429,202.58,231.336,202.811,231.268z"/>
				<path d="M189.51,223.834l0.578,1.019c1.126-0.016,2.251-0.032,3.377-0.047l-1.473-2.596c-0.664-1.17-0.401-1.908,0.418-2.372
					c0.819-0.465,1.587-0.312,2.251,0.858l0.996,1.756l2.435-1.381l-0.903-1.592c-1.487-2.622-3.648-3.376-6.176-1.943
					c-0.642,0.364-1.148,0.782-1.525,1.243c0.77,0.185,1.534,0.342,1.779,0.25c-0.799,0.3-1.599,0.599-2.398,0.899
					C188.486,221.069,188.691,222.39,189.51,223.834z"/>
				<path d="M208.196,213.173c0.302-0.202,0.68-0.249,1.011-0.397c1.29-0.576,1.583-2.434,1.474-3.741l-1.327-1.656l-3.582,2.032
					l2.237,3.943C208.063,213.284,208.125,213.22,208.196,213.173z"/>
				<path d="M223.448,221.044l2.435-1.381l-9.295-16.387l-2.304,1.307c0.739,0.175,1.269,0.523,1.287,1.068
					c-0.716,0.096-1.601-0.003-2.378,0.14l4.68,12.133l-0.047,0.027l-5.913-7.379c-0.004,0.348-0.085,0.679-0.362,0.87
					c-0.271,0.187-0.66,0.185-0.875,0.433c-0.187,0.216-0.176,0.549-0.351,0.775c-0.169,0.217-0.464,0.281-0.69,0.438
					c-0.301,0.21-0.456,0.57-0.705,0.841c-0.115,0.125-0.277,0.222-0.442,0.269l6.579,11.598l2.247-1.275l-6.573-11.587l0.047-0.027
					l8.445,10.525l2.435-1.381l-4.934-12.734l0.047-0.027L223.448,221.044z"/>
				<path d="M229.604,206.745c0.355,0.134,0.571,0.479,0.743,0.878c0.253-1.049-0.003-2.243-0.749-3.558l-1.208-2.13
					c-1.487-2.622-3.562-3.333-6.136-1.873l-3.792,2.151l9.295,16.387l2.417-1.371c-0.782-0.492-1.651-0.905-2.398-1.443
					c-0.331-0.238-0.65-0.517-0.822-0.886c-0.172-0.37-0.162-0.848,0.117-1.145c0.306-0.326,0.804-0.32,1.241-0.174l-1.474-2.598
					l1.218-0.691c0.762-0.432,1.316-0.931,1.711-1.478C229.261,207.998,228.369,206.279,229.604,206.745z M226.728,207.952
					l-1.218,0.691l-3.147-5.548l1.218-0.691c0.819-0.465,1.476-0.343,2.14,0.828l1.394,2.458
					C227.78,206.86,227.547,207.487,226.728,207.952z"/>
				<path d="M243.393,209.73l-1.328-2.341l-4.237,2.403l-6.203-10.935c-0.09,0.078-0.181,0.154-0.271,0.224
					c-0.195,0.152-0.402,0.308-0.646,0.348c-0.244,0.04-0.534-0.082-0.592-0.322c-0.037-0.154,0.025-0.312,0.055-0.467
					c0.162-0.835-0.384-1.709-0.841-2.593l-2.045,1.16l9.295,16.387L243.393,209.73z"/>
				<path d="M242.23,204.044c0.28-0.736,1.146-1.054,1.637-1.669c0.051-0.064,0.086-0.136,0.127-0.204l-0.952-1.679l2.528-1.434
					c-0.04-0.136-0.106-0.275-0.244-0.426c-0.166-0.181-1.149-0.36-1.15-0.362c-0.286-0.489,0.108-1.219,0.674-1.248
					c0.171-0.009,0.365,0.029,0.495-0.082c0.108-0.092,0.121-0.243,0.133-0.389l-0.23-0.406l-3.535,2.005l-2.589-4.565l4.448-2.523
					l-1.328-2.341l-7.022,3.983l6.88,12.129C242.12,204.565,242.134,204.295,242.23,204.044z"/>
				<path d="M251.54,205.109l-1.328-2.341l-4.448,2.523l-1.33-2.345c-0.547,0.514-1.093,1.027-1.639,1.541
					c-0.193,0.182-0.386,0.367-0.573,0.557l2.296,4.048L251.54,205.109z"/>
				<path d="M248.23,186.083c-0.044,0.347-0.246,0.733-0.594,0.769c-0.169,0.018-0.334-0.053-0.501-0.082
					c-0.306-0.054-0.635,0.029-0.923-0.088c-0.069-0.028-0.125-0.066-0.178-0.107l-2.944,1.67l1.328,2.341l2.692-1.527l7.967,14.045
					l2.575-1.461l-7.967-14.045l2.692-1.527l-1.328-2.341l-2.756,1.563C248.245,185.549,248.263,185.821,248.23,186.083z"/>
				<path d="M259.461,195.945l2.004,3.534l2.701-1.532c0.069-0.174,0.146-0.345,0.239-0.508c0.519-0.912,1.446-1.503,2.336-2.058
					c0.414-0.258,0.828-0.516,1.243-0.774l-0.824-1.452l-4.448,2.523l-2.722-4.799l3.535-2.005l-1.328-2.341l-3.535,2.005
					l-2.589-4.565l4.448-2.523l-1.328-2.341l-7.022,3.983l5.053,8.908C258.457,191.401,259.072,193.742,259.461,195.945z"/>
				<path d="M207.674,228.356c0.417,0.079,0.668,0.49,0.985,0.773c0.126,0.112,0.264,0.197,0.407,0.265
					c0.186-0.083,0.37-0.155,0.559-0.262c2.528-1.434,3.06-3.716,1.572-6.338l-0.148-0.26c-1.153-0.033-2.306-0.066-3.459-0.098
					l1.125,1.983c0.664,1.171,0.401,1.907-0.418,2.372c-0.819,0.465-1.587,0.312-2.251-0.858l-5.019-8.849
					c-0.664-1.17-0.401-1.908,0.418-2.372c0.819-0.465,1.587-0.312,2.251,0.859l3.397,5.988c1.041-0.253,2.109-0.394,3.18-0.394
					l-3.909-6.891c-1.487-2.622-3.718-3.337-6.246-1.903c-2.528,1.434-3.059,3.716-1.572,6.338l4.833,8.521
					c0.868,1.531,1.996,2.391,3.283,2.573c-0.01-0.059-0.03-0.117-0.035-0.177C206.572,228.991,207.05,228.238,207.674,228.356z"/>
				<path d="M242.205,181.333l7.846-4.45c-2.253,0.622-4.23,2.501-6.553,2.242c-0.429-0.048-0.885-0.166-1.276,0.018
					c-0.564,0.266-0.689,1.065-0.423,1.629C241.899,180.984,242.044,181.164,242.205,181.333z"/>
				<path d="M222.51,192.504c-0.015-0.175,0.011-0.35,0.102-0.508c0.196,0.075,0.398,0.105,0.601,0.108l2.708-1.536
					c0.449-0.46,0.892-0.925,1.441-1.254c0.499-0.299,1.062-0.471,1.618-0.64c0.201-0.061,0.402-0.122,0.603-0.183l4.976-2.822
					c0.058-0.101,0.121-0.2,0.214-0.274c0.074-0.059,0.164-0.084,0.251-0.117c-1.722-0.521-3.444-1.042-5.167-1.563l-1.387,0.787
					c-0.049,0.367-0.099,0.734-0.149,1.101c-1.986,1.06-3.971,2.121-5.957,3.181c-0.609,0.325-1.238,0.657-1.925,0.725
					c-0.257,0.026-0.514,0.01-0.771-0.015l-8.475,4.807c0.071,0.401,0.176,0.796,0.336,1.17c-0.497-0.092-0.969-0.293-1.39-0.572
					l-1.74,0.987c1.239,0.819,2.458,1.667,3.654,2.549L222.51,192.504z"/>
				<path d="M258.807,171.916c-1.365-0.766-2.729-1.533-4.094-2.299l-1.943,1.102c1.131,1.146,2.603,1.953,4.187,2.246
					L258.807,171.916z"/>
				<path d="M280.861,196.133l-15.481-27.292c-1.248-2.201-4.054-2.975-6.255-1.727l-1.861,1.055
					c0.237,0.232,0.473,0.463,0.71,0.695c0.748,0.732,1.504,1.483,2.199,2.276l0.936-0.531c0.273-0.155,0.621-0.059,0.775,0.214
					l15.48,27.292c0.155,0.272,0.059,0.62-0.214,0.775l-21.072,11.952c1.818,0.105,3.664-0.15,5.48,0.057
					c0.652,0.074,1.303,0.208,1.954,0.348l15.621-8.861C281.335,201.139,282.11,198.333,280.861,196.133z"/>
				<path d="M186.012,230.859l-7.295-12.861c-0.155-0.273-0.059-0.621,0.214-0.775l21.023-11.925
					c-0.074-0.16-0.159-0.315-0.226-0.479c0.3-0.015,0.598,0.025,0.886,0.104l8.482-4.811c-0.276-0.096-0.55-0.199-0.82-0.306
					c-1.332-0.528-2.663-1.056-3.995-1.585l-3.196,1.813c1.158,0.71,2.315,1.42,3.473,2.131c-1.203-0.738-3.679-0.835-5.804-0.808
					l-21.806,12.369c-2.201,1.248-2.975,4.054-1.727,6.255l6.316,11.135c0.295-0.074,0.59-0.145,0.883-0.195
					c0.797-0.137,1.612-0.13,2.421-0.122C185.231,230.804,185.625,230.813,186.012,230.859z"/>
				<path d="M211.938,235.881c0.364,0.312,0.76,0.587,1.201,0.773c0.455,0.192,1.048,0.678,0.697,1.025
					c-1.619,0.736-3.613,0.19-5.208,0.977c-0.868,0.428-1.705,1.254-2.638,0.997c1.124,0.674,2.13,1.537,2.986,2.529l39.71-22.524
					c0.028-0.161,0.055-0.323,0.083-0.484c0.091-0.528,0.198-1.091,0.569-1.478c0.495-0.517,1.292-0.563,2.008-0.574
					c0.513-0.008,1.053,0.014,1.539,0.154l4.942-2.803c-0.67-1.175-1.484-2.264-2.401-3.259L211.938,235.881z"/>
				<path d="M205.514,242.495c-0.832-0.274-1.909-0.827-2.595-1.498l-7.947,4.507c-0.272,0.155-0.62,0.059-0.775-0.214
					l-6.962-12.275c-0.699-0.163-1.402-0.377-2.099-0.236c-0.804,0.162-1.514,1.102-1.072,1.792c0.833,0.001,1.646,0.5,2.023,1.242
					c-0.435,0.344-0.908,0.621-1.405,0.849l6.019,10.611c1.248,2.201,4.054,2.975,6.254,1.727l10.386-5.891
					c-0.042-0.021-0.083-0.047-0.126-0.067C206.674,242.794,206.081,242.682,205.514,242.495z"/>
			</g>
		</g>
	</g>
</g>
<g id="Left_hand">
	<path style="opacity:0.3;fill-opacity:0.7;" d="M160.479,206.778c6.103,4.485,11.197,26.028,11.662,45.731
		c0.466,19.703,9.948,52.99,11.137,58.446c1.189,5.457,0.722,13.314,7.8,2.374s27.794-29.93,36.423-23.624
		c8.629,6.306-5.906,27.528-13.777,38.946c-7.87,11.418-8.667,31.527-18.09,44.118c-9.424,12.591-17.959,31.598-27.198,31.31
		c-9.239-0.289-70.412,45.112-70.412,45.112l1.2-62.146l54.962-89.994L160.479,206.778z"/>
	<g>
		<path style="fill:#FFFFFF;" d="M232.52,292.76c-0.31,1.95-11.08,16.22-17.41,26.9s-12.26,29.27-13.85,32.04
			c-1.58,2.77-20.96,19.78-26.32,26.91c-5.36,7.12-14.82,10.28-24.31,17.01c-6.1,4.32-25.11,26.61-37.92,41.99
			c-7.12,8.55-12.33,14.97-12.33,14.97l-81.89-21.36c0,0,6.78-5.59,15.7-13.13c0.01,0,0.03-0.01,0.06-0.04
			c0.02-0.02,0.05-0.04,0.09-0.07c14.68-12.41,35.09-29.98,40.73-36.61c9.09-10.68,21.75-23.34,21.75-23.34
			c-0.77-14.83,0.8-28.88-0.59-34.22c-0.72-2.79-2.01-18.66-2.97-23.54c-2.43-12.47-13-25.39-14.19-30.48
			c-1.18-5.09-15.17-26.82-8.36-30.83c1.42-0.84,2.81-1.1,4.16-0.91c9.2,1.27,16.78,23.49,21.98,29.15
			c1.65,1.79,3.86,5.04,6.06,8.52c4.12,6.53,8.16,13.87,8.16,13.87c1.58-6.33-9.89-28.88-13.06-50.24
			c-3.16-21.36-12.26-32.83,0-34.15c1.08-0.12,2.09-0.02,3.04,0.26c8.63,2.52,12.37,20.45,17.53,37.85
			c0.48,1.6,4.41,13.09,7.47,21.95c0,0.01,0,0.01,0.01,0.02c1.99,5.8,3.6,10.47,3.6,10.47c0.39-10.88-2.97-20.97-3.56-30.86
			c-0.24-3.95,1.02-19.78-0.56-35.6c-1.34-13.35-0.73-18.76,4.49-19.81c0.96-0.2,2.09-0.24,3.39-0.16
			c9.05,0.57,12.26,24.62,12.26,34.01c0,5.45,0.93,16.09,1.71,24.07c0.57,5.77,1.06,10.15,1.06,10.15s1.58-13.25,0.4-41.83
			c-0.27-6.26,0.14-10.74,2.6-12.55c1.35-0.98,3.3-1.17,6.1-0.41c7.91,2.14,10.48,31.45,10.48,42.53c0,11.07,6.33,30.06,7.52,45.02
			c1.19,14.95,6.37,33.3,6.37,33.3s2.93,1.19,4.9,0.8c1.98-0.4,15.63-20.57,15.63-20.57c6.36-13.81,18.74-17.98,25.48-16.45
			C231.04,288.09,232.96,290.01,232.52,292.76z"/>
		<g>
			<path style="opacity:0.4;fill:#92E3A9;" d="M232.52,292.76c-0.31,1.95-11.08,16.22-17.41,26.9s-12.26,29.27-13.85,32.04
				c-1.58,2.77-20.96,19.78-26.32,26.91c-5.36,7.12-14.82,10.28-24.31,17.01c-6.1,4.32-25.11,26.61-37.92,41.99
				c1.41-5.58,4.57-12.71,12.83-19.56c14.34-11.91,15.2-21.25,22.91-29.16c7.71-7.91,21.29-5.54,26.17-15.03
				c4.89-9.5,21.9-18.2,25.46-26.51s-3.56-10.07,2.77-20.07c6.33-9.99,12.47-12.43,11.57-16.35c-0.89-3.93-3.56-9.86,1.93-14.81
				c3.43-3.08,7.46-6.95,11.58-8.73C231.04,288.09,232.96,290.01,232.52,292.76z"/>
			<path style="opacity:0.4;fill:#92E3A9;" d="M129.92,339.7c-2.63-1.32-0.52-3.95-2.37-6.14c-1.85-2.18-6.07,11.95-7.05,12.01
				c-0.99,0.07-3.76-7.19-4.88-7.91c-1.13-0.73-1.78,2.31-3.37,7.91c-1.58,5.61-7.38,8.38-10.77,12.46
				c-3.38,4.09-23.78,25.72-28.79,33.89c-4.93,8.05-35.95,24.34-38.35,26.06c14.68-12.41,35.09-29.98,40.73-36.61
				c9.09-10.68,21.75-23.34,21.75-23.34c-0.77-14.83,0.8-28.88-0.59-34.22c-0.72-2.79-2.01-18.66-2.97-23.54
				c-2.43-12.47-13-25.39-14.19-30.48c-1.18-5.09-15.17-26.82-8.36-30.83c1.42-0.84,2.81-1.1,4.16-0.91
				c-1.55,1.1-3.06,2.68-1.65,4.97c2.51,4.06,5.27,8.33,5.27,12.82c0,4.48,7.65,10.81,10.62,14.96c2.97,4.16,0.2,2.71,2.18,8.45
				c1.97,5.75,4.35,4.54,5.53,10.34c1.19,5.81,7.78,9.5,6.73,16.73c-1.06,7.23,3.16,17.29,3.16,17.29s3.43-9.75,2.18-15.03
				c-1.25-5.27,0.2-11.87-0.96-13.65c-1.04-1.6-3.74-12.46-5.02-19.21c4.12,6.53,8.16,13.87,8.16,13.87
				c1.58-6.33-9.89-28.88-13.06-50.24c-3.16-21.36-12.26-32.83,0-34.15c1.08-0.12,2.09-0.02,3.04,0.26
				c5.23,9.77,1.59,17.04,0.43,21.24c-1.27,4.62,6.29,16.48,7.41,24.65c1.04,7.63,3.06,6.84,3.33,6.7c-0.23,0.21-2.18,2.2-1.02,7.86
				c1.23,6.02,10.02,20.25,10.02,24.23c0,3.97-0.72,10.53-0.72,12.47c0,1.96,7.05,14.92,7.84,18.32c0.79,3.4-0.33-6.55,1.58-9.97
				c1.92-3.43,2.92-15.49,3.17-14.84C136.32,304.59,132.56,341.02,129.92,339.7z"/>
			<path style="opacity:0.4;fill:#92E3A9;" d="M135.59,250.34c-2.24,3.39-2.18,29.85-6.03,29.94c-1.85,0.04-2.75-6.65-3.5-15
				c1.99,5.8,3.6,10.47,3.6,10.47c0.39-10.88-2.97-20.97-3.56-30.86c-0.24-3.95,1.02-19.78-0.56-35.6
				c-1.34-13.35-0.73-18.76,4.49-19.81c1.1,3.56,3.8,7.76,4.49,11.66c0.94,5.38-0.9,9.83-2.48,10.5c-1.59,0.68-1.85,4.14,0.13,4.65
				c1.97,0.51-0.05,25.76,0.92,29.04C134.05,248.6,137.84,246.95,135.59,250.34z"/>
			<path style="opacity:0.4;fill:#92E3A9;" d="M156.14,220.72c-4.11,1.81-4.33,5.05-5.56,9.7c-1.23,4.65,1.76,11.44,0,22.11
				c-1.76,10.67,4.66,17.55,0,29.49s-2.47-9.96-3.25-20c-0.32-4.11-0.2-9.57,0.06-14.62c0.57,5.77,1.06,10.15,1.06,10.15
				s1.58-13.25,0.4-41.83c-0.27-6.26,0.14-10.74,2.6-12.55C155.67,206.96,159.64,219.18,156.14,220.72z"/>
		</g>
		<g>
			<path style="fill:none;stroke:#263238;stroke-linecap:round;stroke-linejoin:round;stroke-miterlimit:10;" d="M100.385,452.582
				c0,0,40.747-50.242,50.242-56.967c9.494-6.725,18.953-9.885,24.312-17.008s24.743-24.134,26.326-26.904
				c1.582-2.769,7.516-21.363,13.846-32.044c6.33-10.681,17.096-24.948,17.407-26.901c1.385-8.703-20.769-9.099-30.066,11.077
				c0,0-13.648,20.176-15.626,20.571c-1.978,0.396-4.9-0.793-4.9-0.793s-5.188-18.349-6.374-33.305
				c-1.187-14.957-7.516-33.945-7.516-45.022s-2.572-40.383-10.484-42.528c-7.912-2.144-9.105,3.279-8.703,12.958
				c1.187,28.581-0.396,41.834-0.396,41.834s-2.769-24.829-2.769-34.22c0-9.391-3.211-33.436-12.264-34.012
				c-8.308-0.529-9.464,4.144-7.881,19.968c1.582,15.824,0.326,31.655,0.562,35.604c0.593,9.89,3.956,19.978,3.56,30.857
				c0,0-10.289-29.785-11.077-32.44c-5.727-19.31-9.706-39.275-20.571-38.108c-12.264,1.317-3.165,12.789,0,34.152
				c3.165,21.363,14.637,43.912,13.055,50.242c0,0-9.49-17.235-14.22-22.389c-5.955-6.49-15.054-34.776-26.131-28.248
				c-6.817,4.017,7.173,25.741,8.359,30.831s11.756,18.016,14.19,30.488c0.952,4.879,2.243,20.746,2.967,23.539
				c1.385,5.341-0.181,19.385,0.593,34.22c0,0-12.659,12.659-21.758,23.341S18.494,431.22,18.494,431.22"/>
			<path style="fill:none;stroke:#263238;stroke-linecap:round;stroke-linejoin:round;stroke-miterlimit:10;" d="M181.924,323.613
				c0,0,3.012,6.134,0,14.046"/>
			<path style="fill:none;stroke:#263238;stroke-linecap:round;stroke-linejoin:round;stroke-miterlimit:10;" d="M185.253,324.452
				c0,0,3.945,2.724,2.362,7.471"/>
			<path style="fill:none;stroke:#263238;stroke-linecap:round;stroke-linejoin:round;stroke-miterlimit:10;" d="M148.451,257.549
				c0,0,3.165,22.352,1.78,26.505"/>
			<path style="fill:none;stroke:#263238;stroke-linecap:round;stroke-linejoin:round;stroke-miterlimit:10;" d="M129.659,275.747
				c0,0,0.593,3.363,0,6.527"/>
			<path style="fill:none;stroke:#263238;stroke-linecap:round;stroke-linejoin:round;stroke-miterlimit:10;" d="M111.066,289.593
				c0,0,0.593,3.363,0,4.154"/>
			<path style="fill:none;stroke:#263238;stroke-linecap:round;stroke-linejoin:round;stroke-miterlimit:10;" d="M211.352,308.582
				c0,0,3.577,1.937,4.747,4.747"/>
			<path style="fill:none;stroke:#263238;stroke-linecap:round;stroke-linejoin:round;stroke-miterlimit:10;" d="M129.791,215.716
				c0,0,3.626,1.077,6.593-1.787"/>
			<path style="fill:none;stroke:#263238;stroke-linecap:round;stroke-linejoin:round;stroke-miterlimit:10;" d="M131.044,247.857
				c0,0,7.121,2.374,9.692,0"/>
			<path style="fill:none;stroke:#263238;stroke-linecap:round;stroke-linejoin:round;stroke-miterlimit:10;" d="M154.187,254.78
				c0,0,4.747-1.78,7.912-0.791"/>
			<path style="fill:none;stroke:#263238;stroke-linecap:round;stroke-linejoin:round;stroke-miterlimit:10;" d="M108.89,261.11
				c0,0,3.758-4.945,6.725-3.56"/>
			<path style="fill:none;stroke:#263238;stroke-linecap:round;stroke-linejoin:round;stroke-miterlimit:10;" d="M93.462,275.747
				c0,0-3.363,1.582-4.352,3.264"/>
			<path style="fill:none;stroke:#263238;stroke-linecap:round;stroke-linejoin:round;stroke-miterlimit:10;" d="M96.824,358.033
				c0,0,1.582-1.78,2.176-2.967s-0.198-13.846,0-21.956"/>
			<path style="fill:none;stroke:#263238;stroke-linecap:round;stroke-linejoin:round;stroke-miterlimit:10;" d="M138.325,407.845
				c-4.666,5.216-18.951,14.672-24.687,20.408"/>
			<path style="fill:none;stroke:#263238;stroke-linecap:round;stroke-linejoin:round;stroke-miterlimit:10;" d="M157.154,289.593
				c-2.374,6.725,0.198,15.231,0,18.989c-0.198,3.758-1.012,20.967-1.012,20.967"/>
			<path style="fill:none;stroke:#263238;stroke-linecap:round;stroke-linejoin:round;stroke-miterlimit:10;" d="M135.593,289.593
				c-3.165,5.341-2.176,12.461-1.187,16.022c0.989,3.56,0.111,17.998,0.111,17.998"/>
			<path style="fill:none;stroke:#263238;stroke-linecap:round;stroke-linejoin:round;stroke-miterlimit:10;" d="M101.571,306.603
				c-0.593,5.342,1.978,10.089,1.978,10.089"/>
			<path style="fill:none;stroke:#263238;stroke-linecap:round;stroke-linejoin:round;stroke-miterlimit:10;" d="M121.154,296.121
				c-1.78,6.527,0.594,9.493,0.791,10.482"/>
		</g>
	</g>
</g>
<g id="Right_hand">
	<path style="opacity:0.3;fill-opacity:0.7;" d="M281.818,252.983l-3.368-19.559c-0.632-3.668,1.92-7.123,5.611-7.598l7.548-0.973
		c0,0-2.517-5.114,5.591-20.033c8.108-14.919,47.097-54.445,76.657,11.999c29.561,66.444,56.572,201.831,56.572,201.831
		s-79.789-92.887-82.326-97.648c-2.537-4.761-26.832-1.917-32.44-14.685c-5.608-12.768-17.388-49.205-17.388-49.205l-9.127,1.243
		C285.657,258.831,282.416,256.456,281.818,252.983z"/>
	<g>
		<g>
			<g>
				<defs>
					<path id="XMLID_541_" d="M352.14,208.12l-15.31,2.78l-21.28,3.87l-27.87,5.07c-2.25,0.41-4.4-1.08-4.81-3.33l-6.12-33.65
						c-0.4-2.25,1.09-4.4,3.33-4.81l16.21-2.95l23.58-4.28l24.67-4.49c2.25-0.41,4.4,1.08,4.81,3.33l6.12,33.65
						C355.88,205.56,354.39,207.71,352.14,208.12z"/>
				</defs>
				<use xlink:href="#XMLID_541_"  style="overflow:visible;fill:#92E3A9;"/>
				<clipPath id="XMLID_00000098936380775685212530000018055386173753526657_">
					<use xlink:href="#XMLID_541_"  style="overflow:visible;"/>
				</clipPath>
				<path style="opacity:0.3;clip-path:url(#XMLID_00000098936380775685212530000018055386173753526657_);fill-opacity:0.7;" d="
					M341.31,185.78l-4.48,25.12l-21.28,3.87c-6.16-2.71-16.32-7.43-18.35-9.95c-2.42-2.99-2.08-20.68-0.91-29.72l23.58-4.28
					C328.18,176.5,341.31,185.78,341.31,185.78z"/>
				<path style="opacity:0.3;clip-path:url(#XMLID_00000098936380775685212530000018055386173753526657_);fill-opacity:0.7;" d="
					M291.91,219.07l-4.23,0.77c-2.25,0.41-4.4-1.08-4.81-3.33l-6.12-33.65c-0.4-2.25,1.09-4.4,3.33-4.81l4.22-0.77
					c-2.24,0.42-3.73,2.56-3.32,4.81l6.12,33.65C287.51,217.99,289.66,219.48,291.91,219.07z"/>
				
					<use xlink:href="#XMLID_541_"  style="overflow:visible;fill:none;stroke:#263238;stroke-linecap:round;stroke-linejoin:round;stroke-miterlimit:10;"/>
			</g>
			<path style="fill:none;stroke:#263238;stroke-linecap:round;stroke-linejoin:round;stroke-miterlimit:10;" d="M356.367,207.352
				l-64.461,11.719c-2.247,0.409-4.4-1.082-4.809-3.329l-6.118-33.651c-0.409-2.247,1.082-4.4,3.329-4.809l64.461-11.719
				c2.247-0.408,4.4,1.082,4.809,3.329l6.118,33.651C360.105,204.791,358.614,206.943,356.367,207.352z"/>
			<path style="fill:none;stroke:#263238;stroke-linecap:round;stroke-linejoin:round;stroke-miterlimit:10;" d="M352.544,205.62
				l-60.493,10.998c-1.089,0.198-2.132-0.524-2.33-1.613l-6.026-33.147c-0.198-1.089,0.524-2.132,1.613-2.33l60.493-10.998
				c1.089-0.198,2.132,0.524,2.33,1.613l6.026,33.147C354.356,204.379,353.633,205.422,352.544,205.62z"/>
			<path style="fill:none;stroke:#263238;stroke-linecap:round;stroke-linejoin:round;stroke-miterlimit:10;" d="M356.37,207.35
				l-4.2,0.76c2.23-0.42,3.71-2.56,3.3-4.8l-6.12-33.65c-0.41-2.25-2.56-3.74-4.81-3.33l4.23-0.77c2.25-0.4,4.4,1.09,4.81,3.33
				l6.12,33.65C360.1,204.79,358.61,206.94,356.37,207.35z"/>
		</g>
		<g>
			<path style="fill:#FFFFFF;" d="M478.03,315.14l-41.44,111.08c0,0-17.32-32.96-33.32-63.54c-12.78-24.42-24.72-47.32-26.33-50.69
				c-3.61-7.59-15.9-23.49-15.9-23.49s-12.65-7.24-18.44-19.85c-5.78-12.62-12.16-57.72-12.16-57.72s-16.63-6.26-20.6-9.02
				c-3.98-2.75-7.59-28.06-7.59-30.95s3.97-8.68,3.97-8.68s-0.89-4.24,4.19-8.52c1.35-1.14,3.13-2.29,5.47-3.35
				c0.03-0.02,0.07-0.03,0.1-0.05c0,0-0.66-9.57,4.32-12.36c0.23-0.13,0.48-0.25,0.74-0.35c4.44-1.71,18.98-3.92,18.98-3.92
				s3.44-3.09,7.05-4.07c2.58-0.71,16.74,2.58,24.65,4.53c3.18,0.78,5.35,1.34,5.35,1.34s13.38,0.61,15.91,2.12
				c2.03,1.21,4.07,3.31,4.8,4.09c0,0.01,0.01,0.01,0.01,0.01c0.15,0.18,0.25,0.29,0.25,0.29s11.93,2.48,14.46,6.85
				c2.53,4.36,3.61,26.05,1.81,40.14c-1.81,14.1,1.43,38,1.43,38s3.73,18.47,6.62,25.48C425.25,259.52,478.03,315.14,478.03,315.14z
				"/>
			<path style="opacity:0.4;fill:#92E3A9;" d="M403.27,362.68c-12.78-24.42-24.72-47.32-26.33-50.69
				c-3.61-7.59-15.9-23.49-15.9-23.49s-12.65-7.24-18.44-19.85c-5.78-12.62-12.16-57.72-12.16-57.72s-16.63-6.26-20.6-9.02
				c-3.98-2.75-7.59-28.06-7.59-30.95s3.97-8.68,3.97-8.68s-0.89-4.24,4.19-8.52c0.01,1.14,0.02,3.06-0.04,6.08
				c-0.12,5.73,6.63,40.28,8.3,39.23c1.67-1.06,4.25-3.58,3.57-5.81c0,0-3.27-13.41-6.36-42.85c0.03-0.02,0.07-0.03,0.1-0.05
				c0,0-0.66-9.57,4.32-12.36c-0.89,2.41-1.59,4.82-1.63,6.49c-0.11,4.66,5.43,44.59,7.6,45.6c2.18,1,7.67-4.31,7.67-4.31
				s-1.88-11.33-1.21-16.16c0,0,16.73,10.2,17.23,21.78c0.05,1.27,3.26,19.42,3.26,19.42s-14.39,27.4,0.3,52.4
				c0,0-7.47-4.48-9.25-11.6c0,0-2.17,20.94,13.26,32.03c0,0,11.07-10.87,21.95-12.25c0,0,0.2,0.72-7.12,6.49
				c-7.32,5.77-8.31,8.34-8.31,8.34s7.92-7.98,14.25-8.34c0,0-6.53,7.55-6.33,9.13c0.19,1.58,18.67,33.16,25.39,55.19
				C400.18,351.45,402.05,358.09,403.27,362.68z"/>
			<path style="opacity:0.4;fill:#92E3A9;" d="M351.408,153.103c0,0,5.328,3.95,6.911,0c1.582-3.95,1.715-6.719,1.715-6.719
				s2.044-0.946,4.022,3.978c1.978,4.924,21.504,6.194,26.082,8.724c4.577,2.529,6.403,0,6.403,0s3.716,2.839,1.499,7.431
				c-2.217,4.592,4.075,4.988,6.507,1.626c2.432-3.363,0.553,9.666-5.48,10.965c0,0,0.178,5.701-3.702,9.615h3.286
				c0,0-8.758,6.944-11.094,7.325c-2.337,0.381,8.677,4.274,6.632,5.096c-2.045,0.823-7.822,0.746-7.822,0.746
				s3.743,2.588,3.771,4.299c0.028,1.711-1.768,2.998-2.581,1.575c-0.813-1.423-7.267-21.914-10.483-29.482
				C373.857,170.714,360.519,164.767,351.408,153.103z"/>
			<path style="opacity:0.4;fill:#92E3A9;" d="M397.78,141.74c-11.22-3.07-26.27-7.44-26.27-7.44s0.07-0.04,0.21-0.11
				c3.18,0.78,5.35,1.34,5.35,1.34s13.38,0.61,15.91,2.12C395.01,138.86,397.05,140.96,397.78,141.74z"/>
			<path style="fill:#92E3A9;" d="M381.953,159.393c-9.76-1.988-16.738,6.336-16.738,6.336s9.708,8.779,11.858,12.554
				c2.157,3.788,5.716,16.473,5.716,16.473c4.089,0.661,11.636-3.553,13.443-14.759
				C398.039,168.791,391.713,161.381,381.953,159.393z"/>
			<g>
				<path style="fill:none;stroke:#263238;stroke-linecap:round;stroke-linejoin:round;stroke-miterlimit:10;" d="M436.588,426.218
					c0,0-56.03-106.638-59.645-114.229c-3.615-7.591-15.905-23.494-15.905-23.494s-12.652-7.233-18.436-19.848
					c-5.784-12.615-12.16-57.722-12.16-57.722s-16.628-6.256-20.605-9.013c-3.976-2.757-7.591-28.061-7.591-30.953
					c0-2.892,3.976-8.676,3.976-8.676s-1.446-6.855,9.76-11.923c0,0-0.723-10.49,5.061-12.716
					c4.441-1.709,18.978-3.919,18.978-3.919s3.434-3.083,7.049-4.072c3.615-0.989,30.003,5.879,30.003,5.879
					s13.375,0.608,15.905,2.111c2.53,1.503,5.061,4.396,5.061,4.396s11.929,2.482,14.459,6.844
					c2.53,4.362,3.615,26.051,1.807,40.149s1.433,37.999,1.433,37.999s3.728,18.462,6.62,25.477
					c2.892,7.014,55.668,62.629,55.668,62.629"/>
				<path style="fill:none;stroke:#263238;stroke-linecap:round;stroke-linejoin:round;stroke-miterlimit:10;" d="M389.183,209.458
					c0,0-2.53-0.542-5.784-12.471c-3.253-11.929-4.112-17.505-10.845-24.581c-4.782-5.026-15.725-13.164-21.147-19.303
					c-5.422-6.139-11.387-11.061-16.086-7.307c-3.746,2.993-6.182,10.799-2.892,22.814c4.227,15.439,17.527,22.787,17.527,22.787
					l3.259,19.426c0,0-14.148,28.336,1.807,55.086"/>
				<path style="fill:none;stroke:#263238;stroke-linecap:round;stroke-linejoin:round;stroke-miterlimit:10;" d="M365.215,165.729
					c0,0,6.978-8.324,16.738-6.336c9.76,1.988,16.086,9.399,14.279,20.605c-1.807,11.206-9.354,15.419-13.443,14.759"/>
				<path style="fill:none;stroke:#263238;stroke-linecap:round;stroke-linejoin:round;stroke-miterlimit:10;" d="M340.021,133.727
					c0,0-1.667,3.734-3.364,11.356"/>
				<path style="fill:none;stroke:#263238;stroke-linecap:round;stroke-linejoin:round;stroke-miterlimit:10;" d="M334.083,172.891
					c0,0,0.837,12.348,2.574,16.144c1.737,3.796,4.629,6.868,5.894,11.748c1.265,4.88,1.446,12.471,1.807,13.556
					c0.362,1.084,2.456,1.375,2.456,1.375c2.966,0.071,4.202-1.49,5.934-3.873"/>
				<path style="fill:none;stroke:#263238;stroke-linecap:round;stroke-linejoin:round;stroke-miterlimit:10;" d="M315.982,150.362
					c0,0,2.711,26.382,4.88,37.588c2.169,11.206,5.965,12.833,12.29,16.448c6.326,3.615,9.76,11.025,10.302,12.11
					c0.542,1.084,2.61,1.23,2.61,1.23c1.908,0.036,4.972-1.719,5.828-3.808"/>
				<path style="fill:none;stroke:#263238;stroke-linecap:round;stroke-linejoin:round;stroke-miterlimit:10;" d="M306.222,162.285
					c-0.681,1.044,5.113,27.834,8.133,35.606c3.02,7.772,3.368,9.032,11.354,11.203c7.986,2.172,14.056,5.857,16.221,4.568"/>
				<path style="fill:none;stroke:#263238;stroke-linecap:round;stroke-linejoin:round;stroke-miterlimit:10;" d="M361.71,147.464
					c0,0,4.152,9.941,1.407,16.474"/>
				<path style="fill:none;stroke:#263238;stroke-linecap:round;stroke-linejoin:round;stroke-miterlimit:10;" d="M377.073,135.535
					c0,0,10.664,4.339,20.966,6.507"/>
				<path style="fill:none;stroke:#263238;stroke-linecap:round;stroke-linejoin:round;stroke-miterlimit:10;" d="M404.546,169.876
					c0,0-3.18,5.818-8.006,7.066"/>
				<path style="fill:none;stroke:#263238;stroke-linecap:round;stroke-linejoin:round;stroke-miterlimit:10;" d="M396.54,163.547
					c0,0-1.143,2.964-2.352,3.833"/>
				<path style="fill:none;stroke:#263238;stroke-linecap:round;stroke-linejoin:round;stroke-miterlimit:10;" d="M400.543,187.408
					c0,0-7.233,5.475-14.177,6.894"/>
				<path style="fill:none;stroke:#263238;stroke-linecap:round;stroke-linejoin:round;stroke-miterlimit:10;" d="M383.399,196.987
					c0,0,2.961,3.796,10.789,4.157"/>
				<path style="fill:none;stroke:#263238;stroke-linecap:round;stroke-linejoin:round;stroke-miterlimit:10;" d="M360.034,180.407
					c0,0,7.078-6.792,11.119-5.856"/>
				<path style="fill:none;stroke:#263238;stroke-linecap:round;stroke-linejoin:round;stroke-miterlimit:10;" d="M373.857,181.791
					c0,0-5.355,4.031-6.337,3.993"/>
				<path style="fill:none;stroke:#263238;stroke-linecap:round;stroke-linejoin:round;stroke-miterlimit:10;" d="M318.67,202.956
					c0,0,1.78,0.332,3.165-1.812"/>
				<path style="fill:none;stroke:#263238;stroke-linecap:round;stroke-linejoin:round;stroke-miterlimit:10;" d="M325,193.264
					c0,0,4.297-2.666,7.112-3.178"/>
				<path style="fill:none;stroke:#263238;stroke-linecap:round;stroke-linejoin:round;stroke-miterlimit:10;" d="M362.883,283.461
					c0.886-0.791,9.194-7.516,14.337-9.89"/>
				<path style="fill:none;stroke:#263238;stroke-linecap:round;stroke-linejoin:round;stroke-miterlimit:10;" d="M373.659,280.283
					c-0.593-0.184-5.309,4.761-7.798,6.739"/>
				<path style="fill:none;stroke:#263238;stroke-linecap:round;stroke-linejoin:round;stroke-miterlimit:10;" d="M376.033,294.934
					c0,0,15.824,29.975,19.385,41.987"/>
				<path style="fill:none;stroke:#263238;stroke-linecap:round;stroke-linejoin:round;stroke-miterlimit:10;" d="M422.359,252.51
					c1.346,7.373,5.696,12.801,8.069,15.744"/>
			</g>
			<path style="opacity:0.4;fill:#FFFFFF;" d="M372.461,162.285c-2.305,1.413,0.121,6.056,1.396,8.43
				c1.275,2.374,7.011,6.132,8.198,9.692c1.187,3.56,8.703,3.462,10.978,0c2.275-3.462,2.002-10.371-4.239-15.626
				C382.552,159.525,375.725,160.283,372.461,162.285z"/>
		</g>
	</g>
</g>
<g id="Speech_bubble">
	<g>
		<path style="fill:none;stroke:#263238;stroke-linecap:round;stroke-linejoin:round;stroke-miterlimit:10;" d="M328.548,361.571
			c-24.877-4.234-48.477,12.5-52.712,37.377c-3.028,17.79,4.667,34.926,18.394,44.795"/>
		<path style="fill:none;stroke:#263238;stroke-linecap:round;stroke-linejoin:round;stroke-miterlimit:10;" d="M347.603,369.539
			c-4.161-3.004-8.878-5.339-14.021-6.82"/>
		<path style="fill:none;stroke:#263238;stroke-linecap:round;stroke-linejoin:round;stroke-miterlimit:10;" d="M343.014,446.578
			c11.717-6.499,20.488-18.059,22.911-32.296c2.561-15.047-2.549-29.627-12.493-39.737"/>
		<polyline style="fill:none;stroke:#263238;stroke-linecap:round;stroke-linejoin:round;stroke-miterlimit:10;" points="
			345.207,460.998 347.933,463.405 343.685,448.874 		"/>
		<path style="fill:none;stroke:#263238;stroke-linecap:round;stroke-linejoin:round;stroke-miterlimit:10;" d="M313.214,451.659
			c6.959,1.185,13.818,0.726,20.181-1.091l8.606,7.598"/>
		<path style="fill:none;stroke:#263238;stroke-linecap:round;stroke-linejoin:round;stroke-miterlimit:10;" d="M302.733,448.56
			c1.689,0.729,3.436,1.362,5.236,1.889"/>
		<g>
			<path style="fill:none;stroke:#263238;stroke-linecap:round;stroke-linejoin:round;stroke-miterlimit:10;" d="M324.488,384.393
				c12.521,2.131,20.943,14.009,18.812,26.53c-2.131,12.521-14.009,20.943-26.53,18.812c-12.521-2.131-20.943-14.009-18.812-26.53
				c1.658-9.743,9.218-17.004,18.39-18.742"/>
			<path style="fill:none;stroke:#263238;stroke-linecap:round;stroke-linejoin:round;stroke-miterlimit:10;" d="M316.354,432.178
				c-13.87-2.361-23.2-15.519-20.839-29.389"/>
			<path style="fill:none;stroke:#263238;stroke-linecap:round;stroke-linejoin:round;stroke-miterlimit:10;" d="M344.595,415.715
				c-3.202,8.902-11.099,15.227-20.292,16.565"/>
			<path style="fill:none;stroke:#263238;stroke-linecap:round;stroke-linejoin:round;stroke-miterlimit:10;" d="M297.472,396.431
				c4.69-10.23,15.811-16.459,27.432-14.481c13.87,2.361,23.2,15.519,20.839,29.389"/>
			
				<line style="fill:none;stroke:#263238;stroke-width:2;stroke-linecap:round;stroke-linejoin:round;stroke-miterlimit:10;" x1="335.917" y1="397.884" x2="336.208" y2="397.569"/>
			
				<line style="fill:none;stroke:#263238;stroke-width:2;stroke-linecap:round;stroke-linejoin:round;stroke-miterlimit:10;" x1="331.837" y1="402.281" x2="333.869" y2="400.09"/>
			
				<polyline style="fill:none;stroke:#263238;stroke-width:2;stroke-linecap:round;stroke-linejoin:round;stroke-miterlimit:10;" points="
				306.931,405.506 316.742,418.549 330.056,404.2 			"/>
		</g>
	</g>
</g>
</svg>
