<svg xml:space="preserve" viewBox="0 0 100 100" y="0" x="0" xmlns="http://www.w3.org/2000/svg" id="圖層_1" version="1.1" style="height: 100%; width: 100%; background: rgb(241, 242, 243);" width="200px" height="200px"><g class="ldl-scale" style="transform-origin: 50% 50%; transform: rotate(0deg) scale(0.8, 0.8);"><g class="ldl-ani"><g class="ldl-layer"><g class="ldl-ani" style="transform-origin: 50px 50px; transform: scale(0.91); animation: 1.11111s linear -0.740741s infinite normal forwards running breath-5c3f8df8-2707-4216-bdef-f002273a4308;"><circle stroke-miterlimit="10" stroke-width="8" stroke="#333" fill="#f5e6c8" r="38" cy="50" cx="50" style="fill: rgb(255, 255, 255); stroke: rgb(38, 142, 225);"></circle></g></g><g class="ldl-layer"><g class="ldl-ani"><g><g class="ldl-layer"><g class="ldl-ani" style="transform-origin: 50px 50px; transform: scale(0.91); animation: 1.11111s linear -0.925926s infinite normal forwards running breath-5c3f8df8-2707-4216-bdef-f002273a4308;"><path fill="#666" d="M54.9 28.4h-8.7c-1 0-1.8.8-1.8 1.8v7.6c0 1 .8 1.8 1.8 1.8h8.7c1 0 1.8-.8 1.8-1.8v-7.6c0-1-.8-1.8-1.8-1.8z" style="fill: rgb(38, 142, 225);"></path></g></g><g class="ldl-layer"><g class="ldl-ani" style="transform-origin: 50px 50px; transform: scale(0.91); animation: 1.11111s linear -1.11111s infinite normal forwards running breath-5c3f8df8-2707-4216-bdef-f002273a4308;"><path fill="#666" d="M56.7 63V45.4c0-1-.8-1.8-1.8-1.8H42.7c-1 0-1.8.8-1.8 1.8V50c0 1 .8 1.8 1.8 1.8h2.9V63h-2.9c-1 0-1.8.8-1.8 1.8v5.1c0 1 .8 1.8 1.8 1.8h16.8c1 0 1.8-.8 1.8-1.8v-5.1c0-1-.8-1.8-1.8-1.8h-2.8z" style="fill: rgb(38, 142, 225);"></path></g></g></g></g></g><metadata xmlns:d="https://loading.io/stock/"><d:name>information</d:name><d:tags>help,guide,indication,note,hint,tip,information,web application</d:tags><d:license>free</d:license><d:slug>cfs12s</d:slug></metadata></g></g></svg>