<?xml version="1.0" encoding="utf-8"?>
<!-- Generator: Adobe Illustrator 27.5.0, SVG Export Plug-In . SVG Version: 6.00 Build 0)  -->
<svg version="1.1" xmlns="http://www.w3.org/2000/svg" xmlns:xlink="http://www.w3.org/1999/xlink" x="0px" y="0px"
	 viewBox="0 0 500 500" style="enable-background:new 0 0 500 500;" xml:space="preserve">
<g id="Background_Simple">
	<g>
		<path style="fill:#92E3A9;" d="M478.76,275.56c-13.494,40.9-42.565,85.725-85.346,100.317
			c-64.641,22.054-70.416,75.07-187.736,74.707c-18.292-0.055-35.271-1.97-50.936-5.47c-8.421-1.88-16.465-4.23-24.12-7.001
			C61.123,413.043,23.07,353.422,17.64,289.712c-7.156-83.793,49.869-126.068,87.029-150.968
			C141.83,113.845,184.2,21.292,299.536,20.742c17.585-0.076,35.199,1.647,52.355,5.593c39.163,8.991,79.458,30.67,103.664,63.703
			c1.817,2.482,3.557,5.026,5.23,7.622C493.433,148.458,497.16,219.802,478.76,275.56z"/>
		<path style="opacity:0.7;fill:#FFFFFF;" d="M478.76,275.56c-13.494,40.9-42.565,85.725-85.346,100.317
			c-64.641,22.054-70.416,75.07-187.736,74.707c-18.292-0.055-35.271-1.97-50.936-5.47c-8.421-1.88-16.465-4.23-24.12-7.001
			C61.123,413.043,23.07,353.422,17.64,289.712c-7.156-83.793,49.869-126.068,87.029-150.968
			C141.83,113.845,184.2,21.292,299.536,20.742c17.585-0.076,35.199,1.647,52.355,5.593c39.163,8.991,79.458,30.67,103.664,63.703
			c1.817,2.482,3.557,5.026,5.23,7.622C493.433,148.458,497.16,219.802,478.76,275.56z"/>
	</g>
</g>
<g id="Pictures">
	<g>
		
			<rect x="40.333" y="201.441" style="fill:none;stroke:#263238;stroke-linecap:round;stroke-linejoin:round;stroke-miterlimit:10;" width="99.127" height="144.872"/>
		
			<rect x="45.804" y="209.437" style="fill:none;stroke:#263238;stroke-linecap:round;stroke-linejoin:round;stroke-miterlimit:10;" width="88.185" height="128.881"/>
		
			<rect x="67.289" y="240.837" style="fill:none;stroke:#263238;stroke-linecap:round;stroke-linejoin:round;stroke-miterlimit:10;" width="45.215" height="66.081"/>
	</g>
	<g>
		
			<rect x="369.5" y="201.441" style="fill:none;stroke:#263238;stroke-linecap:round;stroke-linejoin:round;stroke-miterlimit:10;" width="99.127" height="144.872"/>
		
			<rect x="374.971" y="209.437" style="fill:none;stroke:#263238;stroke-linecap:round;stroke-linejoin:round;stroke-miterlimit:10;" width="88.185" height="128.881"/>
		
			<rect x="396.456" y="240.837" style="fill:none;stroke:#263238;stroke-linecap:round;stroke-linejoin:round;stroke-miterlimit:10;" width="45.215" height="66.081"/>
	</g>
</g>
<g id="Screen">
	<g>
		<path style="fill:#263238;stroke:#263238;stroke-linecap:round;stroke-linejoin:round;stroke-miterlimit:10;" d="M423.933,53.255
			H85.68c-4.501,0-8.15,3.649-8.15,8.15v263.313c0,4.501,3.649,8.15,8.15,8.15h205.166l23.99,18.659l-3.628-18.659h112.726
			c4.501,0,8.15-3.649,8.15-8.15V61.405C432.084,56.904,428.435,53.255,423.933,53.255z"/>
		<path style="fill:#92E3A9;" d="M429.872,45.089H91.618c-4.501,0-8.15,3.649-8.15,8.15v263.313c0,4.501,3.649,8.15,8.15,8.15
			h205.166l23.99,18.659l-3.628-18.659h112.726c4.501,0,8.15-3.649,8.15-8.15V53.239C438.023,48.738,434.374,45.089,429.872,45.089z
			"/>
		<g>
			<path style="fill:#FFFFFF;" d="M176.3,173.558c0,0-9.096-15.16-22.957-16.027c-13.861-0.866-16.46,11.262-21.225,14.294
				c-4.765,3.032-8.663-2.599-14.727-0.433c-6.064,2.166-5.198,5.631-9.963,7.797c-4.765,2.166-8.23-3.465-12.995-1.299
				c-4.765,2.166-6.064,4.765-6.064,4.765h106.989c0,0-3.032-8.23-7.797-9.529S181.498,177.457,176.3,173.558z"/>
			<path style="fill:#FFFFFF;" d="M418.043,117.405c0,0-6.658-11.096-16.802-11.73c-10.145-0.634-12.047,8.243-15.534,10.462
				c-3.487,2.219-6.341-1.902-10.779-0.317c-4.438,1.585-3.804,4.121-7.292,5.706c-3.487,1.585-6.023-2.536-9.511-0.951
				c-3.487,1.585-4.438,3.487-4.438,3.487h78.305c0,0-2.219-6.023-5.707-6.975C422.799,116.137,421.848,120.258,418.043,117.405z"/>
			<path style="fill:#FFFFFF;" d="M387.459,75.315c0,0-12.291-20.485-31.02-21.656c-18.729-1.171-22.241,15.217-28.679,19.314
				c-6.438,4.097-11.706-3.512-19.9-0.585c-8.194,2.926-7.023,7.609-13.462,10.535c-6.438,2.926-11.12-4.682-17.559-1.756
				c-6.438,2.926-8.194,6.438-8.194,6.438h144.565c0,0-4.097-11.12-10.535-12.876C396.239,72.974,394.483,80.583,387.459,75.315z"/>
		</g>
		<g style="opacity:0.15;">
			<g>
				<path d="M120.59,285.541c-0.932-1.879-3.274-2.306-4.977-1.234c-1.739,1.095-2.489,3.513-2.654,5.448
					c-0.195,2.272,1.554,7.075,1.555,7.079c0.018,0.05,2.817-2.114,2.978-2.27C119.354,292.75,121.885,288.149,120.59,285.541z"/>
				<path d="M93.005,310.895c0.444-0.59,0.837-1.12,0.883-1.2c1.317-2.242,2.544-7.347,0.606-9.521
					c-1.396-1.566-3.767-1.36-5.126,0.124c-1.389,1.515-1.472,4.046-1.121,5.956c0.356,1.938,2.605,5.306,3.211,6.19
					c-0.432,0.435-0.869,0.865-1.3,1.301c-2.011,2.037-4.01,4.076-6.03,6.023c0.168,0.39,0.37,0.76,0.593,1.116
					c0.028-0.028,0.058-0.054,0.086-0.082c2.053-2.061,4.067-4.211,6.086-6.347c0.618-0.655,1.242-1.3,1.864-1.948
					c0.209,0.34,2.698,4.36,4.514,5.575c1.613,1.08,3.97,2.008,5.912,1.335c1.902-0.659,3.031-2.754,2.148-4.656
					c-1.226-2.641-6.399-3.541-8.98-3.222c-0.194,0.024-2.821,0.657-3.481,0.85c1.37-1.426,2.748-2.835,4.164-4.169
					c1.95-1.843,3.966-3.543,6.04-5.046c0.097,0.158,2.676,4.366,4.536,5.611c1.614,1.08,3.97,2.008,5.912,1.335
					c1.902-0.659,3.031-2.753,2.148-4.656c-1.226-2.641-6.399-3.541-8.98-3.222c-0.202,0.025-3.028,0.708-3.531,0.868
					c0.124-0.089,0.242-0.195,0.366-0.282c2.235-1.576,4.598-2.822,6.868-3.881c1.318-0.617,2.612-1.134,3.882-1.609
					c0.4,0.833,2.271,4.619,3.82,5.925c1.485,1.251,3.725,2.432,5.729,1.976c1.963-0.446,3.315-2.404,2.647-4.392
					c-0.929-2.76-5.972-4.223-8.572-4.189c-0.141,0.002-1.576,0.18-2.62,0.324c0.576-0.206,1.167-0.428,1.723-0.614
					c2.087-0.703,4.041-1.217,5.776-1.659c0.988-0.243,1.886-0.444,2.729-0.622c0.818,0.612,4.15,3.04,6.091,3.476
					c1.895,0.425,4.427,0.441,5.996-0.887c1.536-1.301,1.834-3.662,0.325-5.118c-2.096-2.022-7.246-0.996-9.538,0.232
					c-0.198,0.107-3.105,2.122-3.062,2.154c0,0,0.04,0.03,0.049,0.037c-0.815,0.155-1.686,0.332-2.634,0.543
					c-1.748,0.405-3.718,0.878-5.828,1.538c-2.111,0.654-4.385,1.424-6.708,2.45c-2.33,1.027-4.728,2.225-7.039,3.78
					c-0.026,0.017-0.051,0.039-0.077,0.057c0.535-0.664,1.968-2.573,2.061-2.732c1.317-2.242,2.544-7.348,0.606-9.522
					c-1.396-1.565-3.767-1.36-5.127,0.124c-1.388,1.516-1.472,4.046-1.121,5.956c0.396,2.154,3.111,6.05,3.328,6.359
					c-2.187,1.5-4.31,3.218-6.362,5.074C95.294,308.668,94.144,309.773,93.005,310.895z"/>
				<path d="M83.468,311.92v4.633c0,0.54,0.055,1.067,0.156,1.578C84.208,316.001,84.39,313.489,83.468,311.92z"/>
				<path d="M126.521,221.041c2.617-3.739,5.476-12.503,2.388-16.576c-2.224-2.934-6.401-2.905-8.988-0.498
					c-2.642,2.459-3.14,6.875-2.793,10.266c0.409,3.982,4.997,11.693,5.001,11.699C122.177,226.011,126.295,221.363,126.521,221.041
					z"/>
				<path d="M160.765,209.16c-4.277-2.799-12.823,0.656-16.373,3.524c-0.306,0.249-4.658,4.676-4.576,4.719
					c0,0,0.079,0.038,0.097,0.047c-1.353,0.535-2.798,1.125-4.363,1.8c-2.881,1.27-6.125,2.732-9.548,4.561
					c-3.425,1.819-7.096,3.892-10.765,6.424c-3.68,2.533-7.424,5.385-10.9,8.824c-0.039,0.039-0.075,0.085-0.114,0.124
					c0.705-1.322,2.55-5.082,2.659-5.387c1.537-4.297,1.98-13.504-2.073-16.618c-2.921-2.243-6.942-1.111-8.801,1.893
					c-1.898,3.069-1.213,7.46,0.018,10.638c1.388,3.585,7.348,9.415,7.824,9.876c-3.281,3.305-6.379,6.962-9.311,10.836
					c-1.679,2.213-3.3,4.494-4.897,6.802c0.572-1.162,1.075-2.205,1.131-2.359c1.536-4.298,1.979-13.505-2.074-16.618
					c-1.593-1.224-3.512-1.438-5.23-0.897v18.716c1.632,1.934,3.317,3.643,4.013,4.334c-0.604,0.892-1.216,1.775-1.815,2.669
					c-0.734,1.093-1.466,2.186-2.198,3.276v3.477c1.236-1.919,2.467-3.845,3.699-5.769c0.851-1.332,1.715-2.648,2.575-3.969
					c0.472,0.517,6.082,6.635,9.611,8.136c3.137,1.334,7.504,2.162,10.633,0.365c3.063-1.76,4.326-5.742,2.178-8.733
					c-2.98-4.153-12.196-4.012-16.542-2.616c-0.327,0.105-4.649,2.057-5.723,2.607c1.895-2.908,3.811-5.79,5.815-8.553
					c2.76-3.816,5.678-7.409,8.763-10.68c0.22,0.242,6.046,6.652,9.661,8.19c3.137,1.335,7.504,2.162,10.632,0.365
					c3.063-1.759,4.325-5.741,2.178-8.733c-2.979-4.153-12.196-4.011-16.541-2.615c-0.342,0.11-4.99,2.212-5.805,2.653
					c0.183-0.194,0.352-0.415,0.537-0.607c3.339-3.45,7.006-6.373,10.573-8.942c2.069-1.496,4.132-2.811,6.166-4.045
					c0.963,1.305,5.429,7.223,8.529,8.965c2.972,1.671,7.221,2.973,10.528,1.531c3.238-1.413,4.93-5.232,3.125-8.441
					c-2.505-4.455-11.683-5.326-16.154-4.417c-0.244,0.049-2.66,0.826-4.412,1.417c0.927-0.543,1.874-1.121,2.772-1.623
					c3.368-1.894,6.57-3.423,9.416-4.753c1.625-0.743,3.109-1.383,4.503-1.966c1.613,0.787,8.153,3.881,11.644,3.998
					c3.407,0.113,7.778-0.689,10.049-3.493C164.104,215.346,163.845,211.176,160.765,209.16z"/>
				<path d="M83.468,278.435v11.167c0.301,0.171,0.596,0.327,0.875,0.446c3.137,1.335,7.504,2.162,10.632,0.365
					c3.064-1.76,4.326-5.741,2.179-8.734C94.729,278.298,88.168,277.764,83.468,278.435z"/>
				<path d="M85.706,322.151c1.486,1.568,3.582,2.552,5.913,2.552h2.551C92.466,322.611,88.068,321.884,85.706,322.151z"/>
			</g>
			<g>
				<path d="M374.415,196.86c0.107-0.039-4.516-6.019-4.85-6.362c-3.878-3.978-13.708-9.387-19.281-6.62
					c-4.014,1.992-4.928,6.995-2.636,10.634c2.339,3.716,7.507,5.317,11.641,5.671C364.143,200.598,374.406,196.862,374.415,196.86z
					"/>
				<path d="M438.023,316.306v-4.077c-1.854-0.905-3.776-1.822-5.745-2.744c0.217-0.752,1.429-5.034,2.056-9.174
					c1.084-0.093,2.36-0.383,3.689-0.772v-12.962c-2.604-1.23-5.621-2.224-8.44-2.524c-0.421-0.347-0.869-0.655-1.348-0.918
					c-3.773-2.064-8.709-0.846-10.454,3.283c-2.421,5.73,3.578,15.212,7.786,18.838c0.248,0.214,3.201,2.234,5.085,3.479
					c-1.219-0.562-2.395-1.123-3.657-1.686c-2.487-1.132-5.002-2.188-7.704-3.336c-1.324-0.508-2.662-1.02-4.013-1.538
					c-1.328-0.542-2.8-0.946-4.212-1.43c-3.297-1.053-6.69-1.962-10.128-2.8c0.986-2.181,4.376-9.973,4.399-14.141
					c0.023-4.149-1.102-9.441-4.589-12.108c-3.416-2.612-8.48-2.158-10.83,1.66c-3.261,5.298,1.232,15.579,4.841,19.802
					c0.225,0.263,3.156,3.002,4.796,4.475c-2.07-0.488-4.135-0.985-6.246-1.41c-6.093-1.23-12.298-2.285-18.484-3.364
					c-1.895-0.329-3.779-0.681-5.667-1.025c0.359-0.773,4.589-9.948,4.615-14.616c0.023-4.149-1.101-9.441-4.59-12.109
					c-3.416-2.611-8.48-2.156-10.829,1.661c-3.262,5.298,1.231,15.579,4.841,19.801c0.272,0.318,4.495,4.252,5.618,5.2
					c-4.156-0.76-8.292-1.556-12.337-2.506c-5.583-1.304-10.988-2.891-16.111-4.817c0.168-0.36,4.626-9.916,4.652-14.698
					c0.023-4.149-1.101-9.441-4.59-12.108c-3.415-2.612-8.479-2.157-10.829,1.661c-3.262,5.298,1.232,15.579,4.842,19.801
					c0.284,0.332,4.83,4.562,5.708,5.27c-0.304-0.115-0.632-0.2-0.934-0.318c-5.444-2.127-10.45-4.868-15.011-7.666
					c-2.653-1.62-5.099-3.317-7.441-5.021c1.013-1.695,5.556-9.491,6.055-13.791c0.478-4.122-0.058-9.505-3.232-12.54
					c-3.108-2.971-8.193-3.075-10.947,0.461c-3.824,4.908-0.486,15.62,2.638,20.213c0.17,0.251,2.178,2.599,3.666,4.288
					c-1.046-0.785-2.14-1.576-3.126-2.349c-3.711-2.891-6.932-5.767-9.764-8.337c-1.599-1.475-3.014-2.84-4.325-4.132
					c0.125-2.181,0.524-10.979-0.987-14.953c-1.475-3.879-4.431-8.409-8.647-9.639c-4.128-1.205-8.687,1.046-9.503,5.452
					c-1.131,6.118,6.767,14.087,11.656,16.725c0.423,0.227,7.441,3.031,7.45,2.918c0,0,0.006-0.107,0.007-0.131
					c1.237,1.268,2.578,2.612,4.073,4.052c2.781,2.638,5.947,5.592,9.611,8.575c3.653,2.99,7.706,6.137,12.274,9.066
					c4.575,2.941,9.537,5.802,15.032,8.088c0.062,0.026,0.13,0.045,0.193,0.07c-1.815-0.169-6.905-0.473-7.299-0.452
					c-5.547,0.295-16.092,4.128-17.682,10.142c-1.144,4.334,2.016,8.317,6.264,8.99c4.338,0.688,8.946-2.146,11.935-5.022
					c3.372-3.245,7.115-12.676,7.409-13.428c5.254,2.129,10.816,3.888,16.544,5.358c3.274,0.844,6.598,1.592,9.939,2.3
					c-1.573-0.096-2.981-0.17-3.18-0.16c-5.548,0.296-16.093,4.129-17.682,10.143c-1.146,4.334,2.015,8.315,6.262,8.99
					c4.337,0.689,8.947-2.145,11.935-5.022c3.035-2.919,6.386-10.896,7.245-13.019c1.285,0.258,2.565,0.531,3.851,0.783
					c6.169,1.216,12.331,2.402,18.338,3.751c2.118,0.474,4.185,1.02,6.257,1.557c-1.398-0.084-2.576-0.143-2.757-0.134
					c-5.547,0.296-16.092,4.129-17.682,10.143c-1.146,4.333,2.016,8.316,6.262,8.99c4.338,0.688,8.947-2.145,11.936-5.023
					c2.896-2.785,6.056-10.12,7.088-12.638c2.104,0.614,4.213,1.226,6.224,1.917c1.363,0.503,2.71,0.891,4.05,1.473
					c1.34,0.547,2.665,1.089,3.979,1.625c2.491,1.125,5.068,2.272,7.47,3.431c1.677,0.794,3.26,1.581,4.858,2.37
					c-2.102-0.497-6.238-1.382-6.593-1.417c-5.527-0.549-16.531,1.643-19.014,7.348c-0.952,2.189-0.674,4.46,0.406,6.307h17.457
					c3.667-2.961,8.25-10.695,8.838-11.703C433.781,314.115,435.953,315.221,438.023,316.306z"/>
				<path d="M428.521,258.576c0.042,0.343,0.976,4.245,1.531,6.377c-1.458-1.549-2.905-3.102-4.431-4.621
					c-4.403-4.387-8.998-8.69-13.561-13.003c-1.399-1.321-2.777-2.653-4.161-3.982c0.726-0.446,9.315-5.764,11.912-9.645
					c2.308-3.447,4.29-8.482,2.851-12.632c-1.407-4.063-5.884-6.477-9.948-4.589c-5.643,2.62-7.567,13.673-6.885,19.186
					c0.051,0.415,1.403,6.027,1.817,7.437c-3.048-2.928-6.058-5.872-8.907-8.897c-3.937-4.166-7.57-8.473-10.781-12.906
					c0.338-0.206,9.328-5.718,11.988-9.691c2.308-3.449,4.29-8.483,2.852-12.633c-1.407-4.063-5.883-6.477-9.949-4.589
					c-5.643,2.62-7.566,13.673-6.885,19.187c0.054,0.432,1.512,6.469,1.854,7.544c-0.19-0.264-0.416-0.517-0.603-0.782
					c-3.368-4.775-6.03-9.824-8.292-14.673c-1.319-2.815-2.423-5.58-3.437-8.294c1.78-0.855,9.87-4.851,12.659-8.162
					c2.673-3.174,5.196-7.96,4.222-12.242c-0.953-4.194-5.137-7.084-9.384-5.655c-5.897,1.985-9.023,12.76-8.951,18.315
					c0.004,0.302,0.384,3.368,0.693,5.597c-0.44-1.232-0.915-2.494-1.312-3.683c-1.501-4.459-2.6-8.635-3.544-12.341
					c-0.519-2.111-0.948-4.03-1.329-5.832c1.309-1.749,6.495-8.867,7.427-13.015c0.908-4.048,0.943-9.459-1.895-12.811
					c-2.779-3.282-7.824-3.92-10.934-0.694c-4.319,4.478-2.129,15.482,0.495,20.379c0.228,0.423,4.534,6.634,4.603,6.544
					c0,0,0.064-0.085,0.08-0.105c0.332,1.741,0.709,3.601,1.161,5.627c0.865,3.734,1.876,7.945,3.286,12.453
					c1.397,4.51,3.042,9.37,5.235,14.332c2.193,4.978,4.755,10.101,8.076,15.039c0.037,0.056,0.084,0.109,0.121,0.165
					c-1.42-1.143-5.497-4.205-5.837-4.404c-4.79-2.813-15.7-5.435-20.345-1.295c-3.345,2.982-2.906,8.048,0.265,10.954
					c3.239,2.966,8.645,3.145,12.727,2.395c4.602-0.846,12.926-6.648,13.588-7.111c3.206,4.674,6.876,9.209,10.842,13.594
					c2.266,2.51,4.625,4.967,7.022,7.401c-1.26-0.949-2.393-1.788-2.564-1.887c-4.791-2.814-15.699-5.435-20.344-1.295
					c-3.346,2.982-2.906,8.048,0.265,10.953c3.238,2.967,8.645,3.146,12.725,2.396c4.141-0.762,11.338-5.565,13.225-6.862
					c0.929,0.924,1.848,1.857,2.78,2.777c4.475,4.417,8.96,8.805,13.226,13.245c1.505,1.564,2.929,3.159,4.359,4.749
					c-1.119-0.84-2.069-1.539-2.225-1.631c-4.791-2.813-15.699-5.435-20.343-1.296c-3.346,2.984-2.907,8.049,0.264,10.955
					c3.237,2.966,8.645,3.145,12.726,2.394c3.951-0.725,10.634-5.1,12.884-6.631c1.416,1.673,2.837,3.347,4.134,5.033
					c0.821,1.12,1.684,2.147,2.456,3.304v-5.012c-0.029-0.037-0.059-0.073-0.087-0.11c-2.169-2.699-4.497-5.327-6.902-7.923
					c1.211-0.763,4.247-2.728,6.989-4.925v-22.3c-0.869,0.038-1.752,0.234-2.617,0.635
					C429.763,242.008,427.839,253.063,428.521,258.576z"/>
				<path d="M204.822,323.287c-1.485-0.906-2.853-1.856-4.164-2.81c0.567-0.948,3.109-5.311,3.388-7.717
					c0.268-2.307-0.032-5.319-1.809-7.017c-1.739-1.662-4.585-1.72-6.125,0.258c-2.14,2.746-0.272,8.741,1.476,11.311
					c0.095,0.14,1.219,1.454,2.051,2.399c-0.585-0.439-1.197-0.882-1.749-1.314c-2.076-1.618-3.879-3.227-5.463-4.665
					c-0.895-0.825-1.687-1.589-2.42-2.312c0.07-1.22,0.293-6.143-0.552-8.367c-0.826-2.17-2.48-4.705-4.839-5.394
					c-2.31-0.674-4.861,0.586-5.317,3.051c-0.633,3.423,3.786,7.883,6.522,9.359c0.237,0.127,4.163,1.696,4.168,1.633
					c0,0,0.003-0.06,0.004-0.073c0.692,0.709,1.443,1.462,2.279,2.267c1.556,1.476,3.328,3.129,5.378,4.798
					c2.044,1.673,4.312,3.434,6.868,5.073c0.491,0.316,0.998,0.627,1.505,0.937h1.222
					C206.418,324.238,205.604,323.766,204.822,323.287z"/>
				<path d="M200.001,320.569c0.038-0.051-3.965-1.415-4.228-1.472c-3.037-0.661-9.295-0.15-11.042,2.861
					c-0.516,0.889-0.615,1.849-0.422,2.745h12.181C198.318,322.84,199.999,320.571,200.001,320.569z"/>
				<path d="M253.985,307.027c-0.783-0.739-1.554-1.485-2.328-2.228c0.406-0.249,5.212-3.225,6.666-5.397
					c1.292-1.929,2.4-4.746,1.595-7.068c-0.788-2.273-3.292-3.624-5.567-2.568c-3.157,1.466-4.234,7.651-3.852,10.736
					c0.029,0.232,0.785,3.372,1.017,4.161c-1.706-1.638-3.39-3.286-4.984-4.978c-2.203-2.331-4.236-4.742-6.033-7.221
					c0.189-0.115,5.22-3.199,6.708-5.423c1.292-1.93,2.4-4.747,1.596-7.069c-0.788-2.273-3.292-3.624-5.567-2.568
					c-3.158,1.466-4.234,7.651-3.853,10.736c0.03,0.242,0.846,3.62,1.037,4.222c-0.106-0.148-0.233-0.289-0.337-0.438
					c-1.885-2.672-3.374-5.497-4.64-8.211c-0.738-1.575-1.356-3.122-1.923-4.641c0.996-0.478,5.523-2.715,7.083-4.567
					c1.496-1.776,2.907-4.454,2.362-6.85c-0.533-2.347-2.874-3.964-5.251-3.164c-3.3,1.111-5.049,7.14-5.009,10.248
					c0.002,0.169,0.215,1.885,0.388,3.132c-0.246-0.689-0.512-1.396-0.734-2.061c-0.84-2.495-1.455-4.832-1.983-6.905
					c-0.29-1.181-0.531-2.255-0.744-3.263c0.732-0.978,3.634-4.962,4.156-7.283c0.508-2.265,0.528-5.293-1.06-7.168
					c-1.555-1.836-4.378-2.193-6.119-0.388c-2.417,2.505-1.191,8.663,0.277,11.403c0.127,0.236,2.537,3.712,2.576,3.661
					c0,0,0.036-0.047,0.045-0.059c0.186,0.974,0.397,2.015,0.65,3.149c0.484,2.09,1.05,4.445,1.839,6.968
					c0.782,2.524,1.702,5.243,2.93,8.02c1.227,2.785,2.66,5.652,4.519,8.415c0.02,0.031,0.047,0.061,0.068,0.092
					c-0.794-0.639-3.076-2.353-3.266-2.464c-2.68-1.574-8.785-3.041-11.384-0.725c-1.872,1.669-1.626,4.503,0.148,6.129
					c1.812,1.66,4.837,1.76,7.121,1.34c2.575-0.473,7.233-3.72,7.603-3.979c1.794,2.615,3.848,5.153,6.067,7.607
					c1.268,1.405,2.588,2.779,3.929,4.141c-0.705-0.531-1.339-1-1.435-1.056c-2.681-1.574-8.784-3.041-11.383-0.725
					c-1.872,1.669-1.626,4.504,0.148,6.129c1.812,1.661,4.837,1.76,7.121,1.341c2.317-0.426,6.344-3.114,7.4-3.839
					c0.52,0.517,1.034,1.039,1.556,1.554c2.504,2.472,5.014,4.927,7.401,7.411c0.842,0.875,1.639,1.768,2.439,2.658
					c-0.626-0.47-1.158-0.861-1.245-0.913c-2.681-1.574-8.785-3.041-11.383-0.725c-1.872,1.67-1.627,4.504,0.148,6.13
					c1.811,1.66,4.837,1.76,7.121,1.34c2.211-0.406,5.95-2.854,7.209-3.71c0.792,0.936,1.587,1.873,2.313,2.816
					c0.445,0.606,0.908,1.168,1.329,1.791h2.12c-0.2-0.28-0.398-0.557-0.599-0.84c-0.453-0.663-1.016-1.306-1.525-1.968
					c-1.214-1.51-2.517-2.981-3.862-4.433c1.133-0.713,5.121-3.303,6.418-5.242c1.291-1.93,2.4-4.746,1.595-7.068
					c-0.787-2.274-3.292-3.624-5.567-2.569c-3.157,1.466-4.234,7.652-3.853,10.737c0.023,0.192,0.546,2.375,0.856,3.568
					c-0.816-0.867-1.626-1.736-2.479-2.586C259.11,311.848,256.539,309.441,253.985,307.027z"/>
				<path d="M232.561,323.75c0.013-2.322-0.616-5.283-2.568-6.776c-1.911-1.461-4.745-1.207-6.059,0.929
					c-1.064,1.728-0.65,4.4,0.278,6.799h8.261C232.525,324.362,232.559,324.039,232.561,323.75z"/>
				<path d="M291.961,284.337c4.003,1.81,9.195,0.293,12.839-1.692c4.278-2.332,10.778-11.109,10.783-11.116
					c0.067-0.091-7.087-2.528-7.556-2.631c-5.428-1.18-16.612-0.268-19.733,5.113C286.047,277.888,288.043,282.565,291.961,284.337z
					"/>
				<path d="M281.913,318.977c-1.123-2.128-3.803-3.083-5.892-1.694c-1.939,1.289-2.634,4.523-2.632,7.42h8.601
					C282.592,322.834,282.807,320.671,281.913,318.977z"/>
				<path d="M224.457,280.645c2.716,0.233,8.459-1.857,8.464-1.859c0.06-0.022-2.527-3.368-2.714-3.56
					c-2.17-2.226-7.671-5.253-10.789-3.704c-2.246,1.115-2.757,3.914-1.475,5.95C219.252,279.552,222.144,280.447,224.457,280.645z"
					/>
				<path d="M247.655,320.661c-1.912-1.462-4.745-1.207-6.06,0.929c-0.526,0.854-0.683,1.943-0.604,3.113h8.947
					C249.587,323.124,248.884,321.601,247.655,320.661z"/>
				<path d="M216.47,319.572c0.013-2.322-0.616-5.283-2.569-6.775c-1.911-1.462-4.745-1.207-6.059,0.929
					c-1.801,2.925,0.622,8.558,2.628,10.977h4.693C215.812,322.987,216.462,320.934,216.47,319.572z"/>
			</g>
			<g>
				<path d="M84.632,109.125c0.745-1.22,1.525-2.344,2.308-3.421c0.779,0.465,4.363,2.554,6.34,2.784
					c1.895,0.22,4.37-0.027,5.765-1.486c1.366-1.429,1.413-3.766-0.212-5.032c-2.256-1.758-7.181-0.224-9.292,1.213
					c-0.115,0.078-1.195,1.001-1.971,1.685c0.361-0.481,0.725-0.984,1.08-1.437c1.329-1.706,2.651-3.187,3.833-4.489
					c0.678-0.735,1.306-1.386,1.899-1.988c1.003,0.058,5.047,0.241,6.874-0.454c1.783-0.678,3.866-2.037,4.431-3.975
					c0.554-1.898-0.481-3.994-2.507-4.369c-2.813-0.52-6.476,3.111-7.689,5.358c-0.104,0.195-1.393,3.421-1.341,3.425
					c0,0,0.049,0.003,0.06,0.003c-0.583,0.569-1.201,1.185-1.863,1.872c-1.213,1.279-2.571,2.734-3.942,4.418
					c-1.375,1.679-2.821,3.543-4.168,5.643c-0.259,0.403-0.515,0.82-0.77,1.237v1.004C83.85,110.435,84.238,109.767,84.632,109.125z
					"/>
				<path d="M86.865,105.164c0.042,0.031,1.162-3.258,1.209-3.473c0.543-2.495,0.123-7.637-2.35-9.072
					c-0.73-0.424-1.519-0.505-2.255-0.347v10.007C84.999,103.781,86.863,105.162,86.865,105.164z"/>
				<path d="M97.99,149.515c0.607-0.643,1.22-1.277,1.831-1.913c0.205,0.334,2.65,4.282,4.434,5.476
					c1.585,1.061,3.899,1.972,5.807,1.311c1.868-0.647,2.978-2.705,2.11-4.573c-1.204-2.594-6.286-3.479-8.82-3.165
					c-0.191,0.024-2.771,0.645-3.419,0.835c1.346-1.401,2.7-2.785,4.09-4.095c1.915-1.81,3.895-3.48,5.933-4.956
					c0.095,0.156,2.629,4.288,4.455,5.511c1.586,1.061,3.9,1.972,5.807,1.311c1.868-0.647,2.977-2.704,2.11-4.574
					c-1.204-2.594-6.286-3.478-8.82-3.165c-0.199,0.025-2.974,0.695-3.468,0.852c0.121-0.087,0.238-0.191,0.36-0.277
					c2.195-1.548,4.516-2.772,6.746-3.812c1.294-0.607,2.565-1.114,3.813-1.58c0.393,0.818,2.23,4.537,3.752,5.819
					c1.459,1.229,3.659,2.389,5.628,1.941c1.928-0.438,3.257-2.361,2.6-4.314c-0.913-2.711-5.866-4.148-8.42-4.115
					c-0.139,0.002-1.548,0.176-2.573,0.318c0.566-0.202,1.147-0.421,1.693-0.603c2.05-0.69,3.969-1.195,5.673-1.629
					c0.97-0.239,1.853-0.436,2.681-0.611c0.804,0.602,4.076,2.986,5.983,3.414c1.861,0.417,4.348,0.434,5.889-0.871
					c1.509-1.278,1.802-3.597,0.319-5.027c-2.058-1.986-7.117-0.979-9.368,0.228c-0.194,0.105-3.05,2.084-3.008,2.116
					c0,0,0.039,0.029,0.048,0.037c-0.8,0.152-1.655,0.326-2.587,0.534c-1.717,0.398-3.652,0.863-5.725,1.511
					c-2.073,0.642-4.307,1.398-6.589,2.407c-2.288,1.008-4.644,2.186-6.914,3.713c-0.026,0.017-0.05,0.038-0.076,0.056
					c0.525-0.653,1.933-2.527,2.024-2.683c1.293-2.202,2.499-7.217,0.595-9.353c-1.371-1.538-3.7-1.336-5.036,0.122
					c-1.364,1.489-1.446,3.974-1.101,5.851c0.389,2.116,3.056,5.942,3.269,6.246c-2.149,1.474-4.233,3.161-6.249,4.984
					c-1.154,1.042-2.284,2.126-3.402,3.228c0.436-0.579,0.822-1.1,0.868-1.179c1.293-2.202,2.498-7.217,0.595-9.352
					c-1.371-1.538-3.7-1.336-5.035,0.122c-1.364,1.489-1.446,3.974-1.101,5.85c0.35,1.904,2.558,5.212,3.154,6.08
					c-0.425,0.427-0.854,0.849-1.277,1.278c-2.031,2.057-4.048,4.119-6.089,6.08c-0.719,0.692-1.452,1.346-2.183,2.004
					c0.386-0.514,0.708-0.951,0.75-1.023c1.293-2.202,2.498-7.217,0.596-9.352c-1.372-1.538-3.7-1.337-5.036,0.121
					c-1.363,1.488-1.446,3.974-1.101,5.85c0.333,1.816,2.345,4.889,3.048,5.923c-0.769,0.651-1.539,1.304-2.314,1.901
					c-0.498,0.365-0.96,0.746-1.471,1.092v1.742c0.23-0.165,0.457-0.327,0.69-0.493c0.545-0.372,1.073-0.834,1.617-1.253
					c1.241-0.997,2.449-2.068,3.642-3.173c0.586,0.931,2.714,4.207,4.307,5.273c1.585,1.061,3.899,1.972,5.807,1.311
					c1.868-0.647,2.978-2.705,2.11-4.573c-1.205-2.594-6.286-3.479-8.821-3.165c-0.158,0.019-1.951,0.449-2.932,0.704
					c0.712-0.67,1.426-1.336,2.124-2.037C94.029,153.725,96.007,151.613,97.99,149.515z"/>
				<path d="M84.251,131.913c1.907,0.011,4.34-0.506,5.567-2.11c1.201-1.57,0.991-3.899-0.764-4.978
					c-1.42-0.874-3.615-0.534-5.586,0.228v6.787C83.748,131.884,84.014,131.912,84.251,131.913z"/>
				<path d="M88.172,172.459c1.748-0.922,2.533-3.125,1.392-4.841c-1.059-1.593-3.716-2.164-6.096-2.162v7.066
					C85.004,173.017,86.781,173.193,88.172,172.459z"/>
				<path d="M119.664,125.256c-0.191,2.231,1.526,6.95,1.527,6.954c0.018,0.049,2.767-2.076,2.925-2.23
					c1.829-1.783,4.315-6.302,3.043-8.864c-0.916-1.845-3.216-2.265-4.888-1.212C120.563,120.979,119.827,123.355,119.664,125.256z"
					/>
				<path d="M86.789,144.314c1.201-1.571,0.992-3.898-0.763-4.979c-0.702-0.432-1.597-0.561-2.558-0.496v7.35
					C84.765,145.902,86.017,145.324,86.789,144.314z"/>
				<path d="M87.684,118.694c1.908,0.011,4.34-0.506,5.566-2.11c1.201-1.57,0.992-3.898-0.763-4.978
					c-2.403-1.479-7.031,0.511-9.019,2.159v3.856C84.878,118.153,86.564,118.688,87.684,118.694z"/>
			</g>
		</g>
		<path style="fill:none;stroke:#263238;stroke-linecap:round;stroke-linejoin:round;stroke-miterlimit:10;" d="M429.872,45.089
			H91.618c-4.501,0-8.15,3.649-8.15,8.15v263.313c0,4.501,3.649,8.15,8.15,8.15h205.166l23.99,18.659l-3.628-18.659h112.726
			c4.501,0,8.15-3.649,8.15-8.15V53.239C438.023,48.738,434.374,45.089,429.872,45.089z"/>
		<path style="fill:#263238;" d="M357.755,103.05h-73.704c-6.283-7.92-15.978-13.014-26.845-13.014
			c-10.874,0-20.574,5.094-26.859,13.014h-73.708c-4.988,0-9.046,4.058-9.046,9.046v154.996c0,4.988,4.058,9.046,9.046,9.046
			h201.118c4.988,0,9.046-4.058,9.046-9.046V112.097C366.801,107.108,362.744,103.05,357.755,103.05z"/>
		<g>
			<path style="fill:#FFFFFF;stroke:#263238;stroke-linecap:round;stroke-linejoin:round;stroke-miterlimit:10;" d="M361.304,270.94
				H160.186c-4.72,0-8.546-3.826-8.546-8.546V107.398c0-4.72,3.826-8.546,8.546-8.546h201.118c4.72,0,8.546,3.826,8.546,8.546
				v154.996C369.85,267.114,366.024,270.94,361.304,270.94z"/>
			<g>
				<path style="fill:#FFFFFF;stroke:#263238;stroke-linecap:round;stroke-linejoin:round;stroke-miterlimit:10;" d="
					M294.523,119.624c0,10.771-5.04,20.378-12.918,26.545c-5.731,4.53-12.991,7.223-20.851,7.223
					c-7.878,0-15.137-2.693-20.869-7.223c-7.878-6.168-12.918-15.774-12.918-26.545c0-18.667,15.12-33.786,33.786-33.786
					C279.404,85.838,294.523,100.957,294.523,119.624z"/>
				<g>
					<path style="fill:#263238;stroke:#263238;stroke-linecap:round;stroke-linejoin:round;stroke-miterlimit:10;" d="
						M274.853,114.331c0-7.789-6.315-14.104-14.104-14.104c-7.789,0-14.104,6.314-14.104,14.104c0,7.789,6.314,14.104,14.104,14.104
						C268.538,128.435,274.853,122.12,274.853,114.331z"/>
					<path style="fill:#263238;stroke:#263238;stroke-linecap:round;stroke-linejoin:round;stroke-miterlimit:10;" d="
						M281.605,146.169c-5.731,4.53-12.991,7.223-20.851,7.223c-7.878,0-15.137-2.693-20.869-7.223
						c2.092-9.588,10.644-16.775,20.869-16.775C270.961,129.395,279.513,136.581,281.605,146.169z"/>
				</g>
			</g>
			
				<rect x="202.945" y="191.005" style="fill:none;stroke:#263238;stroke-linecap:round;stroke-linejoin:round;stroke-miterlimit:10;" width="115.601" height="18.179"/>
			
				<rect x="202.945" y="226.551" style="fill:none;stroke:#263238;stroke-linecap:round;stroke-linejoin:round;stroke-miterlimit:10;" width="115.601" height="18.179"/>
		</g>
	</g>
</g>
<g id="Text">
	<g>
		<g>
			<g>
				<path style="fill:#CCCCCC;" d="M242.091,204.609c-0.625,0-1.105-0.124-1.439-0.373c-0.334-0.248-0.562-0.599-0.682-1.05
					c-0.121-0.451-0.181-0.979-0.181-1.583v-5.725h1.151v5.778c0,0.37,0.025,0.707,0.075,1.012c0.05,0.306,0.158,0.547,0.325,0.725
					c0.167,0.177,0.417,0.266,0.752,0.266c0.341,0,0.593-0.089,0.757-0.266c0.163-0.178,0.27-0.419,0.32-0.725
					c0.049-0.305,0.075-0.643,0.075-1.012v-5.778h1.141v5.725c0,0.604-0.061,1.132-0.181,1.583c-0.121,0.451-0.347,0.802-0.677,1.05
					C243.194,204.485,242.716,204.609,242.091,204.609z"/>
				<path style="fill:#CCCCCC;" d="M247.687,204.609c-0.497,0-0.911-0.107-1.242-0.32c-0.331-0.213-0.581-0.508-0.751-0.885
					c-0.171-0.376-0.27-0.814-0.299-1.311l1.066-0.288c0.021,0.305,0.069,0.6,0.144,0.885c0.075,0.284,0.197,0.517,0.368,0.698
					c0.171,0.181,0.409,0.272,0.714,0.272c0.313,0,0.549-0.087,0.709-0.261c0.16-0.174,0.24-0.425,0.24-0.752
					c0-0.391-0.089-0.705-0.267-0.943c-0.178-0.238-0.402-0.478-0.671-0.72l-1.45-1.279c-0.285-0.249-0.494-0.521-0.629-0.815
					c-0.135-0.295-0.203-0.659-0.203-1.093c0-0.632,0.181-1.123,0.544-1.471c0.363-0.348,0.856-0.523,1.482-0.523
					c0.341,0,0.641,0.045,0.901,0.134c0.259,0.089,0.476,0.226,0.65,0.41c0.174,0.185,0.313,0.417,0.416,0.698
					c0.103,0.281,0.172,0.609,0.208,0.986l-1.024,0.277c-0.021-0.284-0.064-0.545-0.128-0.784c-0.064-0.238-0.176-0.43-0.336-0.576
					c-0.16-0.145-0.389-0.218-0.688-0.218s-0.531,0.08-0.698,0.239c-0.167,0.16-0.25,0.396-0.25,0.709
					c0,0.263,0.044,0.48,0.133,0.65c0.089,0.171,0.232,0.345,0.432,0.522l1.46,1.279c0.327,0.285,0.615,0.624,0.864,1.018
					c0.249,0.395,0.373,0.862,0.373,1.402c0,0.426-0.089,0.794-0.266,1.104c-0.178,0.309-0.421,0.545-0.73,0.709
					C248.449,204.527,248.092,204.609,247.687,204.609z"/>
				<path style="fill:#CCCCCC;" d="M250.693,204.513v-8.635h3.347v0.896h-2.143v2.857h1.738v0.853h-1.738v3.166h2.164v0.864H250.693
					z"/>
				<path style="fill:#CCCCCC;" d="M255.032,204.513v-8.635h1.738c0.576,0,1.052,0.077,1.428,0.229
					c0.377,0.153,0.656,0.398,0.837,0.736c0.181,0.338,0.271,0.78,0.271,1.327c0,0.334-0.035,0.638-0.106,0.912
					c-0.071,0.273-0.185,0.505-0.341,0.693c-0.157,0.188-0.363,0.325-0.618,0.41l1.226,4.328h-1.162l-1.13-4.051h-0.938v4.051
					H255.032z M256.236,199.598h0.458c0.341,0,0.618-0.042,0.832-0.128c0.213-0.085,0.37-0.231,0.469-0.437
					c0.1-0.206,0.149-0.494,0.149-0.864c0-0.505-0.092-0.869-0.277-1.093c-0.185-0.224-0.551-0.336-1.098-0.336h-0.533V199.598z"/>
				<path style="fill:#CCCCCC;" d="M260.564,204.513v-8.635h0.821l2.452,5.735v-5.735h1.002v8.635h-0.767l-2.484-5.895v5.895
					H260.564z"/>
				<path style="fill:#CCCCCC;" d="M265.724,204.513l1.833-8.635h1.162l1.844,8.635h-1.14l-0.394-2.175h-1.759l-0.416,2.175H265.724
					z M267.429,201.475h1.439l-0.725-3.891L267.429,201.475z"/>
				<path style="fill:#CCCCCC;" d="M271.416,204.513l0.16-8.635h1.183l1.524,7.004l1.535-7.004h1.173l0.16,8.635h-0.97l-0.096-6.268
					l-1.46,6.268h-0.682l-1.45-6.268l-0.096,6.268H271.416z"/>
				<path style="fill:#CCCCCC;" d="M278.473,204.513v-8.635h3.347v0.896h-2.143v2.857h1.738v0.853h-1.738v3.166h2.164v0.864H278.473
					z"/>
			</g>
			<g>
				<path style="fill:#CCCCCC;" d="M239.026,240.235V231.6h2.143c0.519,0,0.932,0.094,1.242,0.283
					c0.309,0.188,0.535,0.461,0.677,0.815c0.142,0.356,0.213,0.785,0.213,1.29c0,0.455-0.08,0.849-0.24,1.183
					c-0.16,0.334-0.396,0.592-0.709,0.773c-0.313,0.181-0.704,0.271-1.173,0.271h-0.949v4.019H239.026z M240.23,235.353h0.554
					c0.348,0,0.622-0.039,0.821-0.117c0.199-0.078,0.341-0.215,0.426-0.41c0.085-0.196,0.128-0.471,0.128-0.827
					c0-0.412-0.03-0.728-0.091-0.948c-0.061-0.22-0.186-0.373-0.379-0.459c-0.192-0.085-0.49-0.128-0.895-0.128h-0.565V235.353z"/>
				<path style="fill:#CCCCCC;" d="M243.269,240.235l1.834-8.635h1.162l1.844,8.635h-1.14l-0.394-2.175h-1.759l-0.416,2.175H243.269
					z M244.975,237.197h1.439l-0.725-3.891L244.975,237.197z"/>
				<path style="fill:#CCCCCC;" d="M251.018,240.331c-0.498,0-0.911-0.107-1.242-0.319c-0.331-0.213-0.581-0.508-0.751-0.885
					c-0.171-0.376-0.27-0.814-0.299-1.312l1.066-0.287c0.021,0.305,0.069,0.6,0.144,0.885c0.075,0.284,0.197,0.516,0.368,0.697
					c0.17,0.181,0.409,0.272,0.714,0.272c0.313,0,0.549-0.088,0.709-0.261c0.16-0.174,0.24-0.425,0.24-0.752
					c0-0.39-0.089-0.705-0.267-0.943c-0.178-0.239-0.402-0.478-0.671-0.72l-1.45-1.279c-0.285-0.249-0.494-0.521-0.629-0.815
					c-0.135-0.295-0.203-0.659-0.203-1.093c0-0.632,0.181-1.122,0.544-1.47c0.363-0.349,0.856-0.523,1.482-0.523
					c0.341,0,0.641,0.045,0.901,0.134c0.259,0.089,0.476,0.225,0.65,0.41c0.174,0.185,0.313,0.417,0.415,0.698
					c0.103,0.281,0.172,0.61,0.208,0.986l-1.024,0.277c-0.021-0.284-0.064-0.545-0.128-0.783c-0.064-0.238-0.176-0.43-0.336-0.576
					c-0.16-0.145-0.389-0.218-0.687-0.218c-0.299,0-0.531,0.08-0.698,0.239c-0.167,0.16-0.25,0.396-0.25,0.709
					c0,0.263,0.044,0.48,0.133,0.651c0.089,0.17,0.232,0.344,0.432,0.522l1.46,1.279c0.327,0.285,0.615,0.624,0.864,1.018
					c0.249,0.395,0.373,0.861,0.373,1.402c0,0.426-0.089,0.794-0.266,1.103c-0.178,0.309-0.421,0.545-0.73,0.709
					C251.781,240.249,251.424,240.331,251.018,240.331z"/>
				<path style="fill:#CCCCCC;" d="M256.06,240.331c-0.497,0-0.911-0.107-1.242-0.319c-0.33-0.213-0.581-0.508-0.751-0.885
					c-0.171-0.376-0.27-0.814-0.299-1.312l1.066-0.287c0.021,0.305,0.069,0.6,0.144,0.885c0.075,0.284,0.197,0.516,0.368,0.697
					c0.17,0.181,0.409,0.272,0.714,0.272c0.313,0,0.549-0.088,0.709-0.261c0.16-0.174,0.24-0.425,0.24-0.752
					c0-0.39-0.089-0.705-0.267-0.943c-0.178-0.239-0.402-0.478-0.671-0.72l-1.45-1.279c-0.285-0.249-0.494-0.521-0.629-0.815
					c-0.135-0.295-0.203-0.659-0.203-1.093c0-0.632,0.181-1.122,0.543-1.47c0.363-0.349,0.856-0.523,1.482-0.523
					c0.341,0,0.641,0.045,0.901,0.134c0.259,0.089,0.476,0.225,0.65,0.41c0.174,0.185,0.313,0.417,0.415,0.698
					c0.103,0.281,0.172,0.61,0.208,0.986l-1.024,0.277c-0.021-0.284-0.064-0.545-0.128-0.783c-0.064-0.238-0.176-0.43-0.336-0.576
					c-0.16-0.145-0.389-0.218-0.688-0.218c-0.299,0-0.531,0.08-0.698,0.239c-0.167,0.16-0.25,0.396-0.25,0.709
					c0,0.263,0.044,0.48,0.133,0.651c0.089,0.17,0.233,0.344,0.432,0.522l1.46,1.279c0.327,0.285,0.615,0.624,0.864,1.018
					c0.249,0.395,0.373,0.861,0.373,1.402c0,0.426-0.089,0.794-0.266,1.103c-0.178,0.309-0.421,0.545-0.73,0.709
					C256.823,240.249,256.466,240.331,256.06,240.331z"/>
				<path style="fill:#CCCCCC;" d="M260.186,240.235l-1.407-8.635h1.002l0.927,6.204l1.162-6.172h0.853l1.172,6.204l0.906-6.236
					h0.981l-1.386,8.635h-0.874l-1.205-6.396l-1.215,6.396H260.186z"/>
				<path style="fill:#CCCCCC;" d="M268.959,240.331c-0.583,0-1.048-0.114-1.397-0.341c-0.348-0.227-0.597-0.553-0.746-0.975
					c-0.149-0.423-0.224-0.919-0.224-1.487v-3.273c0-0.568,0.076-1.057,0.229-1.465c0.153-0.409,0.401-0.722,0.746-0.939
					c0.345-0.217,0.809-0.325,1.392-0.325c0.582,0,1.044,0.111,1.385,0.331c0.341,0.22,0.588,0.533,0.741,0.939
					c0.153,0.405,0.229,0.892,0.229,1.46v3.283c0,0.561-0.076,1.051-0.229,1.471c-0.153,0.419-0.399,0.744-0.741,0.975
					C270.004,240.215,269.542,240.331,268.959,240.331z M268.959,239.383c0.32,0,0.561-0.066,0.725-0.198
					c0.163-0.131,0.273-0.316,0.331-0.554c0.056-0.238,0.085-0.517,0.085-0.836v-3.784c0-0.32-0.029-0.595-0.085-0.827
					c-0.057-0.231-0.167-0.409-0.331-0.533c-0.164-0.124-0.405-0.187-0.725-0.187c-0.32,0-0.564,0.063-0.73,0.187
					c-0.167,0.124-0.279,0.302-0.336,0.533c-0.057,0.232-0.085,0.507-0.085,0.827v3.784c0,0.319,0.029,0.599,0.085,0.836
					c0.057,0.239,0.169,0.423,0.336,0.554C268.396,239.317,268.639,239.383,268.959,239.383z"/>
				<path style="fill:#CCCCCC;" d="M272.498,240.235V231.6h1.738c0.576,0,1.052,0.077,1.428,0.23
					c0.377,0.153,0.656,0.398,0.837,0.736c0.181,0.338,0.272,0.78,0.272,1.326c0,0.335-0.036,0.639-0.106,0.912
					c-0.071,0.273-0.185,0.505-0.341,0.693c-0.156,0.188-0.363,0.325-0.618,0.41l1.226,4.328h-1.162l-1.13-4.051h-0.938v4.051
					H272.498z M273.703,235.321h0.458c0.341,0,0.619-0.042,0.831-0.128c0.213-0.086,0.37-0.232,0.469-0.437
					c0.1-0.206,0.149-0.495,0.149-0.864c0-0.504-0.092-0.868-0.277-1.092c-0.185-0.224-0.551-0.336-1.098-0.336h-0.533V235.321z"/>
				<path style="fill:#CCCCCC;" d="M278.03,240.235V231.6h1.877c0.639,0,1.146,0.098,1.519,0.293
					c0.373,0.196,0.639,0.489,0.799,0.88c0.16,0.391,0.24,0.878,0.24,1.461v3.176c0,0.612-0.08,1.127-0.24,1.546
					c-0.16,0.42-0.419,0.737-0.778,0.954c-0.359,0.217-0.841,0.325-1.444,0.325H278.03z M279.235,239.371h0.682
					c0.441,0,0.753-0.085,0.938-0.255c0.185-0.171,0.297-0.42,0.336-0.747c0.039-0.326,0.059-0.721,0.059-1.183v-2.803
					c0-0.448-0.028-0.81-0.085-1.088c-0.057-0.277-0.181-0.48-0.373-0.607c-0.192-0.128-0.494-0.192-0.906-0.192h-0.651V239.371z"/>
			</g>
		</g>
		<g>
			<path style="fill:#263238;" d="M242.492,177.414v-13.988h1.952v12.589h3.574v1.399H242.492z"/>
			<path style="fill:#263238;" d="M252.819,177.569c-0.944,0-1.699-0.184-2.262-0.552c-0.564-0.368-0.967-0.895-1.209-1.58
				s-0.363-1.488-0.363-2.409v-5.302c0-0.921,0.124-1.712,0.371-2.374c0.247-0.662,0.651-1.169,1.209-1.52
				c0.558-0.351,1.31-0.527,2.254-0.527c0.943,0,1.692,0.179,2.244,0.535c0.552,0.357,0.953,0.864,1.2,1.52
				c0.247,0.656,0.371,1.445,0.371,2.366v5.318c0,0.91-0.124,1.704-0.371,2.383c-0.247,0.679-0.648,1.206-1.2,1.579
				C254.511,177.383,253.762,177.569,252.819,177.569z M252.819,176.033c0.517,0,0.909-0.106,1.173-0.32
				c0.266-0.213,0.444-0.512,0.535-0.898c0.093-0.385,0.139-0.837,0.139-1.355v-6.13c0-0.519-0.046-0.964-0.139-1.339
				c-0.091-0.374-0.27-0.662-0.535-0.864c-0.264-0.201-0.656-0.302-1.173-0.302c-0.518,0-0.913,0.101-1.183,0.302
				c-0.271,0.202-0.453,0.49-0.544,0.864c-0.093,0.374-0.138,0.82-0.138,1.339v6.13c0,0.518,0.045,0.97,0.138,1.355
				c0.091,0.386,0.273,0.685,0.544,0.898C251.905,175.926,252.3,176.033,252.819,176.033z"/>
			<path style="fill:#263238;" d="M261.886,177.587c-0.876,0-1.575-0.187-2.098-0.561c-0.524-0.374-0.904-0.918-1.14-1.632
				c-0.236-0.714-0.354-1.572-0.354-2.573v-4.68c0-1.025,0.105-1.896,0.319-2.617c0.214-0.719,0.593-1.269,1.14-1.649
				c0.547-0.379,1.31-0.57,2.288-0.57c0.876,0,1.581,0.147,2.116,0.44c0.535,0.294,0.923,0.743,1.165,1.347
				c0.242,0.604,0.362,1.367,0.362,2.288v0.519h-1.83v-0.432c0-0.61-0.041-1.107-0.121-1.494c-0.082-0.385-0.246-0.673-0.493-0.863
				c-0.247-0.19-0.635-0.285-1.165-0.285c-0.576,0-0.994,0.133-1.252,0.397c-0.259,0.265-0.42,0.625-0.483,1.079
				c-0.063,0.455-0.096,0.97-0.096,1.546v5.181c0,0.667,0.049,1.226,0.148,1.675c0.097,0.449,0.285,0.783,0.561,1.001
				c0.277,0.219,0.668,0.328,1.175,0.328c0.506,0,0.898-0.121,1.173-0.362c0.277-0.242,0.467-0.599,0.571-1.071
				c0.104-0.472,0.155-1.059,0.155-1.761v-0.967h-1.778v-1.381h3.54v6.925h-1.227l-0.19-1.606c-0.184,0.519-0.472,0.944-0.863,1.278
				C263.117,177.42,262.576,177.587,261.886,177.587z"/>
			<path style="fill:#263238;" d="M267.895,177.414v-13.988h1.917v13.988H267.895z"/>
			<path style="fill:#263238;" d="M272.073,177.414v-13.988h1.329l3.973,9.291v-9.291h1.623v13.988h-1.244l-4.023-9.55v9.55H272.073
				z"/>
		</g>
	</g>
</g>
<g id="Plant">
	<g>
		<g>
			<path style="fill:#263238;" d="M365.408,369.208c1.29,0.563,4.444,0.492,4.446,0.492c0.033-0.001-0.678-2.065-0.738-2.19
				c-0.692-1.448-2.88-3.838-4.661-3.598c-1.283,0.173-1.996,1.457-1.707,2.665C363.044,367.812,364.31,368.728,365.408,369.208z"/>
			<path style="fill:#263238;" d="M366.497,378.345c1.338,0.195,4.153-0.621,4.376-0.687c0.444,1.576,1.028,3.157,1.707,4.724
				c0.387,0.897,0.805,1.787,1.235,2.675c-0.257-0.376-0.489-0.711-0.527-0.754c-1.05-1.214-3.792-2.941-5.446-2.239
				c-1.192,0.506-1.541,1.932-0.943,3.021c0.611,1.112,2.074,1.662,3.26,1.834c1.204,0.176,3.617-0.472,4.254-0.652
				c0.169,0.339,0.333,0.679,0.503,1.017c0.815,1.623,1.635,3.239,2.392,4.849c0.267,0.567,0.509,1.136,0.753,1.703
				c-0.229-0.334-0.424-0.613-0.458-0.653c-1.05-1.213-3.792-2.941-5.446-2.239c-1.192,0.506-1.541,1.933-0.942,3.021
				c0.611,1.112,2.074,1.662,3.26,1.834c1.148,0.168,3.382-0.41,4.139-0.621c0.233,0.589,0.466,1.179,0.665,1.76
				c0.127,0.4,0.277,0.776,0.381,1.185c0.112,0.403,0.224,0.801,0.334,1.196c0.184,0.768,0.379,1.559,0.54,2.312
				c0.116,0.523,0.216,1.024,0.319,1.528c-0.259-0.568-0.789-1.668-0.844-1.755c-0.854-1.358-3.302-3.481-5.044-3.038
				c-1.254,0.32-1.816,1.677-1.389,2.844c0.435,1.191,1.798,1.956,2.944,2.307c1.262,0.386,4.056,0.033,4.405-0.013
				c0.168,0.835,0.322,1.648,0.456,2.418c0.3,1.699,0.526,3.223,0.697,4.512h1.178c-0.205-1.334-0.474-2.923-0.829-4.707
				c-0.167-0.848-0.361-1.751-0.57-2.677c0.21-0.083,1.402-0.565,2.458-1.155c0.92,0.996,3.276,2.162,3.582,2.31
				c-0.321,0.789-0.641,1.553-0.954,2.269c-0.652,1.5-1.271,2.83-1.817,3.961h1.274c0.47-1.043,0.986-2.231,1.525-3.547
				c0.329-0.799,0.665-1.661,1.001-2.548c0.338,0.071,3.104,0.632,4.393,0.341c1.169-0.264,2.585-0.926,3.108-2.081
				c0.512-1.131,0.054-2.527-1.174-2.939c-1.703-0.572-4.303,1.362-5.256,2.654c-0.056,0.076-0.574,0.971-0.891,1.54
				c0.135-0.363,0.271-0.715,0.406-1.09c0.272-0.741,0.522-1.488,0.793-2.292c0.118-0.392,0.236-0.789,0.356-1.189
				c0.127-0.395,0.211-0.828,0.32-1.245c0.232-0.973,0.419-1.97,0.586-2.978c0.649,0.236,2.968,1.043,4.169,0.958
				c1.196-0.084,2.695-0.523,3.387-1.586c0.678-1.041,0.436-2.49-0.714-3.083c-1.597-0.824-4.461,0.695-5.598,1.827
				c-0.071,0.07-0.796,0.974-1.184,1.479c0.095-0.607,0.193-1.212,0.27-1.829c0.221-1.782,0.389-3.592,0.566-5.397
				c0.053-0.553,0.114-1.104,0.172-1.655c0.23,0.087,2.965,1.105,4.31,1.01c1.195-0.084,2.695-0.523,3.387-1.586
				c0.678-1.041,0.436-2.49-0.715-3.083c-1.597-0.824-4.46,0.695-5.598,1.827c-0.086,0.085-1.127,1.388-1.375,1.732
				c0.128-1.214,0.267-2.422,0.453-3.608c0.253-1.636,0.593-3.228,1.036-4.746c0.107,0.041,2.957,1.116,4.334,1.019
				c1.196-0.084,2.696-0.523,3.388-1.586c0.678-1.041,0.436-2.489-0.715-3.083c-1.597-0.824-4.46,0.695-5.598,1.827
				c-0.089,0.089-1.208,1.49-1.393,1.759c0.027-0.09,0.044-0.186,0.072-0.276c0.493-1.614,1.174-3.116,1.88-4.491
				c0.409-0.8,0.844-1.541,1.284-2.253c0.51,0.255,2.855,1.393,4.104,1.443c1.198,0.048,2.737-0.224,3.541-1.205
				c0.788-0.96,0.707-2.427-0.371-3.143c-1.497-0.994-4.51,0.201-5.764,1.201c-0.068,0.054-0.701,0.684-1.155,1.149
				c0.203-0.318,0.407-0.651,0.608-0.951c0.752-1.132,1.51-2.122,2.188-2.994c0.39-0.492,0.752-0.93,1.095-1.336
				c0.631-0.011,3.174-0.088,4.285-0.61c1.085-0.51,2.325-1.46,2.588-2.701c0.257-1.215-0.491-2.48-1.778-2.618
				c-1.787-0.193-3.91,2.256-4.563,3.722c-0.056,0.127-0.711,2.209-0.678,2.209c0,0,0.031,0,0.038-0.001
				c-0.338,0.384-0.696,0.799-1.078,1.261c-0.699,0.859-1.481,1.835-2.26,2.955c-0.782,1.117-1.599,2.353-2.344,3.733
				c-0.747,1.382-1.463,2.874-2.001,4.506c-0.006,0.018-0.01,0.038-0.016,0.057c0.009-0.526-0.014-1.999-0.029-2.112
				c-0.206-1.591-1.54-4.545-3.307-4.872c-1.273-0.235-2.351,0.762-2.453,2c-0.103,1.264,0.813,2.53,1.707,3.328
				c1.008,0.901,3.806,1.773,4.029,1.841c-0.499,1.559-0.884,3.2-1.182,4.882c-0.172,0.962-0.314,1.935-0.445,2.913
				c-0.007-0.456-0.016-0.863-0.023-0.919c-0.206-1.591-1.54-4.545-3.307-4.872c-1.273-0.235-2.351,0.762-2.453,2
				c-0.104,1.264,0.813,2.53,1.707,3.328c0.907,0.81,3.278,1.602,3.908,1.803c-0.046,0.376-0.097,0.751-0.141,1.126
				c-0.216,1.803-0.423,3.604-0.68,5.364c-0.09,0.62-0.202,1.228-0.312,1.836c-0.006-0.404-0.015-0.745-0.022-0.796
				c-0.207-1.592-1.54-4.545-3.307-4.872c-1.273-0.235-2.352,0.762-2.453,2c-0.104,1.264,0.813,2.53,1.707,3.328
				c0.865,0.773,3.047,1.523,3.795,1.766c-0.131,0.619-0.261,1.24-0.416,1.835c-0.115,0.404-0.198,0.8-0.336,1.199
				c-0.128,0.397-0.255,0.791-0.381,1.181c-0.27,0.742-0.544,1.509-0.825,2.226c-0.192,0.5-0.385,0.974-0.577,1.451
				c0.097-0.616,0.262-1.827,0.264-1.929c0.025-1.066-0.354-2.799-1.107-4.017c0.005-0.157-0.004-0.314-0.029-0.47
				c-0.197-1.226-1.349-2.137-2.6-1.804c-1.736,0.462-2.838,3.51-2.92,5.113c-0.005,0.095,0.057,1.126,0.107,1.776
				c-0.088-0.378-0.168-0.745-0.263-1.133c-0.182-0.768-0.387-1.529-0.603-2.349c-0.118-0.392-0.239-0.788-0.36-1.188
				c-0.112-0.399-0.28-0.807-0.42-1.215c-0.344-0.939-0.737-1.874-1.155-2.807c0.672-0.161,3.051-0.767,4.006-1.5
				c0.951-0.729,1.959-1.923,1.95-3.192c-0.009-1.242-1.009-2.317-2.297-2.177c-1.786,0.194-3.337,3.04-3.661,4.611
				c-0.02,0.098-0.126,1.252-0.172,1.887c-0.255-0.559-0.507-1.118-0.784-1.675c-0.798-1.608-1.656-3.211-2.506-4.814
				c-0.26-0.491-0.514-0.983-0.77-1.475c0.24-0.055,3.083-0.715,4.153-1.535c0.951-0.729,1.959-1.923,1.95-3.192
				c-0.009-1.242-1.01-2.317-2.297-2.177c-1.787,0.194-3.337,3.04-3.661,4.611c-0.024,0.118-0.174,1.779-0.192,2.203
				c-0.563-1.083-1.113-2.168-1.613-3.259c-0.691-1.505-1.286-3.019-1.754-4.529c0.112-0.025,3.082-0.701,4.178-1.541
				c0.951-0.73,1.959-1.923,1.95-3.192c-0.009-1.242-1.01-2.317-2.297-2.177c-1.786,0.194-3.337,3.04-3.661,4.612
				c-0.026,0.124-0.186,1.91-0.192,2.236c-0.028-0.09-0.066-0.18-0.093-0.27c-0.479-1.619-0.74-3.247-0.909-4.783
				c-0.1-0.892-0.146-1.751-0.172-2.587c0.566-0.069,3.15-0.413,4.219-1.061c1.025-0.621,2.159-1.696,2.289-2.958
				c0.128-1.235-0.749-2.414-2.044-2.416c-1.797-0.004-3.651,2.655-4.145,4.181c-0.027,0.083-0.207,0.957-0.329,1.596
				c-0.006-0.378-0.019-0.767-0.018-1.129c0.003-1.359,0.088-2.603,0.173-3.704c0.053-0.626,0.114-1.191,0.177-1.719
				c0.52-0.358,2.598-1.825,3.237-2.873c0.624-1.023,1.134-2.5,0.668-3.68c-0.456-1.155-1.777-1.797-2.927-1.203
				c-1.596,0.825-2.016,4.039-1.753,5.622c0.023,0.137,0.626,2.235,0.653,2.217c0,0,0.025-0.018,0.031-0.022
				c-0.07,0.507-0.139,1.051-0.203,1.647c-0.109,1.102-0.223,2.347-0.255,3.712c-0.035,1.363-0.036,2.845,0.105,4.406
				c0.139,1.565,0.365,3.204,0.816,4.862c0.005,0.019,0.013,0.038,0.018,0.056c-0.283-0.444-1.115-1.659-1.19-1.746
				c-1.05-1.214-3.792-2.941-5.446-2.239c-1.192,0.506-1.541,1.933-0.942,3.022C363.848,377.622,365.311,378.172,366.497,378.345z"
				/>
			<path style="fill:#263238;" d="M397.312,369.902c0.028,0.017,0.574-2.096,0.593-2.233c0.221-1.589-0.286-4.79-1.904-5.572
				c-1.165-0.563-2.469,0.114-2.893,1.282c-0.434,1.192,0.116,2.655,0.767,3.661C394.64,368.22,397.31,369.9,397.312,369.902z"/>
		</g>
		<polygon style="fill:#263238;" points="390.822,408.194 377.437,408.194 378.775,439.155 389.484,439.155 		"/>
	</g>
</g>
<g id="Table">
	<g>
		
			<rect x="234.66" y="440.069" style="fill:#FFFFFF;stroke:#263238;stroke-linecap:round;stroke-linejoin:round;stroke-miterlimit:10;" width="173.219" height="33.564"/>
		
			<rect x="234.66" y="440.069" style="fill:#263238;stroke:#263238;stroke-linecap:round;stroke-linejoin:round;stroke-miterlimit:10;" width="173.219" height="11.204"/>
		
			<rect x="229.557" y="440.069" style="fill:#FFFFFF;stroke:#263238;stroke-linecap:round;stroke-linejoin:round;stroke-miterlimit:10;" width="183.424" height="5.974"/>
	</g>
</g>
<g id="Device">
	<g>
		<g>
			<g>
				<path style="fill:#263238;" d="M349.358,428.717l-21.628-53.836c-0.31-0.769-1.185-1.145-1.951-0.832
					c-0.768,0.309-1.142,1.182-0.832,1.951l21.628,53.837c0.276,0.685,0.416,1.407,0.416,2.146c0,3.178-2.586,5.764-5.764,5.764
					h-17.296v3h17.296c4.832,0,8.764-3.932,8.764-8.764C349.991,430.858,349.778,429.759,349.358,428.717z"/>
			</g>
			
				<rect x="322.528" y="318.83" transform="matrix(0.9952 0.0978 -0.0978 0.9952 37.7367 -30.0418)" style="fill:#FFFFFF;stroke:#263238;stroke-linecap:round;stroke-linejoin:round;stroke-miterlimit:10;" width="5.724" height="102.367"/>
		</g>
		<polygon style="fill:#FFFFFF;stroke:#263238;stroke-linecap:round;stroke-linejoin:round;stroke-miterlimit:10;" points="
			304.754,434.548 248.883,437.008 248.883,439.819 304.754,439.819 		"/>
	</g>
</g>
<g id="Character">
	<g>
		<path style="fill:#B2B2B2;stroke:#263238;stroke-linecap:round;stroke-linejoin:round;stroke-miterlimit:10;" d="M147.396,430.22
			l-5.231,43.294h88.496l-26.562-12.77c0,0,2.66-3.725,2.926-6.119c0.254-2.286-7.008-15.481-7.663-16.666l-0.594-3.94
			c0,0-1.266-18.632-0.543-22.249c0.724-3.618,2.532-12.12-1.085-21.707c-3.618-9.587-13.024-26.048-13.024-26.048l-28.038-8.14
			c0,0-12.843,17.727-10.492,36.539C147.939,411.226,147.396,430.22,147.396,430.22z"/>
		<polygon style="fill:#263238;stroke:#263238;stroke-linecap:round;stroke-linejoin:round;stroke-miterlimit:10;" points="
			230.66,473.514 204.098,460.744 182.057,473.514 		"/>
		
			<line style="fill:#FFFFFF;stroke:#263238;stroke-linecap:round;stroke-linejoin:round;stroke-miterlimit:10;" x1="204.098" y1="460.744" x2="168.449" y2="471.119"/>
		
			<line style="fill:#FFFFFF;stroke:#263238;stroke-linecap:round;stroke-linejoin:round;stroke-miterlimit:10;" x1="174.035" y1="466.597" x2="166.586" y2="472.716"/>
	</g>
	<g>
		<g>
			<path style="fill:#FFFFFF;stroke:#263238;stroke-linecap:round;stroke-linejoin:round;stroke-miterlimit:10;" d="
				M204.239,299.802c0,0,1.588,3.983,2.196,10.411c0.608,6.428-0.664,9.933,0.949,11.919c1.613,1.985,3.195,2.513,2.252,4.597
				c-0.943,2.085-4.908,3.493-4.908,3.493s-3.791,8.519-6.068,11.193c-2.277,2.674-10.907-0.037-10.907-0.037l-2.947,9.152
				l-20.09-9.716l2.606-9.369l-4.008-12.235C163.314,319.21,172.497,291.973,204.239,299.802z"/>
			<polygon style="fill:#263238;stroke:#263238;stroke-linecap:round;stroke-linejoin:round;stroke-miterlimit:10;" points="
				187.754,341.378 183.412,339.048 185.679,346.417 			"/>
			<path style="fill:none;stroke:#263238;stroke-linecap:round;stroke-linejoin:round;stroke-miterlimit:10;" d="M195.156,329.596
				c0,0,2.24,2.96,5.156,2.897"/>
			<path style="fill:#263238;" d="M204.015,317.783c-0.144,1.391-0.784,2.465-1.43,2.398c-0.646-0.067-1.053-1.249-0.909-2.64
				c0.144-1.391,0.784-2.465,1.43-2.398C203.752,315.21,204.159,316.392,204.015,317.783z"/>
			<path style="fill:none;stroke:#263238;stroke-linecap:round;stroke-linejoin:round;stroke-miterlimit:10;" d="M200.702,312.894
				c0,0,2.333-3.214,4.573-0.254"/>
		</g>
		<path style="fill:#263238;stroke:#263238;stroke-linecap:round;stroke-linejoin:round;stroke-miterlimit:10;" d="M176.095,281.797
			c0,0-15.871-1.278-20.152,8.463c-4.281,9.741-4.399,23.186-2.705,27.908c1.694,4.721,6.962,11.813,9.114,13.854
			c2.153,2.041,5.64,3.493,8.686,2.171c3.046-1.322,6.738-7.123,7.669-10.845c0.931-3.723,0.385-7.234,1.303-7.321
			c0.918-0.087,2.141,0.403,6.589-0.41c4.449-0.813,13.408-4.796,18.29-11.565c4.883-6.769,4.027-14.314,2.146-17.236
			C205.157,283.894,185.383,276.393,176.095,281.797z"/>
		<g>
			<path style="fill:#FFFFFF;stroke:#263238;stroke-linecap:round;stroke-linejoin:round;stroke-miterlimit:10;" d="
				M175.853,278.863c0,0,0.186,3.475-2.035,5.609c-2.221,2.134-13.234,6.633-13.234,6.633s-3.63,8.717-4.988,11.305
				c-1.359,2.587-2.873,3.158-4.597,2.252c-1.725-0.906-9.648-5.181-9.12-6.763c0.527-1.582,2.277-2.674,2.32-4.852
				c0.044-2.178-1.514-4.703-0.267-6.211c1.247-1.508,4.027-3.766,4.027-3.766s-2.494-7.532-0.366-8.767
				c2.128-1.235,7.147-0.534,8.444-0.763c1.297-0.23,3.226-6.577,9.182-6.143c5.956,0.434,8.208,5.032,8.208,5.032
				s2.413-0.478,3.09,1.774S175.853,278.863,175.853,278.863z"/>
			
				<line style="fill:none;stroke:#263238;stroke-linecap:round;stroke-linejoin:round;stroke-miterlimit:10;" x1="156.036" y1="273.54" x2="160.479" y2="274.545"/>
			<path style="fill:none;stroke:#263238;stroke-linecap:round;stroke-linejoin:round;stroke-miterlimit:10;" d="M160.776,271.666
				c0,0,0.279,2.575-1.929,6.347c-2.209,3.772-9.71,12.998-12.508,15.437"/>
			<path style="fill:none;stroke:#263238;stroke-linecap:round;stroke-linejoin:round;stroke-miterlimit:10;" d="M147.958,283.07
				c0,0,3.487-3.822,8.63-2.563"/>
			<path style="fill:none;stroke:#263238;stroke-linecap:round;stroke-linejoin:round;stroke-miterlimit:10;" d="M172.577,273.614
				c0,0-6.632,7.861-11.348,13.011c-4.715,5.15-10.883,8.513-11.472,12.452"/>
			<path style="fill:none;stroke:#263238;stroke-linecap:round;stroke-linejoin:round;stroke-miterlimit:10;" d="M167.372,279.986
				c0,0,5.361-4.355,8.481-1.123"/>
		</g>
		<path style="fill:#FFFFFF;stroke:#263238;stroke-linecap:round;stroke-linejoin:round;stroke-miterlimit:10;" d="M185.377,320.401
			c0,0-3.499-8.363-7.179-6.198c-3.679,2.165-2.63,11.367-0.893,13.91c1.737,2.544,5.057,0.341,5.057,0.341"/>
	</g>
	<path style="fill:#B2B2B2;stroke:#263238;stroke-linecap:round;stroke-linejoin:round;stroke-miterlimit:10;" d="M161.434,338.806
		c0,0,26.59,7.055,28.219,9.225c1.628,2.171,1.266,3.979,0.362,5.246c-0.904,1.266-2.352,5.608-2.352,5.608s1.266,3.979,0.543,5.607
		c-0.723,1.628-3.618,3.075-5.607,2.532c-1.99-0.543-25.686-8.683-26.591-9.225c-0.904-0.543-1.266-4.703,0.543-5.969
		s0.904,0.181,1.809-1.266C159.263,349.116,156.369,339.348,161.434,338.806z"/>
	<g>
		<path style="fill:#FFFFFF;stroke:#263238;stroke-linecap:round;stroke-linejoin:round;stroke-miterlimit:10;" d="M242.977,416.932
			c0,0,13.163,1.698,14.013,1.557c0.849-0.141,5.379,3.256,9.059,5.52c3.68,2.265,5.095,4.105,7.077,6.086s4.671,2.972,3.539,3.822
			c-1.132,0.849-1.699,0.849-3.397,0.283c-1.699-0.566-3.68-1.274-3.68-1.274s-1.982,1.274-4.105,0.849
			c-2.123-0.425-6.935-2.406-6.935-2.406s-3.822,0.425-6.511-0.425c-2.689-0.849-8.209-5.945-8.209-5.945l-3.255,0.283l-0.991-7.502
			L242.977,416.932z"/>
		<path style="fill:none;stroke:#263238;stroke-linecap:round;stroke-linejoin:round;stroke-miterlimit:10;" d="M259.112,425.708
			c0,0,0.142,0,2.265,1.557c2.123,1.557,9.766,2.831,8.209,5.662"/>
	</g>
	<g>
		<path style="fill:#FFFFFF;stroke:#263238;stroke-miterlimit:10;" d="M281.505,426.922c0,0,0.24,2.277-0.12,2.877
			c-0.36,0.599-1.678,0.599-2.397-0.839c-0.719-1.438-0.839-3.836-0.839-3.836L281.505,426.922z"/>
		<path style="fill:#FFFFFF;stroke:#263238;stroke-miterlimit:10;" d="M279.141,426.638c0,0-0.786,2.151-1.373,2.531
			c-0.587,0.38-1.771-0.2-1.784-1.808c-0.013-1.608,0.934-3.814,0.934-3.814L279.141,426.638z"/>
		<path style="fill:#FFFFFF;stroke:#263238;stroke-miterlimit:10;" d="M281.385,424.644c0,0,2.397,2.158,2.157,4.315
			c-0.24,2.157-1.918,1.678-2.397,0.24c-0.479-1.438-0.959-3.116-0.959-3.116L281.385,424.644z"/>
		<path style="fill:#FFFFFF;stroke:#263238;stroke-miterlimit:10;" d="M239.939,408.448c0,0,13.747-2.533,17.546-2.171
			c3.799,0.362,14.471,4.884,15.737,5.607c1.266,0.724,8.683,5.969,8.864,7.417c0.181,1.447-0.362,4.522-0.362,4.522
			s3.618,0.723,2.352,2.352c-1.266,1.628-3.98,1.266-5.608,0.724c-1.628-0.543-6.874-3.98-8.14-4.522
			c-1.266-0.543-5.788,0.543-9.225-0.543s-8.863-6.15-8.863-6.15l-11.215,3.256L239.939,408.448z"/>
		<path style="fill:#FFFFFF;stroke:#263238;stroke-miterlimit:10;" d="M271.197,412.898c0,0,1.798,0.24,3.836,2.397
			c2.038,2.158,6.692,8.528,6.692,8.528c-5.174-0.821-9.809-5.771-9.809-5.771"/>
	</g>
	<g>
		<path style="fill:#B2B2B2;stroke:#263238;stroke-linecap:round;stroke-linejoin:round;stroke-miterlimit:10;" d="M161.072,373.174
			c0,0-5.246,10.13-2.352,35.454c2.894,25.324,13.024,40.157,18.812,40.338c5.788,0.181,49.202-12.3,53.543-14.833
			c4.341-2.532,13.024-5.065,13.567-5.246c0.543-0.181,1.99-5.427,0.723-12.481c-1.266-7.055-1.99-9.225-1.99-9.225l-17.004,3.075
			l-25.867,4.341c0,0,0.362-1.628-1.266-2.533c-1.628-0.904-5.246-1.809-5.246-1.809s-4.703-32.017-14.471-40.338"/>
		<path style="fill:none;stroke:#263238;stroke-linecap:round;stroke-linejoin:round;stroke-miterlimit:10;" d="M193.994,410.257
			c0,0-14.652,9.768-20.44,10.853"/>
		<path style="fill:none;stroke:#263238;stroke-linecap:round;stroke-linejoin:round;stroke-miterlimit:10;" d="M175.579,429.663
			c-1.363,0.957-2.716,1.805-4.016,2.481"/>
		<path style="fill:none;stroke:#263238;stroke-linecap:round;stroke-linejoin:round;stroke-miterlimit:10;" d="M192.185,414.417
			c0,0-7.003,7.878-14.37,13.592"/>
		<path style="fill:none;stroke:#263238;stroke-linecap:round;stroke-linejoin:round;stroke-miterlimit:10;" d="M193.84,428.368
			c-0.618,0.745-1.29,1.415-2.017,1.967"/>
		<path style="fill:none;stroke:#263238;stroke-linecap:round;stroke-linejoin:round;stroke-miterlimit:10;" d="M199.421,416.226
			c0,0-1.291,5.56-4.092,10.059"/>
		<path style="fill:none;stroke:#263238;stroke-linecap:round;stroke-linejoin:round;stroke-miterlimit:10;" d="M232.416,424.548
			c0.008,0.963-0.014,1.987-0.074,3.074"/>
		<path style="fill:none;stroke:#263238;stroke-linecap:round;stroke-linejoin:round;stroke-miterlimit:10;" d="M228.363,410.618
			c0,0,3.032,2.449,3.853,10.25"/>
	</g>
	<path style="fill:#263238;stroke:#263238;stroke-linecap:round;stroke-linejoin:round;stroke-miterlimit:10;" d="M144.287,473.633
		h-16.303c0,0-10.568-42.106-6.31-74.575c0.409-3.116,3.077-5.44,6.22-5.44l0,0c3.478,0,6.29,2.823,6.269,6.301
		C134.095,411.49,135.158,438.222,144.287,473.633z"/>
</g>
<g id="Line">
	
		<line style="fill:none;stroke:#263238;stroke-linecap:round;stroke-linejoin:round;stroke-miterlimit:10;" x1="12.987" y1="473.633" x2="484.475" y2="473.633"/>
</g>
</svg>
