<?xml version="1.0" encoding="utf-8"?>
<!-- Generator: Adobe Illustrator 27.5.0, SVG Export Plug-In . SVG Version: 6.00 Build 0)  -->
<svg version="1.1" xmlns="http://www.w3.org/2000/svg" xmlns:xlink="http://www.w3.org/1999/xlink" x="0px" y="0px"
	 viewBox="0 0 500 500" style="enable-background:new 0 0 500 500;" xml:space="preserve">
<g id="Background_Simple">
	<g>
		<path style="opacity:0.7;fill:#FFFFFF;" d="M67.931,167.086c0,0-27.877,71.988,11.297,144.503
			c39.174,72.516,119.879,110.802,184.469,143.548c64.59,32.746,131.661,16.799,163.534-36.838
			c31.873-53.637-11.845-91.928-11.897-168.418c-0.051-76.49,11.447-96.742-29.963-161.364
			c-41.41-64.623-143.059-78.925-219.9-30.996C88.631,105.45,67.931,167.086,67.931,167.086z"/>
	</g>
	<g>
		<path style="fill:#92E3A9;" d="M152.676,456.71C36.506,411.861,67.214,348.977,45.852,265.806
			C24.489,182.636,26.807,150.833,78.891,92.701c52.083-58.132,141.796-79.651,205.864-10.924
			c64.067,68.727,123.364,62.176,159.983,113.231s29.793,111.524-36.39,154.184S295.919,512.01,152.676,456.71z"/>
		<path style="opacity:0.7;fill:#FFFFFF;" d="M152.676,456.71C36.506,411.861,67.214,348.977,45.852,265.806
			C24.489,182.636,26.807,150.833,78.891,92.701c52.083-58.132,141.796-79.651,205.864-10.924
			c64.067,68.727,123.364,62.176,159.983,113.231s29.793,111.524-36.39,154.184S295.919,512.01,152.676,456.71z"/>
	</g>
</g>
<g id="Interface">
	<g>
		<path style="fill:#263238;" d="M208.134,72.422c0-3.167,1.668-4.977,4.722-4.977c3.054,0,4.722,1.81,4.722,4.977v10.292
			c0,3.166-1.668,4.976-4.722,4.976c-3.053,0-4.722-1.81-4.722-4.976V72.422z M211.244,82.912c0,1.414,0.622,1.951,1.611,1.951
			c0.99,0,1.612-0.538,1.612-1.951V72.225c0-1.414-0.622-1.951-1.612-1.951c-0.989,0-1.611,0.537-1.611,1.951V82.912z"/>
		<path style="fill:#263238;" d="M222.555,67.672V82.94c0,1.414,0.622,1.923,1.612,1.923c0.99,0,1.612-0.509,1.612-1.923V67.672
			h2.94v15.07c0,3.167-1.583,4.976-4.637,4.976c-3.054,0-4.637-1.81-4.637-4.976v-15.07H222.555z"/>
		<path style="fill:#263238;" d="M237.345,87.464c-0.17-0.509-0.283-0.82-0.283-2.432v-3.11c0-1.838-0.622-2.516-2.036-2.516h-1.074
			v8.058h-3.11V67.672h4.694c3.223,0,4.608,1.498,4.608,4.552v1.555c0,2.036-0.65,3.336-2.036,3.987v0.057
			c1.555,0.65,2.064,2.121,2.064,4.185v3.054c0,0.962,0.028,1.668,0.339,2.403H237.345z M233.952,70.499v6.079h1.216
			c1.159,0,1.866-0.509,1.866-2.092v-1.951c0-1.414-0.481-2.036-1.583-2.036H233.952z"/>
		<path style="fill:#263238;" d="M245.688,67.672h9.613v2.827h-3.252v16.965h-3.11V70.499h-3.251V67.672z"/>
		<path style="fill:#263238;" d="M259.77,76.013h4.27v2.828h-4.27v5.796h5.373v2.828h-8.483V67.672h8.483v2.827h-5.373V76.013z"/>
		<path style="fill:#263238;" d="M277.131,87.464h-3.137l-0.537-3.591h-3.818l-0.537,3.591h-2.855l3.166-19.792h4.553
			L277.131,87.464z M270.035,81.188h2.996l-1.469-10.009h-0.057L270.035,81.188z"/>
		<path style="fill:#263238;" d="M285.135,81.725h0.057l2.092-14.052h4.326v19.792h-2.941V73.271h-0.057l-2.092,14.194h-2.939
			l-2.262-13.996h-0.057v13.996h-2.715V67.672h4.326L285.135,81.725z"/>
	</g>
	<g>
		<path style="fill:#263238;" d="M441.526,111.746H86.737c-0.566,0-1.025,0.459-1.025,1.025c0,0.566,0.459,1.025,1.025,1.025
			h354.789c0.566,0,1.025-0.459,1.025-1.025C442.551,112.205,442.092,111.746,441.526,111.746z"/>
		<path style="fill:#263238;" d="M441.526,119.765H58.473c-0.566,0-1.025,0.459-1.025,1.025c0,0.566,0.459,1.025,1.025,1.025
			h383.053c0.566,0,1.025-0.459,1.025-1.025C442.551,120.224,442.092,119.765,441.526,119.765z"/>
		<path style="fill:#263238;" d="M422.684,127.785H58.473c-0.566,0-1.025,0.459-1.025,1.025s0.459,1.025,1.025,1.025h364.21
			c0.566,0,1.025-0.459,1.025-1.025S423.25,127.785,422.684,127.785z"/>
		<path style="fill:#263238;" d="M441.526,141.457H86.737c-0.566,0-1.025,0.459-1.025,1.025c0,0.566,0.459,1.025,1.025,1.025
			h354.789c0.566,0,1.025-0.459,1.025-1.025C442.551,141.916,442.092,141.457,441.526,141.457z"/>
		<path style="fill:#263238;" d="M441.526,149.477H58.473c-0.566,0-1.025,0.459-1.025,1.025c0,0.566,0.459,1.025,1.025,1.025
			h383.053c0.566,0,1.025-0.459,1.025-1.025C442.551,149.936,442.092,149.477,441.526,149.477z"/>
		<path style="fill:#263238;" d="M384.999,157.496H58.473c-0.566,0-1.025,0.459-1.025,1.025c0,0.566,0.459,1.025,1.025,1.025
			h326.526c0.566,0,1.025-0.459,1.025-1.025C386.024,157.955,385.565,157.496,384.999,157.496z"/>
	</g>
	<g>
		<path style="fill:none;stroke:#263238;stroke-miterlimit:10;" d="M81.856,78.782l-9.685-9.685c-0.338-0.338-0.886-0.338-1.224,0
			l-9.685,9.685c-0.297,0.297-0.087,0.804,0.333,0.804h2.409c0.29,0,0.524,0.235,0.524,0.524v6.476c0,0.29,0.235,0.524,0.524,0.524
			h13.012c0.29,0,0.524-0.235,0.524-0.524V80.11c0-0.29,0.235-0.524,0.524-0.524h2.409C81.943,79.586,82.153,79.078,81.856,78.782z"
			/>
		<path style="fill:none;stroke:#263238;stroke-miterlimit:10;" d="M438.876,80.088v-4.221l-3.162-0.272
			c-0.188-0.667-0.45-1.303-0.782-1.895l2.041-2.426l-2.985-2.985l-2.426,2.041c-0.592-0.332-1.228-0.594-1.895-0.782l-0.272-3.162
			h-4.221l-0.272,3.162c-0.667,0.188-1.302,0.45-1.895,0.782l-2.426-2.041l-2.985,2.985l2.041,2.426
			c-0.332,0.592-0.594,1.228-0.782,1.895l-3.162,0.272v4.221l3.162,0.272c0.188,0.667,0.45,1.303,0.782,1.895l-2.041,2.426
			l2.985,2.985l2.426-2.041c0.592,0.332,1.228,0.594,1.895,0.782l0.272,3.162h4.221l0.272-3.162c0.667-0.188,1.303-0.45,1.895-0.782
			l2.426,2.041l2.985-2.985l-2.041-2.426c0.332-0.592,0.594-1.228,0.782-1.895L438.876,80.088z M427.284,82.882
			c-2.709,0-4.905-2.196-4.905-4.905c0-2.709,2.196-4.905,4.905-4.905c2.709,0,4.905,2.196,4.905,4.905
			C432.19,80.686,429.993,82.882,427.284,82.882z"/>
	</g>
	<g>
		<polyline style="fill:none;stroke:#263238;stroke-linecap:round;stroke-linejoin:round;stroke-miterlimit:10;" points="
			238.899,410.369 250,416.609 261.101,410.369 		"/>
		<polyline style="fill:none;stroke:#263238;stroke-linecap:round;stroke-linejoin:round;stroke-miterlimit:10;" points="
			238.899,415.079 250,421.32 261.101,415.079 		"/>
		<polyline style="fill:none;stroke:#263238;stroke-linecap:round;stroke-linejoin:round;stroke-miterlimit:10;" points="
			238.899,419.79 250,426.031 261.101,419.79 		"/>
	</g>
	<g>
		<path style="fill:none;stroke:#263238;stroke-linecap:round;stroke-linejoin:round;stroke-miterlimit:10;" d="M370.747,431.684
			H58.98c-0.982,0-1.778-0.796-1.778-1.778v-22.917c0-0.982,0.796-1.778,1.778-1.778h9.8"/>
		
			<line style="fill:none;stroke:#263238;stroke-linecap:round;stroke-linejoin:round;stroke-miterlimit:10;" x1="417.853" y1="431.684" x2="385.655" y2="431.684"/>
		<path style="fill:none;stroke:#263238;stroke-linecap:round;stroke-linejoin:round;stroke-miterlimit:10;" d="M108.72,405.21
			h332.3c0.982,0,1.778,0.796,1.778,1.778v22.917c0,0.982-0.796,1.778-1.778,1.778h-17.655"/>
		
			<line style="fill:none;stroke:#263238;stroke-linecap:round;stroke-linejoin:round;stroke-miterlimit:10;" x1="76.683" y1="405.21" x2="97.101" y2="405.21"/>
	</g>
</g>
<g id="Character_3">
	<g>
		<path style="fill:#263238;stroke:#263238;stroke-linecap:round;stroke-linejoin:round;stroke-miterlimit:10;" d="M442.798,333.936
			H320.919v51.17c0,2.429,1.969,4.398,4.398,4.398h113.084c2.429,0,4.398-1.969,4.398-4.398V333.936z"/>
		<path style="fill:#FFFFFF;stroke:#263238;stroke-linecap:round;stroke-linejoin:round;stroke-miterlimit:10;" d="M442.798,333.936
			H320.919V185.955c0-2.429,1.969-4.398,4.398-4.398h113.084c2.429,0,4.398,1.969,4.398,4.398V333.936z"/>
		<g>
			<path style="fill:#263238;" d="M336.323,264.359c0.49-4.933,20.959-11.444,45.535-11.704c22.864-0.242,44.832,7.403,47.804,12.45
				c2.972,5.047-6.034,68.952-6.034,68.952h-81.687C341.941,334.056,334.832,279.365,336.323,264.359z"/>
			<path style="fill:#BFBFBF;stroke:#263238;stroke-miterlimit:10;" d="M396.552,254.784c0,0-3.995,8.14-14.235,8.149
				c-8.385,0-14.499-7.273-14.499-7.273c2.949-2.647,3.128-7.546,2.694-11.4c-0.349-3.147-1.102-5.596-1.102-5.596h25.079
				c-1.526,5.012-1.47,8.611-0.876,11.117C394.489,253.465,396.552,254.784,396.552,254.784z"/>
			<g>
				<defs>
					<path id="XMLID_7_" d="M432.295,300.387c0,0-6.15,26.34-10.622,33.669l-93.177-0.12c0,0,5.032-6.957,8.759-9.445
						c3.727-2.487,16.562,1.24,19.089,1.24c2.528,0,46.709-7.081,48.379-7.64c1.669-0.559,7.056-21.163,7.056-21.163
						S427.45,297.592,432.295,300.387z"/>
				</defs>
				<use xlink:href="#XMLID_7_"  style="overflow:visible;fill:#BFBFBF;"/>
				<clipPath id="XMLID_00000101787681019092307670000015985625283923371661_">
					<use xlink:href="#XMLID_7_"  style="overflow:visible;"/>
				</clipPath>
				<path style="opacity:0.15;clip-path:url(#XMLID_00000101787681019092307670000015985625283923371661_);" d="M432.3,300.39
					c0,0-2.63,11.28-5.72,21.14c-2.51-1.76-6.51-3.28-12.61-2.58c-12.66,1.46-21.17,3.24-21.17,3.24s-12.68,5.67-16.58,11.81
					l-47.72-0.06c0,0,5.03-6.96,8.76-9.45c3.72-2.49,16.56,1.24,19.08,1.24c2.53,0,46.71-7.08,48.38-7.64
					c1.6-0.54,6.61-19.45,7.03-21.05c6.14,0.33,11.82,0.99,16.31,1.86h0.03C429.81,299.31,431.29,299.81,432.3,300.39z"/>
				
					<use xlink:href="#XMLID_7_"  style="overflow:visible;fill:none;stroke:#263238;stroke-linecap:round;stroke-linejoin:round;stroke-miterlimit:10;"/>
			</g>
			<path style="fill:#263238;" d="M417.201,272.434c-3.616,2.795-7.081,14.279-7.081,14.279l-1.242,13.77
				c0,0,17.145,2.232,22.611,10.013c0,0,0.497-2.43,0-3.536c0,0,4.162-8.434,6.398-19.863c2.236-11.43-5.031-22.489-10.45-24.166"/>
			<path style="fill:#263238;stroke:#FFFFFF;stroke-linecap:round;stroke-linejoin:round;stroke-miterlimit:10;" d="
				M417.201,272.434c-3.616,2.795-7.081,14.279-7.081,14.279l-1.242,13.77"/>
			<g>
				<path style="fill:#BFBFBF;stroke:#263238;stroke-linecap:round;stroke-linejoin:round;stroke-miterlimit:10;" d="
					M423.589,297.66c1.904-0.162,7.215,1.702,8.147,3.1c0.932,1.398,1.863,3.254,0.559,4.422c0,0,0.635,1.82,0.644,3.032
					c0.008,1.211-1.846,1.763-1.846,1.763s0.968,2.057-1.431,3.455c0,0,0.534,2.329-1.398,3.261l-1-0.745c0,0-6.336,0.932-9.411,0"
					/>
				<path style="fill:#BFBFBF;stroke:#263238;stroke-linecap:round;stroke-linejoin:round;stroke-miterlimit:10;" d="
					M424.338,305.784c0.304-0.745,0.851-1.329,1.181-1.858c0.66-1.058-1.5-2.027-0.851-2.796c1.726-2.047-0.107-2.979-0.107-2.979
					c-0.745-1.863-12.765,1.864-13.511-0.373c-1.083-3.249,5.439-9.432,1.463-12.662c-0.587-0.477-1.277,3.888-6.308,8.237
					c-2.566,2.217-2.647,8.463-7.516,11.259c-4.869,2.795-14.908,6.336-25.468,7.454c-5.868,0.621-15.841,3.594-15.841,3.594
					s-0.108-7.988-2.173-12.539c-2.066-4.55-16.577-7.112-16.577-7.112l-5.37,10.952c0,0,5.904,21.133,8.681,27.096l22.16-0.312
					c0,0,8.297-2.8,16.389-7.034c9.353-4.893,21.26-8.061,24.234-8.62c2.974-0.559,15.149-1.491,16.826-2.423
					c0.425-0.236,2.04-1.118,1.214-3.323c-0.471-1.257,0.826-2.368,0.826-2.368"/>
				<path style="fill:none;stroke:#263238;stroke-linecap:round;stroke-linejoin:round;stroke-miterlimit:10;" d="M432.295,305.182
					c0,0-1.863-1.813-2.298-2.062c-0.435-0.249-3.789-1.118-3.789-1.118"/>
				<path style="fill:none;stroke:#263238;stroke-linecap:round;stroke-linejoin:round;stroke-miterlimit:10;" d="M431.093,309.977
					c0,0-0.848-1.74-2.121-2.124s-3.323-0.681-3.323-0.681"/>
				<path style="fill:none;stroke:#263238;stroke-linecap:round;stroke-linejoin:round;stroke-miterlimit:10;" d="M429.662,313.432
					c0,0-1.902-1.18-2.709-1.615c-0.807-0.435-2.609-0.559-2.609-0.559"/>
			</g>
			<path style="fill:#263238;" d="M339.323,261.161c0,0-8.963,0.088-11.448,17.857c-1.372,9.809,3.168,25.903,3.727,29.071
				c0.559,3.168,3.316,4.942,3.316,4.942s10.804-6.794,21.426-6.354c0,0,1.864-5.636,0-6.195c-1.863-0.559,1.867-11.401-2.38-18.98"
				/>
			<path style="fill:#263238;stroke:#FFFFFF;stroke-linecap:round;stroke-linejoin:round;stroke-miterlimit:10;" d="
				M357.287,304.794c0,0,1.864-5.636,0-6.195c-1.863-0.559,1.867-11.401-2.38-18.98"/>
			<path style="fill:#263238;" d="M393.612,249.781c-18.126,4.748-21.725-5.606-21.725-5.606l-1.375,0.085
				c-0.349-3.147-1.102-5.596-1.102-5.596h25.079C392.962,243.676,393.019,247.275,393.612,249.781z"/>
			<g>
				<g>
					<path style="fill:#BFBFBF;stroke:#263238;stroke-miterlimit:10;" d="M399.949,221.055c0,0,2.021-2.195,3.013-1.473
						c0.992,0.722,2.165,2.766,1.624,4.631c-0.541,1.864-2.887,5.112-3.067,7.007c-0.18,1.894-1.397,4.041-2.728,2.787
						C397.459,232.753,399.949,221.055,399.949,221.055z"/>
					<path style="fill:#BFBFBF;stroke:#263238;stroke-miterlimit:10;" d="M363.951,221.055c0,0-2.021-2.195-3.013-1.473
						c-0.992,0.722-2.165,2.766-1.624,4.631c0.541,1.864,2.887,5.112,3.067,7.007c0.181,1.894,1.397,4.041,2.728,2.787
						C366.44,232.753,363.951,221.055,363.951,221.055z"/>
				</g>
				<path style="fill:#BFBFBF;stroke:#263238;stroke-miterlimit:10;" d="M381.523,195.686c25.403,0,19.364,33.833,14.689,44.695
					c-1.642,3.814-10.15,8.821-14.263,8.821c-3.826,0-12.581-5.983-14.133-9.566C363.089,228.72,357.31,195.686,381.523,195.686z"/>
				<g>
					<path style="fill:none;stroke:#263238;stroke-linecap:round;stroke-linejoin:round;stroke-miterlimit:10;" d="M385.829,216.575
						c0,0,6.615-2.045,8.66,2.045"/>
					<path style="fill:#263238;" d="M390.727,222.138c0,0.781-0.396,1.413-0.885,1.413c-0.489,0-0.885-0.633-0.885-1.413
						c0-0.781,0.396-1.413,0.885-1.413C390.331,220.725,390.727,221.358,390.727,222.138z"/>
					<path style="fill:none;stroke:#263238;stroke-linecap:round;stroke-linejoin:round;stroke-miterlimit:10;" d="M378.071,216.575
						c0,0-6.616-2.045-8.66,2.045"/>
					<path style="fill:#263238;" d="M373.173,222.138c0,0.781,0.396,1.413,0.885,1.413c0.489,0,0.885-0.633,0.885-1.413
						c0-0.781-0.396-1.413-0.885-1.413C373.569,220.725,373.173,221.358,373.173,222.138z"/>
				</g>
				<path style="fill:#263238;" d="M392.038,204.336c0,0-9.111,3.428-19.576,0c0,0-3.428-0.201-4.781,1.524
					c-1.353,1.724,0,7.047,0.361,9.212c0.361,2.165-2.977,3.669-2.526,9.141l-1.291,1.889c0,0-3.584-8.806-2.682-16.384
					c0.902-7.578,5.687-10.523,5.687-10.523s2.18-6.544,14.963-6.495c13.777,0.053,15.168,7.51,15.168,7.51s9.341,6.23,2.431,26.527
					l-1.499-2.523c0,0,0.728-4.09-1.744-7.698c-1.203-1.756,0.722-7.036,0.271-9.743
					C396.369,204.066,392.038,204.336,392.038,204.336z"/>
				<path style="fill:none;stroke:#263238;stroke-linecap:round;stroke-linejoin:round;stroke-miterlimit:10;" d="M383.461,220.725
					c0,0,0.383,7.812,1.501,10.007c1.118,2.196-2.795,2.568-4.472,1.264"/>
				<path style="fill:#FFFFFF;stroke:#263238;stroke-linecap:round;stroke-linejoin:round;stroke-miterlimit:10;" d="
					M376.388,236.165c0,0,0.623,2.291,2.362,3.036c1.739,0.745,7.019,0.435,8.013-0.186s1.491-2.65,1.491-2.65"/>
				<path style="fill:none;stroke:#263238;stroke-linecap:round;stroke-linejoin:round;stroke-miterlimit:10;" d="M375.83,236.033
					c0,0,5.257,1.491,13.126,0"/>
				<path style="fill:#263238;" d="M387.644,205.412c0,0-2.868,0.059-2.993,1.302c-0.124,1.242-0.118,3.106-2.792,2.36
					c0,0-0.935,2.281-3.171,0.643c-2.236-1.637-2.857,0.592-2.857,0.592s-1.028,0.007-0.887-1.235c0,0-2.468-0.263-2.468,1.235
					c0,1.498-3.851,2.616-3.851,1.125c0,0-0.657,3.479-3.124,2.733c-2.467-0.745-3.661,3.174-3.661,3.174s-1.582-2.553-0.443-4.665
					c0,0-2.215-2.236-1.594-4.597c0.621-2.361,1.594-3.976,1.594-3.976s-2.238-3.603,0.941-5.342
					c3.18-1.739,2.559-2.674,2.559-3.077c0-0.402,1.367-3.135,3.851-2.266c2.485,0.87,3.289-2.236,5.309-2.857
					c2.021-0.621,5.748-0.497,6.431,0c0.683,0.497,2.03,0.87,2.972,0.497c0.942-0.373,3.697-1.118,4.183-0.124
					c0.486,0.994,1.564,1.538,2.516,1.763c0.952,0.225,1.946-1.219,2.94,0C394.093,193.917,387.644,205.412,387.644,205.412z"/>
				<path style="fill:#263238;" d="M387.644,205.412c2.686-0.562,3.468,1.302,3.716,2.668c0.249,1.367,2.485,1.637,2.485,1.637
					s1.242,0.847,1.242,1.22c0,0.373,0.621-0.249,0.621-1.739c0,0,0.564,2.485,0.841,3.851c0.277,1.367,1.91,2.604,3.845,1.739
					c1.935-0.865,1.749,1.874,1.749,1.874s1.686-1.122,0.895-3.365c0,0,1.739-2.609,0.994-4.845
					c-0.745-2.236,1.242-4.348-0.621-5.839c-1.863-1.491-1.711-1.242-1.849-2.236c-0.138-0.994,0.165-2.485-1.167-2.857
					c-1.332-0.373-3.071-1.059-3.071-1.834c0-0.775-2.112-2.638-5.715-1.272C388.005,195.781,387.644,205.412,387.644,205.412z"/>
			</g>
		</g>
		<g>
			<path style="fill:#FFFFFF;" d="M378.123,343.311H331.51c-1.009,0-1.827,0.818-1.827,1.827c0,1.009,0.818,1.827,1.827,1.827
				h46.613c1.009,0,1.827-0.818,1.827-1.827C379.95,344.129,379.132,343.311,378.123,343.311z"/>
			<path style="fill:#FFFFFF;" d="M433.009,358.34H330.708c-0.566,0-1.025,0.459-1.025,1.025c0,0.566,0.459,1.025,1.025,1.025
				h102.301c0.566,0,1.025-0.459,1.025-1.025C434.034,358.799,433.575,358.34,433.009,358.34z"/>
			<path style="fill:#FFFFFF;" d="M414.167,363.437h-83.459c-0.566,0-1.025,0.459-1.025,1.025c0,0.566,0.459,1.025,1.025,1.025
				h83.459c0.566,0,1.025-0.459,1.025-1.025C415.192,363.896,414.733,363.437,414.167,363.437z"/>
			<path style="fill:#FFFFFF;" d="M357.64,350.247h-26.932c-0.566,0-1.025,0.459-1.025,1.025c0,0.566,0.459,1.025,1.025,1.025
				h26.932c0.566,0,1.025-0.459,1.025-1.025C358.664,350.706,358.206,350.247,357.64,350.247z"/>
			<path style="fill:#FFFFFF;" d="M430.513,379.315h2.458c0.587,0,1.062-0.476,1.062-1.062v-2.458c0-0.587-0.476-1.062-1.062-1.062
				h-2.458c-0.587,0-1.062,0.476-1.062,1.062v2.458C429.451,378.839,429.927,379.315,430.513,379.315z"/>
			<path style="fill:#FFFFFF;" d="M421.092,379.315h2.458c0.587,0,1.062-0.476,1.062-1.062v-2.458c0-0.587-0.476-1.062-1.062-1.062
				h-2.458c-0.587,0-1.062,0.476-1.062,1.062v2.458C420.03,378.839,420.506,379.315,421.092,379.315z"/>
			<path style="fill:#FFFFFF;" d="M411.671,379.315h2.458c0.587,0,1.062-0.476,1.062-1.062v-2.458c0-0.587-0.476-1.062-1.062-1.062
				h-2.458c-0.587,0-1.062,0.476-1.062,1.062v2.458C410.609,378.839,411.084,379.315,411.671,379.315z"/>
		</g>
	</g>
</g>
<g id="Character_2">
	<g>
		<path style="fill:#263238;stroke:#263238;stroke-linecap:round;stroke-linejoin:round;stroke-miterlimit:10;" d="M310.94,333.936
			H189.06v51.17c0,2.429,1.969,4.398,4.398,4.398h113.084c2.429,0,4.398-1.969,4.398-4.398V333.936z"/>
		<g>
			<path style="fill:#FFFFFF;" d="M246.265,343.311h-46.613c-1.009,0-1.827,0.818-1.827,1.827c0,1.009,0.818,1.827,1.827,1.827
				h46.613c1.009,0,1.827-0.818,1.827-1.827C248.092,344.129,247.274,343.311,246.265,343.311z"/>
			<path style="fill:#FFFFFF;" d="M301.151,358.34H198.849c-0.566,0-1.025,0.459-1.025,1.025c0,0.566,0.459,1.025,1.025,1.025
				h102.301c0.566,0,1.025-0.459,1.025-1.025C302.176,358.799,301.717,358.34,301.151,358.34z"/>
			<path style="fill:#FFFFFF;" d="M282.308,363.437h-83.459c-0.566,0-1.025,0.459-1.025,1.025c0,0.566,0.459,1.025,1.025,1.025
				h83.459c0.566,0,1.025-0.459,1.025-1.025C283.333,363.896,282.874,363.437,282.308,363.437z"/>
			<path style="fill:#FFFFFF;" d="M225.781,350.247h-26.932c-0.566,0-1.025,0.459-1.025,1.025c0,0.566,0.459,1.025,1.025,1.025
				h26.932c0.566,0,1.025-0.459,1.025-1.025C226.806,350.706,226.347,350.247,225.781,350.247z"/>
			<path style="fill:#FFFFFF;" d="M298.655,379.315h2.458c0.587,0,1.062-0.476,1.062-1.062v-2.458c0-0.587-0.475-1.062-1.062-1.062
				h-2.458c-0.587,0-1.062,0.476-1.062,1.062v2.458C297.593,378.839,298.068,379.315,298.655,379.315z"/>
			<path style="fill:#FFFFFF;" d="M289.234,379.315h2.458c0.587,0,1.062-0.476,1.062-1.062v-2.458c0-0.587-0.476-1.062-1.062-1.062
				h-2.458c-0.587,0-1.062,0.476-1.062,1.062v2.458C288.171,378.839,288.647,379.315,289.234,379.315z"/>
			<path style="fill:#FFFFFF;" d="M279.813,379.315h2.458c0.587,0,1.062-0.476,1.062-1.062v-2.458c0-0.587-0.476-1.062-1.062-1.062
				h-2.458c-0.587,0-1.062,0.476-1.062,1.062v2.458C278.75,378.839,279.226,379.315,279.813,379.315z"/>
		</g>
		<path style="fill:#FFFFFF;stroke:#263238;stroke-linecap:round;stroke-linejoin:round;stroke-miterlimit:10;" d="M310.94,333.936
			H189.06V185.955c0-2.429,1.969-4.398,4.398-4.398h113.084c2.429,0,4.398,1.969,4.398,4.398V333.936z"/>
		<g>
			<path style="fill:#92E3A9;stroke:#263238;stroke-linecap:round;stroke-linejoin:round;stroke-miterlimit:10;" d="
				M267.551,228.894c0.845,14.464,1.499,22.628,2.99,34.668c1.491,12.04,0.745,25.085-17.89,30.303
				c-18.635,5.218-39.134-8.199-39.88-16.772c-0.745-8.572,6.204-29.062,4.499-45.372c-1.704-16.311,13.173-28.612,25.115-27.865
				C254.328,204.602,266.987,219.245,267.551,228.894z"/>
			<path style="fill:none;stroke:#263238;stroke-linecap:round;stroke-linejoin:round;stroke-miterlimit:10;" d="M257.309,249.698
				c0,0-1.081,14.878,3.746,24.833"/>
			<path style="fill:none;stroke:#263238;stroke-linecap:round;stroke-linejoin:round;stroke-miterlimit:10;" d="M223.504,243.428
				c0,0,2.867,14.907-3.162,29.876"/>
			<path style="fill:none;stroke:#263238;stroke-linecap:round;stroke-linejoin:round;stroke-miterlimit:10;" d="M230.576,255.6
				c0,0,0.644,11.492-1.406,21.493"/>
			<path style="fill:none;stroke:#263238;stroke-linecap:round;stroke-linejoin:round;stroke-miterlimit:10;" d="M261.055,237.414
				c0,0,0.746,10.241,3.252,14.587"/>
			<g>
				<defs>
					<path id="XMLID_5_" d="M310.41,326.011c-1.159-1.891-2.36-3.684-3.762-4.938c-3.541-3.168-17.331-41.184-24.686-46.542
						l-6.621,34.429c1.677,2.982,6.895,9.877,6.621,11.368c-0.274,1.491,2.881,3.727,2.881,3.727
						c-1.493,2.423,1.493,9.882,1.493,9.882h24.075V326.011z"/>
				</defs>
				<use xlink:href="#XMLID_5_"  style="overflow:visible;fill:#999999;"/>
				<clipPath id="XMLID_00000021085965638162629620000006767564047072804515_">
					<use xlink:href="#XMLID_5_"  style="overflow:visible;"/>
				</clipPath>
				<path style="opacity:0.15;clip-path:url(#XMLID_00000021085965638162629620000006767564047072804515_);" d="M307.65,333.94
					h-21.31c0,0-2.99-7.46-1.5-9.89c0,0-3.15-2.23-2.88-3.72c0.28-1.49-4.94-8.39-6.62-11.37l3.29-17.14l1.91-2.05
					c0,0,1.76,4.45,1.43,7.16c0,0,1.87-1.7,2.2-3.97c0,0,6.47,15.58,4.88,23.79c0,0,10.1-2.07,16.77,3.26c0,0-6.78-1.38-8.26,0
					C297.56,320.01,308.12,320.2,307.65,333.94z"/>
				
					<use xlink:href="#XMLID_5_"  style="overflow:visible;fill:none;stroke:#263238;stroke-linecap:round;stroke-linejoin:round;stroke-miterlimit:10;"/>
			</g>
			<path style="fill:#FFFFFF;stroke:#263238;stroke-linecap:round;stroke-linejoin:round;stroke-miterlimit:10;" d="
				M265.399,268.699c0,0-14.735,8.394-21.433,8.394c-6.708,0-25.371-8.573-25.371-8.573c5.898-0.556,13.35-3.335,14.735-6.501
				c0.726-1.649,0.254-6.953-0.348-11.654c-0.565-4.324-1.244-8.14-1.244-8.14l22.225,3.024c0,0-0.989,5.219-1.272,10.297
				c-0.113,2.289-0.094,4.551,0.226,6.284C253.962,267.427,265.399,268.699,265.399,268.699z"/>
			<g>
				<defs>
					<path id="XMLID_4_" d="M284.815,278.584c-0.693-5.218-12.134-8.386-12.134-8.386l-4.854-3.168c0,0-16.594,8.145-23.148,8.572
						s-26.082-8.572-26.082-8.572l-4.334,3.168c0,0-11.441,1.148-14.561,5.419c-3.12,4.271,11.961,58.319,11.961,58.319h61.018
						c0,0,2.682-11.642,6.991-21.995c2.982-7.164-2.556-12.314,1.677-24.971"/>
				</defs>
				<use xlink:href="#XMLID_4_"  style="overflow:visible;fill:#999999;"/>
				<clipPath id="XMLID_00000102545988839476719670000013437821455742300299_">
					<use xlink:href="#XMLID_4_"  style="overflow:visible;"/>
				</clipPath>
				<path style="opacity:0.15;clip-path:url(#XMLID_00000102545988839476719670000013437821455742300299_);" d="M279.67,311.94
					c-4.31,10.35-6.99,22-6.99,22h-61.02c0,0-3.87-13.86-7.28-28.1l9.67-18.16c0,0,5.56,3.02,5.05,5.67c0,0,4.72,17.54,11.48,18.74
					c6.75,1.2,14.66-4.46,25.54-2.52c10.46,1.87,20.01,3.2,24.42-3.9C280.7,307.75,280.58,309.75,279.67,311.94z"/>
				
					<use xlink:href="#XMLID_4_"  style="overflow:visible;fill:none;stroke:#263238;stroke-linecap:round;stroke-linejoin:round;stroke-miterlimit:10;"/>
			</g>
			<path style="fill:#92E3A9;stroke:#263238;stroke-linecap:round;stroke-linejoin:round;stroke-miterlimit:10;" d="
				M263.691,259.659c0,0,1.708,6.499,4.799,13.707c5.258,12.261,2.551,22.549,2.551,22.549s3.226,0.983,3.412-3.422
				c0.186-4.405,1.243-9.582-1.118-16.876c0,0,3.913,5.744,2.982,15.071c0,0,2.332-7.818-0.977-17.694
				c-3.309-9.877-3.933-10.063-5.95-19.567"/>
			<g>
				<defs>
					<path id="XMLID_6_" d="M272.777,327.504c0,0,5.032-6.059,8.386-6.432c3.354-0.373,4.692,0.367,7.082,2.236
						c1.512,1.183,1.512,1.183,1.512,1.183s2.543-2.478,7.62-2.301c6.247,0.218,12.486,5.777,10.809,11.554h-34.289L272.777,327.504
						z"/>
				</defs>
				<use xlink:href="#XMLID_6_"  style="overflow:visible;fill:#FFFFFF;"/>
				<clipPath id="XMLID_00000152952574986882841680000010880388634553639558_">
					<use xlink:href="#XMLID_6_"  style="overflow:visible;"/>
				</clipPath>
				<path style="opacity:0.15;clip-path:url(#XMLID_00000152952574986882841680000010880388634553639558_);" d="M304.18,333.74
					H292.2c-0.84-2.09-0.68-4.97-1.17-5.62c-0.59-0.79-1.48-0.89-2.27-1.41c-0.79-0.52-0.79-2.74-1.78-3.24
					c-0.99-0.49-2.08-0.29-2.47-0.49c-0.39-0.19-0.23-1.74-1.19-1.97c1.92,0.13,3.13,0.89,4.92,2.3c1.52,1.18,1.52,1.18,1.52,1.18
					s1.28-1.25,3.83-1.9C302.18,325.62,303.89,331,304.18,333.74z"/>
				
					<use xlink:href="#XMLID_6_"  style="overflow:visible;fill:none;stroke:#263238;stroke-linecap:round;stroke-linejoin:round;stroke-miterlimit:10;"/>
			</g>
			<path style="fill:#FFFFFF;stroke:#263238;stroke-linecap:round;stroke-linejoin:round;stroke-miterlimit:10;" d="
				M230.576,321.072c12.526,0.373,22.145,4.659,32.151,5.218c10.005,0.559,15.037,0.745,18.205,0
				c3.168-0.745,12.113,7.646,12.113,7.646h-65.027l-12.869-4.105l7.081-7.827L230.576,321.072z"/>
			<path style="fill:#999999;stroke:#263238;stroke-linecap:round;stroke-linejoin:round;stroke-miterlimit:10;" d="
				M207.135,277.093c7.651,4.845,17.745,42.673,19.531,42.302c1.785-0.37,3.91,1.677,3.91,1.677s-2.381,7.683-2.559,12.864h-15.85
				c0,0-8.068,0.311-10.425-11.525c-4.538-22.785-6.719-44.386-2.039-46.794"/>
			<path style="fill:none;stroke:#263238;stroke-linecap:round;stroke-linejoin:round;stroke-miterlimit:10;" d="M289.756,324.492
				c0,0,3.829,3.103,4.606,5.805"/>
			<path style="fill:none;stroke:#263238;stroke-linecap:round;stroke-linejoin:round;stroke-miterlimit:10;" d="M277.707,326.711
				c0,0,4.387-2.061,4.947-2.219"/>
			
				<line style="fill:none;stroke:#263238;stroke-linecap:round;stroke-linejoin:round;stroke-miterlimit:10;" x1="284.506" y1="327.362" x2="285.822" y2="326.711"/>
			<path style="fill:#263238;" d="M253.962,245.25c0,0-0.989,5.219-1.272,10.297c-2.035,1.168-4.343,1.865-6.821,1.545
				c-8.583-1.121-11.532-7.659-11.532-7.659l-1.357,0.933c-0.565-4.324-1.244-8.14-1.244-8.14L253.962,245.25z"/>
			<g>
				<g>
					<path style="fill:#FFFFFF;stroke:#263238;stroke-linecap:round;stroke-linejoin:round;stroke-miterlimit:10;" d="
						M225.116,229.126c0,0-2.021-2.062-3.013-1.384c-0.992,0.678-2.165,2.599-1.624,4.35c0.541,1.751,2.887,4.802,3.067,6.582
						c0.18,1.78,1.397,3.796,2.728,2.618C227.606,240.116,225.116,229.126,225.116,229.126z"/>
					<path style="fill:#FFFFFF;stroke:#263238;stroke-linecap:round;stroke-linejoin:round;stroke-miterlimit:10;" d="
						M261.114,229.126c0,0,2.021-2.062,3.013-1.384c0.992,0.678,2.165,2.599,1.624,4.35c-0.541,1.751-2.887,4.802-3.067,6.582
						c-0.18,1.78-1.397,3.796-2.728,2.618C258.624,240.116,261.114,229.126,261.114,229.126z"/>
				</g>
				<path style="fill:#FFFFFF;stroke:#263238;stroke-linecap:round;stroke-linejoin:round;stroke-miterlimit:10;" d="
					M243.542,203.855c-25.403,0-18.53,30.715-13.856,41.578c1.641,3.814,9.743,9.161,13.856,9.161
					c3.826,0,11.475-5.036,13.027-8.619C261.297,235.058,267.755,203.855,243.542,203.855z"/>
				<g>
					<path style="fill:none;stroke:#263238;stroke-linecap:round;stroke-linejoin:round;stroke-miterlimit:10;" d="M239.236,224.744
						c0,0-6.616-2.045-8.66,2.045"/>
					<ellipse style="fill:#263238;" cx="235.223" cy="230.307" rx="0.885" ry="1.413"/>
					<path style="fill:none;stroke:#263238;stroke-linecap:round;stroke-linejoin:round;stroke-miterlimit:10;" d="M246.994,224.744
						c0,0,6.616-2.045,8.66,2.045"/>
					<ellipse style="fill:#263238;" cx="251.007" cy="230.307" rx="0.885" ry="1.413"/>
				</g>
				<path style="fill:#FFFFFF;stroke:#263238;stroke-linecap:round;stroke-linejoin:round;stroke-miterlimit:10;" d="
					M244.778,229.224c-0.87,1.984,1.864,7.948,0.87,8.942c-0.994,0.994-2.533,0.994-2.533,0.994"/>
				<path style="fill:#FFFFFF;stroke:#263238;stroke-linecap:round;stroke-linejoin:round;stroke-miterlimit:10;" d="
					M249.624,241.645c0,0-6.212,2.609-11.802,0"/>
				<path style="fill:#92E3A9;" d="M239.236,208.225c0,0-0.793,12.61-4.33,14.225c-0.917,0.419-1.992-0.186-3.793,1.367
					c0,0,0.807-1.864,0.807-4.535c0,0-1.344,7.827-10.196,15.343c-2.36,2.004-4.119,1.71-4.266,0.002
					c-1.006-11.71,0.029-34.099,22.351-35.471c0,0,13.048-4.845,21.246,8.075c4.74,7.471,6.4,15.275,6.503,21.993
					c0.008,0.496-1.251,3.827-1.251,3.827s0.472,5.72-0.419,8.593c0,0-4.186-11.691-7.63-14.855
					c-2.298-2.112-1.988-6.451-3.665-8.625c0,0,0.529,2.733-1.242,3.851c-0.954,0.602-3.128-0.255-4.859-0.293
					c-1.484-0.033-2.622,0.79-2.622,0.79S245.524,213.691,239.236,208.225z"/>
				<path style="fill:none;stroke:#263238;stroke-linecap:round;stroke-linejoin:round;stroke-miterlimit:10;" d="M220.342,236.546
					c0,0,0.303-0.978,1.382-1.921c8.749-7.635,10.196-15.343,10.196-15.343c0,2.671-0.807,4.535-0.807,4.535
					c1.801-1.553,2.876-0.948,3.793-1.367c3.537-1.615,4.33-14.225,4.33-14.225c6.288,5.466,6.633,14.287,6.633,14.287
					s1.139-0.822,2.622-0.79c1.732,0.038,3.905,0.895,4.859,0.293c1.771-1.118,1.242-3.851,1.242-3.851
					c1.677,2.174,1.367,6.513,3.665,8.625c2.117,1.946,4.516,7.115,6.049,10.809"/>
				<path style="fill:none;stroke:#263238;stroke-linecap:round;stroke-linejoin:round;stroke-miterlimit:10;" d="M217.273,243.428
					c0.483-4.268,0.454-6.227,0.454-6.227c-1.305-10.593-2.014-36.564,22.082-38.046c0,0,13.048-4.845,21.246,8.075
					c5.09,8.022,6.629,16.428,6.501,23.462"/>
			</g>
			<path style="fill:none;stroke:#263238;stroke-linecap:round;stroke-linejoin:round;stroke-miterlimit:10;" d="M253.962,213.857
				c0,0-1.622-9.321-11.112-11.991"/>
			<path style="fill:none;stroke:#263238;stroke-linecap:round;stroke-linejoin:round;stroke-miterlimit:10;" d="M259.564,208.225
				c0,0,6.017,9.197,4.127,20.999"/>
			<path style="fill:none;stroke:#263238;stroke-linecap:round;stroke-linejoin:round;stroke-miterlimit:10;" d="M234.338,203.742
				c0,0-1.907,12.583-10.153,20.014"/>
			<path style="fill:none;stroke:#263238;stroke-linecap:round;stroke-linejoin:round;stroke-miterlimit:10;" d="M227.679,207.521
				c0,0-9.015,8.266-10.471,19.787"/>
			<path style="fill:none;stroke:#263238;stroke-linecap:round;stroke-linejoin:round;stroke-miterlimit:10;" d="M239.236,208.225
				c0,0,0.189-2.485,0-4.483"/>
			<path style="fill:none;stroke:#263238;stroke-linecap:round;stroke-linejoin:round;stroke-miterlimit:10;" d="M217.386,284.738
				c0,0,2.848,6.059,1.209,11.271"/>
			<path style="fill:none;stroke:#263238;stroke-linecap:round;stroke-linejoin:round;stroke-miterlimit:10;" d="M284.506,290.688
				c0,0,0.151,4.796-4.326,7.763"/>
			<path style="fill:none;stroke:#263238;stroke-linecap:round;stroke-linejoin:round;stroke-miterlimit:10;" d="M286.978,321.072
				c0,0,6.142-3.31,12.906-1.655"/>
			<path style="fill:none;stroke:#263238;stroke-linecap:round;stroke-linejoin:round;stroke-miterlimit:10;" d="M224.185,320.013
				c0,0-4.91,3.163-9.037,2.173"/>
		</g>
	</g>
</g>
<g id="Character_1">
	<g>
		<path style="fill:#263238;stroke:#263238;stroke-linecap:round;stroke-linejoin:round;stroke-miterlimit:10;" d="M179.081,333.936
			H57.202v51.17c0,2.429,1.969,4.398,4.398,4.398h113.084c2.429,0,4.398-1.969,4.398-4.398V333.936z"/>
		<path style="fill:#FFFFFF;stroke:#263238;stroke-linecap:round;stroke-linejoin:round;stroke-miterlimit:10;" d="M179.081,333.936
			H57.202V185.955c0-2.429,1.969-4.398,4.398-4.398h113.084c2.429,0,4.398,1.969,4.398,4.398V333.936z"/>
		<g>
			<g>
				<defs>
					<path id="XMLID_3_" d="M65.135,302.898c0,0-6.456,10.465-7.934,11.788v13.351l22.518-12.57l2.404-16.419
						C82.124,299.049,68.773,298.688,65.135,302.898z"/>
				</defs>
				<use xlink:href="#XMLID_3_"  style="overflow:visible;fill:#FFFFFF;"/>
				<clipPath id="XMLID_00000181074496971545906680000001325918272973686418_">
					<use xlink:href="#XMLID_3_"  style="overflow:visible;"/>
				</clipPath>
				<path style="opacity:0.4;clip-path:url(#XMLID_00000181074496971545906680000001325918272973686418_);fill:#92E3A9;" d="
					M65.135,302.898c0,0-6.456,10.465-7.934,11.788v13.351l22.518-12.57l2.404-16.419C82.124,299.049,68.773,298.688,65.135,302.898
					z"/>
				
					<use xlink:href="#XMLID_3_"  style="overflow:visible;fill:none;stroke:#263238;stroke-linecap:round;stroke-linejoin:round;stroke-miterlimit:10;"/>
			</g>
			<g>
				<defs>
					<path id="XMLID_2_" d="M89.313,261.04c-10.767,5.052-17.11,24.488-22.162,38.586c0,0-2.347,1.588-2.015,3.272
						c0,0,1.9-1.523,7.491-1.002c5.59,0.521,11.605,14.714,11.605,14.714l14.915-16.984"/>
				</defs>
				<use xlink:href="#XMLID_2_"  style="overflow:visible;fill:#92E3A9;"/>
				<clipPath id="XMLID_00000134216235617867223450000007261328117889440647_">
					<use xlink:href="#XMLID_2_"  style="overflow:visible;"/>
				</clipPath>
				<path style="opacity:0.15;clip-path:url(#XMLID_00000134216235617867223450000007261328117889440647_);" d="M89.313,261.04
					c-10.767,5.052-17.11,24.488-22.162,38.586c0,0-2.347,1.588-2.015,3.272c0,0,1.9-1.523,7.491-1.002
					c5.59,0.521,11.605,14.714,11.605,14.714l14.915-16.984"/>
				
					<use xlink:href="#XMLID_2_"  style="overflow:visible;fill:none;stroke:#263238;stroke-linecap:round;stroke-linejoin:round;stroke-miterlimit:10;"/>
			</g>
			<g>
				<defs>
					<path id="XMLID_1_" d="M87.793,263.498c0.513-1.116,1.024-1.962,1.519-2.458c4.33-4.33,36.468-9.99,36.468-9.99
						s9.229,0.848,21.743,4.938c12.515,4.09,21.175,6.014,23.821,15.396c2.646,9.382-2.646,32.957-2.646,32.957l-2.406,29.596
						H83.058c0,0-1.48-28.736-2.497-33.119c-0.591-2.549,1.001-14.124,3.288-24.215"/>
				</defs>
				<use xlink:href="#XMLID_1_"  style="overflow:visible;fill:#92E3A9;"/>
				<clipPath id="XMLID_00000016068716882428153580000005145665803865235879_">
					<use xlink:href="#XMLID_1_"  style="overflow:visible;"/>
				</clipPath>
				<path style="opacity:0.15;clip-path:url(#XMLID_00000016068716882428153580000005145665803865235879_);" d="M170.84,292.62
					c-0.97,6.5-2.14,11.72-2.14,11.72l-1.04,12.83c-3.69,4.7-10.78,12.79-18.86,16.77h-44.07l-15.69-16.13l-6.54,6.07
					c-0.53-8.74-1.32-20.4-1.94-23.06c-0.47-2.03,0.44-9.79,1.99-17.95l39.05,46.24l28.3-18.3l15.83-23.13L170.84,292.62z"/>
				
					<use xlink:href="#XMLID_1_"  style="overflow:visible;fill:none;stroke:#263238;stroke-linecap:round;stroke-linejoin:round;stroke-miterlimit:10;"/>
			</g>
			<path style="fill:#FFFFFF;stroke:#263238;stroke-linecap:round;stroke-linejoin:round;stroke-miterlimit:10;" d="
				M112.212,238.667c0,0,5.338,11.547,0,16.358c0,0,1.97,8.179,5.533,10.104c3.563,1.924,21.605-10.344,21.605-10.344
				s-4.119-12.269-2.06-16.118H112.212z"/>
			<g>
				<g>
					<path style="fill:#FFFFFF;stroke:#263238;stroke-linecap:round;stroke-linejoin:round;stroke-miterlimit:10;" d="
						M142.751,221.055c0,0,2.021-2.195,3.013-1.473c0.992,0.722,2.165,2.766,1.624,4.631c-0.541,1.864-2.887,5.112-3.067,7.007
						c-0.18,1.894-1.397,4.041-2.728,2.787C140.261,232.753,142.751,221.055,142.751,221.055z"/>
					<path style="fill:#FFFFFF;stroke:#263238;stroke-linecap:round;stroke-linejoin:round;stroke-miterlimit:10;" d="
						M106.752,221.055c0,0-2.021-2.195-3.013-1.473c-0.992,0.722-2.165,2.766-1.624,4.631c0.541,1.864,2.887,5.112,3.067,7.007
						c0.18,1.894,1.397,4.041,2.728,2.787C109.242,232.753,106.752,221.055,106.752,221.055z"/>
				</g>
				<path style="fill:#FFFFFF;stroke:#263238;stroke-linecap:round;stroke-linejoin:round;stroke-miterlimit:10;" d="
					M124.324,195.686c25.403,0,18.531,30.716,13.856,41.578c-1.641,3.814-9.743,9.161-13.856,9.161
					c-3.825,0-11.475-5.036-13.027-8.619C106.569,226.889,100.111,195.686,124.324,195.686z"/>
				<g>
					<path style="fill:none;stroke:#263238;stroke-linecap:round;stroke-linejoin:round;stroke-miterlimit:10;" d="M128.63,216.575
						c0,0,6.616-2.045,8.66,2.045"/>
					<path style="fill:#263238;" d="M133.528,222.138c0,0.781-0.396,1.413-0.885,1.413c-0.489,0-0.885-0.633-0.885-1.413
						c0-0.781,0.396-1.413,0.885-1.413C133.132,220.725,133.528,221.358,133.528,222.138z"/>
					<path style="fill:none;stroke:#263238;stroke-linecap:round;stroke-linejoin:round;stroke-miterlimit:10;" d="M120.872,216.575
						c0,0-6.615-2.045-8.66,2.045"/>
					<path style="fill:#263238;" d="M115.974,222.138c0,0.781,0.396,1.413,0.885,1.413c0.489,0,0.885-0.633,0.885-1.413
						c0-0.781-0.396-1.413-0.885-1.413C116.37,220.725,115.974,221.358,115.974,222.138z"/>
				</g>
				<path style="fill:#FFFFFF;stroke:#263238;stroke-linecap:round;stroke-linejoin:round;stroke-miterlimit:10;" d="
					M121.771,227.942c-0.962,1.022,2.359,2.706,2.984,2.706c0.625,0,3.151-1.323,3.151-2.105"/>
				<path style="fill:#263238;" d="M108.317,224.213c0,0,1.504,6.796,2.165,7.397c0.661,0.601,3.067,2.466,3.067,2.466
					s4.45-2.225,5.353-2.285c0.902-0.06,3.789,0.541,6.134,0.541s4.029-0.962,5.353-0.301c1.323,0.661,4.871,2.706,4.871,2.706
					s3.488-2.947,3.669-3.127c0.18-0.18,2.165-7.397,2.165-7.397l0.728,0.614c0,0-0.788,16.948-2.111,18.752
					c-1.323,1.804-9.953,7.037-14.96,7.037c-5.007,0-15.051-5.232-15.532-6.856C108.738,242.135,107.656,225.476,108.317,224.213z"
					/>
				<path style="fill:none;stroke:#FFFFFF;stroke-linecap:round;stroke-linejoin:round;stroke-miterlimit:10;" d="M117.339,235.55
					c0,0,1.353,1.173,2.075,0.992c0.722-0.18,3.299-0.481,4.998-0.481s3.482,0.434,4.835,0.506c1.353,0.071,2.484-0.512,2.484-0.512
					"/>
				<path style="fill:#263238;" d="M134.84,204.336c0,0-9.111,3.428-19.576,0c0,0-3.428-0.201-4.781,1.524
					c-1.353,1.724,0,7.047,0.361,9.212c0.361,2.165-2.977,3.669-2.526,9.141l-0.451,2.068c0,0-3.699-9.405-2.797-16.983
					c0.902-7.578,4.962-10.104,4.962-10.104s2.18-6.544,14.963-6.495c13.777,0.053,15.167,7.51,15.167,7.51s8.57,6.473,1.66,26.77
					l-0.728-2.767c0,0,0.728-4.09-1.744-7.698c-1.203-1.756,0.722-7.036,0.271-9.743C139.17,204.066,134.84,204.336,134.84,204.336z
					"/>
			</g>
			<g>
				<path style="fill:#FFFFFF;stroke:#263238;stroke-linecap:round;stroke-linejoin:round;stroke-miterlimit:10;" d="
					M68.714,311.017c0,0,1.732-10.403,3.262-11.745c3.955-3.472,3.852-4.911,6.361-6.237c3.183-1.683,3.367-5.353,3.367-5.353
					s4.305,1.096-0.736,7.456c-0.817,1.031-1.877,2.773-2.511,4.487c-0.463,1.254,2.946,2.276,7.578,1.107
					c5.811-1.466,10.015,6.663,3.007,11.006c-2.75,1.704-6.918,4.871-10.729,9.036l-8.336,13.162H57.202v-14.079
					C57.202,319.858,65.827,315.347,68.714,311.017z"/>
				<path style="fill:#FFFFFF;stroke:#263238;stroke-linecap:round;stroke-linejoin:round;stroke-miterlimit:10;" d="
					M84.652,313.363c0,0,3.435-2.4,5.657-2.553"/>
				<path style="fill:#FFFFFF;stroke:#263238;stroke-linecap:round;stroke-linejoin:round;stroke-miterlimit:10;" d="M84.652,307.95
					c0,0,2.346-1.078,3.127-1.892c0.782-0.814,3.436-3.819,3.436-3.819"/>
			</g>
			<g>
				<path style="fill:#FFFFFF;stroke:#263238;stroke-linecap:round;stroke-linejoin:round;stroke-miterlimit:10;" d="M83.01,265.317
					c-1.666-0.524-6.548-0.042-7.813-0.464c-1.266-0.422-2.833,0.723-1.868,3.014c0.964,2.29,7.835,2.351,7.835,2.351L83.01,265.317
					z"/>
				<path style="fill:#FFFFFF;stroke:#263238;stroke-linecap:round;stroke-linejoin:round;stroke-miterlimit:10;" d="
					M76.683,267.219c0,0-5.287-0.678-6.64-0.274c-0.486,0.145-1.66,3.502-1.127,6.762c0.533,3.26,6.16,3.562,6.16,3.562
					L76.683,267.219z"/>
				<path style="fill:none;stroke:#263238;stroke-linecap:round;stroke-linejoin:round;stroke-miterlimit:10;" d="M70.194,270.217
					c0,0,0.603,1.507,2.652,1.326"/>
				<path style="fill:#FFFFFF;stroke:#263238;stroke-linecap:round;stroke-linejoin:round;stroke-miterlimit:10;" d="
					M71.396,272.195c0,0-4.336,2.181-4.697,4.05c-0.362,1.868,0.915,4.766,0.915,4.766l5.232-0.306L71.396,272.195z"/>
				<path style="fill:#FFFFFF;stroke:#263238;stroke-linecap:round;stroke-linejoin:round;stroke-miterlimit:10;" d="M69.318,279.28
					c0,0-2.258,2.208-2.861,3.052c-0.603,0.844,2.226,5.786,2.861,6.509c0.635,0.723,6.251,1.076,6.251,1.076
					S72.179,280.808,69.318,279.28z"/>
				<path style="fill:none;stroke:#263238;stroke-linecap:round;stroke-linejoin:round;stroke-miterlimit:10;" d="M70.194,287.455
					c0,0,2.772-0.454,2.362-2.857"/>
				<path style="fill:#FFFFFF;stroke:#263238;stroke-linecap:round;stroke-linejoin:round;stroke-miterlimit:10;" d="
					M70.973,286.025c3.009,2.635,7.908,6.803,10.533,8.043c3.444,1.628,16.322,27.959,29.33,39.869h36.688
					c0,0,8.287-11.165,11.322-17.7c3.034-6.536,8.17-24.568,8.17-24.568l-14.005-4.143l-13.772,15.872l-9.468,15.172
					c0,0-33.714-27.076-37.682-35.479c-3.968-8.403-7.121-17.768-9.078-17.774c-2.328-0.008-1.726,1.826-6.327,1.902
					c-2.152,0.035-2.334,2.568-4.201,4.201c-1.867,1.634-3.278,0.837-3.01,6.09c0.178,3.494-2.868,3.229-0.972,6.062"/>
				<path style="fill:#92E3A9;stroke:#263238;stroke-linecap:round;stroke-linejoin:round;stroke-miterlimit:10;" d="
					M150.897,265.334c-3.849,2.201-8.715,20.724-8.206,24.814c0.508,4.09-5.265,12.269-4.303,14.434c0,0,7.939-0.722,12.509,1.443
					c4.571,2.165,8.42,8.42,7.698,11.788c0,0,2.406,0,2.406-1.203c0-1.203,8.901-12.991,12.51-21.41
					c3.608-8.42,4.387-26.229-7.445-31.638"/>
				<path style="fill:#757575;stroke:#263238;stroke-linecap:round;stroke-linejoin:round;stroke-miterlimit:10;" d="
					M80.983,296.221c0,0,1.504-4.571,7.457-9.142c3.836-2.944,5.533-2.165,5.533-2.165l3.127,4.451l-0.377,0.661
					c0,0-1.964,0.494-4.916,3.007c-4.451,3.789-5.894,7.133-5.894,7.133H84.65L80.983,296.221z"/>
				<path style="fill:#FFFFFF;stroke:#263238;stroke-linecap:round;stroke-linejoin:round;stroke-miterlimit:10;" d="
					M94.695,290.026c0,2.425-1.966,4.39-4.39,4.39s-4.39-1.966-4.39-4.39s1.966-4.39,4.39-4.39S94.695,287.601,94.695,290.026z"/>
			</g>
			<path style="fill:none;stroke:#263238;stroke-linecap:round;stroke-linejoin:round;stroke-miterlimit:10;" d="M139.35,277.269
				c0,0-0.785,10.605,1.85,14.937"/>
			<path style="fill:none;stroke:#263238;stroke-linecap:round;stroke-linejoin:round;stroke-miterlimit:10;" d="M110.868,267.492
				c0,0,4.942,3.561,15.394-2.158"/>
			<path style="fill:none;stroke:#263238;stroke-linecap:round;stroke-linejoin:round;stroke-miterlimit:10;" d="M87.934,321.072
				c0,0,9.638,10.703,14.045,12.865"/>
		</g>
		<g>
			<path style="fill:#FFFFFF;" d="M114.406,343.311H67.793c-1.009,0-1.827,0.818-1.827,1.827c0,1.009,0.818,1.827,1.827,1.827
				h46.613c1.009,0,1.827-0.818,1.827-1.827C116.233,344.129,115.415,343.311,114.406,343.311z"/>
			<path style="fill:#FFFFFF;" d="M169.292,358.34H66.991c-0.566,0-1.025,0.459-1.025,1.025c0,0.566,0.459,1.025,1.025,1.025
				h102.301c0.566,0,1.025-0.459,1.025-1.025C170.317,358.799,169.858,358.34,169.292,358.34z"/>
			<path style="fill:#FFFFFF;" d="M150.45,363.437H66.991c-0.566,0-1.025,0.459-1.025,1.025c0,0.566,0.459,1.025,1.025,1.025h83.459
				c0.566,0,1.025-0.459,1.025-1.025C151.475,363.896,151.016,363.437,150.45,363.437z"/>
			<path style="fill:#FFFFFF;" d="M93.922,350.247H66.991c-0.566,0-1.025,0.459-1.025,1.025c0,0.566,0.459,1.025,1.025,1.025h26.932
				c0.566,0,1.025-0.459,1.025-1.025C94.947,350.706,94.489,350.247,93.922,350.247z"/>
			<path style="fill:#FFFFFF;" d="M166.796,379.315h2.458c0.587,0,1.062-0.476,1.062-1.062v-2.458c0-0.587-0.476-1.062-1.062-1.062
				h-2.458c-0.587,0-1.062,0.476-1.062,1.062v2.458C165.734,378.839,166.21,379.315,166.796,379.315z"/>
			<path style="fill:#FFFFFF;" d="M157.375,379.315h2.458c0.587,0,1.062-0.476,1.062-1.062v-2.458c0-0.587-0.476-1.062-1.062-1.062
				h-2.458c-0.587,0-1.062,0.476-1.062,1.062v2.458C156.313,378.839,156.788,379.315,157.375,379.315z"/>
			<path style="fill:#FFFFFF;" d="M147.954,379.315h2.458c0.587,0,1.062-0.476,1.062-1.062v-2.458c0-0.587-0.476-1.062-1.062-1.062
				h-2.458c-0.587,0-1.062,0.476-1.062,1.062v2.458C146.892,378.839,147.367,379.315,147.954,379.315z"/>
		</g>
	</g>
</g>
</svg>
