<?xml version="1.0" encoding="UTF-8" standalone="no"?>
<!-- Created with Inkscape (http://www.inkscape.org/) -->

<svg
   version="1.1"
   id="svg2"
   width="4000"
   height="2666.6667"
   viewBox="0 0 4000 2666.6667"
   sodipodi:docname="11235952_11136.eps"
   xmlns:inkscape="http://www.inkscape.org/namespaces/inkscape"
   xmlns:sodipodi="http://sodipodi.sourceforge.net/DTD/sodipodi-0.dtd"
   xmlns="http://www.w3.org/2000/svg"
   xmlns:svg="http://www.w3.org/2000/svg">
  <defs
     id="defs6">
    <clipPath
       clipPathUnits="userSpaceOnUse"
       id="clipPath622">
      <path
         d="m 13177.1,9331.6 c -32.6,0 -59,26.5 -59,59.1 v 805.1 c 0,32.6 26.4,59 59,59 h 812.4 c 32.6,0 59,-26.4 59,-59 0,-32.6 -26.4,-59 -59,-59 h -753.3 v -746.1 c 0,-32.6 -26.5,-59.1 -59.1,-59.1"
         id="path620" />
    </clipPath>
  </defs>
  <sodipodi:namedview
     id="namedview4"
     pagecolor="#ffffff"
     bordercolor="#000000"
     borderopacity="0.25"
     inkscape:showpageshadow="2"
     inkscape:pageopacity="0.0"
     inkscape:pagecheckerboard="0"
     inkscape:deskcolor="#d1d1d1" />
  <g
     id="g8"
     inkscape:groupmode="layer"
     inkscape:label="ink_ext_XXXXXX"
     transform="matrix(1.3333333,0,0,-1.3333333,0,2666.6667)">
    <g
       id="g10"
       transform="scale(0.1)">
      <path
         d="M 0,0 H 30000 V 20000 H 0 Z"
         style="fill:#ffffff;fill-opacity:1;fill-rule:nonzero;stroke:none"
         id="path12" />
      <path
         d="m 6016.23,1645 c 0,0 -2922.34,3771.5 125.24,7055 3387.09,3649.3 186.89,7732.2 3561.72,9185.7 2602.21,1120.8 4036.51,416.6 5673.41,-287.6 1356.7,-583.6 2852.5,-1167.2 5267.8,-711.8 4450.2,839.2 4355.7,-5717.8 3040.5,-8057.8 C 22594.4,6888.3 26797.2,5926.7 24646,1653.8 L 6016.23,1645"
         style="fill:#ebf3fa;fill-opacity:1;fill-rule:nonzero;stroke:none"
         id="path14" />
      <path
         d="m 17929.6,12825.4 h -441.1 c 332.3,616.4 897.6,1292.6 1813.2,1446.2 0,0 16.3,2.5 43.1,2.5 96.4,0 328.5,-32.1 427.2,-327.1 126,-377 -560.7,-399.7 -980.9,-565 -203.2,-80 -535.5,-279.9 -861.5,-556.6"
         style="fill:#d9e5fc;fill-opacity:1;fill-rule:nonzero;stroke:none"
         id="path16" />
      <path
         d="M 17191.1,12825.4 H 17016 c 52,598 270.3,1436.6 1041.8,1855.5 0,0 63.9,33.5 152.5,33.5 86.5,0 196.5,-31.9 293.3,-158.2 195.9,-255.7 -324.3,-454 -602.6,-691.4 -189.2,-161.4 -511.2,-571.2 -709.9,-1039.4"
         style="fill:#d9e5fc;fill-opacity:1;fill-rule:nonzero;stroke:none"
         id="path18" />
      <path
         d="m 9847.85,12819.1 c 216.55,616.2 1263.05,341.6 1263.05,341.6 0,0 639.4,-1153.2 847,-1194.9 207.7,-41.6 -354.1,1092.8 -354.1,1092.8 408.9,9.4 1407,-564.5 1407,-564.5 0,0 -160,-1278.8 51.5,-1268 211.5,10.8 83.9,1139.5 83.9,1139.5 384.3,-146.8 717.3,-632.2 717.3,-632.2 403.4,-780.3 -619.4,-1258.1 -619.4,-1258.1 0,0 -45.9,-444.4 191.6,-975.5 v 0 c 0,0 55.1,-98.9 106.4,-263.8 l -107.1,7.9 c -6.7,29.3 -14.3,57.8 -23,85.2 l -0.1,0.5 -0.4,1.2 c -6.1,17.1 -15,41.5 -26,71.1 v 0.1 l -0.1,0.2 c -28,66.5 -46.6,115.4 -58.1,150.6 l -0.1,0.3 c -83.2,208.4 -205.2,480.8 -295.4,542.7 0,0 13.1,15.8 26.5,47.5 -8.4,-15.2 -17.3,-30.9 -26.5,-47.5 -212.3,-379.4 -1134,-377.4 -1637.1,-235 -503.1,142.4 -269.8,270 22.5,483.6 292.2,213.6 864,109.5 1041,188.7 177,79.2 -65.1,189.2 -407.5,188 -342.5,-1.1 -537.9,-329.1 -1091.8,-341 -554,-11.9 -897,1053.7 -897,1053.7 371.2,-145.9 1067.7,13.6 1103.6,142.6 35.8,129.1 -973.7,190.2 -1128,241.1 -154.28,50.9 -406.2,385.5 -189.65,1001.6"
         style="fill:#cde0fb;fill-opacity:1;fill-rule:nonzero;stroke:none"
         id="path20" />
      <path
         d="m 8244.06,3134.2 c -379.39,661.7 661.96,1377.1 661.96,1377.1 0,0 1507.38,-314.9 1702.68,-163.1 195.2,151.7 -1236.23,520.9 -1236.23,520.9 303.78,368.7 1572.83,812.9 1572.83,812.9 0,0 1008.3,-1117.3 1160.1,-922.1 151.9,195.1 -943.2,943.8 -943.2,943.8 423,227.6 1106.2,151.5 1106.2,151.5 997.7,-238.9 639.5,-1507.7 639.5,-1507.7 0,0 357.8,-379.7 1008.4,-575.1 v 0 c 0,0 129.5,-26.7 314.5,-107.3 l -88.7,-88.6 c -31.1,16.5 -62,31.5 -93,44.8 l -0.5,0.2 -1.4,0.6 c -19.7,7.6 -48,18.4 -82.6,31.3 h -0.2 l -0.1,0.1 c -80.2,25.9 -137.7,46.8 -177.5,63.6 l -0.4,0.1 c -247.7,85.4 -581.6,185.5 -705.1,153.1 0,0 -4,23.6 -21.7,59.6 6.9,-19 14.1,-38.8 21.7,-59.6 173.3,-477.3 -531.8,-1290.5 -1041.7,-1626.5 -509.8,-336.1 -444.6,-32.4 -410.4,388.9 34.3,421.4 562.6,847.4 627.8,1064.3 65.1,216.9 -216.9,86.8 -477.3,-216.8 -260.4,-303.6 -119.5,-726.6 -531.8,-1225.4 -412.2,-498.7 -1615.9,11.4 -1615.9,11.4 412.2,216.7 802.8,954.1 716.1,1084.3 -86.7,130.1 -911.21,-715.5 -1073.92,-813.1 -162.7,-97.6 -650.73,-64.9 -1030.12,596.8"
         style="fill:#afcdfb;fill-opacity:1;fill-rule:nonzero;stroke:none"
         id="path22" />
      <path
         d="m 20380.8,9288.1 c -558.8,0 -1419.6,220.3 -1539.7,639.4 v 0 c -27.8,-10.8 -61.2,-35.5 -97.8,-69.6 v 2219.9 c 156.4,95.5 345.5,185.9 529.2,210.6 0,0 -404.2,-1129.4 -189.4,-1191.6 4.8,-1.4 9.6,-2.1 14.4,-2.1 206.8,0.1 345.2,1293.1 345.2,1293.1 0,0 872,260.9 1377.9,260.9 78.7,0 148.7,-6.4 205,-21 0,0 -851.8,-1030.2 -628.3,-1037.6 0.8,0 1.6,-0.1 2.4,-0.1 227.8,0.1 1157.3,1023.5 1157.3,1023.5 0,0 6.9,0.2 19.9,0.2 152.5,0 1127.9,-24.8 1195.7,-656.8 73.6,-685.8 -266.3,-968.8 -437.2,-983.8 -6.8,-0.6 -15.2,-0.9 -24.8,-0.9 -80.7,0 -253.2,20.1 -442.5,40.1 -189.4,20 -395.6,40.1 -543.9,40.1 -124.5,0 -208.1,-14.2 -206.5,-54.3 5.2,-129.8 577,-420.7 993.1,-420.7 37,0 72.7,2.3 106.7,7.2 0,0 -530.8,-880.6 -1061.9,-880.6 -38.4,0 -76.8,4.6 -114.9,14.4 -566.6,146.2 -688,530.6 -1039.8,614.6 -116.2,27.8 -224.1,40.4 -310.6,40.4 -175.3,0 -262.9,-51.9 -153.8,-135.1 162.8,-124.2 775.7,-155.5 1024.5,-445.7 248.8,-290.3 457.7,-477.9 -93.9,-502.6 -27.8,-1.3 -56.6,-1.9 -86.3,-1.9 m -1555.5,694.6 c 6.2,-35.7 15.8,-55.2 15.8,-55.2 -5.5,19.3 -10.8,37.6 -15.8,55.2"
         style="fill:#cde0fb;fill-opacity:1;fill-rule:nonzero;stroke:none"
         id="path24" />
      <path
         d="m 22360.4,3186.6 c -247.1,0 -423.2,89.9 -495.5,181.7 -144.7,183.5 -706.8,1471.6 -896.1,1471.6 -7.9,0 -15.2,-2.2 -21.7,-6.9 -163.4,-116.7 -30.7,-1179.2 365,-1627 0,0 -32.4,-1.3 -88.9,-1.3 -218.9,0 -799.5,18.4 -1260.1,197.8 91.3,54.7 188.7,107.7 227.9,207.2 0,0 174,580.7 -332.9,597.8 -2.7,0.1 -5.4,0.1 -8,0.1 -46.3,0 -95.4,-13.4 -146.3,-37.9 -47.3,43 -118,71.4 -220.9,74.9 -2.6,0 -5.2,0.1 -7.8,0.1 -53.1,0 -111.1,-18.1 -172.4,-50.8 3.6,49 1.3,97.2 -5,153.3 147.5,62.4 239.2,205 239.2,205 0,0 -184.6,113.4 -265.3,135.6 25.3,364.6 126.1,651.1 17.2,953.1 -125.7,348.8 -306.2,594.1 -404.6,594.1 -37.7,0 -63.4,-36.2 -69.1,-116.6 -18.7,-261.7 337.8,-899.7 296.4,-1404.7 -45.9,5.7 -73.5,7.7 -74,7.7 v 0 c 40.6,-29.5 22.2,-63.6 -26.4,-75.8 -2.6,-0.7 -4.7,-1.1 -5.8,-1.3 -6,-1.2 -12.5,-1.8 -19.5,-1.8 -61.7,0 -158,43.8 -242.5,89.9 V 8297 c 190.2,241.8 465.5,427.3 863.1,427.3 56.8,0 116.3,-3.8 178.2,-11.7 0,0 854.3,-220 1258.1,-685.8 0,0 -1654.9,-399.1 -1561.6,-702.5 13.7,-44.5 62.4,-63.5 135.7,-63.5 425.4,0 1676.2,641.2 1676.2,641.2 0,0 1319.9,-1111.2 1516.4,-1691.8 0,0 -694.9,77.1 -1204,77.1 -329.4,0 -581.2,-32.3 -516.3,-138.8 165,-271 2116.8,-580 2116.8,-580 0,0 923.2,-1332.8 166.6,-1953.6 -393.4,-322.9 -744.4,-428.3 -1012.1,-428.3"
         style="fill:#dfebfa;fill-opacity:1;fill-rule:nonzero;stroke:none"
         id="path26" />
      <path
         d="m 11742.3,8273.3 c -35.9,-96.6 -98.2,-208.7 -163.5,-236.5 -74.1,-31.6 -105,-76.3 -105,-76.3 l -59.8,34.7 -71.4,41.6 c 0,0 1.7,7.9 5.2,20.8 3.4,12.9 8.8,30.8 16,50.7 0,0 21.9,28.1 8.5,63.5 -13.4,35.4 -10.7,90 12.2,123.3 22.9,33.3 45,115.4 58.8,112.9 33.4,-5.7 -16.4,-118.5 -2.1,-139.4 12.9,-18.9 29.1,-12.4 32.1,-11 l 0.5,0.3 c 93.7,41.2 207.4,263.4 257.7,233.4 18.8,-11.2 26.1,-176.9 10.8,-218"
         style="fill:#ffb27d;fill-opacity:1;fill-rule:nonzero;stroke:none"
         id="path28" />
      <path
         d="m 11418.1,8138.8 117.4,-82.5 c 8.3,-5.9 19.8,-3.8 25.6,4.5 l 300.8,427.9 c 5.8,8.3 3.8,19.9 -4.5,25.7 l -117.4,82.5 c -8.3,5.8 -19.8,3.8 -25.7,-4.5 l -300.7,-427.9 c -5.8,-8.3 -3.8,-19.9 4.5,-25.7"
         style="fill:#2b478b;fill-opacity:1;fill-rule:nonzero;stroke:none"
         id="path30" />
      <path
         d="m 11525.5,8063.3 68.9,-48.4 c 6.3,-4.5 15.1,-2.9 19.5,3.4 l 305.8,435.1 c 4.5,6.4 2.9,15.2 -3.4,19.6 l -68.8,48.4 c -6.3,4.4 -15.1,2.9 -19.5,-3.5 l -305.9,-435.1 c -4.4,-6.3 -2.9,-15.1 3.4,-19.5"
         style="fill:#233862;fill-opacity:1;fill-rule:nonzero;stroke:none"
         id="path32" />
      <path
         d="m 9733.76,8752.9 c 0,0 597.44,-1042 814.14,-1233.7 l 794.7,592.4 c 0,0 115.3,-35.3 165.8,-151.1 0,0 -482.6,-983.2 -957.7,-1024.9 -475.2,-41.6 -1142.04,1178.5 -1142.04,1178.5 l 325.1,638.8"
         style="fill:#94b0ed;fill-opacity:1;fill-rule:nonzero;stroke:none"
         id="path34" />
      <path
         d="m 8381.85,1665.8 h -345.18 c -43.45,23.6 -82.17,77.6 -94.41,158.2 -16.85,111.2 -141.49,171.8 -168.46,262.8 -26.92,90.9 111.2,218.9 111.2,218.9 l 23.11,29.8 24.04,30.9 229.1,-53.9 c 0,0 5.68,-54.6 9.11,-124.1 2.5,-50.1 3.81,-108.1 1,-158.9 -6.74,-121.3 33.9,-251.9 141.68,-275.5 79.67,-17.4 76.12,-64.7 68.81,-88.2"
         style="fill:#233862;fill-opacity:1;fill-rule:nonzero;stroke:none"
         id="path36" />
      <path
         d="m 10385.1,1665.8 h -789.39 c -37.97,46.3 -23.98,217.3 -18.23,273.1 1.18,11.3 1.99,17.8 1.99,17.8 0,0 269.56,215.6 306.59,50.5 1.13,-5.1 2.5,-10.2 4,-15.2 46.64,-154.4 255.84,-224.6 376.74,-244.1 78.5,-12.8 107.6,-53.6 118.3,-82.1"
         style="fill:#233862;fill-opacity:1;fill-rule:nonzero;stroke:none"
         id="path38" />
      <path
         d="m 10234.7,6072.1 c 0,0 -40.9,-510.7 -89.1,-1124.6 -65.3,-833.8 -144,-1858.1 -151.75,-2052.2 -13.44,-336.9 -67.41,-875.9 -67.41,-875.9 0,0 -127.95,-128 -384.04,-74.1 0,0 -228.21,769.4 -293.39,1583.5 -1.01,13.3 -2.03,26.8 -3.03,40.2 -60.64,828.7 -154.94,2573.8 -154.94,2573.8 l 1143.66,-70.7"
         style="fill:#f99746;fill-opacity:1;fill-rule:nonzero;stroke:none"
         id="path40" />
      <path
         d="m 10234.7,6072.1 c 0,0 -40.9,-510.7 -89.1,-1124.6 L 9249.01,3528.8 c -1.01,13.3 -2.03,26.8 -3.03,40.2 -60.64,828.7 -154.94,2573.8 -154.94,2573.8 l 1143.66,-70.7"
         style="fill:#ed7d2b;fill-opacity:1;fill-rule:nonzero;stroke:none"
         id="path42" />
      <path
         d="m 10047.8,6011.4 c 0,0 -737.8,-1849.4 -1222.91,-2718.6 -485.11,-869.1 -636.71,-1111.7 -636.71,-1111.7 0,0 -277.92,111.2 -303.19,187 0,0 185.51,1677.9 510.38,2086.9 183.57,231.2 399.2,924.8 409.31,1167.3 10.11,242.6 65.69,722.6 65.69,722.6 l 1177.43,-333.5"
         style="fill:#f99746;fill-opacity:1;fill-rule:nonzero;stroke:none"
         id="path44" />
      <path
         d="m 9864.11,8707.6 c -288.29,-91 -787.14,154.5 -787.14,154.5 0,0 265.81,199.5 251.89,614.3 l 222.92,-179.6 151.41,-122 c 0,0 -0.62,-72 -17.16,-198 -4.37,-33.2 33.04,-106.3 65.45,-147.5 87.4,-110.8 112.63,-121.7 112.63,-121.7"
         style="fill:#ffb27d;fill-opacity:1;fill-rule:nonzero;stroke:none"
         id="path46" />
      <path
         d="m 9703.19,9174.8 c 0,0 -0.62,-72 -17.16,-198 -167.79,28.7 -358.11,299.9 -358.11,299.9 85.42,24.7 160.23,29.1 223.86,20.1 l 151.41,-122"
         style="fill:#ed975d;fill-opacity:1;fill-rule:nonzero;stroke:none"
         id="path48" />
      <path
         d="m 9791.36,9181.6 c 0,0 -476.2,-79.1 -520.9,218.2 -44.7,297.3 -136.28,487.3 165.88,550.4 302.16,63.1 378.42,-41.5 417.48,-137.1 39.06,-95.6 60.26,-603.3 -62.46,-631.5"
         style="fill:#ffb27d;fill-opacity:1;fill-rule:nonzero;stroke:none"
         id="path50" />
      <path
         d="m 10266.5,6029.5 c -8.7,-7.2 -18.8,-11.5 -30.3,-11.5 -108.3,1.5 -423.97,-58.7 -691.1,-31.2 -225.2,21.6 -424.52,88.3 -638.58,184.2 -28.42,12.8 -93.84,47.7 -92.37,79.5 0.95,34.8 4.41,85.2 8.75,148.8 15.15,220.9 41.55,600.9 15.81,1039.3 -4.63,81.7 -7.06,162.7 -7.35,242.4 -2.21,594.2 115.61,1116.8 352.37,1293.7 20.22,14.5 144.37,-46.2 258.44,-102.5 105.4,-52 210.79,-57.7 310.37,-37.5 l 99.59,-88.1 c 121.28,-112.6 254.07,-265.6 311.87,-498 49.1,-197.8 77.9,-554.4 93.8,-924 7.2,-167.5 13,-336.4 14.5,-496.7 v -5.7 c 1.4,-15.9 1.4,-33.3 1.4,-49.2 5.8,-411.4 0,-737.6 -7.2,-743.5"
         style="fill:#aec3ff;fill-opacity:1;fill-rule:nonzero;stroke:none"
         id="path52" />
      <path
         d="m 8822.9,6399.3 c 15.15,220.9 41.55,600.9 15.81,1039.3 -4.63,81.7 -7.06,162.7 -7.35,242.4 98.63,239.2 179.23,412.7 179.23,412.7 h 248.59 c 0,0 182.26,-1244.8 -436.28,-1694.4"
         style="fill:#94b0ed;fill-opacity:1;fill-rule:nonzero;stroke:none"
         id="path54" />
      <path
         d="m 7549.5,4988.4 1060.23,-151.1 c 137.98,-19.6 266.97,77.2 286.63,215.2 l 65.48,459.4 c 19.65,138 -77.15,267 -215.14,286.6 l -1060.23,151.1 c -137.98,19.7 -266.96,-77.1 -286.63,-215.1 L 7334.37,5275 c -19.66,-137.9 77.15,-266.9 215.13,-286.6"
         style="fill:#233862;fill-opacity:1;fill-rule:nonzero;stroke:none"
         id="path56" />
      <path
         d="m 7978.42,6010.4 c 2,13.9 12.86,24.4 26.03,26.5 3.06,0.5 6.18,0.6 9.43,0.1 l 47.08,-6.7 174.46,-24.9 95.1,-13.5 c 17.11,-2.5 29.04,-18.4 26.6,-35.4 l -14.11,-99.2 -378.7,54 z m 828.16,-348.8 v 0 c -29.79,74.6 -94.1,133.5 -175.65,153.4 h -0.06 l -0.19,0.1 c -7.99,1.9 -16.11,3.6 -24.48,4.8 l -211.11,30 14.11,99.1 c 3.18,22.2 -2.5,44.3 -15.99,62.2 -13.48,18 -33.15,29.6 -55.26,32.8 l -55.07,7.8 -221.66,31.6 -39.97,5.7 c -45.77,6.5 -88.41,-25.4 -94.91,-71.2 l -14.11,-99.2 -364.41,51.9 c -138.49,19.8 -267.93,-77.4 -287.73,-215.9 l -66.18,-464.8 c -19.74,-138.5 77.42,-267.9 215.91,-287.7 l 1058.32,-150.8 c 18.68,-2.7 37.16,-3.2 55.2,-1.8 h 0.06 0.13 c 28.97,2.2 56.82,9.5 82.61,20.9 77.8,34.3 136.87,106.9 149.73,196.9 l 66.25,464.7 c 6.43,45.4 0.38,89.6 -15.54,129.5"
         style="fill:#2b478b;fill-opacity:1;fill-rule:nonzero;stroke:none"
         id="path58" />
      <path
         d="m 8355.74,6356.5 c 0,0 -55.69,-74.2 -57.89,-103.8 -14.97,-200.9 76.81,-228.7 -160.81,-340.2 0,0 -101.45,-38.7 -103.17,40 -1.73,78.8 70.4,80.1 57.21,190.3 -15.21,127.2 -13.68,128.4 69.79,194.8 l 55.27,91.4 139.6,-72.5"
         style="fill:#ffb27d;fill-opacity:1;fill-rule:nonzero;stroke:none"
         id="path60" />
      <path
         d="m 8214.14,6299.6 c 89.52,-17.4 186.56,-10.3 186.56,-10.3 0,0 265.76,820.9 299.96,895.9 34.21,75 789.4,962.7 789.4,962.7 l -314.6,787.3 c 0,0 -816.82,-1364.4 -899.76,-1556.1 C 8138.65,7062.3 8091.08,6352 8091.08,6352 c 0,0 52.75,-38.7 123.06,-52.4"
         style="fill:#aec3ff;fill-opacity:1;fill-rule:nonzero;stroke:none"
         id="path62" />
      <path
         d="m 9270.07,9428.4 c 0,0 48.87,8.2 40.98,75.5 -7.88,67.3 -7.78,155.3 46.95,138.9 54.72,-16.4 57.44,-60.2 79.93,-34.6 22.49,25.5 22.9,133.3 185.73,140.8 162.83,7.6 229.01,-49.1 304.73,-15.8 75.71,33.3 79.71,147.9 79.71,147.9 0,0 -21.52,-41 -54.05,-54 0,0 126.35,172.8 -19.93,291.3 -146.27,118.5 -295.4,40.9 -380.06,35.8 -186.49,-11.3 -306.96,-22.5 -367.88,-145 -60.92,-122.6 -35.78,-462.8 83.89,-580.8"
         style="fill:#2b478b;fill-opacity:1;fill-rule:nonzero;stroke:none"
         id="path64" />
      <path
         d="m 8267.91,6268.2 c 0,0 53.61,-55.9 57,-79.2 10.86,-74.6 35.78,-106.9 23.29,-115 -25.96,-16.9 -60.33,38.4 -76.74,88 -16.42,49.6 -3.55,106.2 -3.55,106.2"
         style="fill:#ffb27d;fill-opacity:1;fill-rule:nonzero;stroke:none"
         id="path66" />
      <path
         d="M 18154.7,1751 H 12981 c -325.1,0 -588.6,263.6 -588.6,588.7 v 9897 c 0,325.1 263.5,588.7 588.6,588.7 h 5173.7 c 325.1,0 588.6,-263.6 588.6,-588.7 v -9897 c 0,-325.1 -263.5,-588.7 -588.6,-588.7"
         style="fill:#6376e5;fill-opacity:1;fill-rule:nonzero;stroke:none"
         id="path68" />
      <path
         d="m 12981,12751.5 c -283.8,0 -514.7,-231 -514.7,-514.8 v -9897 c 0,-283.9 230.9,-514.8 514.7,-514.8 h 5173.7 c 283.8,0 514.8,230.9 514.8,514.8 v 9897 c 0,283.8 -231,514.8 -514.8,514.8 z M 18154.7,1677.1 H 12981 c -365.3,0 -662.5,297.2 -662.5,662.6 v 9897 c 0,365.3 297.2,662.5 662.5,662.5 h 5173.7 c 365.3,0 662.5,-297.2 662.5,-662.5 v -9897 c 0,-365.4 -297.2,-662.6 -662.5,-662.6"
         style="fill:#2b478b;fill-opacity:1;fill-rule:nonzero;stroke:none"
         id="path70" />
      <path
         d="m 13479.3,5734.1 h 4177.1 v 4177.2 h -4177.1 z"
         style="fill:#f0f2fc;fill-opacity:1;fill-rule:nonzero;stroke:none"
         id="path72" />
      <path
         d="m 14064,6006.4 h -166 v 166.1 h 166 v -166.1"
         style="fill:#2b478b;fill-opacity:1;fill-rule:nonzero;stroke:none"
         id="path74" />
      <path
         d="m 14230,6006.4 h -166 v 166.1 h 166 v -166.1"
         style="fill:#2b478b;fill-opacity:1;fill-rule:nonzero;stroke:none"
         id="path76" />
      <path
         d="m 14396,6006.4 h -166 v 166.1 h 166 v -166.1"
         style="fill:#2b478b;fill-opacity:1;fill-rule:nonzero;stroke:none"
         id="path78" />
      <path
         d="m 14562,6006.4 h -166 v 166.1 h 166 v -166.1"
         style="fill:#2b478b;fill-opacity:1;fill-rule:nonzero;stroke:none"
         id="path80" />
      <path
         d="m 14728,6006.4 h -166 v 166.1 h 166 v -166.1"
         style="fill:#2b478b;fill-opacity:1;fill-rule:nonzero;stroke:none"
         id="path82" />
      <path
         d="m 15060,6006.4 h -166 v 166.1 h 166 v -166.1"
         style="fill:#2b478b;fill-opacity:1;fill-rule:nonzero;stroke:none"
         id="path84" />
      <path
         d="m 15226,6006.4 h -166 v 166.1 h 166 v -166.1"
         style="fill:#2b478b;fill-opacity:1;fill-rule:nonzero;stroke:none"
         id="path86" />
      <path
         d="m 15724,6006.4 h -166 v 166.1 h 166 v -166.1"
         style="fill:#2b478b;fill-opacity:1;fill-rule:nonzero;stroke:none"
         id="path88" />
      <path
         d="M 16065.9,6006.4 H 15890 v 166.1 h 175.9 v -166.1"
         style="fill:#2b478b;fill-opacity:1;fill-rule:nonzero;stroke:none"
         id="path90" />
      <path
         d="m 16231.9,6006.4 h -166 v 166.1 h 166 v -166.1"
         style="fill:#2b478b;fill-opacity:1;fill-rule:nonzero;stroke:none"
         id="path92" />
      <path
         d="m 16563.9,6006.4 h -166 v 166.1 h 166 v -166.1"
         style="fill:#2b478b;fill-opacity:1;fill-rule:nonzero;stroke:none"
         id="path94" />
      <path
         d="m 16729.9,6006.4 h -166 v 166.1 h 166 v -166.1"
         style="fill:#2b478b;fill-opacity:1;fill-rule:nonzero;stroke:none"
         id="path96" />
      <path
         d="m 16895.9,6006.4 h -166 v 166.1 h 166 v -166.1"
         style="fill:#2b478b;fill-opacity:1;fill-rule:nonzero;stroke:none"
         id="path98" />
      <path
         d="m 17061.9,6006.4 h -166 v 166.1 h 166 v -166.1"
         style="fill:#2b478b;fill-opacity:1;fill-rule:nonzero;stroke:none"
         id="path100" />
      <path
         d="m 17227.9,6006.4 h -166 v 166.1 h 166 v -166.1"
         style="fill:#2b478b;fill-opacity:1;fill-rule:nonzero;stroke:none"
         id="path102" />
      <path
         d="m 17403.7,6006.4 h -175.8 v 166.1 h 175.8 v -166.1"
         style="fill:#2b478b;fill-opacity:1;fill-rule:nonzero;stroke:none"
         id="path104" />
      <path
         d="m 13898,6006.4 h -166 v 166.1 h 166 v -166.1"
         style="fill:#2b478b;fill-opacity:1;fill-rule:nonzero;stroke:none"
         id="path106" />
      <path
         d="m 14728,6172.5 h -166 v 166 h 166 v -166"
         style="fill:#2b478b;fill-opacity:1;fill-rule:nonzero;stroke:none"
         id="path108" />
      <path
         d="m 15226,6172.5 h -166 v 166 h 166 v -166"
         style="fill:#2b478b;fill-opacity:1;fill-rule:nonzero;stroke:none"
         id="path110" />
      <path
         d="m 15558,6172.5 h -166 v 166 h 166 v -166"
         style="fill:#2b478b;fill-opacity:1;fill-rule:nonzero;stroke:none"
         id="path112" />
      <path
         d="m 15724,6172.5 h -166 v 166 h 166 v -166"
         style="fill:#2b478b;fill-opacity:1;fill-rule:nonzero;stroke:none"
         id="path114" />
      <path
         d="m 15890,6172.5 h -166 v 166 h 166 v -166"
         style="fill:#2b478b;fill-opacity:1;fill-rule:nonzero;stroke:none"
         id="path116" />
      <path
         d="M 16065.9,6172.5 H 15890 v 166 h 175.9 v -166"
         style="fill:#2b478b;fill-opacity:1;fill-rule:nonzero;stroke:none"
         id="path118" />
      <path
         d="m 16563.9,6172.5 h -166 v 166 h 166 v -166"
         style="fill:#2b478b;fill-opacity:1;fill-rule:nonzero;stroke:none"
         id="path120" />
      <path
         d="m 17403.7,6172.5 h -175.8 v 166 h 175.8 v -166"
         style="fill:#2b478b;fill-opacity:1;fill-rule:nonzero;stroke:none"
         id="path122" />
      <path
         d="m 13898,6172.5 h -166 v 166 h 166 v -166"
         style="fill:#2b478b;fill-opacity:1;fill-rule:nonzero;stroke:none"
         id="path124" />
      <path
         d="m 14230,6338.5 h -166 v 166 h 166 v -166"
         style="fill:#2b478b;fill-opacity:1;fill-rule:nonzero;stroke:none"
         id="path126" />
      <path
         d="m 14396,6338.5 h -166 v 166 h 166 v -166"
         style="fill:#2b478b;fill-opacity:1;fill-rule:nonzero;stroke:none"
         id="path128" />
      <path
         d="m 14728,6338.5 h -166 v 166 h 166 v -166"
         style="fill:#2b478b;fill-opacity:1;fill-rule:nonzero;stroke:none"
         id="path130" />
      <path
         d="m 15060,6338.5 h -166 v 166 h 166 v -166"
         style="fill:#2b478b;fill-opacity:1;fill-rule:nonzero;stroke:none"
         id="path132" />
      <path
         d="m 15226,6338.5 h -166 v 166 h 166 v -166"
         style="fill:#2b478b;fill-opacity:1;fill-rule:nonzero;stroke:none"
         id="path134" />
      <path
         d="m 15392,6338.5 h -166 v 166 h 166 v -166"
         style="fill:#2b478b;fill-opacity:1;fill-rule:nonzero;stroke:none"
         id="path136" />
      <path
         d="m 15724,6338.5 h -166 v 166 h 166 v -166"
         style="fill:#2b478b;fill-opacity:1;fill-rule:nonzero;stroke:none"
         id="path138" />
      <path
         d="m 15890,6338.5 h -166 v 166 h 166 v -166"
         style="fill:#2b478b;fill-opacity:1;fill-rule:nonzero;stroke:none"
         id="path140" />
      <path
         d="M 16065.9,6338.5 H 15890 v 166 h 175.9 v -166"
         style="fill:#2b478b;fill-opacity:1;fill-rule:nonzero;stroke:none"
         id="path142" />
      <path
         d="m 16231.9,6338.5 h -166 v 166 h 166 v -166"
         style="fill:#2b478b;fill-opacity:1;fill-rule:nonzero;stroke:none"
         id="path144" />
      <path
         d="m 16563.9,6338.5 h -166 v 166 h 166 v -166"
         style="fill:#2b478b;fill-opacity:1;fill-rule:nonzero;stroke:none"
         id="path146" />
      <path
         d="m 16895.9,6338.5 h -166 v 166 h 166 v -166"
         style="fill:#2b478b;fill-opacity:1;fill-rule:nonzero;stroke:none"
         id="path148" />
      <path
         d="m 17061.9,6338.5 h -166 v 166 h 166 v -166"
         style="fill:#2b478b;fill-opacity:1;fill-rule:nonzero;stroke:none"
         id="path150" />
      <path
         d="m 17403.7,6338.5 h -175.8 v 166 h 175.8 v -166"
         style="fill:#2b478b;fill-opacity:1;fill-rule:nonzero;stroke:none"
         id="path152" />
      <path
         d="m 13898,6338.5 h -166 v 166 h 166 v -166"
         style="fill:#2b478b;fill-opacity:1;fill-rule:nonzero;stroke:none"
         id="path154" />
      <path
         d="m 14230,6504.5 h -166 v 166 h 166 v -166"
         style="fill:#2b478b;fill-opacity:1;fill-rule:nonzero;stroke:none"
         id="path156" />
      <path
         d="m 14396,6504.5 h -166 v 166 h 166 v -166"
         style="fill:#2b478b;fill-opacity:1;fill-rule:nonzero;stroke:none"
         id="path158" />
      <path
         d="m 14728,6504.5 h -166 v 166 h 166 v -166"
         style="fill:#2b478b;fill-opacity:1;fill-rule:nonzero;stroke:none"
         id="path160" />
      <path
         d="m 15060,6504.5 h -166 v 166 h 166 v -166"
         style="fill:#2b478b;fill-opacity:1;fill-rule:nonzero;stroke:none"
         id="path162" />
      <path
         d="m 15392,6504.5 h -166 v 166 h 166 v -166"
         style="fill:#2b478b;fill-opacity:1;fill-rule:nonzero;stroke:none"
         id="path164" />
      <path
         d="m 15724,6504.5 h -166 v 166 h 166 v -166"
         style="fill:#2b478b;fill-opacity:1;fill-rule:nonzero;stroke:none"
         id="path166" />
      <path
         d="m 16563.9,6504.5 h -166 v 166 h 166 v -166"
         style="fill:#2b478b;fill-opacity:1;fill-rule:nonzero;stroke:none"
         id="path168" />
      <path
         d="m 16895.9,6504.5 h -166 v 166 h 166 v -166"
         style="fill:#2b478b;fill-opacity:1;fill-rule:nonzero;stroke:none"
         id="path170" />
      <path
         d="m 17061.9,6504.5 h -166 v 166 h 166 v -166"
         style="fill:#2b478b;fill-opacity:1;fill-rule:nonzero;stroke:none"
         id="path172" />
      <path
         d="m 17403.7,6504.5 h -175.8 v 166 h 175.8 v -166"
         style="fill:#2b478b;fill-opacity:1;fill-rule:nonzero;stroke:none"
         id="path174" />
      <path
         d="m 13898,6504.5 h -166 v 166 h 166 v -166"
         style="fill:#2b478b;fill-opacity:1;fill-rule:nonzero;stroke:none"
         id="path176" />
      <path
         d="m 14728,6670.5 h -166 v 166 h 166 v -166"
         style="fill:#2b478b;fill-opacity:1;fill-rule:nonzero;stroke:none"
         id="path178" />
      <path
         d="m 15060,6670.5 h -166 v 166 h 166 v -166"
         style="fill:#2b478b;fill-opacity:1;fill-rule:nonzero;stroke:none"
         id="path180" />
      <path
         d="m 15226,6670.5 h -166 v 166 h 166 v -166"
         style="fill:#2b478b;fill-opacity:1;fill-rule:nonzero;stroke:none"
         id="path182" />
      <path
         d="m 15392,6670.5 h -166 v 166 h 166 v -166"
         style="fill:#2b478b;fill-opacity:1;fill-rule:nonzero;stroke:none"
         id="path184" />
      <path
         d="m 15724,6670.5 h -166 v 166 h 166 v -166"
         style="fill:#2b478b;fill-opacity:1;fill-rule:nonzero;stroke:none"
         id="path186" />
      <path
         d="m 15890,6670.5 h -166 v 166 h 166 v -166"
         style="fill:#2b478b;fill-opacity:1;fill-rule:nonzero;stroke:none"
         id="path188" />
      <path
         d="m 16231.9,6670.5 h -166 v 166 h 166 v -166"
         style="fill:#2b478b;fill-opacity:1;fill-rule:nonzero;stroke:none"
         id="path190" />
      <path
         d="m 16563.9,6670.5 h -166 v 166 h 166 v -166"
         style="fill:#2b478b;fill-opacity:1;fill-rule:nonzero;stroke:none"
         id="path192" />
      <path
         d="m 17403.7,6670.5 h -175.8 v 166 h 175.8 v -166"
         style="fill:#2b478b;fill-opacity:1;fill-rule:nonzero;stroke:none"
         id="path194" />
      <path
         d="m 13898,6670.5 h -166 v 166 h 166 v -166"
         style="fill:#2b478b;fill-opacity:1;fill-rule:nonzero;stroke:none"
         id="path196" />
      <path
         d="m 14064,6836.5 h -166 v 166 h 166 v -166"
         style="fill:#2b478b;fill-opacity:1;fill-rule:nonzero;stroke:none"
         id="path198" />
      <path
         d="m 14230,6836.5 h -166 v 166 h 166 v -166"
         style="fill:#2b478b;fill-opacity:1;fill-rule:nonzero;stroke:none"
         id="path200" />
      <path
         d="m 14396,6836.5 h -166 v 166 h 166 v -166"
         style="fill:#2b478b;fill-opacity:1;fill-rule:nonzero;stroke:none"
         id="path202" />
      <path
         d="m 14562,6836.5 h -166 v 166 h 166 v -166"
         style="fill:#2b478b;fill-opacity:1;fill-rule:nonzero;stroke:none"
         id="path204" />
      <path
         d="m 14728,6836.5 h -166 v 166 h 166 v -166"
         style="fill:#2b478b;fill-opacity:1;fill-rule:nonzero;stroke:none"
         id="path206" />
      <path
         d="m 15060,6836.5 h -166 v 166 h 166 v -166"
         style="fill:#2b478b;fill-opacity:1;fill-rule:nonzero;stroke:none"
         id="path208" />
      <path
         d="m 15392,6836.5 h -166 v 166 h 166 v -166"
         style="fill:#2b478b;fill-opacity:1;fill-rule:nonzero;stroke:none"
         id="path210" />
      <path
         d="m 15558,6836.5 h -166 v 166 h 166 v -166"
         style="fill:#2b478b;fill-opacity:1;fill-rule:nonzero;stroke:none"
         id="path212" />
      <path
         d="m 15890,6836.5 h -166 v 166 h 166 v -166"
         style="fill:#2b478b;fill-opacity:1;fill-rule:nonzero;stroke:none"
         id="path214" />
      <path
         d="m 16563.9,6836.5 h -166 v 166 h 166 v -166"
         style="fill:#2b478b;fill-opacity:1;fill-rule:nonzero;stroke:none"
         id="path216" />
      <path
         d="m 16729.9,6836.5 h -166 v 166 h 166 v -166"
         style="fill:#2b478b;fill-opacity:1;fill-rule:nonzero;stroke:none"
         id="path218" />
      <path
         d="m 16895.9,6836.5 h -166 v 166 h 166 v -166"
         style="fill:#2b478b;fill-opacity:1;fill-rule:nonzero;stroke:none"
         id="path220" />
      <path
         d="m 17061.9,6836.5 h -166 v 166 h 166 v -166"
         style="fill:#2b478b;fill-opacity:1;fill-rule:nonzero;stroke:none"
         id="path222" />
      <path
         d="m 17227.9,6836.5 h -166 v 166 h 166 v -166"
         style="fill:#2b478b;fill-opacity:1;fill-rule:nonzero;stroke:none"
         id="path224" />
      <path
         d="m 17403.7,6836.5 h -175.8 v 166 h 175.8 v -166"
         style="fill:#2b478b;fill-opacity:1;fill-rule:nonzero;stroke:none"
         id="path226" />
      <path
         d="m 13898,6836.5 h -166 v 166 h 166 v -166"
         style="fill:#2b478b;fill-opacity:1;fill-rule:nonzero;stroke:none"
         id="path228" />
      <path
         d="m 15558,7002.5 h -166 v 166 h 166 v -166"
         style="fill:#2b478b;fill-opacity:1;fill-rule:nonzero;stroke:none"
         id="path230" />
      <path
         d="m 15724,7002.5 h -166 v 166 h 166 v -166"
         style="fill:#2b478b;fill-opacity:1;fill-rule:nonzero;stroke:none"
         id="path232" />
      <path
         d="m 15890,7002.5 h -166 v 166 h 166 v -166"
         style="fill:#2b478b;fill-opacity:1;fill-rule:nonzero;stroke:none"
         id="path234" />
      <path
         d="m 16231.9,7002.5 h -166 v 166 h 166 v -166"
         style="fill:#2b478b;fill-opacity:1;fill-rule:nonzero;stroke:none"
         id="path236" />
      <path
         d="m 14064,7168.5 h -166 v 166 h 166 v -166"
         style="fill:#2b478b;fill-opacity:1;fill-rule:nonzero;stroke:none"
         id="path238" />
      <path
         d="m 14230,7168.5 h -166 v 166 h 166 v -166"
         style="fill:#2b478b;fill-opacity:1;fill-rule:nonzero;stroke:none"
         id="path240" />
      <path
         d="m 14396,7168.5 h -166 v 166 h 166 v -166"
         style="fill:#2b478b;fill-opacity:1;fill-rule:nonzero;stroke:none"
         id="path242" />
      <path
         d="m 14562,7168.5 h -166 v 166 h 166 v -166"
         style="fill:#2b478b;fill-opacity:1;fill-rule:nonzero;stroke:none"
         id="path244" />
      <path
         d="m 15060,7168.5 h -166 v 166 h 166 v -166"
         style="fill:#2b478b;fill-opacity:1;fill-rule:nonzero;stroke:none"
         id="path246" />
      <path
         d="m 15226,7168.5 h -166 v 166 h 166 v -166"
         style="fill:#2b478b;fill-opacity:1;fill-rule:nonzero;stroke:none"
         id="path248" />
      <path
         d="m 15392,7168.5 h -166 v 166 h 166 v -166"
         style="fill:#2b478b;fill-opacity:1;fill-rule:nonzero;stroke:none"
         id="path250" />
      <path
         d="m 15724,7168.5 h -166 v 166 h 166 v -166"
         style="fill:#2b478b;fill-opacity:1;fill-rule:nonzero;stroke:none"
         id="path252" />
      <path
         d="m 15890,7168.5 h -166 v 166 h 166 v -166"
         style="fill:#2b478b;fill-opacity:1;fill-rule:nonzero;stroke:none"
         id="path254" />
      <path
         d="M 16065.9,7168.5 H 15890 v 166 h 175.9 v -166"
         style="fill:#2b478b;fill-opacity:1;fill-rule:nonzero;stroke:none"
         id="path256" />
      <path
         d="m 16231.9,7168.5 h -166 v 166 h 166 v -166"
         style="fill:#2b478b;fill-opacity:1;fill-rule:nonzero;stroke:none"
         id="path258" />
      <path
         d="m 16397.9,7168.5 h -166 v 166 h 166 v -166"
         style="fill:#2b478b;fill-opacity:1;fill-rule:nonzero;stroke:none"
         id="path260" />
      <path
         d="m 16563.9,7168.5 h -166 v 166 h 166 v -166"
         style="fill:#2b478b;fill-opacity:1;fill-rule:nonzero;stroke:none"
         id="path262" />
      <path
         d="m 16729.9,7168.5 h -166 v 166 h 166 v -166"
         style="fill:#2b478b;fill-opacity:1;fill-rule:nonzero;stroke:none"
         id="path264" />
      <path
         d="m 16895.9,7168.5 h -166 v 166 h 166 v -166"
         style="fill:#2b478b;fill-opacity:1;fill-rule:nonzero;stroke:none"
         id="path266" />
      <path
         d="m 17227.9,7168.5 h -166 v 166 h 166 v -166"
         style="fill:#2b478b;fill-opacity:1;fill-rule:nonzero;stroke:none"
         id="path268" />
      <path
         d="m 17403.7,7168.5 h -175.8 v 166 h 175.8 v -166"
         style="fill:#2b478b;fill-opacity:1;fill-rule:nonzero;stroke:none"
         id="path270" />
      <path
         d="m 14230,7334.5 h -166 v 166 h 166 v -166"
         style="fill:#2b478b;fill-opacity:1;fill-rule:nonzero;stroke:none"
         id="path272" />
      <path
         d="m 14396,7334.5 h -166 v 166 h 166 v -166"
         style="fill:#2b478b;fill-opacity:1;fill-rule:nonzero;stroke:none"
         id="path274" />
      <path
         d="m 14894,7334.5 h -166 v 166 h 166 v -166"
         style="fill:#2b478b;fill-opacity:1;fill-rule:nonzero;stroke:none"
         id="path276" />
      <path
         d="m 15060,7334.5 h -166 v 166 h 166 v -166"
         style="fill:#2b478b;fill-opacity:1;fill-rule:nonzero;stroke:none"
         id="path278" />
      <path
         d="m 15392,7334.5 h -166 v 166 h 166 v -166"
         style="fill:#2b478b;fill-opacity:1;fill-rule:nonzero;stroke:none"
         id="path280" />
      <path
         d="m 15890,7334.5 h -166 v 166 h 166 v -166"
         style="fill:#2b478b;fill-opacity:1;fill-rule:nonzero;stroke:none"
         id="path282" />
      <path
         d="m 16231.9,7334.5 h -166 v 166 h 166 v -166"
         style="fill:#2b478b;fill-opacity:1;fill-rule:nonzero;stroke:none"
         id="path284" />
      <path
         d="m 16397.9,7334.5 h -166 v 166 h 166 v -166"
         style="fill:#2b478b;fill-opacity:1;fill-rule:nonzero;stroke:none"
         id="path286" />
      <path
         d="m 16729.9,7334.5 h -166 v 166 h 166 v -166"
         style="fill:#2b478b;fill-opacity:1;fill-rule:nonzero;stroke:none"
         id="path288" />
      <path
         d="m 16895.9,7334.5 h -166 v 166 h 166 v -166"
         style="fill:#2b478b;fill-opacity:1;fill-rule:nonzero;stroke:none"
         id="path290" />
      <path
         d="m 14064,7500.5 h -166 v 166 h 166 v -166"
         style="fill:#2b478b;fill-opacity:1;fill-rule:nonzero;stroke:none"
         id="path292" />
      <path
         d="m 14396,7500.5 h -166 v 166 h 166 v -166"
         style="fill:#2b478b;fill-opacity:1;fill-rule:nonzero;stroke:none"
         id="path294" />
      <path
         d="m 14562,7500.5 h -166 v 166 h 166 v -166"
         style="fill:#2b478b;fill-opacity:1;fill-rule:nonzero;stroke:none"
         id="path296" />
      <path
         d="m 14728,7500.5 h -166 v 166 h 166 v -166"
         style="fill:#2b478b;fill-opacity:1;fill-rule:nonzero;stroke:none"
         id="path298" />
      <path
         d="m 14894,7500.5 h -166 v 166 h 166 v -166"
         style="fill:#2b478b;fill-opacity:1;fill-rule:nonzero;stroke:none"
         id="path300" />
      <path
         d="m 15226,7500.5 h -166 v 166 h 166 v -166"
         style="fill:#2b478b;fill-opacity:1;fill-rule:nonzero;stroke:none"
         id="path302" />
      <path
         d="m 15392,7500.5 h -166 v 166 h 166 v -166"
         style="fill:#2b478b;fill-opacity:1;fill-rule:nonzero;stroke:none"
         id="path304" />
      <path
         d="m 15558,7500.5 h -166 v 166 h 166 v -166"
         style="fill:#2b478b;fill-opacity:1;fill-rule:nonzero;stroke:none"
         id="path306" />
      <path
         d="m 15724,7500.5 h -166 v 166 h 166 v -166"
         style="fill:#2b478b;fill-opacity:1;fill-rule:nonzero;stroke:none"
         id="path308" />
      <path
         d="m 15890,7500.5 h -166 v 166 h 166 v -166"
         style="fill:#2b478b;fill-opacity:1;fill-rule:nonzero;stroke:none"
         id="path310" />
      <path
         d="M 16065.9,7500.5 H 15890 v 166 h 175.9 v -166"
         style="fill:#2b478b;fill-opacity:1;fill-rule:nonzero;stroke:none"
         id="path312" />
      <path
         d="m 16895.9,7500.5 h -166 v 166 h 166 v -166"
         style="fill:#2b478b;fill-opacity:1;fill-rule:nonzero;stroke:none"
         id="path314" />
      <path
         d="m 17061.9,7500.5 h -166 v 166 h 166 v -166"
         style="fill:#2b478b;fill-opacity:1;fill-rule:nonzero;stroke:none"
         id="path316" />
      <path
         d="m 17403.7,7500.5 h -175.8 v 166 h 175.8 v -166"
         style="fill:#2b478b;fill-opacity:1;fill-rule:nonzero;stroke:none"
         id="path318" />
      <path
         d="m 13898,7500.5 h -166 v 166 h 166 v -166"
         style="fill:#2b478b;fill-opacity:1;fill-rule:nonzero;stroke:none"
         id="path320" />
      <path
         d="m 14064,7666.5 h -166 v 166 h 166 v -166"
         style="fill:#2b478b;fill-opacity:1;fill-rule:nonzero;stroke:none"
         id="path322" />
      <path
         d="m 14230,7666.5 h -166 v 166 h 166 v -166"
         style="fill:#2b478b;fill-opacity:1;fill-rule:nonzero;stroke:none"
         id="path324" />
      <path
         d="m 14396,7666.5 h -166 v 166 h 166 v -166"
         style="fill:#2b478b;fill-opacity:1;fill-rule:nonzero;stroke:none"
         id="path326" />
      <path
         d="m 15060,7666.5 h -166 v 166 h 166 v -166"
         style="fill:#2b478b;fill-opacity:1;fill-rule:nonzero;stroke:none"
         id="path328" />
      <path
         d="m 15226,7666.5 h -166 v 166 h 166 v -166"
         style="fill:#2b478b;fill-opacity:1;fill-rule:nonzero;stroke:none"
         id="path330" />
      <path
         d="m 15890,7666.5 h -166 v 166 h 166 v -166"
         style="fill:#2b478b;fill-opacity:1;fill-rule:nonzero;stroke:none"
         id="path332" />
      <path
         d="m 16397.9,7666.5 h -166 v 166 h 166 v -166"
         style="fill:#2b478b;fill-opacity:1;fill-rule:nonzero;stroke:none"
         id="path334" />
      <path
         d="m 16563.9,7666.5 h -166 v 166 h 166 v -166"
         style="fill:#2b478b;fill-opacity:1;fill-rule:nonzero;stroke:none"
         id="path336" />
      <path
         d="m 16895.9,7666.5 h -166 v 166 h 166 v -166"
         style="fill:#2b478b;fill-opacity:1;fill-rule:nonzero;stroke:none"
         id="path338" />
      <path
         d="m 17061.9,7666.5 h -166 v 166 h 166 v -166"
         style="fill:#2b478b;fill-opacity:1;fill-rule:nonzero;stroke:none"
         id="path340" />
      <path
         d="m 17227.9,7666.5 h -166 v 166 h 166 v -166"
         style="fill:#2b478b;fill-opacity:1;fill-rule:nonzero;stroke:none"
         id="path342" />
      <path
         d="m 17403.7,7666.5 h -175.8 v 166 h 175.8 v -166"
         style="fill:#2b478b;fill-opacity:1;fill-rule:nonzero;stroke:none"
         id="path344" />
      <path
         d="m 13898,7666.5 h -166 v 166 h 166 v -166"
         style="fill:#2b478b;fill-opacity:1;fill-rule:nonzero;stroke:none"
         id="path346" />
      <path
         d="m 14396,7832.5 h -166 v 166 h 166 v -166"
         style="fill:#2b478b;fill-opacity:1;fill-rule:nonzero;stroke:none"
         id="path348" />
      <path
         d="m 14562,7832.5 h -166 v 166 h 166 v -166"
         style="fill:#2b478b;fill-opacity:1;fill-rule:nonzero;stroke:none"
         id="path350" />
      <path
         d="m 14728,7832.5 h -166 v 166 h 166 v -166"
         style="fill:#2b478b;fill-opacity:1;fill-rule:nonzero;stroke:none"
         id="path352" />
      <path
         d="m 14894,7832.5 h -166 v 166 h 166 v -166"
         style="fill:#2b478b;fill-opacity:1;fill-rule:nonzero;stroke:none"
         id="path354" />
      <path
         d="m 15060,7832.5 h -166 v 166 h 166 v -166"
         style="fill:#2b478b;fill-opacity:1;fill-rule:nonzero;stroke:none"
         id="path356" />
      <path
         d="m 15226,7832.5 h -166 v 166 h 166 v -166"
         style="fill:#2b478b;fill-opacity:1;fill-rule:nonzero;stroke:none"
         id="path358" />
      <path
         d="m 15724,7832.5 h -166 v 166 h 166 v -166"
         style="fill:#2b478b;fill-opacity:1;fill-rule:nonzero;stroke:none"
         id="path360" />
      <path
         d="m 16231.9,7832.5 h -166 v 166 h 166 v -166"
         style="fill:#2b478b;fill-opacity:1;fill-rule:nonzero;stroke:none"
         id="path362" />
      <path
         d="m 16397.9,7832.5 h -166 v 166 h 166 v -166"
         style="fill:#2b478b;fill-opacity:1;fill-rule:nonzero;stroke:none"
         id="path364" />
      <path
         d="m 17061.9,7832.5 h -166 v 166 h 166 v -166"
         style="fill:#2b478b;fill-opacity:1;fill-rule:nonzero;stroke:none"
         id="path366" />
      <path
         d="m 13898,7832.5 h -166 v 166 h 166 v -166"
         style="fill:#2b478b;fill-opacity:1;fill-rule:nonzero;stroke:none"
         id="path368" />
      <path
         d="m 14064,7998.5 h -166 v 166 h 166 v -166"
         style="fill:#2b478b;fill-opacity:1;fill-rule:nonzero;stroke:none"
         id="path370" />
      <path
         d="m 14230,7998.5 h -166 v 166 h 166 v -166"
         style="fill:#2b478b;fill-opacity:1;fill-rule:nonzero;stroke:none"
         id="path372" />
      <path
         d="m 14396,7998.5 h -166 v 166 h 166 v -166"
         style="fill:#2b478b;fill-opacity:1;fill-rule:nonzero;stroke:none"
         id="path374" />
      <path
         d="m 14562,7998.5 h -166 v 166 h 166 v -166"
         style="fill:#2b478b;fill-opacity:1;fill-rule:nonzero;stroke:none"
         id="path376" />
      <path
         d="m 14894,7998.5 h -166 v 166 h 166 v -166"
         style="fill:#2b478b;fill-opacity:1;fill-rule:nonzero;stroke:none"
         id="path378" />
      <path
         d="m 15226,7998.5 h -166 v 166 h 166 v -166"
         style="fill:#2b478b;fill-opacity:1;fill-rule:nonzero;stroke:none"
         id="path380" />
      <path
         d="m 15392,7998.5 h -166 v 166 h 166 v -166"
         style="fill:#2b478b;fill-opacity:1;fill-rule:nonzero;stroke:none"
         id="path382" />
      <path
         d="m 15724,7998.5 h -166 v 166 h 166 v -166"
         style="fill:#2b478b;fill-opacity:1;fill-rule:nonzero;stroke:none"
         id="path384" />
      <path
         d="m 15890,7998.5 h -166 v 166 h 166 v -166"
         style="fill:#2b478b;fill-opacity:1;fill-rule:nonzero;stroke:none"
         id="path386" />
      <path
         d="M 16065.9,7998.5 H 15890 v 166 h 175.9 v -166"
         style="fill:#2b478b;fill-opacity:1;fill-rule:nonzero;stroke:none"
         id="path388" />
      <path
         d="m 16231.9,7998.5 h -166 v 166 h 166 v -166"
         style="fill:#2b478b;fill-opacity:1;fill-rule:nonzero;stroke:none"
         id="path390" />
      <path
         d="m 16563.9,7998.5 h -166 v 166 h 166 v -166"
         style="fill:#2b478b;fill-opacity:1;fill-rule:nonzero;stroke:none"
         id="path392" />
      <path
         d="m 16729.9,7998.5 h -166 v 166 h 166 v -166"
         style="fill:#2b478b;fill-opacity:1;fill-rule:nonzero;stroke:none"
         id="path394" />
      <path
         d="m 16895.9,7998.5 h -166 v 166 h 166 v -166"
         style="fill:#2b478b;fill-opacity:1;fill-rule:nonzero;stroke:none"
         id="path396" />
      <path
         d="m 17061.9,7998.5 h -166 v 166 h 166 v -166"
         style="fill:#2b478b;fill-opacity:1;fill-rule:nonzero;stroke:none"
         id="path398" />
      <path
         d="m 17403.7,7998.5 h -175.8 v 166 h 175.8 v -166"
         style="fill:#2b478b;fill-opacity:1;fill-rule:nonzero;stroke:none"
         id="path400" />
      <path
         d="m 14064,8164.5 h -166 v 166 h 166 v -166"
         style="fill:#2b478b;fill-opacity:1;fill-rule:nonzero;stroke:none"
         id="path402" />
      <path
         d="m 14396,8164.5 h -166 v 166 h 166 v -166"
         style="fill:#2b478b;fill-opacity:1;fill-rule:nonzero;stroke:none"
         id="path404" />
      <path
         d="m 14728,8164.5 h -166 v 166 h 166 v -166"
         style="fill:#2b478b;fill-opacity:1;fill-rule:nonzero;stroke:none"
         id="path406" />
      <path
         d="m 14894,8164.5 h -166 v 166 h 166 v -166"
         style="fill:#2b478b;fill-opacity:1;fill-rule:nonzero;stroke:none"
         id="path408" />
      <path
         d="m 15392,8164.5 h -166 v 166 h 166 v -166"
         style="fill:#2b478b;fill-opacity:1;fill-rule:nonzero;stroke:none"
         id="path410" />
      <path
         d="m 15558,8164.5 h -166 v 166 h 166 v -166"
         style="fill:#2b478b;fill-opacity:1;fill-rule:nonzero;stroke:none"
         id="path412" />
      <path
         d="m 15724,8164.5 h -166 v 166 h 166 v -166"
         style="fill:#2b478b;fill-opacity:1;fill-rule:nonzero;stroke:none"
         id="path414" />
      <path
         d="M 16065.9,8164.5 H 15890 v 166 h 175.9 v -166"
         style="fill:#2b478b;fill-opacity:1;fill-rule:nonzero;stroke:none"
         id="path416" />
      <path
         d="m 16231.9,8164.5 h -166 v 166 h 166 v -166"
         style="fill:#2b478b;fill-opacity:1;fill-rule:nonzero;stroke:none"
         id="path418" />
      <path
         d="m 16397.9,8164.5 h -166 v 166 h 166 v -166"
         style="fill:#2b478b;fill-opacity:1;fill-rule:nonzero;stroke:none"
         id="path420" />
      <path
         d="m 16729.9,8164.5 h -166 v 166 h 166 v -166"
         style="fill:#2b478b;fill-opacity:1;fill-rule:nonzero;stroke:none"
         id="path422" />
      <path
         d="m 17061.9,8164.5 h -166 v 166 h 166 v -166"
         style="fill:#2b478b;fill-opacity:1;fill-rule:nonzero;stroke:none"
         id="path424" />
      <path
         d="m 17227.9,8164.5 h -166 v 166 h 166 v -166"
         style="fill:#2b478b;fill-opacity:1;fill-rule:nonzero;stroke:none"
         id="path426" />
      <path
         d="m 17403.7,8164.5 h -175.8 v 166 h 175.8 v -166"
         style="fill:#2b478b;fill-opacity:1;fill-rule:nonzero;stroke:none"
         id="path428" />
      <path
         d="m 13898,8164.5 h -166 v 166 h 166 v -166"
         style="fill:#2b478b;fill-opacity:1;fill-rule:nonzero;stroke:none"
         id="path430" />
      <path
         d="m 14064,8330.5 h -166 v 166 h 166 v -166"
         style="fill:#2b478b;fill-opacity:1;fill-rule:nonzero;stroke:none"
         id="path432" />
      <path
         d="m 14728,8330.5 h -166 v 166 h 166 v -166"
         style="fill:#2b478b;fill-opacity:1;fill-rule:nonzero;stroke:none"
         id="path434" />
      <path
         d="m 14894,8330.5 h -166 v 166 h 166 v -166"
         style="fill:#2b478b;fill-opacity:1;fill-rule:nonzero;stroke:none"
         id="path436" />
      <path
         d="m 15226,8330.5 h -166 v 166 h 166 v -166"
         style="fill:#2b478b;fill-opacity:1;fill-rule:nonzero;stroke:none"
         id="path438" />
      <path
         d="m 15392,8330.5 h -166 v 166 h 166 v -166"
         style="fill:#2b478b;fill-opacity:1;fill-rule:nonzero;stroke:none"
         id="path440" />
      <path
         d="m 15724,8330.5 h -166 v 166 h 166 v -166"
         style="fill:#2b478b;fill-opacity:1;fill-rule:nonzero;stroke:none"
         id="path442" />
      <path
         d="m 15890,8330.5 h -166 v 166 h 166 v -166"
         style="fill:#2b478b;fill-opacity:1;fill-rule:nonzero;stroke:none"
         id="path444" />
      <path
         d="m 16231.9,8330.5 h -166 v 166 h 166 v -166"
         style="fill:#2b478b;fill-opacity:1;fill-rule:nonzero;stroke:none"
         id="path446" />
      <path
         d="m 16397.9,8330.5 h -166 v 166 h 166 v -166"
         style="fill:#2b478b;fill-opacity:1;fill-rule:nonzero;stroke:none"
         id="path448" />
      <path
         d="m 16563.9,8330.5 h -166 v 166 h 166 v -166"
         style="fill:#2b478b;fill-opacity:1;fill-rule:nonzero;stroke:none"
         id="path450" />
      <path
         d="m 16729.9,8330.5 h -166 v 166 h 166 v -166"
         style="fill:#2b478b;fill-opacity:1;fill-rule:nonzero;stroke:none"
         id="path452" />
      <path
         d="m 16895.9,8330.5 h -166 v 166 h 166 v -166"
         style="fill:#2b478b;fill-opacity:1;fill-rule:nonzero;stroke:none"
         id="path454" />
      <path
         d="m 17061.9,8330.5 h -166 v 166 h 166 v -166"
         style="fill:#2b478b;fill-opacity:1;fill-rule:nonzero;stroke:none"
         id="path456" />
      <path
         d="m 13898,8330.5 h -166 v 166 h 166 v -166"
         style="fill:#2b478b;fill-opacity:1;fill-rule:nonzero;stroke:none"
         id="path458" />
      <path
         d="m 15226,8496.5 h -166 v 166 h 166 v -166"
         style="fill:#2b478b;fill-opacity:1;fill-rule:nonzero;stroke:none"
         id="path460" />
      <path
         d="m 15558,8496.5 h -166 v 166 h 166 v -166"
         style="fill:#2b478b;fill-opacity:1;fill-rule:nonzero;stroke:none"
         id="path462" />
      <path
         d="m 15724,8496.5 h -166 v 166 h 166 v -166"
         style="fill:#2b478b;fill-opacity:1;fill-rule:nonzero;stroke:none"
         id="path464" />
      <path
         d="M 16065.9,8496.5 H 15890 v 166 h 175.9 v -166"
         style="fill:#2b478b;fill-opacity:1;fill-rule:nonzero;stroke:none"
         id="path466" />
      <path
         d="m 16231.9,8496.5 h -166 v 166 h 166 v -166"
         style="fill:#2b478b;fill-opacity:1;fill-rule:nonzero;stroke:none"
         id="path468" />
      <path
         d="m 16397.9,8496.5 h -166 v 166 h 166 v -166"
         style="fill:#2b478b;fill-opacity:1;fill-rule:nonzero;stroke:none"
         id="path470" />
      <path
         d="m 14064,8662.5 h -166 v 166 h 166 v -166"
         style="fill:#2b478b;fill-opacity:1;fill-rule:nonzero;stroke:none"
         id="path472" />
      <path
         d="m 14230,8662.5 h -166 v 166 h 166 v -166"
         style="fill:#2b478b;fill-opacity:1;fill-rule:nonzero;stroke:none"
         id="path474" />
      <path
         d="m 14396,8662.5 h -166 v 166 h 166 v -166"
         style="fill:#2b478b;fill-opacity:1;fill-rule:nonzero;stroke:none"
         id="path476" />
      <path
         d="m 14562,8662.5 h -166 v 166 h 166 v -166"
         style="fill:#2b478b;fill-opacity:1;fill-rule:nonzero;stroke:none"
         id="path478" />
      <path
         d="m 14728,8662.5 h -166 v 166 h 166 v -166"
         style="fill:#2b478b;fill-opacity:1;fill-rule:nonzero;stroke:none"
         id="path480" />
      <path
         d="m 15060,8662.5 h -166 v 166 h 166 v -166"
         style="fill:#2b478b;fill-opacity:1;fill-rule:nonzero;stroke:none"
         id="path482" />
      <path
         d="m 15226,8662.5 h -166 v 166 h 166 v -166"
         style="fill:#2b478b;fill-opacity:1;fill-rule:nonzero;stroke:none"
         id="path484" />
      <path
         d="m 15724,8662.5 h -166 v 166 h 166 v -166"
         style="fill:#2b478b;fill-opacity:1;fill-rule:nonzero;stroke:none"
         id="path486" />
      <path
         d="m 16397.9,8662.5 h -166 v 166 h 166 v -166"
         style="fill:#2b478b;fill-opacity:1;fill-rule:nonzero;stroke:none"
         id="path488" />
      <path
         d="m 16563.9,8662.5 h -166 v 166 h 166 v -166"
         style="fill:#2b478b;fill-opacity:1;fill-rule:nonzero;stroke:none"
         id="path490" />
      <path
         d="m 16895.9,8662.5 h -166 v 166 h 166 v -166"
         style="fill:#2b478b;fill-opacity:1;fill-rule:nonzero;stroke:none"
         id="path492" />
      <path
         d="m 17403.7,8662.5 h -175.8 v 166 h 175.8 v -166"
         style="fill:#2b478b;fill-opacity:1;fill-rule:nonzero;stroke:none"
         id="path494" />
      <path
         d="m 13898,8662.5 h -166 v 166 h 166 v -166"
         style="fill:#2b478b;fill-opacity:1;fill-rule:nonzero;stroke:none"
         id="path496" />
      <path
         d="m 14728,8828.5 h -166 v 166 h 166 v -166"
         style="fill:#2b478b;fill-opacity:1;fill-rule:nonzero;stroke:none"
         id="path498" />
      <path
         d="M 16065.9,8828.5 H 15890 v 166 h 175.9 v -166"
         style="fill:#2b478b;fill-opacity:1;fill-rule:nonzero;stroke:none"
         id="path500" />
      <path
         d="m 16231.9,8828.5 h -166 v 166 h 166 v -166"
         style="fill:#2b478b;fill-opacity:1;fill-rule:nonzero;stroke:none"
         id="path502" />
      <path
         d="m 16563.9,8828.5 h -166 v 166 h 166 v -166"
         style="fill:#2b478b;fill-opacity:1;fill-rule:nonzero;stroke:none"
         id="path504" />
      <path
         d="m 16729.9,8828.5 h -166 v 166 h 166 v -166"
         style="fill:#2b478b;fill-opacity:1;fill-rule:nonzero;stroke:none"
         id="path506" />
      <path
         d="m 17061.9,8828.5 h -166 v 166 h 166 v -166"
         style="fill:#2b478b;fill-opacity:1;fill-rule:nonzero;stroke:none"
         id="path508" />
      <path
         d="m 17227.9,8828.5 h -166 v 166 h 166 v -166"
         style="fill:#2b478b;fill-opacity:1;fill-rule:nonzero;stroke:none"
         id="path510" />
      <path
         d="m 17403.7,8828.5 h -175.8 v 166 h 175.8 v -166"
         style="fill:#2b478b;fill-opacity:1;fill-rule:nonzero;stroke:none"
         id="path512" />
      <path
         d="m 13898,8828.5 h -166 v 166 h 166 v -166"
         style="fill:#2b478b;fill-opacity:1;fill-rule:nonzero;stroke:none"
         id="path514" />
      <path
         d="m 14230,8994.5 h -166 v 166 h 166 v -166"
         style="fill:#2b478b;fill-opacity:1;fill-rule:nonzero;stroke:none"
         id="path516" />
      <path
         d="m 14396,8994.5 h -166 v 166 h 166 v -166"
         style="fill:#2b478b;fill-opacity:1;fill-rule:nonzero;stroke:none"
         id="path518" />
      <path
         d="m 14728,8994.5 h -166 v 166 h 166 v -166"
         style="fill:#2b478b;fill-opacity:1;fill-rule:nonzero;stroke:none"
         id="path520" />
      <path
         d="m 15060,8994.5 h -166 v 166 h 166 v -166"
         style="fill:#2b478b;fill-opacity:1;fill-rule:nonzero;stroke:none"
         id="path522" />
      <path
         d="m 15226,8994.5 h -166 v 166 h 166 v -166"
         style="fill:#2b478b;fill-opacity:1;fill-rule:nonzero;stroke:none"
         id="path524" />
      <path
         d="m 15558,8994.5 h -166 v 166 h 166 v -166"
         style="fill:#2b478b;fill-opacity:1;fill-rule:nonzero;stroke:none"
         id="path526" />
      <path
         d="m 15724,8994.5 h -166 v 166 h 166 v -166"
         style="fill:#2b478b;fill-opacity:1;fill-rule:nonzero;stroke:none"
         id="path528" />
      <path
         d="M 16065.9,8994.5 H 15890 v 166 h 175.9 v -166"
         style="fill:#2b478b;fill-opacity:1;fill-rule:nonzero;stroke:none"
         id="path530" />
      <path
         d="m 16729.9,8994.5 h -166 v 166 h 166 v -166"
         style="fill:#2b478b;fill-opacity:1;fill-rule:nonzero;stroke:none"
         id="path532" />
      <path
         d="m 16895.9,8994.5 h -166 v 166 h 166 v -166"
         style="fill:#2b478b;fill-opacity:1;fill-rule:nonzero;stroke:none"
         id="path534" />
      <path
         d="m 17061.9,8994.5 h -166 v 166 h 166 v -166"
         style="fill:#2b478b;fill-opacity:1;fill-rule:nonzero;stroke:none"
         id="path536" />
      <path
         d="m 13898,8994.5 h -166 v 166 h 166 v -166"
         style="fill:#2b478b;fill-opacity:1;fill-rule:nonzero;stroke:none"
         id="path538" />
      <path
         d="m 14230,9160.5 h -166 v 166.1 h 166 v -166.1"
         style="fill:#2b478b;fill-opacity:1;fill-rule:nonzero;stroke:none"
         id="path540" />
      <path
         d="m 14396,9160.5 h -166 v 166.1 h 166 v -166.1"
         style="fill:#2b478b;fill-opacity:1;fill-rule:nonzero;stroke:none"
         id="path542" />
      <path
         d="m 14728,9160.5 h -166 v 166.1 h 166 v -166.1"
         style="fill:#2b478b;fill-opacity:1;fill-rule:nonzero;stroke:none"
         id="path544" />
      <path
         d="m 15060,9160.5 h -166 v 166.1 h 166 v -166.1"
         style="fill:#2b478b;fill-opacity:1;fill-rule:nonzero;stroke:none"
         id="path546" />
      <path
         d="m 15392,9160.5 h -166 v 166.1 h 166 v -166.1"
         style="fill:#2b478b;fill-opacity:1;fill-rule:nonzero;stroke:none"
         id="path548" />
      <path
         d="m 15558,9160.5 h -166 v 166.1 h 166 v -166.1"
         style="fill:#2b478b;fill-opacity:1;fill-rule:nonzero;stroke:none"
         id="path550" />
      <path
         d="m 15724,9160.5 h -166 v 166.1 h 166 v -166.1"
         style="fill:#2b478b;fill-opacity:1;fill-rule:nonzero;stroke:none"
         id="path552" />
      <path
         d="m 15890,9160.5 h -166 v 166.1 h 166 v -166.1"
         style="fill:#2b478b;fill-opacity:1;fill-rule:nonzero;stroke:none"
         id="path554" />
      <path
         d="M 16065.9,9160.5 H 15890 v 166.1 h 175.9 v -166.1"
         style="fill:#2b478b;fill-opacity:1;fill-rule:nonzero;stroke:none"
         id="path556" />
      <path
         d="m 16397.9,9160.5 h -166 v 166.1 h 166 v -166.1"
         style="fill:#2b478b;fill-opacity:1;fill-rule:nonzero;stroke:none"
         id="path558" />
      <path
         d="m 16563.9,9160.5 h -166 v 166.1 h 166 v -166.1"
         style="fill:#2b478b;fill-opacity:1;fill-rule:nonzero;stroke:none"
         id="path560" />
      <path
         d="m 16729.9,9160.5 h -166 v 166.1 h 166 v -166.1"
         style="fill:#2b478b;fill-opacity:1;fill-rule:nonzero;stroke:none"
         id="path562" />
      <path
         d="m 17061.9,9160.5 h -166 v 166.1 h 166 v -166.1"
         style="fill:#2b478b;fill-opacity:1;fill-rule:nonzero;stroke:none"
         id="path564" />
      <path
         d="m 17227.9,9160.5 h -166 v 166.1 h 166 v -166.1"
         style="fill:#2b478b;fill-opacity:1;fill-rule:nonzero;stroke:none"
         id="path566" />
      <path
         d="m 17403.7,9160.5 h -175.8 v 166.1 h 175.8 v -166.1"
         style="fill:#2b478b;fill-opacity:1;fill-rule:nonzero;stroke:none"
         id="path568" />
      <path
         d="m 13898,9160.5 h -166 v 166.1 h 166 v -166.1"
         style="fill:#2b478b;fill-opacity:1;fill-rule:nonzero;stroke:none"
         id="path570" />
      <path
         d="m 14728,9326.6 h -166 v 166 h 166 v -166"
         style="fill:#2b478b;fill-opacity:1;fill-rule:nonzero;stroke:none"
         id="path572" />
      <path
         d="m 15392,9326.6 h -166 v 166 h 166 v -166"
         style="fill:#2b478b;fill-opacity:1;fill-rule:nonzero;stroke:none"
         id="path574" />
      <path
         d="m 15558,9326.6 h -166 v 166 h 166 v -166"
         style="fill:#2b478b;fill-opacity:1;fill-rule:nonzero;stroke:none"
         id="path576" />
      <path
         d="m 15890,9326.6 h -166 v 166 h 166 v -166"
         style="fill:#2b478b;fill-opacity:1;fill-rule:nonzero;stroke:none"
         id="path578" />
      <path
         d="M 16065.9,9326.6 H 15890 v 166 h 175.9 v -166"
         style="fill:#2b478b;fill-opacity:1;fill-rule:nonzero;stroke:none"
         id="path580" />
      <path
         d="m 16231.9,9326.6 h -166 v 166 h 166 v -166"
         style="fill:#2b478b;fill-opacity:1;fill-rule:nonzero;stroke:none"
         id="path582" />
      <path
         d="m 16397.9,9326.6 h -166 v 166 h 166 v -166"
         style="fill:#2b478b;fill-opacity:1;fill-rule:nonzero;stroke:none"
         id="path584" />
      <path
         d="m 17227.9,9326.6 h -166 v 166 h 166 v -166"
         style="fill:#2b478b;fill-opacity:1;fill-rule:nonzero;stroke:none"
         id="path586" />
      <path
         d="m 13898,9326.6 h -166 v 166 h 166 v -166"
         style="fill:#2b478b;fill-opacity:1;fill-rule:nonzero;stroke:none"
         id="path588" />
      <path
         d="m 14064,9492.6 h -166 v 166 h 166 v -166"
         style="fill:#2b478b;fill-opacity:1;fill-rule:nonzero;stroke:none"
         id="path590" />
      <path
         d="m 14230,9492.6 h -166 v 166 h 166 v -166"
         style="fill:#2b478b;fill-opacity:1;fill-rule:nonzero;stroke:none"
         id="path592" />
      <path
         d="m 14396,9492.6 h -166 v 166 h 166 v -166"
         style="fill:#2b478b;fill-opacity:1;fill-rule:nonzero;stroke:none"
         id="path594" />
      <path
         d="m 14562,9492.6 h -166 v 166 h 166 v -166"
         style="fill:#2b478b;fill-opacity:1;fill-rule:nonzero;stroke:none"
         id="path596" />
      <path
         d="m 14728,9492.6 h -166 v 166 h 166 v -166"
         style="fill:#2b478b;fill-opacity:1;fill-rule:nonzero;stroke:none"
         id="path598" />
      <path
         d="m 15060,9492.6 h -166 v 166 h 166 v -166"
         style="fill:#2b478b;fill-opacity:1;fill-rule:nonzero;stroke:none"
         id="path600" />
      <path
         d="m 15226,9492.6 h -166 v 166 h 166 v -166"
         style="fill:#2b478b;fill-opacity:1;fill-rule:nonzero;stroke:none"
         id="path602" />
      <path
         d="M 16065.9,9492.6 H 15890 v 166 h 175.9 v -166"
         style="fill:#2b478b;fill-opacity:1;fill-rule:nonzero;stroke:none"
         id="path604" />
      <path
         d="m 16397.9,9492.6 h -166 v 166 h 166 v -166"
         style="fill:#2b478b;fill-opacity:1;fill-rule:nonzero;stroke:none"
         id="path606" />
      <path
         d="m 16729.9,9492.6 h -166 v 166 h 166 v -166"
         style="fill:#2b478b;fill-opacity:1;fill-rule:nonzero;stroke:none"
         id="path608" />
      <path
         d="m 16895.9,9492.6 h -166 v 166 h 166 v -166"
         style="fill:#2b478b;fill-opacity:1;fill-rule:nonzero;stroke:none"
         id="path610" />
      <path
         d="m 17403.7,9492.6 h -175.8 v 166 h 175.8 v -166"
         style="fill:#2b478b;fill-opacity:1;fill-rule:nonzero;stroke:none"
         id="path612" />
      <path
         d="m 13898,9492.6 h -166 v 166 h 166 v -166"
         style="fill:#2b478b;fill-opacity:1;fill-rule:nonzero;stroke:none"
         id="path614" />
      <g
         id="g616">
        <g
           id="g618"
           clip-path="url(#clipPath622)">
          <path
             d="m 13118.1,9331.6 h 930.398 v 923.238 H 13118.1 Z"
             style="fill:#e0e4fa;fill-opacity:1;fill-rule:nonzero;stroke:none"
             id="path624" />
        </g>
      </g>
      <path
         d="m 17958.6,9328 c -32.7,0 -59.1,26.5 -59.1,59.1 v 753.3 h -746.1 c -32.6,0 -59,26.4 -59,59 0,32.6 26.4,59.1 59,59.1 h 805.2 c 32.6,0 59,-26.5 59,-59.1 v -812.3 c 0,-32.6 -26.4,-59.1 -59,-59.1"
         style="fill:#e0e4fa;fill-opacity:1;fill-rule:nonzero;stroke:none"
         id="path626" />
      <path
         d="m 17958.6,5282 h -812.4 c -32.6,0 -59,26.5 -59,59.1 0,32.6 26.4,59 59,59 h 753.3 v 746.1 c 0,32.6 26.4,59.1 59.1,59.1 32.6,0 59,-26.5 59,-59.1 v -805.1 c 0,-32.6 -26.4,-59.1 -59,-59.1"
         style="fill:#e0e4fa;fill-opacity:1;fill-rule:nonzero;stroke:none"
         id="path628" />
      <path
         d="m 13982.3,5278.4 h -805.2 c -32.6,0 -59,26.5 -59,59.1 v 812.3 c 0,32.6 26.4,59.1 59,59.1 32.6,0 59.1,-26.5 59.1,-59.1 v -753.3 h 746.1 c 32.6,0 59,-26.4 59,-59 0,-32.6 -26.4,-59.1 -59,-59.1"
         style="fill:#e0e4fa;fill-opacity:1;fill-rule:nonzero;stroke:none"
         id="path630" />
      <path
         d="M 17656.4,4161.9 V 4049 c 0,-61.5 -50.3,-111.9 -111.9,-111.9 h -3953.3 c -61.6,0 -111.9,50.4 -111.9,111.9 v 112.9 c 0,61.5 50.3,111.9 111.9,111.9 h 3953.3 c 61.6,0 111.9,-50.4 111.9,-111.9"
         style="fill:#ffffff;fill-opacity:1;fill-rule:nonzero;stroke:none"
         id="path632" />
      <path
         d="m 16397.9,4273.8 v -336.7 h -2806.7 c -61.6,0 -111.9,50.4 -111.9,111.9 v 112.9 c 0,61.5 50.3,111.9 111.9,111.9 h 2806.7"
         style="fill:#ed7d2b;fill-opacity:1;fill-rule:nonzero;stroke:none"
         id="path634" />
      <path
         d="m 15813.1,4273.8 -310.6,-336.7 h -581 l 310.5,336.7 h 581.1"
         style="fill:#f99746;fill-opacity:1;fill-rule:nonzero;stroke:none"
         id="path636" />
      <path
         d="m 16397.9,4273.8 v -336.7 h -538.6 l 310.6,336.7 h 228"
         style="fill:#f99746;fill-opacity:1;fill-rule:nonzero;stroke:none"
         id="path638" />
      <path
         d="M 14877.5,4273.8 14567,3937.1 h -581.1 l 310.6,336.7 h 581"
         style="fill:#f99746;fill-opacity:1;fill-rule:nonzero;stroke:none"
         id="path640" />
      <path
         d="m 13942,4273.8 -310.5,-336.7 h -42.6 c -61.6,0 -112,50.4 -112,111.9 v 112.9 c 0,61.5 50.4,111.9 112,111.9 h 353.1"
         style="fill:#f99746;fill-opacity:1;fill-rule:nonzero;stroke:none"
         id="path642" />
      <path
         d="m 15139.4,4465.9 22.1,26.3 c 20,-17.3 40,-27.2 65.9,-27.2 22.7,0 37,10.5 37,26.9 0,14.9 -8.3,23 -47.1,32.2 -44.5,10.5 -69.5,23.6 -69.5,62.7 0,35.8 29.8,60.5 71.3,60.5 30.4,0 54.6,-9.2 75.7,-26.2 l -19.6,-27.8 c -18.8,14 -37.6,21.5 -56.7,21.5 -21.5,0 -34,-11 -34,-25.4 0,-16.1 9.5,-23.2 49.5,-32.8 44.1,-10.7 67.1,-26.5 67.1,-61.7 0,-39.1 -30.7,-62.4 -74.6,-62.4 -31.9,0 -62,11.1 -87.1,33.4"
         style="fill:#ffffff;fill-opacity:1;fill-rule:nonzero;stroke:none"
         id="path644" />
      <path
         d="m 15335.1,4539.9 c 0,59.4 44.5,108 107.7,108 38.5,0 61.8,-13.4 81.8,-32.5 l -23.6,-27.1 c -16.7,15.5 -34.6,25.9 -58.5,25.9 -39.9,0 -68.9,-32.8 -68.9,-74.3 0,-40.8 29,-74.3 68.9,-74.3 25.7,0 42.1,10.5 60,27.2 l 23.6,-23.9 c -21.8,-22.6 -45.7,-37 -84.8,-37 -60.8,0 -106.2,47.5 -106.2,108"
         style="fill:#ffffff;fill-opacity:1;fill-rule:nonzero;stroke:none"
         id="path646" />
      <path
         d="m 15691.1,4518.4 -36.1,83.6 -35.8,-83.6 z m -52.5,127.4 h 34 l 91.8,-210.3 h -38.7 l -21.2,50.4 h -98.8 l -21.4,-50.4 h -37.6 l 91.9,210.3"
         style="fill:#ffffff;fill-opacity:1;fill-rule:nonzero;stroke:none"
         id="path648" />
      <path
         d="m 15800.3,4644.3 h 34 l 111.8,-144.3 v 144.3 h 36.1 v -208.8 h -30.7 l -115.1,148.6 v -148.6 h -36.1 v 208.8"
         style="fill:#ffffff;fill-opacity:1;fill-rule:nonzero;stroke:none"
         id="path650" />
      <path
         d="m 18700.1,6112.2 c 192.6,56.1 410.1,-8.3 546,-155.9 336.3,-365.2 88.3,-646.7 256.6,-902.3 101.7,-154.4 187.1,-424.9 -127.9,-584.9 -145.7,-74 -579.5,-460.6 -668.4,-469.8 -900.3,-92.4 -916.4,820.9 -613,1085.6 426.6,372 36.9,861.1 606.7,1027.3"
         style="fill:#233862;fill-opacity:1;fill-rule:nonzero;stroke:none"
         id="path652" />
      <path
         d="m 19170.6,4700.2 c 0,0 821.6,-398.1 975.5,-391.4 153.9,6.7 1115.9,345.5 1115.9,345.5 l -24.1,-163.1 c 0,0 -731.9,-420.9 -987.8,-444.8 -251.9,-23.5 -1113.3,226.1 -1196.4,278.8 -83.2,52.7 -124.8,321.6 116.9,375"
         style="fill:#ed985f;fill-opacity:1;fill-rule:nonzero;stroke:none"
         id="path654" />
      <path
         d="m 19261,4324.7 c -74.4,-51.7 -167.8,-94.3 -285,-121.3 -439.4,-101.5 -607.8,269.8 -671,524.7 59.9,34.3 116.3,41.9 148.8,45.8 31.8,3.7 65.2,6.2 92.9,7.6 49.3,37.8 122.8,192.4 139.1,432.6 l 20.6,-5.6 346.3,-94.8 c 0,0 -15.8,-110 -23.6,-214.1 -6,-81.4 -7,-159.2 8.4,-178.2 27.1,-5.9 43.3,-9.7 43.3,-9.7 l 0.2,-0.3 c 4.6,-7.7 105.1,-172.9 180,-386.7"
         style="fill:#ffb27d;fill-opacity:1;fill-rule:nonzero;stroke:none"
         id="path656" />
      <path
         d="m 19052.7,5113.7 c 0,0 -15.9,-110 -23.6,-214.1 -196.2,19.6 -287.2,206.4 -322.7,308.8 l 346.3,-94.7"
         style="fill:#ed985f;fill-opacity:1;fill-rule:nonzero;stroke:none"
         id="path658" />
      <path
         d="m 19111.3,5010.4 c 0,0 -465.6,25.6 -445.2,315.4 20.5,289.7 -25.8,488.2 272.3,484 298.2,-4.1 348.1,-118.8 364.8,-217.1 16.7,-98.4 -70.2,-581.6 -191.9,-582.3"
         style="fill:#ffb27d;fill-opacity:1;fill-rule:nonzero;stroke:none"
         id="path660" />
      <path
         d="m 19300.9,5754.7 c -65.6,92.3 -121.3,77.1 -153.6,53.1 -244.2,158 -422.9,-36.9 -422.9,-36.9 -46,-205.6 -204.4,-314 -204.4,-314 0,0 82.5,-66 280,-22.2 252.7,56 339.5,275.2 351.3,308.8 26.6,-27.5 60.9,-45 87.2,-104.7 31.2,-71 50.9,-112.2 51.4,-228.7 0,0 109.5,206.2 11,344.6"
         style="fill:#233862;fill-opacity:1;fill-rule:nonzero;stroke:none"
         id="path662" />
      <path
         d="m 18172.3,3378 c -42,214.9 -179.1,1073.8 -42,1350.2 49.2,99.2 242.5,108.2 454.5,99.5 65.9,-42.6 317.3,-203.5 420.5,-183.4 1.1,0.2 3.2,0.6 5.8,1.3 48.6,12.2 67,46.3 26.4,75.8 0,0 93.1,-6.6 223.5,-31.1 73.7,-13.9 275.9,-138.1 275.9,-138.1 0,0 -91.7,-142.6 -239.2,-205 25.1,-224.4 -12.2,-323.4 -245,-841.6 -196.7,-438.1 26.5,-832.5 26.5,-832.5 0,0 -1157.8,-930.9 -1164.3,-456.9 -4.8,356.8 311.2,887 257.4,1161.8"
         style="fill:#f99746;fill-opacity:1;fill-rule:nonzero;stroke:none"
         id="path664" />
      <path
         d="m 19136.6,1660.9 c 63,7.1 119.7,41.6 154.9,94.3 5.6,8.3 11.6,17.3 17.9,26.9 131.8,199.5 183.1,810.5 479.5,1461.5 72.3,158.5 331.4,187 402.1,366.1 0,0 174,580.7 -332.9,597.8 -507,17.1 -1357.6,-1615.6 -1371.1,-1786.9 -13,-165.9 -335.1,-870.8 649.6,-759.7"
         style="fill:#94b0ed;fill-opacity:1;fill-rule:nonzero;stroke:none"
         id="path666" />
      <path
         d="m 21151.4,1664.2 h -721.5 c 0,0 -27,118.2 20.4,198.6 41.9,71.1 25.9,111.6 -5.2,170.5 32.7,-13.7 75,-26.2 121.5,-23.5 36,2.1 74,18.9 107.3,38.7 31.1,-36.3 164.1,-191 205.6,-221.7 47.2,-34.8 257.4,-22.4 271.9,-162.6"
         style="fill:#0d2644;fill-opacity:1;fill-rule:nonzero;stroke:none"
         id="path668" />
      <path
         d="m 20207.5,4039.7 c 43.5,-325.7 213.1,-1353.8 512.4,-1855.3 96.5,-161.7 -243.1,-252.4 -244.9,-251.9 -45.6,11.9 -121.5,84.5 -156.4,116 -243,219 -736.2,839.1 -736.2,1336.2 0,242.4 -4.3,705.3 172,822.9 108.5,72.5 435.9,-38.6 453.1,-167.9"
         style="fill:#94b0ed;fill-opacity:1;fill-rule:nonzero;stroke:none"
         id="path670" />
      <path
         d="m 18200.7,4325.2 c 0,0 146.4,-297.9 829.9,-508.4 683.5,-210.4 292.5,318.4 292.5,318.4 l -955.5,333.9 -166.9,-143.9"
         style="fill:#ed7d2b;fill-opacity:1;fill-rule:nonzero;stroke:none"
         id="path672" />
      <path
         d="m 18784.3,1660.1 c 0,0 36.6,54.9 59.8,136.3 38.7,136.1 52.6,235.1 127.1,447.1 78.2,222.6 171,496.4 287.1,781.3 35.8,88 73.8,177 114.2,265.8 72.2,158.5 270.9,136.6 341.6,315.8 0,0 275.7,621 -231.2,638.2 -506.9,17.1 -1470.2,-1661.4 -1525.5,-1824 -60.6,-177.9 -278.4,-931 826.9,-760.5"
         style="fill:#aec3ff;fill-opacity:1;fill-rule:nonzero;stroke:none"
         id="path674" />
      <path
         d="m 20621.8,1664.2 h -721.5 c 0,0 -27,118.2 20.4,198.6 41.9,71.1 25.8,111.6 -5.2,170.5 32.7,-13.7 74.9,-26.2 121.5,-23.5 35.9,2.1 74,18.9 107.3,38.7 31.1,-36.3 164,-191 205.6,-221.7 47.1,-34.8 257.4,-22.4 271.9,-162.6"
         style="fill:#163560;fill-opacity:1;fill-rule:nonzero;stroke:none"
         id="path676" />
      <path
         d="m 18971.2,2243.5 c -185.1,436.1 81.5,1262.1 81.5,1262.1 109.9,-76.1 175.3,-264.9 205.6,-480.8 -116.1,-284.9 -208.9,-558.7 -287.1,-781.3 v 0"
         style="fill:#a1b9f6;fill-opacity:1;fill-rule:nonzero;stroke:none"
         id="path678" />
      <path
         d="m 19786.3,4062.7 c 43.5,-325.7 104.7,-1376.8 404,-1878.3 96.4,-161.7 -243.1,-252.4 -245,-251.9 -45.5,11.9 -121.4,84.5 -156.4,116 -242.9,219 -736.2,839.1 -736.2,1336.2 0,242.4 284.5,685.8 460.7,803.5 108.6,72.5 255.7,3.9 272.9,-125.5"
         style="fill:#aec3ff;fill-opacity:1;fill-rule:nonzero;stroke:none"
         id="path680" />
      <path
         d="m 21348.2,5074.1 -738.9,78.4 c -21.6,2.3 -41.9,-10.2 -49.7,-30.4 l -264.3,-694.7 c -11.6,-30.4 10.1,-63.3 42.6,-64.6 l 733.2,-29.6 c 19.9,-0.8 38.3,10.9 46,29.3 l 270,645.7 c 12.3,29.5 -7.2,62.5 -38.9,65.9"
         style="fill:#db6b3a;fill-opacity:1;fill-rule:nonzero;stroke:none"
         id="path682" />
      <path
         d="m 21412.3,5067.3 -738.8,78.5 c -21.6,2.3 -42,-10.2 -49.7,-30.4 l -264.3,-694.7 c -11.6,-30.5 10.1,-63.3 42.6,-64.6 l 733.2,-29.6 c 19.9,-0.8 38.2,10.9 45.9,29.3 l 270.1,645.7 c 12.3,29.5 -7.2,62.5 -39,65.8"
         style="fill:#f78248;fill-opacity:1;fill-rule:nonzero;stroke:none"
         id="path684" />
      <path
         d="m 21002.8,4743 c 9,24.8 -3.8,44.9 -28.6,44.9 -24.8,0 -52.2,-20.1 -61.2,-44.9 -9,-24.8 3.7,-44.9 28.5,-44.9 24.8,0 52.3,20.1 61.3,44.9"
         style="fill:#ebf3fa;fill-opacity:1;fill-rule:nonzero;stroke:none"
         id="path686" />
      <path
         d="m 21390.2,5001.7 c 4.5,12.2 -1.8,22 -14,22 -12.2,0 -25.7,-9.8 -30.1,-22 -4.4,-12.2 1.9,-22.1 14,-22.1 12.2,0 25.7,9.9 30.1,22.1"
         style="fill:#ebf3fa;fill-opacity:1;fill-rule:nonzero;stroke:none"
         id="path688" />
      <path
         d="m 18305,4728.1 c 0,0 1024,-377.1 1177.9,-369.4 99.5,5 926.1,295.6 926.1,295.6 l 74.2,-140.4 c 0,0 -804.6,-517.1 -1025.8,-514.5 -436.7,5 -1173.6,273.1 -1256.7,325.8 -83.2,52.7 -137.4,349.6 104.3,402.9"
         style="fill:#ffb27d;fill-opacity:1;fill-rule:nonzero;stroke:none"
         id="path690" />
      <path
         d="m 20409,4654.3 c 0,0 74.2,114.2 148.1,117.6 73.9,3.3 201.6,-50.4 245.2,-58.8 43.7,-8.4 168,-48.7 131,-109.2 -36.9,-60.4 -208.2,-73.9 -282.1,-60.4 -73.9,13.4 -168,-29.6 -168,-29.6 l -74.2,140.4"
         style="fill:#ffb27d;fill-opacity:1;fill-rule:nonzero;stroke:none"
         id="path692" />
      <path
         d="m 20537,4768.4 c 0,0 117.5,53.9 151.1,63.9 33.6,10.1 26.9,-0.1 16.8,-31.9 -10.1,-31.9 -70.5,-62.3 -70.5,-72.3 0,-10 -97.4,40.3 -97.4,40.3"
         style="fill:#ffb27d;fill-opacity:1;fill-rule:nonzero;stroke:none"
         id="path694" />
      <path
         d="m 21336.2,4714.8 c 0,0 -46.8,154.4 -98.3,105.9 -53.6,-50.5 -21.1,-101 -14.5,-165.4 12.5,-123.1 37.4,-117.8 53.2,-112.3 15.7,5.6 77.1,109.9 59.6,171.8"
         style="fill:#ffb27d;fill-opacity:1;fill-rule:nonzero;stroke:none"
         id="path696" />
      <path
         d="m 21339,4691.3 c 0,0 23.7,-131.5 -101.1,-200.1 l 36.9,90.5 64.2,109.6"
         style="fill:#ffb27d;fill-opacity:1;fill-rule:nonzero;stroke:none"
         id="path698" />
      <path
         d="m 19198.5,5177 c 0,0 -44,17.4 -167.9,7.3 0,0 6.6,-48.3 97.9,-53.1 51.8,-2.7 70,45.8 70,45.8"
         style="fill:#ffffff;fill-opacity:1;fill-rule:nonzero;stroke:none"
         id="path700" />
      <path
         d="m 18832.6,4542.2 c 0,0 -91.6,-290 -406.2,-356 0,0 -519.4,160.1 -260.8,514 0,0 255.7,190 667,-158"
         style="fill:#f99746;fill-opacity:1;fill-rule:nonzero;stroke:none"
         id="path702" />
      <path
         d="m 21339,4672.7 c 0,0 21.6,72.3 22.9,84.9 1.2,12.5 -0.3,18.8 -11.4,10 -11.2,-8.8 -28.1,-32 -23.1,-53.9 5,-22 11.6,-41 11.6,-41"
         style="fill:#ffb27d;fill-opacity:1;fill-rule:nonzero;stroke:none"
         id="path704" />
      <path
         d="m 14591.1,11179.5 c -20.9,-23.9 -23.6,-50.7 -13.2,-79.3 l 0.2,-0.4 c 19.1,-52.8 82.3,-111.9 155.7,-170.8 9.4,-7.6 17.7,-14.4 25,-20.8 1.9,-1.7 3.8,-3.4 5.6,-5 1.5,-1.3 2.9,-2.7 4.3,-3.9 68.5,-63.1 42.7,-77.6 165.7,-205.6 140.2,-145.9 236.7,-148.5 264.2,-135.3 23.2,11.4 -24,88.8 -76.3,175.7 -2.5,4.2 -5,8.5 -7.6,12.7 -7,11.6 -13.9,23.3 -20.8,34.9 -61.3,104.7 -45.6,153.8 -31,309.6 11.8,126.5 196.9,707.1 196.9,707.1 l -268.7,46.3 c 0,0 -80.9,-462.3 -170.1,-533.5 -47.7,-38 -101,-38.4 -146.8,-66.6 -3.3,-1.9 -6.5,-3.9 -9.6,-6 -26,-17.3 -52.5,-35.1 -73.5,-59.1"
         style="fill:#ffc49c;fill-opacity:1;fill-rule:nonzero;stroke:none"
         id="path706" />
      <path
         d="m 14591.1,11179.5 c -20.9,-23.9 -23.6,-50.7 -13.2,-79.3 l 0.2,-0.4 c 23.4,-52.8 85,-111.5 156,-170.2 9.2,-7.7 17.4,-14.8 24.7,-21.4 1.9,-1.7 3.8,-3.4 5.6,-5 1.5,-1.3 2.9,-2.7 4.3,-3.9 68.5,-63.1 42.7,-77.6 165.7,-205.6 140.2,-145.9 236.7,-148.5 264.2,-135.3 23.2,11.4 -24,88.8 -76.3,175.7 -27.3,10 -154.1,61.5 -249.9,184.2 -84.4,107.7 -140.8,246.1 -198.2,326.3 -3.3,-1.9 -6.5,-3.9 -9.6,-6 -26,-17.3 -52.5,-35.1 -73.5,-59.1"
         style="fill:#233862;fill-opacity:1;fill-rule:nonzero;stroke:none"
         id="path708" />
      <path
         d="m 16757.7,11347.3 c 16.6,-82.9 134.8,-69.1 266.9,-36.8 132.1,32.3 100.7,-6.1 288.7,14.7 188,20.8 244.9,90.9 250.7,118.9 5.1,24.8 -87.8,33.5 -187.4,45 -12.6,1.4 -25.1,3 -37.7,4.5 -112.5,14.1 -194.9,86.7 -297.1,146.3 -96.8,56.5 -241.2,286.5 -241.2,286.5 l -257.8,-20.4 c 0,0 135.3,-205.4 187.6,-294.8 30.8,-52.5 29.2,-122 25.3,-175.7 -2,-29.1 -3.9,-59 2,-88.2"
         style="fill:#ffc49c;fill-opacity:1;fill-rule:nonzero;stroke:none"
         id="path710" />
      <path
         d="m 17024.6,11310.5 c 132.1,32.3 100.7,-6.1 288.7,14.7 188,20.8 244.9,90.9 250.7,118.9 5.1,24.8 -87.8,33.5 -187.4,45 l -1,-1.9 c 0,0 -112.7,-79.9 -269.2,-83.7 -127.5,-3.1 -262.6,33.4 -350.7,32 -2,-29.1 -3.9,-59 2,-88.2 16.6,-82.9 134.8,-69.1 266.9,-36.8"
         style="fill:#233862;fill-opacity:1;fill-rule:nonzero;stroke:none"
         id="path712" />
      <path
         d="m 15769.7,12995.8 -241,-648.5 -314.6,-846.8 c 0,0 -85.4,-8.2 -167.2,15.3 -75.2,21.8 -161.6,78.7 -161.6,78.7 0,0 87.4,909.2 250.3,1431.1 41.8,134 88.6,242.3 140.3,303.3 252.6,298.6 493.8,-333.1 493.8,-333.1"
         style="fill:#ed7d2b;fill-opacity:1;fill-rule:nonzero;stroke:none"
         id="path714" />
      <path
         d="m 15524.7,14025.7 c -150.4,48.5 -566.1,-8.5 -996.1,-90.5 -38.8,-7.5 -78.2,10.1 -98.7,43.9 l -60.5,99.8 -977.1,76.3 c 0,0 -252.2,-573 -144.9,-1049.7 26.3,-116.8 169.1,-268.1 387.4,-281.6 612,-38.1 1024.9,174.4 1660.2,397.8 110.5,38.9 160.8,-206.8 275.6,-447.9 114.9,-241.2 1079.7,-1068.2 1079.7,-1068.2 0,0 148.3,-1.5 209.6,21.5 65.8,24.7 89.9,56.8 89.9,56.8 0,0 -1069,2126.9 -1425.1,2241.8"
         style="fill:#f99746;fill-opacity:1;fill-rule:nonzero;stroke:none"
         id="path716" />
      <path
         d="m 14331,16924 c -125.2,65.7 -315.6,74.6 -346.6,78.8 -370.2,49.7 -593.1,-488.3 -606.2,-651.3 -24.1,-300.5 -183.1,-346.3 -406.8,-534.5 -448.7,-377.3 -317.1,-815.8 -71.8,-978.7 147.2,-97.7 406.6,0 406.6,0 3.7,-2.5 709.5,394.6 1057.5,586.2 521.6,74.1 286.2,1332 -32.7,1499.5"
         style="fill:#233862;fill-opacity:1;fill-rule:nonzero;stroke:none"
         id="path718" />
      <path
         d="m 14072.1,15587.6 c 1.5,-1 -171.2,-60 -286.7,-8.8 -108.7,48 -191,226.7 -189.4,226.8 49.5,2.3 103.7,45.5 145.5,329.1 l 21,-7.6 353.9,-127.3 c 0,0 -25.6,-113.6 -42.2,-221.7 -14,-90.7 -21.5,-177.7 -2.1,-190.5"
         style="fill:#ffb27d;fill-opacity:1;fill-rule:nonzero;stroke:none"
         id="path720" />
      <path
         d="m 14116.4,15999.8 c 0,0 -17.7,-80.6 -37.3,-190.8 -203.2,36.6 -287.9,208.2 -316.6,318.1 l 353.9,-127.3"
         style="fill:#ed975d;fill-opacity:1;fill-rule:nonzero;stroke:none"
         id="path722" />
      <path
         d="m 14169.1,15887.1 c 0,0 -484.1,65 -439,365.8 45.1,300.9 13,512 324,483.2 311,-28.8 353.7,-152.6 363.1,-256.7 9.4,-104.1 -121,-601.5 -248.1,-592.3"
         style="fill:#ffb27d;fill-opacity:1;fill-rule:nonzero;stroke:none"
         id="path724" />
      <path
         d="m 14399.6,16644.4 c 0,0 -310,-267.1 -520.8,-288.7 -210.8,-21.5 -290.6,46.2 -290.6,46.2 0,0 124.2,103.1 199,269.6 22.1,49.1 68.6,82.8 122.2,87.4 150.6,13 435.9,19 490.2,-114.5"
         style="fill:#233862;fill-opacity:1;fill-rule:nonzero;stroke:none"
         id="path726" />
      <path
         d="m 14205.8,16668.3 c 0,0 103.7,-100.3 136.4,-174.6 31.5,-71.8 40.9,-243.4 15.8,-311.6 0,0 161.6,314.2 70.1,466.8 -97,161.8 -222.3,19.4 -222.3,19.4"
         style="fill:#233862;fill-opacity:1;fill-rule:nonzero;stroke:none"
         id="path728" />
      <path
         d="m 14479.7,14874.4 c 37.2,-874 -21.6,-825.8 -111.2,-868.3 -30.9,-14.7 -98.4,-35.7 -194,-42 -300.5,-20 -828.8,29.5 -848.9,85.1 -69.3,192.1 -20.4,251.8 -78.2,546 -6,31.3 -13.5,65.2 -22.2,102.1 -48.3,202 -95.2,270.8 75.9,595.4 155.1,294.1 316.3,532.7 330.8,524.1 409.3,-243 442.3,-38.7 442.3,-38.7 0,0 385.3,-426.1 405.5,-903.7"
         style="fill:#aec3ff;fill-opacity:1;fill-rule:nonzero;stroke:none"
         id="path730" />
      <path
         d="m 15528.7,12347.3 -314.6,-846.8 c 0,0 -85.4,-8.2 -167.2,15.3 -75.2,21.8 -161.6,78.7 -161.6,78.7 0,0 87.4,909.2 250.3,1431.1 l 393.1,-678.3"
         style="fill:#f99746;fill-opacity:1;fill-rule:nonzero;stroke:none"
         id="path732" />
      <path
         d="m 14074.2,15778.1 c 0,0 421.1,-71.4 470.6,-252.7 49.5,-181.3 340.5,-1247.3 340.5,-1247.3 0,0 -214.1,-38.5 -313,60.4 -98.9,98.9 -344.2,917.6 -344.2,917.6 l -153.9,522"
         style="fill:#aec3ff;fill-opacity:1;fill-rule:nonzero;stroke:none"
         id="path734" />
      <path
         d="m 14174.5,13964.1 c -300.5,-20 -828.8,29.5 -848.9,85.1 -69.3,192.1 -20.4,251.8 -78.2,546 l 144.9,408.2 c 0,0 -23.9,-454.5 110.1,-574.1 133.9,-119.5 548.8,-230.7 614,-330.6 31.4,-48 52.1,-96 58.1,-134.6"
         style="fill:#94b0ed;fill-opacity:1;fill-rule:nonzero;stroke:none"
         id="path736" />
      <path
         d="m 13830.2,14155.2 c 0,0 296.5,66 344.3,39.7 47.8,-26.3 164.7,-122.1 179.4,-155.5 14.6,-33.3 -106.5,25.4 -145.9,35.9 -25.5,6.9 -92.7,-16.5 -126,-27.6 -139.9,-46.6 -225.6,-22.6 -225.6,-22.6 l -26.2,130.1"
         style="fill:#ffb27d;fill-opacity:1;fill-rule:nonzero;stroke:none"
         id="path738" />
      <path
         d="m 13631.6,15817 c 0,0 -398.1,-24.5 -535.9,-216.7 -194,-270.6 -578.8,-1423.7 -358.3,-1577.5 248.4,-173.2 1130.5,-45.3 1130.5,-45.3 0,0 29.3,137.2 -11.5,203.6 -40.9,66.3 -704.5,173.6 -735.2,204.2 -30.6,30.6 382.9,597.3 382.9,689.2 0,91.9 127.5,742.5 127.5,742.5"
         style="fill:#aec3ff;fill-opacity:1;fill-rule:nonzero;stroke:none"
         id="path740" />
      <path
         d="m 14188.8,14112.4 c 0,0 62.2,-80.1 82.5,-89.7 20.4,-9.6 33.5,-7.2 33.5,-7.2 l -41.8,75.4 -74.2,21.5"
         style="fill:#ffb27d;fill-opacity:1;fill-rule:nonzero;stroke:none"
         id="path742" />
      <path
         d="m 14174.5,14194.9 180.6,-87.7 c 0,0 -7.7,-12.6 -29.9,-11.5 -22.3,1 -78.4,21.5 -78.4,21.5 l -72.3,77.7"
         style="fill:#ffb27d;fill-opacity:1;fill-rule:nonzero;stroke:none"
         id="path744" />
      <path
         d="M 14271.3,13899.9 H 15700 l 429.8,1068.8 h -1426.5 l -432,-1068.8"
         style="fill:#2b478b;fill-opacity:1;fill-rule:nonzero;stroke:none"
         id="path746" />
      <path
         d="m 15716.8,13941.6 h -1886.6 v -41.7 H 15700 l 16.8,41.7"
         style="fill:#2b478b;fill-opacity:1;fill-rule:nonzero;stroke:none"
         id="path748" />
      <path
         d="m 15339.4,14434.3 c 10.7,37.6 -11,68 -48.6,68 -37.5,0 -76.7,-30.4 -87.5,-68 -10.8,-37.5 11,-68 48.5,-68 37.6,0 76.8,30.5 87.6,68"
         style="fill:#ebf3fa;fill-opacity:1;fill-rule:nonzero;stroke:none"
         id="path750" />
      <path
         d="M 26009.8,1613 H 4442.25 c -14.25,0 -25.91,11.6 -25.91,25.9 v 12.3 c 0,14.3 11.66,25.9 25.91,25.9 H 26009.8 c 14.2,0 25.9,-11.6 25.9,-25.9 v -12.3 c 0,-14.3 -11.7,-25.9 -25.9,-25.9"
         style="fill:#2e3552;fill-opacity:1;fill-rule:nonzero;stroke:none"
         id="path752" />
    </g>
  </g>
</svg>
