<svg xmlns="http://www.w3.org/2000/svg" width="16" height="16" fill="none" viewBox="0 0 16 16">
  <g clip-path="url(#a)">
    <path fill="#637381" d="M12.15 15.575c-.675 0-1.45-.175-2.3-.5-1.7-.675-3.575-1.975-5.25-3.65C2.925 9.75 1.625 7.875.95 6.15.2 4.3.275 2.775 1.15 1.925c.025-.025.075-.05.1-.075L3.35.6C3.875.3 4.55.45 4.9.95l1.475 2.2c.35.525.2 1.225-.3 1.575l-.9.625c.65 1.05 2.5 3.625 5.45 5.475l.55-.8c.425-.6 1.1-.775 1.65-.4l2.2 1.475c.5.35.65 1.025.35 1.55l-1.25 2.1c-.025.05-.05.075-.075.1-.45.475-1.1.725-1.9.725ZM1.9 2.775c-.475.525-.45 1.6.1 2.975.625 1.575 1.825 3.3 3.4 4.875 1.55 1.55 3.3 2.75 4.85 3.375 1.35.55 2.425.575 2.975.1l1.2-2.05V12l-2.2-1.475s-.05.025-.1.1l-.55.8c-.35.5-1.025.65-1.525.325-3.15-1.95-5.1-4.675-5.8-5.775-.325-.525-.2-1.2.3-1.55l.9-.625v-.025l-1.475-2.2c0-.025-.025-.025-.05 0L1.9 2.775Zm12.75 4.35c-.3 0-.525-.225-.55-.525-.2-2.525-2.275-4.55-4.825-4.725a.562.562 0 0 1-.525-.6c.025-.3.275-.55.6-.525 3.1.2 5.625 2.65 5.875 5.75a.56.56 0 0 1-.525.6c0 .025-.025.025-.05.025Z"/>
    <path fill="#637381" d="M12.175 7.35a.545.545 0 0 1-.55-.5c-.15-1.35-1.2-2.4-2.55-2.575-.3-.025-.525-.325-.5-.625.025-.3.325-.525.625-.5a4.038 4.038 0 0 1 3.55 3.55.578.578 0 0 1-.5.625c-.05.025-.075.025-.075.025Z"/>
  </g>
  <defs>
    <clipPath id="a">
      <path fill="#fff" d="M0 0h16v16H0z"/>
    </clipPath>
  </defs>
</svg>
