<?xml version="1.0" encoding="utf-8"?>
<!-- Generator: Adobe Illustrator 27.5.0, SVG Export Plug-In . SVG Version: 6.00 Build 0)  -->
<svg version="1.1" id="Ñëîé_1" xmlns="http://www.w3.org/2000/svg" xmlns:xlink="http://www.w3.org/1999/xlink" x="0px" y="0px"
	 viewBox="0 0 2600 2000" style="enable-background:new 0 0 2600 2000;" xml:space="preserve">
<rect id="_x36_" style="fill:#FFFFFF;" width="2600" height="2000"/>
<g>
	<g id="_x35_">
		<path style="fill:#B3D2FF;" d="M332.015,1581.89c-4.601-14.114-9.153-28.739-13.529-43.468l10.786-3.212
			c4.348,14.634,8.87,29.163,13.44,43.183L332.015,1581.89z M2261.541,1563.662l-11.168-1.381
			c1.854-15.024,3.615-30.156,5.234-44.973l11.186,1.225C2265.169,1533.403,2263.402,1548.587,2261.541,1563.662z M306.063,1494.638
			c-3.939-14.556-7.758-29.383-11.353-44.069l10.929-2.682c3.574,14.598,7.37,29.335,11.285,43.804L306.063,1494.638z
			 M2271.4,1473.331l-11.202-1.06c1.424-15.085,2.742-30.259,3.918-45.1l11.216,0.89
			C2274.153,1442.959,2272.83,1458.189,2271.4,1473.331z M284.428,1406.241c-3.25-14.83-6.342-29.825-9.191-44.57l11.048-2.139
			c2.831,14.653,5.905,29.556,9.134,44.294L284.428,1406.241z M2278.563,1382.729l-11.23-0.712
			c0.953-15.074,1.788-30.28,2.482-45.193l11.24,0.525C2280.358,1352.324,2279.52,1367.592,2278.563,1382.729z M267.173,1316.88
			c-2.502-15.012-4.819-30.149-6.885-44.993l11.144-1.555c2.053,14.744,4.354,29.78,6.84,44.693L267.173,1316.88z
			 M2282.773,1291.927l-11.248-0.327c0.439-15.141,0.742-30.363,0.9-45.243l11.252,0.119
			C2283.518,1261.425,2283.214,1276.717,2282.773,1291.927z M254.641,1226.714c-1.678-15.162-3.138-30.412-4.34-45.325l11.216-0.907
			c1.194,14.802,2.643,29.939,4.308,44.992L254.641,1226.714z M2272.471,1201.11c-0.133-15.153-0.42-30.37-0.855-45.229
			l11.248-0.329c0.436,14.936,0.726,30.23,0.859,45.46L2272.471,1201.11z M247.35,1135.944c-0.746-15.252-1.241-30.564-1.471-45.513
			l11.251-0.174c0.228,14.824,0.719,30.01,1.459,45.136L247.35,1135.944z M2269.807,1110.691
			c-0.772-15.133-1.723-30.317-2.823-45.13l11.22-0.836c1.108,14.899,2.062,30.171,2.84,45.39L2269.807,1110.691z M257.237,1045.104
			l-11.25-0.232c0.313-15.292,0.917-30.61,1.796-45.525l11.234,0.663C258.146,1014.783,257.547,1029.954,257.237,1045.104z
			 M2263.081,1020.522c-1.503-15.13-3.206-30.241-5.059-44.915l11.163-1.413c1.866,14.772,3.579,29.985,5.093,45.213
			L2263.081,1020.522z M262.584,955.036l-11.196-1.126c1.529-15.235,3.392-30.462,5.539-45.258l11.136,1.62
			C265.939,924.905,264.096,939.966,262.584,955.036z M2251.723,930.864c-2.341-15.034-4.911-30.012-7.639-44.517l11.057-2.085
			c2.751,14.62,5.341,29.716,7.7,44.866L2251.723,930.864z M920.915,929.274c-15.636-2.468-26.945-9.594-42.612-21.9l7.112-8.73
			c13.724,10.752,23.637,17.202,36.698,19.428L920.915,929.274z M959.955,902.47l-10.021-5.124
			c5.151-10.099,9.704-24.113,13.535-41.653l10.993,2.405C970.369,876.844,965.624,891.357,959.955,902.47z M845.279,875.063
			c-8.964-9.994-18.544-21.496-29.286-35.164l8.843-6.967c10.591,13.474,20.016,24.793,28.816,34.604L845.279,875.063z
			 M275.579,865.823l-11.047-2.146c2.915-15.037,6.213-30.03,9.804-44.565l10.924,2.705
			C281.714,836.167,278.457,850.973,275.579,865.823z M2234.989,842.123c-3.332-14.88-6.927-29.631-10.684-43.844l10.879-2.883
			c3.793,14.351,7.421,29.243,10.784,44.262L2234.989,842.123z M982.033,812.759l-11.16-1.438
			c1.728-13.447,3.277-28.173,4.735-45.019l11.211,0.973C985.346,784.278,983.781,799.156,982.033,812.759z M788.433,803.603
			c-9.147-12.367-18.634-25.44-26.808-36.722l9.109-6.615c8.159,11.261,17.627,24.307,26.743,36.633L788.433,803.603z
			 M1612.253,802.676c-8.763,0-17.361-2.621-25.555-7.79l6-9.532c12.309,7.779,24.417,7.797,37.491,1.592l4.841,10.17
			C1627.3,800.805,1619.637,802.676,1612.253,802.676z M297.228,778.402l-10.761-3.294c4.471-14.638,9.376-29.196,14.579-43.271
			l10.553,3.91C306.471,749.62,301.636,763.971,297.228,778.402z M1671.826,767.662l-8.267-7.642
			c8.532-9.251,17.677-20.663,27.961-34.888l9.116,6.606C1690.087,746.328,1680.665,758.079,1671.826,767.662z M1554.703,759.916
			c-7.282-11.247-14.498-24.493-22.062-40.492l10.171-4.819c7.348,15.543,14.325,28.36,21.334,39.184L1554.703,759.916z
			 M2211.873,754.927c-4.532-14.597-9.37-28.966-14.376-42.709l10.572-3.861c5.068,13.912,9.964,28.455,14.55,43.225
			L2211.873,754.927z M734.957,730.151c-10.295-14.086-18.874-25.651-27.001-36.394l8.971-6.801
			c8.164,10.793,16.778,22.405,27.111,36.543L734.957,730.151z M990.203,721.778l-11.229-0.727
			c0.853-13.199,1.721-28.034,2.653-45.354l11.236,0.606C991.929,693.663,991.058,708.538,990.203,721.778z M328.466,694.045
			l-10.295-4.549c6.177-14.007,12.76-27.761,19.755-41.211l9.978,5.208C341.021,666.727,334.545,680.261,328.466,694.045z
			 M1726.414,694.042l-9.403-6.19c7.996-12.171,16.256-25.067,24.617-38.095l9.466,6.09
			C1742.714,668.909,1734.445,681.816,1726.414,694.042z M1514.528,677.381c-5.097-12.799-10.364-26.764-16.101-42.692l10.584-3.822
			c5.696,15.809,10.919,29.659,15.97,42.342L1514.528,677.381z M2180.944,670.355c-6.049-14.109-12.449-27.813-19.021-40.734
			l10.029-5.111c6.682,13.138,13.186,27.068,19.332,41.401L2180.944,670.355z M680.174,658.06
			c-10.21-12.689-19.714-23.983-29.055-34.526l8.418-7.476c9.46,10.678,19.077,22.105,29.4,34.934L680.174,658.06z M995.204,630.858
			l-11.239-0.567c0.758-15.051,1.511-30.11,2.315-45.433l11.237,0.59C996.714,600.764,995.961,615.815,995.204,630.858z
			 M1775.765,617.798l-9.388-6.212c9.401-14.242,17.81-26.563,25.708-37.664l9.165,6.535
			C1793.429,591.451,1785.093,603.665,1775.765,617.798z M370.22,614.618l-9.484-6.063c8.842-13.865,17.96-26.387,27.098-37.218
			l8.596,7.27C387.613,589.057,378.794,601.174,370.22,614.618z M1483.402,591.699c-5.161-15.14-10.224-30.289-14.495-43.111
			l10.674-3.565c4.266,12.804,9.321,27.929,14.471,43.036L1483.402,591.699z M620.18,590.91
			c-11.501-11.211-22.809-21.114-33.611-29.436l6.862-8.928c11.146,8.586,22.786,18.778,34.599,30.292L620.18,590.91z
			 M2140.076,590.429c-8.063-13.173-16.517-25.632-25.127-37.03l8.974-6.796c8.831,11.69,17.494,24.455,25.747,37.939
			L2140.076,590.429z M427.991,547.957L421.166,539c13.438-10.263,27.423-17.664,41.568-21.998l3.293,10.773
			C453.162,531.716,440.365,538.506,427.991,547.957z M1828.39,544.511l-8.742-7.093c10.552-13.036,20.552-24.254,30.57-34.293
			l7.96,7.962C1848.439,520.847,1838.695,531.781,1828.39,544.511z M1000.039,540.081l-11.232-0.67
			c0.974-16.375,1.942-31.246,2.957-45.463l11.224,0.804C1001.975,508.923,1001.011,523.751,1000.039,540.081z M549.367,537.722
			c-14.041-6.996-27.852-11.461-41.049-13.271l1.527-11.162c14.412,1.978,29.396,6.804,44.535,14.347L549.367,537.722z
			 M2086.002,519.511c-10.833-11.112-22.05-20.92-33.337-29.152l6.625-9.106c11.796,8.602,23.493,18.827,34.765,30.389
			L2086.002,519.511z M1454.554,505.479c-5.598-16.762-10.211-30.429-14.518-43.012l10.644-3.652
			c4.317,12.61,8.939,26.303,14.545,43.092L1454.554,505.479z M1891.855,482.329l-6.45-9.231
			c13.839-9.693,27.816-16.872,41.546-21.336l3.475,10.715C1917.758,466.596,1904.781,473.276,1891.855,482.329z M2014.633,468.527
			c-13.936-5.885-28.043-9.528-41.929-10.826l1.046-11.217c15.032,1.406,30.258,5.33,45.255,11.663L2014.633,468.527z
			 M1006.588,449.522l-11.209-0.997c1.402-15.807,2.928-31.072,4.534-45.373l11.183,1.259
			C1009.499,418.626,1007.982,433.803,1006.588,449.522z M1425.065,419.618c-5.438-15.195-10.561-29.085-15.665-42.462l10.512-4.02
			c5.132,13.451,10.282,27.413,15.746,42.682L1425.065,419.618z M1016.825,359.49l-11.137-1.611
			c2.276-15.773,4.778-30.942,7.436-45.085l11.058,2.083C1021.553,328.864,1019.077,343.874,1016.825,359.49z M1392.683,335.092
			c-6.046-14.561-12.14-28.493-18.115-41.407l10.211-4.734c6.037,13.049,12.192,27.119,18.296,41.817L1392.683,335.092z
			 M1033.737,270.791l-10.917-2.73c3.925-15.732,8.252-30.55,12.86-44.043l10.647,3.645
			C1041.821,240.856,1037.585,255.367,1033.737,270.791z M1354.584,253.253c-7.401-13.955-14.961-27.055-22.47-38.938l9.509-6.024
			c7.661,12.122,15.365,25.472,22.901,39.678L1354.584,253.253z M1063.226,186.387l-10.09-4.986
			c7.389-14.989,15.582-28.241,24.353-39.391l8.839,6.971C1078.041,159.516,1070.269,172.101,1063.226,186.387z M1306.324,177.777
			c-9.832-12.34-19.98-23.272-30.163-32.491l7.548-8.356c10.632,9.626,21.2,21.006,31.411,33.821L1306.324,177.777z
			 M1117.722,119.782l-6.066-9.489c13.33-8.542,28.016-14.096,43.651-16.507l1.713,11.134
			C1142.945,107.092,1129.723,112.092,1117.722,119.782z M1240.658,119.775c-13.108-7.075-26.762-11.912-40.583-14.376l1.973-11.092
			c15.001,2.675,29.788,7.907,43.95,15.551L1240.658,119.775z"/>
		<path style="fill:#BAD2F4;" d="M546.444,1645.494c0,0-274.056-735.363-76.836-899.11
			c131.823-109.449,271.548,131.826,438.321,4.186c148.474-113.635,101.274-459.361,338.069-507.147
			c266.235-53.727,324.855,591.098,543.342,502.961c265.119-106.948,528.843,110.158,300.937,900.514L546.444,1645.494z"/>
		<path style="fill:#C6DCF7;" d="M2332.852,1402.883c-93.377-14.476-78.14,116.305-211.243,116.305
			c-121.695,0-160.628-498.037-249.172-355.67c-453.928,729.86-190.34-310.386-551.342-323.605
			c-163.235-5.977-272.006,176.062-312.117,498.37c-58.143,291.378-192.985-222.239-331.753-174.484
			c-88.194,30.35-78.093,355.388-199.789,355.388c-133.103,0-117.865-130.781-211.242-116.305
			c-100.536,15.586-130.565,247.064-130.565,247.064h2327.787C2463.417,1649.948,2433.388,1418.469,2332.852,1402.883z"/>
		<path style="fill:#D2E5F7;" d="M2250.161,1544.448c-85.905-6.181-71.887,49.664-194.338,49.664
			c-111.957,0-108.88-125.156-183.801-151.755c-137.97-48.984-251.714,198.929-305.205,74.507
			c-101.593-330.146-397.894-495.712-534.589,0c-53.49,124.422-178.577-97.591-305.204-74.507
			c-77.944,14.209-71.844,151.755-183.801,151.755c-122.451,0-108.433-55.845-194.338-49.664
			c-92.491,6.655-120.116,105.5-120.116,105.5h2141.508C2370.278,1649.948,2342.652,1551.103,2250.161,1544.448z"/>
		<path style="fill:#BAD2F4;" d="M135.63,1649.948c0,0-14.6,59.467,53.057,74.355c92.542,20.365,635.752,73.87,503.787,114.529
			c-74.494,22.952,38.029,54.118,400.87,65.594c362.842,11.476,985.45-33.49,776.076-100.022
			c-209.374-66.532,645.958-16.066,593.996-154.456H135.63z"/>
	</g>
	<g id="_x34_">
		<path style="fill:#9358E0;" d="M1953.435,485.131c13.097,27.173,22.472,51.84,25.488,65.827
			c5.973-16.458,11.813-31.663,17.483-45.694c-13.262-8.385-59.263-146.489-45.868-151.616
			c13.073-2.564,51.006,114.807,51.49,137.951c6.558-15.655,12.863-29.722,18.85-42.32c-12.427-3.998-31.012-159.373-16.581-160.045
			c6.084-0.694,15.122,34.73,20.186,79.122c3.226,28.283,4.056,53.365,2.663,68.037c8.151-16.396,15.623-29.962,22.241-41.078
			c-11.631-5.75-0.103-162.644,14.17-160.383c12.839,2.398,3.465,122.59-4.63,145.071c20.127-28.949,23.865-40.229,61.896-78.487
			c73.812-74.68,89.912-58.736,15.739,15.63c-35.762,38.655-51.276,35.432-73.048,72.629
			c17.471-12.454,141.659-46.775,146.844-34.085c3.461,13.965-140.706,52.031-153.146,44.384
			c-6.915,11.631-14.806,25.992-23.459,43.547c15.996-10.963,149.217-32.76,152.963-19.221
			c1.823,14.267-145.086,36.224-156.938,27.411c-6.22,12.982-12.791,27.544-19.641,43.859
			c18.164-10.577,146.683-31.389,150.473-18.125c0.954,14.248-139.016,35.124-154.581,28.049
			c-6.012,14.702-12.216,30.707-18.568,48.15c18.226-10.565,146.602-31.346,150.389-18.09
			c0.825,14.222-137.763,34.907-154.011,28.161c-5.182,14.55-10.452,30.049-15.784,46.531
			c16.841-10.82,148.288-32.255,152.073-18.816c1.075,14.261-140.004,35.299-155.001,27.951
			c-4.845,15.647-10.323,31.315-16.392,45.92c17.079-8.542,152.903-9.936,154.516,4.054c-0.957,14.294-144.915,13.705-157.909,3.956
			c-6.97,16.029-14.67,31.223-23.082,45.519c12.792-9.057,158.04,1.267,157.648,15.605c-0.291,14.433-155.674,1.327-160.456-10.893
			c-10.917,17.969-23.048,34.64-36.787,50.166c18.324-4.077,150.776,29.932,148.659,43.891c-4.284,13.711-146-24.857-154.313-37.677
			c-14.626,15.692-30.48,29.536-47.403,41.373c19.348-0.252,142.289,55.792,137.863,69.129
			c-6.632,12.74-139.296-49.998-145.306-64.086c-45.425,29.667-81.864,34.766-83.434,34.973l-1.175-8.866
			c0.363-0.048,35.403-5.027,78.492-32.806c-14.969-11.015-75.44-134.26-63.421-141.707c13.315-4.473,70.836,116.876,71.127,136.545
			c14.163-9.845,29.927-22.866,45.897-39.93c-14.313-3.799-89.547-131.679-77.293-139.203c12.94-6.05,82.987,117.194,81.899,134.17
			c12.354-13.785,24.736-30.042,36.512-49.146c-14.551-2.576-99.866-124.095-88.245-132.567
			c12.469-6.838,90.766,108.253,92.129,126.123c7.72-13.103,15.139-27.474,22.063-43.251
			c-13.054,1.744-102.234-125.704-89.921-133.244c12.395-7.119,92.381,110.512,92.444,127.349
			c5.797-13.708,11.316-28.758,16.194-44.417c-16.016-7.015-96.685-121.887-85.744-130.992
			c12.017-6.206,83.232,97.468,89.572,119.002c5.337-16.537,10.606-32.083,15.783-46.689
			c-13.926-4.54-79.554-138.206-66.724-144.714C1913.836,414.411,1934.036,444.883,1953.435,485.131z"/>
		<path style="fill:#CE4ABF;" d="M679.809,597.142c-10.171,21.103-17.451,40.258-19.794,51.121
			c-4.638-12.781-9.174-24.589-13.577-35.485c10.299-6.512,46.023-113.762,35.621-117.743
			c-10.152-1.992-39.611,89.158-39.986,107.131c-5.093-12.157-9.989-23.081-14.639-32.865c9.65-3.105,24.083-123.768,12.877-124.289
			c-4.724-0.539-11.744,26.971-15.676,61.445c-2.505,21.965-3.15,41.443-2.068,52.837c-6.33-12.733-12.133-23.268-17.272-31.901
			c9.033-4.465,0.08-126.308-11.005-124.552c-9.97,1.862-2.691,95.202,3.596,112.661c-15.63-22.482-18.533-31.241-48.068-60.952
			c-57.321-57.996-69.825-45.613-12.223,12.138c27.772,30.019,39.82,27.516,56.729,56.403
			c-13.568-9.672-110.011-36.325-114.037-26.47c-2.688,10.845,109.271,40.407,118.932,34.468
			c5.37,9.033,11.498,20.185,18.218,33.818c-12.423-8.514-115.88-25.441-118.79-14.927c-1.416,11.08,112.672,28.131,121.876,21.287
			c4.83,10.081,9.933,21.39,15.253,34.061c-14.106-8.214-113.913-24.377-116.856-14.075
			c-0.741,11.065,107.958,27.277,120.046,21.783c4.669,11.417,9.487,23.846,14.42,37.393
			c-14.154-8.205-113.849-24.343-116.791-14.049c-0.641,11.045,106.986,27.109,119.603,21.87
			c4.024,11.299,8.117,23.335,12.258,36.135c-13.078-8.403-115.159-25.049-118.098-14.612
			c-0.835,11.075,108.726,27.413,120.372,21.706c3.763,12.152,8.017,24.319,12.73,35.661c-13.263-6.633-118.743-7.716-119.996,3.148
			c0.743,11.101,112.54,10.643,122.631,3.072c5.413,12.448,11.393,24.247,17.925,35.349c-9.934-7.034-122.732,0.984-122.428,12.119
			c0.226,11.208,120.895,1.031,124.609-8.46c8.478,13.955,17.899,26.901,28.568,38.958c-14.231-3.166-117.091,23.245-115.447,34.085
			c3.327,10.648,113.382-19.304,119.838-29.26c11.358,12.187,23.67,22.938,36.813,32.13c-15.025-0.196-110.5,43.328-107.063,53.685
			c5.15,9.894,108.176-38.828,112.843-49.769c35.277,23.039,63.575,26.999,64.794,27.16l0.912-6.885
			c-0.282-0.037-27.493-3.904-60.956-25.477c11.624-8.554,58.586-104.265,49.252-110.048c-10.341-3.474-55.01,90.765-55.237,106.039
			c-10.999-7.646-23.241-17.757-35.643-31.009c11.116-2.95,69.542-102.26,60.025-108.104
			c-10.049-4.699-64.447,91.012-63.602,104.195c-9.594-10.705-19.21-23.33-28.355-38.166c11.3-2.001,77.555-96.371,68.53-102.951
			c-9.683-5.31-70.488,84.068-71.546,97.946c-5.995-10.176-11.757-21.336-17.134-33.588c10.138,1.354,79.394-97.62,69.832-103.476
			c-9.626-5.529-71.742,85.823-71.791,98.898c-4.502-10.645-8.788-22.334-12.577-34.494c12.437-5.447,75.084-94.656,66.588-101.727
			c-9.332-4.82-64.637,75.693-69.561,92.416c-4.144-12.842-8.236-24.916-12.257-36.258c10.815-3.526,61.781-107.329,51.817-112.384
			C710.561,542.221,694.874,565.886,679.809,597.142z"/>
	</g>
	<g id="_x33_">
		<path style="fill:#8A9EDD;" d="M1811.339,469.456v1228.686c0,21.125-17.13,38.254-38.263,38.254H826.924
			c-21.204,0.099-38.384-17.505-38.263-38.254c0,0,0-1228.686,0-1228.686c0-21.125,17.13-38.254,38.263-38.254h946.152
			C1794.209,431.202,1811.339,448.331,1811.339,469.456z"/>
		<path style="fill:#7689D6;" d="M1811.339,469.456v1228.686c0,21.125-17.13,38.254-38.263,38.254H826.924
			c-19.607,0-35.759-14.738-37.997-33.736c1.586-2.744,2.435-4.201,2.435-4.201s948.244-44.573,948.244-1263.862l3.961-3.395
			C1774.258,429.705,1809.263,429.786,1811.339,469.456z"/>
		<rect x="860.395" y="489.492" style="fill:#FFFFFF;" width="879.211" height="1155.358"/>
		<path style="fill:#F5FAFF;" d="M1739.606,489.492V1644.85h-710.951c274.518-98.473,691.576-376.163,710.3-1155.358H1739.606z"/>
		<path style="fill:#B1D2EF;" d="M1574.183,964.083c-105.108-1.885-105.091-158.087,0.003-159.956
			C1679.291,806.011,1679.274,962.213,1574.183,964.083z M1574.183,816.986c-88.208,1.582-88.193,132.668,0.003,134.236
			C1662.39,949.641,1662.376,818.555,1574.183,816.986z"/>
		<path style="fill:#EB5648;" d="M1582.756,922.684c-7.657,2.816-46.467-43.078-52.07-46.741
			c-11.832-11.934,6.239-30.035,18.188-18.187c0-0.001,33.882,33.881,33.882,33.881l76.201-76.201
			c11.923-11.824,30.041,6.228,18.186,18.187C1673.438,835.374,1586.807,929.187,1582.756,922.684z"/>
		<path style="fill:#B1D2EF;" d="M1574.183,1496.808c-105.108-1.885-105.091-158.086,0.003-159.956
			C1679.291,1338.737,1679.274,1494.938,1574.183,1496.808z M1574.183,1349.712c-88.207,1.581-88.193,132.667,0.003,134.236
			C1662.39,1482.366,1662.376,1351.28,1574.183,1349.712z"/>
		<path style="fill:#EB5648;" d="M1582.756,1453.027c-7.657,2.816-46.467-43.078-52.07-46.741
			c-11.832-11.935,6.238-30.034,18.188-18.187c0-0.001,33.882,33.882,33.882,33.882l76.201-76.201
			c11.923-11.822,30.041,6.228,18.186,18.187C1673.438,1365.716,1586.807,1459.529,1582.756,1453.027z"/>
		<path style="fill:#B1D2EF;" d="M1574.183,1230.445c-105.108-1.885-105.091-158.086,0.003-159.956
			C1679.291,1072.374,1679.274,1228.575,1574.183,1230.445z M1574.183,1083.349c-88.207,1.582-88.193,132.667,0.003,134.236
			C1662.39,1216.003,1662.376,1084.918,1574.183,1083.349z"/>
		<path style="fill:#EB5648;" d="M1582.756,1187.856c-7.686,2.79-46.449-43.062-52.07-46.741
			c-11.832-11.935,6.239-30.035,18.188-18.187c0-0.001,33.882,33.881,33.882,33.881l76.201-76.201
			c11.923-11.824,30.041,6.228,18.186,18.187C1673.578,1100.469,1586.573,1194.493,1582.756,1187.856z"/>
		<path style="fill:#FCB4B4;" d="M1578.453,407.617h-103.334v-59.988c0-14.497-11.754-26.243-26.251-26.243h-297.734
			c-14.498,0-26.252,11.745-26.252,26.243v59.988c-131.723,6.047-132.513-32.903-129.575,101.798
			c-0.002,14.499,11.744,26.253,26.241,26.253h556.906c14.497,0,26.243-11.754,26.243-26.252v-75.548
			C1604.696,419.371,1592.951,407.617,1578.453,407.617z M1300,390.77c-22.509-0.383-22.498-33.867,0.001-34.25
			C1322.502,356.906,1322.506,390.39,1300,390.77z"/>
		<path style="fill:#F49F9F;" d="M1604.696,433.868v75.548c0,14.497-11.746,26.252-26.243,26.252h-556.906
			c-14.497,0-26.243-11.754-26.243-26.252c0,0,453.563,24.966,453.563-188.03c14.497,0,26.251,11.745,26.251,26.243v59.988h103.334
			C1592.951,407.617,1604.696,419.371,1604.696,433.868z"/>
		<path style="fill:#F9C0C0;" d="M1300,321.386c-162.919,0-175.119,86.23-175.119,86.23v-59.988
			c0-14.497,11.754-26.243,26.252-26.243H1300z"/>
		<path style="fill:#EB5648;" d="M1181.99,686.466c-4.018-6.481-7.162-10.909-9.613-13.537c-0.972-1.042-2.048-2.053-3.223-3.029
			c4.297-1.51,7.799-3.75,10.459-6.698c4.083-4.525,6.153-10.281,6.153-17.109c0-5.351-1.35-10.194-4.012-14.397
			c-2.717-4.287-6.404-7.317-10.96-9.008c-4.294-1.592-10.781-2.367-19.832-2.367h-34.105c-1.807,0-3.272,1.465-3.272,3.272v80.253
			c0,1.807,1.465,3.272,3.272,3.272h16.204c1.807,0,3.272-1.465,3.272-3.272v-30.231h0.013c4.154,0,6.139,0.391,7.073,0.719
			c1.209,0.425,2.413,1.265,3.577,2.498c0.963,1.021,3.167,3.821,8.203,11.374l11.715,17.463c0.608,0.906,1.627,1.449,2.717,1.449
			h19.379c1.19,0,2.286-0.646,2.862-1.687c0.576-1.041,0.543-2.312-0.089-3.321L1181.99,686.466z M1136.333,640.441h9.374
			c8.214,0,10.629,0.146,11.335,0.237c1.845,0.315,3.195,0.989,4.123,2.057c0.916,1.056,1.362,2.495,1.362,4.398
			c0,1.752-0.351,3.119-1.074,4.179c-0.69,1.013-1.636,1.712-2.892,2.139c-0.719,0.244-3.474,0.811-13.51,0.811h-8.717V640.441z"/>
		<path style="fill:#EB5648;" d="M1261.653,620.321h-16.204c-1.807,0-3.272,1.465-3.272,3.272v44.397
			c0,6.13-0.223,10.528-0.664,13.072c-0.337,1.945-1.333,3.559-3.043,4.936c-1.729,1.391-4.538,2.096-8.35,2.096
			c-3.772,0-6.706-0.778-8.719-2.314c-1.984-1.512-3.206-3.469-3.728-5.939c-0.247-1.254-0.541-4.49-0.541-12.781v-43.466
			c0-1.807-1.465-3.272-3.272-3.272h-16.204c-1.807,0-3.272,1.465-3.272,3.272v42.809c0,9.314,0.547,16.215,1.674,21.113
			c0.841,3.574,2.587,7.009,5.189,10.21c2.615,3.218,6.179,5.849,10.592,7.821c4.425,1.979,10.565,2.94,18.771,2.94
			c6.748,0,12.362-0.903,16.683-2.683c4.403-1.814,7.995-4.314,10.678-7.434c2.7-3.14,4.57-7.01,5.559-11.502
			c0.936-4.249,1.391-11.158,1.391-21.123v-42.152C1264.924,621.786,1263.459,620.321,1261.653,620.321z"/>
		<path style="fill:#EB5648;" d="M1335.666,687.053h-37.019V624.25c0-1.807-1.465-3.272-3.272-3.272h-16.205
			c-1.807,0-3.272,1.465-3.272,3.272v79.596c0,1.807,1.465,3.272,3.272,3.272h56.496c1.807,0,3.272-1.465,3.272-3.272v-13.521
			C1338.938,688.518,1337.473,687.053,1335.666,687.053z"/>
		<path style="fill:#EB5648;" d="M1408.255,687.053h-41.563v-15.299h37.019c1.807,0,3.272-1.465,3.272-3.272v-13.521
			c0-1.807-1.464-3.272-3.272-3.272h-37.019v-11.248h40.03c1.807,0,3.272-1.465,3.272-3.272v-13.576
			c0-1.807-1.465-3.272-3.272-3.272h-59.505c-1.807,0-3.272,1.465-3.272,3.272v80.253c0,1.807,1.465,3.272,3.272,3.272h61.039
			c1.807,0,3.271-1.465,3.271-3.272v-13.521C1411.526,688.518,1410.062,687.053,1408.255,687.053z"/>
		<path style="fill:#EB5648;" d="M1482.722,665.966c-2.436-3.935-5.843-7.073-10.126-9.329c-4.06-2.138-10.034-4.122-18.263-6.065
			c-9.991-2.359-12.795-4.063-13.536-4.686c-1.095-0.919-1.242-1.713-1.242-2.367c0-1.029,0.353-1.705,1.224-2.334
			c2.081-1.511,5.155-2.277,9.136-2.277c3.785,0,6.555,0.674,8.233,2.003c1.616,1.28,2.715,3.593,3.267,6.874
			c0.274,1.63,1.729,2.8,3.37,2.726l16.204-0.712c1.793-0.079,3.188-1.588,3.126-3.382c-0.288-8.283-3.364-15.025-9.146-20.04
			c-5.68-4.926-14.054-7.424-24.889-7.424c-6.584,0-12.33,1.028-17.078,3.054c-4.948,2.112-8.808,5.258-11.475,9.353
			c-2.659,4.082-4.006,8.541-4.006,13.254c0,7.291,2.852,13.544,8.479,18.586c3.945,3.534,10.382,6.372,19.678,8.676
			c6.629,1.649,10.899,2.799,12.668,3.411c2.887,1.026,4.006,2.002,4.415,2.49c0.62,0.743,0.909,1.617,0.909,2.748
			c0,1.981-0.887,3.644-2.793,5.234c-2.029,1.693-5.293,2.552-9.701,2.552c-4.161,0-7.306-0.961-9.616-2.937
			c-2.299-1.966-3.874-5.247-4.681-9.751c-0.301-1.679-1.854-2.845-3.537-2.679l-15.766,1.533c-0.875,0.085-1.679,0.519-2.231,1.203
			c-0.551,0.684-0.804,1.562-0.702,2.435c1.151,9.775,4.805,17.378,10.856,22.596c6.023,5.195,14.607,7.829,25.512,7.829
			c7.371,0,13.671-1.071,18.724-3.182c5.278-2.205,9.429-5.641,12.338-10.213c2.882-4.53,4.343-9.467,4.343-14.676
			C1486.414,674.804,1485.172,669.924,1482.722,665.966z"/>
		<path style="fill:#EB5648;" d="M944.441,851.359c0.446,0.323,1.02,0.41,1.542,0.239c3.353-1.107,6.416-2.673,9.145-4.672v29.605
			c0,0.947,0.768,1.715,1.715,1.715h8.822c0.947,0,1.715-0.768,1.715-1.715v-46.216c0-0.947-0.768-1.715-1.715-1.715h-7.158
			c-0.724,0-1.37,0.455-1.614,1.136c-0.888,2.48-2.569,4.697-4.997,6.588c-2.531,1.972-4.881,3.32-6.983,4.008
			c-0.704,0.231-1.181,0.888-1.181,1.63v8.006C943.731,850.52,943.995,851.036,944.441,851.359z"/>
		<path style="fill:#EB5648;" d="M972.886,1144.608c0.947,0,1.715-0.768,1.715-1.715v-8.195c0-0.947-0.768-1.715-1.715-1.715
			h-14.056c0.857-0.892,2.464-2.421,4.792-4.557c2.882-2.644,4.833-4.631,5.966-6.075c1.706-2.171,2.977-4.295,3.778-6.314
			c0.819-2.067,1.235-4.271,1.235-6.55c0-4.115-1.491-7.609-4.431-10.383c-2.912-2.748-6.91-4.141-11.883-4.141
			c-4.51,0-8.347,1.185-11.403,3.524c-3.138,2.402-5.02,6.316-5.592,11.633c-0.049,0.455,0.085,0.91,0.373,1.265
			c0.288,0.354,0.706,0.58,1.16,0.625l8.791,0.879c0.47,0.047,0.925-0.098,1.279-0.398c0.355-0.301,0.572-0.733,0.602-1.197
			c0.137-2.111,0.62-3.645,1.397-4.437c0.759-0.774,1.796-1.15,3.172-1.15c1.402,0,2.438,0.354,3.167,1.083
			c0.729,0.729,1.084,1.817,1.084,3.325c0,1.426-0.516,2.923-1.523,4.434c-0.566,0.83-2.252,2.76-7.065,7.245
			c-5.104,4.736-8.448,8.467-10.223,11.407c-1.797,2.976-2.891,6.175-3.251,9.509c-0.052,0.484,0.103,0.967,0.429,1.329
			c0.325,0.363,0.789,0.569,1.276,0.569H972.886z"/>
		<path style="fill:#EB5648;" d="M972.323,1386.848c-1.078-1.342-2.375-2.407-3.878-3.188c3.025-2.47,4.554-5.556,4.554-9.207
			c0-3.288-1.247-6.264-3.704-8.84c-2.941-3.105-6.867-4.68-11.669-4.68c-2.772,0-5.324,0.535-7.586,1.589
			c-2.313,1.08-4.151,2.597-5.461,4.509c-1.266,1.846-2.216,4.302-2.825,7.3c-0.093,0.455,0.004,0.928,0.266,1.311
			c0.262,0.383,0.669,0.643,1.127,0.721l8.132,1.381c0.465,0.08,0.941-0.036,1.317-0.319c0.376-0.283,0.62-0.708,0.674-1.176
			c0.183-1.599,0.669-2.795,1.443-3.554c0.751-0.737,1.597-1.08,2.662-1.08c1.064,0,1.869,0.288,2.461,0.879
			c0.592,0.592,0.88,1.407,0.88,2.493c0,1.332-0.413,2.314-1.298,3.089c-0.915,0.801-2.356,1.19-4.289,1.13
			c-0.867-0.028-1.627,0.617-1.744,1.484l-0.973,7.19c-0.078,0.572,0.138,1.145,0.573,1.523c0.435,0.379,1.032,0.514,1.588,0.357
			c1.412-0.395,2.619-0.596,3.588-0.596c1.243,0,2.228,0.443,3.101,1.392c0.9,0.979,1.338,2.325,1.338,4.114
			c0,1.923-0.467,3.375-1.427,4.44c-0.926,1.027-1.983,1.506-3.326,1.506c-1.245,0-2.273-0.408-3.142-1.246
			c-0.899-0.867-1.466-2.203-1.687-3.97c-0.117-0.937-0.971-1.605-1.908-1.49l-8.54,1.036c-0.935,0.113-1.604,0.959-1.497,1.896
			c0.487,4.293,2.286,7.826,5.347,10.501c3.051,2.666,6.916,4.018,11.489,4.018c4.834,0,8.943-1.598,12.21-4.75
			c3.286-3.169,4.951-7.059,4.951-11.564C975.071,1391.878,974.147,1389.119,972.323,1386.848z"/>
		<path style="fill:#7689D6;" d="M1162.526,859.853h-145.502c-3.551,0-6.43-2.879-6.43-6.43c0-3.551,2.879-6.43,6.43-6.43h145.502
			c3.551,0,6.43,2.879,6.43,6.43C1168.957,856.974,1166.078,859.853,1162.526,859.853z"/>
		<path style="fill:#7689D6;" d="M1437.936,859.853h-219.029c-3.551,0-6.43-2.879-6.43-6.43c0-3.551,2.879-6.43,6.43-6.43h219.029
			c3.551,0,6.43,2.879,6.43,6.43C1444.365,856.974,1441.486,859.853,1437.936,859.853z"/>
		<path style="fill:#7689D6;" d="M1437.936,921.216H941.062c-3.551,0-6.43-2.879-6.43-6.43c0-3.551,2.879-6.43,6.43-6.43h496.874
			c3.551,0,6.43,2.879,6.43,6.43C1444.365,918.337,1441.486,921.216,1437.936,921.216z"/>
		<path style="fill:#7689D6;" d="M1437.936,1126.215h-420.912c-3.551,0-6.43-2.879-6.43-6.43s2.879-6.43,6.43-6.43h420.912
			c3.551,0,6.43,2.879,6.43,6.43S1441.486,1126.215,1437.936,1126.215z"/>
		<path style="fill:#7689D6;" d="M1088.677,1187.578H941.062c-3.551,0-6.43-2.879-6.43-6.43s2.879-6.43,6.43-6.43h147.615
			c3.551,0,6.43,2.879,6.43,6.43S1092.228,1187.578,1088.677,1187.578z"/>
		<path style="fill:#7689D6;" d="M1437.936,1187.578H1149.43c-3.551,0-6.43-2.879-6.43-6.43s2.879-6.43,6.43-6.43h288.506
			c3.551,0,6.43,2.879,6.43,6.43S1441.486,1187.578,1437.936,1187.578z"/>
		<path style="fill:#7689D6;" d="M1251.533,1392.577h-234.509c-3.551,0-6.43-2.879-6.43-6.43s2.879-6.43,6.43-6.43h234.509
			c3.551,0,6.43,2.879,6.43,6.43S1255.084,1392.577,1251.533,1392.577z"/>
		<path style="fill:#7689D6;" d="M1437.936,1392.577h-137.802c-3.551,0-6.43-2.879-6.43-6.43s2.879-6.43,6.43-6.43h137.802
			c3.551,0,6.43,2.879,6.43,6.43S1441.486,1392.577,1437.936,1392.577z"/>
		<path style="fill:#7689D6;" d="M1065.036,1453.94H941.062c-3.551,0-6.43-2.879-6.43-6.43s2.879-6.43,6.43-6.43h123.974
			c3.551,0,6.43,2.879,6.43,6.43S1068.587,1453.94,1065.036,1453.94z"/>
		<path style="fill:#7689D6;" d="M1437.936,1453.94h-333.017c-3.551,0-6.43-2.879-6.43-6.43s2.879-6.43,6.43-6.43h333.017
			c3.551,0,6.43,2.879,6.43,6.43S1441.486,1453.94,1437.936,1453.94z"/>
	</g>
	<g id="_x32_">
		<path style="fill:#F99370;" d="M637.946,1799.556l-31.247,3.128c-2.714,0-4.742-2.441-4.313-5.121
			c0.459-2.867,1.387-5.592,2.737-7.902c7.169-9.463-1.55-52.722-1.246-63.78h32.557c0.369,11.026-7.807,54.386-0.972,63.76
			C637.397,1793.025,637.946,1795.187,637.946,1799.556z"/>
		<path style="fill:#F99370;" d="M767.13,1802.683h-59.075c-2.923,0-5.21-2.497-4.971-5.41c0.487-5.938,1.904-14.651,1.477-18.585
			c0.227-3.452-4.743-48.179-5.114-52.808h35.898l-5.792,46.182c-0.683,5.446,2.568,10.635,7.78,12.354
			c7.041,2.322,15.06,3.33,20.358,4.695c5.838,1.474,11.005,3.59,12.842,8.808C771.351,1800.246,769.597,1802.683,767.13,1802.683z"
			/>
		<path style="fill:#1D3F70;" d="M753.863,1736.102c-32.909,11.194-53.838,5.172-67.768,0
			c-18.372-131.403-33.234-270.908-32.855-268.62c-0.915,98.813,0.919,218.702,1.709,268.62c-28.418,11.93-70.503,0-70.503,0
			c-6.138-50.445-31.05-280.511-14.932-344.182c79.779,21.133,154.949-9.241,154.949-9.241
			C752.985,1479.099,753.498,1683.47,753.863,1736.102z"/>
		<path style="fill:#F99370;" d="M707.658,1286.721l-11.637,48.995l23.298,54.232c0,0-80.55,25.851-143.391,5.235l25.975-53.73
			l-15.787-35.305c0,0-78.673,69.27-148.124,7.319l2.708-25.08c82.23,37.716,94.78-62.07,189.939-61.398
			c37.4-5.863,96.656,22.682,207.499-84.338l13.121,10.764C851.259,1153.414,815.6,1264.141,707.658,1286.721z"/>
		<path style="fill:#8C4225;" d="M573.875,1210.674c34.178,10.778,90.352,6.71,123.892-6.234
			c-21.328-11.979-6.867-36.614-16.619-60.142c-8.73-20.813-28.875-22.842-33.917-17.94
			C610.826,1123.948,578.294,1195.525,573.875,1210.674z"/>
		<path style="fill:#F99370;" d="M629.887,1188.012c1.402,1.759,3.118,30.117,0.748,38.98c-1.133,6.902,4.409,13.314,11.384,13.26
			c21.252,1.031,10.511-56.225,10.224-57.628C648.655,1168.055,626.448,1173.379,629.887,1188.012z"/>
		<path style="fill:#E57D61;" d="M629.887,1188.012c0.024-1.244,1.753,15.024,1.922,24.925c11.086,5.306,23.401,1.702,23.401,1.702
			c0.683-18.358-2.794-31.324-2.965-32.014C648.654,1168.041,626.448,1173.392,629.887,1188.012z"/>
		<path style="fill:#8C4225;" d="M642.15,1120.002c3.987,14.393,14.052,50.716,18.382,66.348l36.955,18.192
			c0,0,20.214-5.473,15.028-11.746c-23.871-22.159-16.619-53.878-44.407-72.513C652.756,1109.988,642.15,1120.002,642.15,1120.002z"
			/>
		<path style="fill:#F99370;" d="M608.365,1170.608c7.068,72.41,107.022,32.686,59.881-17.284
			C653.642,1104.022,602.385,1125.752,608.365,1170.608z"/>
		<path style="fill:#E57D61;" d="M646.919,1126.258v3.615c8.403,1.108,17.586,15.812,21.189,23.173
			C665.085,1142.65,659.808,1129.851,646.919,1126.258z"/>
		<path style="fill:#E57D61;" d="M610.184,1180.991c2.862,10.4,7.427,19.754,19.646,25.821
			c-12.07-7.043-14.408-24.493-14.408-24.493L610.184,1180.991z"/>
		<path style="fill:#E57D61;" d="M608.365,1170.608l8.445,3.747c10.456-4.849,20.518-21.96,20.518-21.96l-24.74-9.401
			C608.69,1150.786,607.056,1160.48,608.365,1170.608z"/>
		<path style="fill:#8C4225;" d="M573.875,1210.674c12.17,6.227,32.817,5.607,52.633,6.199
			c-17.553-14.707-17.944-44.887-17.944-44.887c26.704-9.953,36.37-25.321,38.667-45.629c-21.118-32.489-65.669,0.93-66.809,29.733
			c-1.605,8.532-2.049,15.889-9.011,28.425C566.326,1193.663,571.63,1205.466,573.875,1210.674z"/>
		<path style="fill:#F99370;" d="M600.934,1176.52c2.878,13.297,19.115,9.865,16.365-3.46
			C614.42,1159.764,598.184,1163.196,600.934,1176.52z"/>
		<path style="fill:#F9F8F3;" d="M664.653,1184.158l-15.342-7.838C647.911,1185.634,657.621,1191.584,664.653,1184.158z"/>
		<path style="fill:#C16256;" d="M605.154,1179.268c-0.287,0-0.552-0.186-0.641-0.475c-5.258-14.411,11.345-10.068,6.654-8.474
			c-4.78-1.964-7.902,1.011-5.371,8.083C605.932,1178.823,605.595,1179.275,605.154,1179.268z"/>
		<path style="fill:#C16256;" d="M611.411,1178.331c-1.216-0.161-1.887-5.068-7.058-5.594c-0.369-0.025-0.649-0.344-0.625-0.713
			C607.029,1169.084,614.281,1178.738,611.411,1178.331z"/>
		<path style="fill:#C16256;" d="M653.017,1163.393c1.071-2.033-2.147-3.668-3.158-1.604
			C648.789,1163.822,652.007,1165.457,653.017,1163.393z"/>
		<path style="fill:#C16256;" d="M667.907,1160.89c1.071-2.033-2.147-3.668-3.158-1.604
			C663.679,1161.319,666.897,1162.954,667.907,1160.89z"/>
		<path style="fill:#C16256;" d="M664.653,1184.828c-20.249-9.249-22.322-13.607,0.306-1.268
			C665.581,1183.853,665.331,1184.855,664.653,1184.828z"/>
		<path style="fill:#C16256;" d="M662.276,1176.293c-0.839-0.084-2.59,0.075-2.4-1.124c0.113-0.352,0.49-0.547,0.843-0.434
			c2.258,0.802,7.726-0.766,5.103-2.37c-3.756-1.893-8.623-12.445-5.191-9.997c0.025,0.07,2.485,7.007,5.829,8.818
			C670.563,1174.071,665.518,1176.25,662.276,1176.293z"/>
		<path style="fill:#F99370;" d="M842.537,1115.685c3.399,0.13,0.641,9.062,1.822,11.957c4.446-3.878,7.805-9.073,7.845-9.077
			c2.659-6.436,4.981-12.997,7.019-19.66c0.217-0.709,0.626-1.354,1.211-1.81c6.466-5.051-1.335,20.281-1.711,22.637
			c0.033,0.016,0.065,0.034,0.097,0.051c4.115-5.99,7.925-12.204,11.224-18.68c0.408-0.801,1.083-1.447,1.918-1.779
			c7.098-2.826-7.238,22.145-8.325,24.343c0.025,0.018,0.019,0.014,0.045,0.032c4.793-4.949,9.018-10.454,12.639-16.322
			c0.487-0.79,1.236-1.403,2.133-1.644c7.323-1.966-9.148,21.899-11.001,23.733c0.013,0.026,0.026,0.052,0.039,0.077
			c4.29-3.306,8.184-7.123,11.854-11.118c0.638-0.695,1.507-1.167,2.45-1.213c8.072-0.391-21.555,31.916-30.536,36.202
			c-3.63,2.266-12.923-6.566-13.121-10.764c-0.185-3.936,0.618-9.252,0.996-11.156
			C839.179,1128.002,838.425,1116.339,842.537,1115.685z"/>
		<path style="fill:#8C4225;" d="M641.956,1098.489c13.673,34.838-25.77,50.993-40.467,16.579
			C587.817,1080.23,627.259,1064.075,641.956,1098.489z"/>
		<path style="fill:#FDFFDE;" d="M606.173,1174.62c0.642,3.453,6.051,2.365,5.308-1.068
			C610.839,1170.099,605.43,1171.187,606.173,1174.62z"/>
		<path style="fill:#FDFFDE;" d="M615.095,1181.557c-0.872,0.395-6.72-5.834-7.405-6.241c-1.616-1.451,0.7-3.961,2.275-2.46
			C610.904,1174.307,620.564,1180.43,615.095,1181.557z"/>
		<path style="fill:#3A72AA;" d="M846.291,1172.61c-3.148,12.962-15.416,38.409-39.933,62.467v0.007
			c-84.507,92.48-94.675,32.517-90.281,92.834c0.275,20.658,17.942,44.076,9.41,62.032c-3.646,7.681-22.105,14.732-47.266,14.403
			c-18.746,5.145-47.805,6.479-64.336,0.038c-26.117,2.054-56.412,1.453-42.505-30.427c42.792-139.12-49.592,36.476-133.386-60.496
			l2.708-25.08c85.015,37.478,100.941-68.364,189.94-61.394c20.509,83.702,22.677,66.431,23.516-0.795
			c-0.024,0.019,9.339,5.104,18.82,0c8.948-4.779,43.033-4.205,71.988-19.158c36.029-17.874,59.502-44.97,83.297-54.117
			C835.295,1152.585,850.52,1162.65,846.291,1172.61z"/>
		<path style="fill:#23659B;" d="M846.29,1172.609c-9.736-1.278-3.269-14.055-17.702-13.947c-5.703-0.235-9.557-1.354-9.557-1.354
			C826.549,1145.155,853.434,1160.569,846.29,1172.609z"/>
		<path style="fill:#1D3F70;" d="M767.335,1802.683h-60.112c-2.403,0-4.334-1.995-4.234-4.396
			c0.258-6.221,2.076-13.789,1.572-19.599c-0.005,0.004,11.182,18.383,54.705,10.851c5.543,1.401,9.775,4.074,11.334,8.558
			C771.379,1800.34,769.708,1802.683,767.335,1802.683z"/>
		<path style="fill:#1D3F70;" d="M638.365,1798.68c0,0-36.14,0.664-36.131-0.038c0.053-4.107,0.91-5.613,2.889-8.981
			C605.954,1786.274,637.154,1775.969,638.365,1798.68z"/>
		<path style="fill:#F4D4BE;" d="M607.742,1227.748c0,0,1.036,17.955,14.882,27.539c13.846,9.583-5.74,31.143,26.641,30.117
			c32.381-1.026,10.647-22.001,10.733-28.283c0.086-6.283,17.463-12.441,12.978-30.921c0,0-9.258-1.928-18.82,0
			c-6.5,74.244-1.362,57.781-23.517,0.794C630.639,1226.993,613.418,1224.194,607.742,1227.748z"/>
		<path style="fill:#395B96;" d="M638.361,1798.642c0.002,0.013,0.003,0.026,0.005,0.038c0.268,2.134-1.449,4.003-3.6,4.003h-28.936
			c-2.151,0-3.867-1.869-3.6-4.003l0.005-0.039H638.361z"/>
		<path style="fill:#395B96;" d="M767.614,1802.683h-60.823c-2.181,0-3.921-1.784-3.868-3.964l0.002-0.078h67.822
			c0.003,0.012,0.007,0.024,0.01,0.036C771.3,1800.705,769.712,1802.683,767.614,1802.683z"/>
		<path style="fill:#103663;" d="M654.949,1736.102c-28.418,11.93-70.503,0-70.503,0s-0.275-4.303-0.757-11.81
			c0.63,0.174,39.638,10.871,71.066,0C654.875,1731.859,654.949,1736.102,654.949,1736.102z"/>
		<path style="fill:#103663;" d="M753.863,1736.102c-37.989,13.988-67.768,0-67.768,0c-0.476-3.425-0.945-6.83-1.408-10.221
			c0,0,36.763,11.407,69.109,0C753.863,1732.462,753.863,1736.102,753.863,1736.102z"/>
		<path style="fill:#103663;" d="M695.338,1736.102l-4.812,1.702c-2.869-0.965-4.43-1.702-4.43-1.702
			c-18.28-130.533-33.749-275.842-32.854-268.621c7.82,0,9.8,13.979,10.266,18.163
			C669.482,1546.596,688.373,1693.09,695.338,1736.102z"/>
		<path style="fill:#103663;" d="M709.935,1422.668c-2.037,0.044-2.245-3.14-0.195-3.339c8.443-0.749,13.406-5.142,11.447-11.937
			c-15.931,8.024-40.407,10.061-32.027,4.271c0.157-0.004,16.144,0.299,32.187-8.108c2.864-1.456,5.122,6.196,2.291,12.035
			C721.532,1419.491,716.747,1421.954,709.935,1422.668z"/>
		<path style="fill:#103663;" d="M592.694,1716.681c-24.119-129.356-23.941-231.224-15.571-307.568
			c2.253-4.295,17.235,7.648,43.931,4.182c2.145-0.209,2.505,3.135,0.327,3.337c-20.307,1.988-35.881-2.881-41.268-4.893
			C568.851,1496.477,578.414,1582.718,592.694,1716.681z"/>
		<path style="fill:#CE3932;" d="M571.398,1373.925c0.161-0.483,0.328-0.965,0.503-1.454
			C571.74,1373.033,571.573,1373.516,571.398,1373.925z"/>
		<path style="fill:#23659B;" d="M585.849,1332.825c-1.28,12.842-7.824,22.865-11.953,32.791c2.566-9.305,12.947-45.355,3.616-47.71
			C578.189,1317.859,587.384,1317.537,585.849,1332.825z"/>
		<path style="fill:#23659B;" d="M783.999,1257.503c-16.166,15.516-35.583,30.898-62.178,38.257
			c-3.029,0.838-5.342,3.13-6.267,5.972c-0.047-0.463-0.617-8.056,12.219-12.259
			C740.588,1285.271,770.929,1269.695,783.999,1257.503z"/>
		<path style="fill:#C16256;" d="M644.357,1158.911c-0.1,0-0.2-0.025-0.292-0.079c-0.276-0.161-0.37-0.516-0.209-0.792
			c0.124-0.212,3.115-5.217,10.16-5.573c0.319-0.031,0.593,0.229,0.609,0.549c0.016,0.32-0.23,0.593-0.55,0.608
			c-6.398,0.325-9.105,4.81-9.217,5C644.75,1158.809,644.555,1158.911,644.357,1158.911z"/>
		<path style="fill:#C16256;" d="M667.081,1153.625c-0.171,0-0.341-0.075-0.455-0.22c-2.361-2.972-6.901-1.22-6.947-1.202
			c-0.296,0.115-0.634-0.027-0.753-0.325c-0.118-0.297,0.027-0.634,0.324-0.753c0.219-0.087,5.383-2.094,8.285,1.56
			c0.199,0.25,0.157,0.615-0.094,0.814C667.334,1153.584,667.207,1153.625,667.081,1153.625z"/>
		<path style="fill:#FCB4B4;" d="M503.014,1250.308c-0.016,9.248-1.911,537.205-1.857,524.542
			c-0.217,36.294-69.942,36.124-69.893-0.254c0.078-6.687,1.748-502.582,1.863-524.536l4.866,0.02L503.014,1250.308z"/>
		<path style="fill:#EB5648;" d="M501.252,1748.178c0.045,4.386-0.125,21.946-0.094,26.669c0.876,26.076-43.2,36.466-60.905,18.479
			v-0.007c-12.923-9.129-8.186-32.244-8.894-45.389L501.252,1748.178z"/>
		<path style="fill:#F49F9F;" d="M457.051,1732.352c-4.822-1.929-3.089-482.81,1.7-484.722
			C463.568,1249.575,461.834,1730.421,457.051,1732.352z"/>
		<path style="fill:#FFE7D7;" d="M503.014,1250.308c-11.76-0.038-57.307-0.203-69.886-0.248
			c8.517-22.065,26.892-69.671,35.262-91.361C476.566,1180.325,494.704,1228.318,503.014,1250.308z"/>
		<path style="fill:#EB5648;" d="M482.431,1195.845c-8.84,3.156-19.687,3.073-28.338-0.101l14.296-37.044L482.431,1195.845z"/>
		<polygon style="fill:#F9C0C0;" points="437.994,1250.081 437.994,1729.813 431.426,1729.813 433.128,1250.061 		"/>
		<path style="fill:#CE3932;" d="M501.225,1754.893l-0.067,19.953c0.875,26.078-43.198,36.464-60.905,18.479v-0.007
			c0,0,45.483,0.925,45.483-38.485L501.225,1754.893z"/>
		<path style="fill:#93ABE5;" d="M508.235,1748.694c-0.012,3.441-2.812,6.215-6.24,6.2l-16.488-0.06l-54.94-0.194
			c-8.083,0.089-7.999-12.609,0.041-12.44c-0.001,0,71.427,0.255,71.427,0.255C505.474,1742.46,508.249,1745.255,508.235,1748.694z"
			/>
		<path style="fill:#93ABE5;" d="M508.283,1736.254c-0.013,3.43-2.811,6.207-6.247,6.2l-16.495-0.06l-54.933-0.194
			c-8.067,0.084-8.004-12.602,0.047-12.446c-0.001,0,71.427,0.255,71.427,0.255C505.514,1730.021,508.289,1732.816,508.283,1736.254
			z"/>
		<path style="fill:#BBCEEA;" d="M490.896,1748.694c-0.013,3.15-2.359,5.737-5.389,6.14l-54.94-0.194
			c-3.438-0.013-6.213-2.808-6.2-6.24c0.013-3.15,2.353-5.737,5.382-6.14l54.947,0.194
			C488.133,1742.459,490.91,1745.257,490.896,1748.694z"/>
		<path style="fill:#BBCEEA;" d="M490.937,1736.254c-0.007,3.143-2.353,5.737-5.395,6.139l-54.933-0.194
			c-3.432-0.013-6.206-2.808-6.193-6.247c0.007-3.143,2.352-5.737,5.395-6.139l54.933,0.194
			C488.175,1730.021,490.95,1732.816,490.937,1736.254z"/>
		<polygon style="fill:#F49F9F;" points="503.014,1250.308 501.319,1729.833 485.34,1730.041 485.34,1250.308 		"/>
		<path style="fill:#EDD5C5;" d="M503.014,1250.308H485.34c-0.008-0.006-16.943-91.583-16.95-91.609
			C476.566,1180.325,494.704,1228.318,503.014,1250.308z"/>
		<path style="fill:#CE3932;" d="M482.431,1195.845c-2.178,0.757-4.471,1.347-6.85,1.749l-7.192-38.894L482.431,1195.845z"/>
		<path style="fill:#F99370;" d="M433.078,1310.45c-10.434-1.883-6.841-13.75,1.689-6.738l-0.175-0.031
			C440.079,1304.553,438.164,1311.383,433.078,1310.45z"/>
		<path style="fill:#F99370;" d="M432.227,1303.721c-12.016-4.765-1.675-14.744,2.554-6.743c-0.08-0.151,0.416,0.33,0.593,0.356
			c0.032,0.019,0.228,0.097,0.069,0.038C440.709,1299.339,436.744,1305.541,432.227,1303.721z"/>
		<path style="fill:#F99370;" d="M431.107,1296.7l-3.155-2.27c-4.307-3.371,2.02-8.056,5.455-5.195c0,0,3.155,2.27,3.155,2.27
			C440.87,1294.876,434.543,1299.561,431.107,1296.7z"/>
		<path style="fill:#F99370;" d="M431.107,1290.454l-3.155-2.27c-4.307-3.371,2.02-8.056,5.455-5.195c0,0,3.155,2.27,3.155,2.27
			C440.87,1288.63,434.543,1293.315,431.107,1290.454z"/>
		<path style="fill:#F4D4BE;" d="M641.526,1318.687c-0.336,0-0.673-0.096-1.001-0.288c-6.46-3.774,6.701-30.25,8.222-33.256
			l1.335-2.637l-0.239,2.945c-0.253,3.114-2.605,30.49-7.441,33.012C642.117,1318.612,641.822,1318.687,641.526,1318.687z
			 M648.412,1288.466c-4.39,9.217-11.501,26.478-7.301,28.932c0.274,0.16,0.5,0.172,0.755,0.036
			C644.831,1315.888,647.278,1300.276,648.412,1288.466z"/>
		<path style="fill:#F4D4BE;" d="M661.758,1310.655c-0.461,0-1.033-0.128-1.736-0.475c-3.964-1.958-11.358-11.236-11.336-24.777
			l0.002-1.37l0.982,0.955c0.491,0.477,12.041,11.794,13.98,21.487c0.376,1.88,0.146,3.156-0.684,3.793
			C662.698,1310.474,662.306,1310.655,661.758,1310.655z M649.872,1286.851c0.47,12.238,7.066,20.511,10.663,22.289
			c0.772,0.382,1.401,0.459,1.724,0.208c0.431-0.33,0.523-1.294,0.253-2.646C660.972,1299,652.766,1289.876,649.872,1286.851z"/>
	</g>
	<g id="_x31_">
		<path style="fill:#F99370;" d="M1957.259,1161.719c-0.294-2.201-0.475-4.583-0.57-7.069c-0.57-14.372,1.667-32.188,2.832-38.851
			c0.32-1.804,0.553-2.788,0.639-2.667c0.104-0.423,0.224-0.837,0.363-1.243c1.546-4.834,4.818-7.76,8.609-9.063
			c0.009,0,0.009,0,0.009,0c5.612-1.916,12.364-0.294,16.492,3.953c0.087,0.086,0.164,0.181,0.242,0.267
			c2.608,2.814,4.075,6.715,3.376,11.471c-0.034,0.216-0.06,0.44-0.104,0.656c-0.052,0.302-0.112,0.596-0.181,0.889
			c-0.691-0.457-2.625,18.273-2.642,31.869c0,4.48,0.207,8.407,0.734,10.902C2014.946,1171.197,1931.067,1198.7,1957.259,1161.719z"
			/>
		<path style="fill:#F99370;" d="M1928.285,1175.919c-19.978,26.016-29.146,56.187-49.482,80.794
			c-1.402,1.232,1.048,0.483,1.83,0.895c-0.383,0.05-0.816,0.119-1.165,0.158c-0.655,0.2-2.111-0.085-1.559,0.732
			c0.617,0.612,0.915,2.547-0.285,0.869c-7.154-26.929,7.7-57.175,14.678-83.446c0,0-0.136-7.076,3.117-15.701
			c4.212-11.17-7.28-14.671-7.28-14.671s-13.526,9.514-22.351,21.594c-27.114,37.116-63.032,119.119,2.829,138.845
			c55.707,12.578,81.229-60.512,107.596-95.619C1997.588,1179.125,1951.05,1145.748,1928.285,1175.919z"/>
		<path style="fill:#1D3F70;" d="M1823.867,1271.17c0.491,17.357,12.459,43.012,45.811,43.012h0.111
			c19.088-0.049,33.192-13.638,43.81-32.922c20.033-36.359,27.656-93.022,32.824-117.462c-22.365,2.455-52.845,35.868-62.297,63.377
			c2.602-11.821,6.31-29.583,7.783-42.3c0.405-3.474,0.638-6.579,0.638-9.084c-2.32,0.123-15.59,0.626-24.833-11.158
			c-0.368,0.454-2.283,2.615-5.107,6.248C1850.983,1185.783,1823.843,1225.31,1823.867,1271.17z"/>
		<path style="fill:#8E4A35;" d="M1936.075,1094.563c0,0-1.494-15.445,2.102-26.622l9.3,3.314L1936.075,1094.563z"/>
		<path style="fill:#F99370;" d="M1940.968,1139.694c15.259,11.834,45.474,10.493,54.599-2.024
			c34.05-46.702-32.794-128.324-54.886-54.358C1932.687,1104.624,1915.832,1116.756,1940.968,1139.694z"/>
		<path style="fill:#C16256;" d="M1957.561,1097.115c-0.605-0.914-0.354-2.145,0.56-2.749s2.145-0.354,2.75,0.56
			c0.605,0.914,0.354,2.145-0.56,2.749C1959.397,1098.28,1958.166,1098.029,1957.561,1097.115z"/>
		<path style="fill:#C16256;" d="M1940.666,1096.236c-0.605-0.914-0.354-2.145,0.56-2.749s2.145-0.354,2.75,0.56
			c0.605,0.914,0.354,2.144-0.56,2.749C1942.502,1097.4,1941.271,1097.149,1940.666,1096.236z"/>
		<path style="fill:#C16256;" d="M1947.757,1112.718c1.171,0.005,2.341-0.193,3.3-0.626c0.378-0.17,0.547-0.615,0.375-0.991
			c-0.167-0.38-0.62-0.547-0.992-0.375c-2.413,1.083-6.096,0.237-6.71-0.836c-0.216-0.379,0.275-0.834,0.725-1.15
			c3.965-2.776,5.886-11.105,5.965-11.458c0.09-0.404-0.163-0.807-0.567-0.898c-0.393-0.084-0.805,0.161-0.898,0.567
			c-0.018,0.08-1.871,8.116-5.361,10.558c-1.903,1.332-1.451,2.629-1.169,3.123
			C1943.163,1111.926,1945.462,1112.708,1947.757,1112.718z"/>
		<path style="fill:#E57D61;" d="M1942.536,1077.771c10.243-6.91,29.758-3.527,39.401-4.716c0,0-0.165,16.523,17.59,26.251
			c3.098,14.822,6.306,21.08-6.989,41.111h0.005c1.073-0.851,2.077-1.761,3.022-2.746l0.016,0
			C2037.623,1084.554,1968.264,1011.593,1942.536,1077.771z"/>
		<path style="fill:#8E4A35;" d="M1930.62,1046.619c4.756-12.809,22.207-21.472,39.627-8.297
			c13.413,10.144,26.469,8.561,27.587,20.73c25.53,8.256,16.534,36.388,16.534,36.388l-12.33-0.051
			c-15.181-9.667-16.646-26.26-16.646-26.26l0.003-0.003c-3.082,0.506-6.36,0.746-9.334,0.338
			c-9.216-1.267-22.591-0.861-32.265,4.013C1934.124,1078.35,1925.304,1060.936,1930.62,1046.619z"/>
		<path style="fill:#8E4A35;" d="M1927.668,1122.073c0.048,1.548,0.232,3.206,0.552,4.921c2.342,12.722,11.95,28.723,28.486,28.048
			c1.256-0.048,2.553-0.196,3.888-0.45c7.295-0.653,17.068-2.357,25.773-6.192c12.42-5.468,22.664-15.28,20.438-32.582v-0.002
			c0-0.014-0.002-0.029-0.005-0.044l-1.747-7.479v-0.007l-0.017-0.065l-0.193-0.823v-0.002l-2.804-12.006l-8.945-8.11v0.007
			c0.08,1.609,1.14,5.004,2.001,9.197c1.72,8.391,2.642,19.986-6.69,26.893c-0.075,0.051-0.15,0.099-0.225,0.148
			c-7.994,5.132-18.14-0.743-29.025-5.468c-10.141-4.399-20.924-7.801-31.22-0.385c-0.048,0.281-0.092,0.564-0.128,0.859v0.002
			C1927.67,1119.624,1927.624,1120.812,1927.668,1122.073z M1966.824,1131.901c-2.872,0.499-6.114,0.929-9.429,1.103
			c-9.059,0.479-18.667-0.944-22.792-8.03c1.534-12.572,14.793-8.35,23.862-1.977
			C1962.732,1125.997,1966.071,1129.474,1966.824,1131.901z"/>
		<path style="fill:#F99370;" d="M2017.22,1105.057c-0.602,6.402-5.268,11.2-10.421,10.715c-5.153-0.484-8.842-6.068-8.239-12.47
			c0.602-6.402,5.268-11.2,10.421-10.715C2014.134,1093.071,2017.823,1098.654,2017.22,1105.057z"/>
		<path style="fill:#C16256;" d="M2004.173,1098.138c0.187-0.099,4.596-2.398,7.461-0.302c0.731,0.535,1.267,1.313,1.63,2.297
			c0.004,0.005,0.005,0.013,0.008,0.019c0.68,1.858,0.722,4.488,0.097,7.894c-0.068,0.362-0.385,0.616-0.743,0.615
			c-0.042,0-0.089-0.005-0.133-0.012c-0.406-0.075-0.678-0.467-0.603-0.875c0.489-2.655,0.545-4.771,0.202-6.318
			c-4.226,1.253-5.809,6.371-5.827,6.426c-0.097,0.326-0.398,0.538-0.722,0.537c-0.069,0-0.14-0.012-0.211-0.032
			c-0.397-0.117-0.625-0.533-0.507-0.931c0.077-0.255,1.808-5.906,6.749-7.417c-0.227-0.402-0.494-0.745-0.826-0.989
			c-2.094-1.546-5.835,0.396-5.873,0.415c-0.367,0.196-0.823,0.052-1.014-0.313
			C2003.668,1098.786,2003.807,1098.332,2004.173,1098.138z"/>
		<path style="fill:#E8C0A6;" d="M2037.956,1309.698h4.885c-0.133-0.898-0.203-1.357-0.203-1.357
			c-0.201,0.061-0.404,0.121-0.605,0.182c-1.178,0.353-2.361,0.694-3.552,1.028
			C2038.307,1309.601,2038.133,1309.65,2037.956,1309.698z"/>
		<path style="fill:#C16256;" d="M1947.779,1124.329c0.089,0,0.178-0.018,0.265-0.055c0.338-0.147,0.494-0.537,0.349-0.876
			c-0.073-0.171-1.861-4.198-7.454-4.707c-0.367-0.034-0.693,0.238-0.727,0.606c-0.034,0.368,0.238,0.693,0.606,0.727
			c4.771,0.434,6.285,3.763,6.347,3.904C1947.275,1124.178,1947.521,1124.329,1947.779,1124.329z"/>
		<path style="fill:#F99370;" d="M1867.719,1164.63l24.834,11.159c0.183-0.097-0.317-11.179,6.584-13.104
			c7.595-2.118,15.056-11.141,14.908-11.53c2.375,6.099,13.958-5.498,10.015-7.669c2.645-2.441,0.864-5.214-2.443-6.817
			c2.212-2.143-0.152-4.688-3.335-5.715c3.855-2.028,6.977-3.049,11.264-4.372c5.871-1.814,1.991-5.185-1.483-4.579
			C1899.699,1126.956,1887.317,1138.307,1867.719,1164.63z"/>
		<path style="fill:#C16256;" d="M1940.335,1089.239c0.05,0,0.1-0.006,0.151-0.017c6.661-1.532,8.97-6.795,9.065-7.018
			c0.145-0.34-0.014-0.733-0.354-0.878c-0.339-0.145-0.732,0.013-0.877,0.352c-0.028,0.064-2.169,4.868-8.134,6.239
			c-0.36,0.083-0.585,0.442-0.502,0.802C1939.755,1089.03,1940.031,1089.239,1940.335,1089.239z"/>
		<path style="fill:#C16256;" d="M1965.414,1091.356c0.124,0,0.249-0.034,0.361-0.106c0.31-0.199,0.401-0.612,0.202-0.922
			c-0.127-0.199-3.194-4.877-10.054-5.735c-0.366-0.046-0.701,0.214-0.747,0.581c-0.046,0.366,0.214,0.701,0.581,0.747
			c6.214,0.777,9.066,5.086,9.094,5.13C1964.978,1091.247,1965.194,1091.356,1965.414,1091.356z"/>
		<path style="fill:#163356;" d="M1869.789,1314.182c19.088-0.049,33.192-13.638,43.81-32.922l-3.167-59.952
			c0,0-18.462,37.882-28.957,71.724C1878.64,1302.177,1874.429,1309.039,1869.789,1314.182z"/>
		<path style="fill:#F99370;" d="M2012.566,1798.652l1.198-0.625c0,0.838,1.036,3.749,1.874,3.749l35.404,0.729
			c0.838,0,1.354-1.578,1.354-2.416l3.02-0.864c0-5.302-0.437-7.224-2.778-11.327c-8.612-11.373,1.673-62.637,1.371-75.971
			c2.121-3.656-37.282-0.788-37.833-1.651c-0.885,0.001-1.583,0.756-1.513,1.638l4.638,58.463
			C2020.974,1784.1,2012.602,1787.871,2012.566,1798.652z"/>
		<path style="fill:#F99370;" d="M1859.094,1803.747h70.521c6.156-0.247,6.109-6.528,4.974-11.395
			c-3.883-17.549,2.981-57.848,4.253-75.897c0.339-3.305-2.255-6.178-5.577-6.178h-31.124c-3.373,0-5.983,2.957-5.563,6.304
			l5.661,45.132c2.171,20.889-19.432,22.635-33.647,25.514c-5.579,1.404-11.412,3.574-14.129,7.741
			C1851.926,1798.697,1854.585,1803.747,1859.094,1803.747z"/>
		<path style="fill:#103663;" d="M1937.275,1796.431c-0.19,3.457-1.905,7.403-5.91,7.317c0,0-73.15,0-73.15,0
			c-18.243-5.592,8.454-31.132,41.399-29.202c2.602,0.624,17.77,4.071,33.85-0.104
			C1933.463,1774.442,1937.808,1782.83,1937.275,1796.431z"/>
		<path style="fill:#103663;" d="M2049.806,1803.748h-31.265c-15.103-1.715-4.516-29.003,15.628-29.201
			C2054.426,1774.348,2064.895,1802.065,2049.806,1803.748z"/>
		<path style="fill:#E8C0A6;" d="M1875.653,1793.848c-0.614,0-1.196-0.366-1.441-0.971c-2.841-7.007-8.038-9.123-8.09-9.144
			c-1.884-0.709-0.728-3.66,1.14-2.892c0.263,0.104,6.495,2.638,9.831,10.867
			C1877.521,1792.702,1876.727,1793.868,1875.653,1793.848z"/>
		<path style="fill:#E8C0A6;" d="M1887.731,1792.39c-0.663,0-1.278-0.429-1.484-1.095c-2.487-8.033-9.481-11.745-9.551-11.781
			c-1.8-0.899-0.345-3.717,1.433-2.758c0.334,0.173,8.221,4.36,11.088,13.621C1889.537,1791.354,1888.756,1792.405,1887.731,1792.39
			z"/>
		<path style="fill:#E8C0A6;" d="M1901.477,1790.7c-0.643,0-1.245-0.402-1.468-1.044c-2.902-8.342-9.606-12.884-9.673-12.929
			c-1.689-1.086,0.051-3.73,1.717-2.591c0.31,0.205,7.633,5.132,10.892,14.498C1903.308,1789.62,1902.521,1790.717,1901.477,1790.7z
			"/>
		<path style="fill:#E8C0A6;" d="M2045.383,1783.842c-11.912-6.706-22.443,2.097-24.114-0.913
			c-1.394-3.149,14.142-7.867,24.901-1.983C2047.534,1781.685,2046.907,1783.9,2045.383,1783.842z"/>
		<path style="fill:#0F2E54;" d="M1853.095,1796.431h84.179c-0.31,2.569-1.02,5.065-2.308,7.317h-76.752
			C1854.434,1803.753,1851.753,1799.964,1853.095,1796.431z"/>
		<path style="fill:#0F2E54;" d="M2049.806,1803.748h-31.265c-3.978,0.004-7.179-3.347-6.933-7.317h45.132
			C2056.981,1800.4,2053.783,1803.753,2049.806,1803.748z"/>
		<path style="fill:#3A72AA;" d="M2058.941,1763.851c0,0-33.345,8.1-50.524-0.604c-8.942-56.072-33.762-212.198-42.408-319.186
			c-0.331,6.239-18.493,257.834-21.95,319.186c-11.861,3.969-35.709,8.756-49.055-0.856c-5.995-64.586-25.245-277.222,3.752-450.887
			c0,0,79.465,8.84,141.522-9.913C2057.361,1356.677,2061.885,1697.745,2058.941,1763.851z"/>
		<path style="fill:#23659B;" d="M1907.833,1757.029c-16.129-186.617,2.947-345.394,7.723-347.164
			C1919.057,1410.667,1899.119,1572.118,1907.833,1757.029z"/>
		<path style="fill:#23659B;" d="M2032.703,1757.029c-11.121-191.225-39.192-369.52-35.88-372.076
			C2001.088,1384.698,2029.566,1567.04,2032.703,1757.029z"/>
		<path style="fill:#1D3F70;" d="M2051.842,1376.572c-2.838,3.45-5.865,6.909-9.07,10.384c0,0-15.612,2.936-27.839-13.328
			c49.828-107.759-46.25-113.651-27.162-209.542C2052.087,1171.679,2141.56,1267.669,2051.842,1376.572z"/>
		<path style="fill:#163356;" d="M2051.842,1376.572c-2.838,3.45-5.865,6.909-9.07,10.384c0,0-15.612,2.936-27.839-13.328
			c1.459-5.188,3.634-8.252,5.163-12.588C2020.096,1361.039,2029.403,1371.955,2051.842,1376.572z"/>
		<path style="fill:#23659B;" d="M2043.895,1389.046c-26.853,1.628-40.12-26.719-29.27-20.081
			c0.274,0.714,6.852,17.028,31.605,15.951C2050.133,1385.69,2048.52,1389.895,2043.895,1389.046z"/>
		<path style="fill:#F4D4BE;" d="M1887.202,1386.158c0,0,4.854,20.822,43.696,31.092c11.125,2.941,17.554,1.488,19.186-6.226
			c0.819-3.874,2.934-10.614,6.822-13.113c0,0,8.691,3.754,11.97,9.078c7.19,11.674,18.022,1.068,23.295-11.15
			c6.522-15.113,23.047-27.917,26.662-40.594L1887.202,1386.158z"/>
		<path style="fill:#1D3F70;" d="M2045.482,1360.42c-1.265,2.237-2.02,1.882-3.313,0.585
			c-34.906-26.057-47.384,30.884-84.984,31.901c-38.272,3.788-59.562,5.95-69.986-6.751c-18.2-28.209,10.748-154.307,34.161-184.842
			c10.256-15.875,26.102-31.352,35.9-39.594c-0.2,0.827-3.782,22.59,29.798,1.113c1.688,0.712,13.05,12.351,12.379,17.909
			C2001.141,1206.272,2061.714,1331.741,2045.482,1360.42z"/>
		<path style="fill:#163356;" d="M2025.286,1368.439l-7.651-1.59c30.587-68.855-5.385-97.964-24.414-136.758
			C2037.349,1281.154,2044.018,1309.148,2025.286,1368.439z"/>
		<path style="fill:#F4D4BE;" d="M1998.099,1165.928c0.182,12.81-32.682,24.12-34.544,24.136l-3.94-11.656
			c-5.057,1.248-9.511,8.328-9.511,8.328c-13.639-13.307-7.095-21.305-3.677-22.938c3.951-1.887,10.84-2.088,10.832-2.079
			c-0.203,0.827-0.735,20.573,29.798,1.113C1990.988,1161.013,1998.099,1165.928,1998.099,1165.928z"/>
		<path style="fill:#23659B;" d="M1944.06,1763.247c0.031-0.053-4.311,1.601-10.294,2.741c0,0,16.754-249.682,19.25-283.003
			c2.496-33.321,12.994-38.924,12.994-38.924S1943.782,1757.855,1944.06,1763.247z"/>
		<path style="fill:#23659B;" d="M1944.72,1751.142c-0.449,7.203-0.693,11.509-0.661,12.105
			c-11.861,3.969-35.709,8.756-49.055-0.856c0,0-0.424-3.956-1.118-11.248C1893.887,1751.142,1917.264,1761.893,1944.72,1751.142z"
			/>
		<path style="fill:#23659B;" d="M2058.941,1763.851c0,0-33.345,8.1-50.524-0.604c0,0-0.71-4.339-1.95-12.105
			c0,0,23.488,6.583,52.877,0C2059.475,1758.712,2058.835,1763.223,2058.941,1763.851z"/>
		<path style="fill:#163356;" d="M1862.608,1170.881c0.135,0.184,0.27,0.368,0.417,0.553c10.974,14.104,28.884,13.441,28.884,13.441
			c0.405-3.474,0.638-6.579,0.638-9.084c-2.32,0.123-15.59,0.626-24.833-11.158
			C1867.346,1165.088,1865.431,1167.248,1862.608,1170.881z"/>
	</g>
</g>
</svg>
