<?xml version="1.0" encoding="utf-8"?>
<!-- Generator: Adobe Illustrator 27.5.0, SVG Export Plug-In . SVG Version: 6.00 Build 0)  -->
<svg version="1.1" xmlns="http://www.w3.org/2000/svg" xmlns:xlink="http://www.w3.org/1999/xlink" x="0px" y="0px"
	 viewBox="0 0 500 500" style="enable-background:new 0 0 500 500;" xml:space="preserve">
<g id="BACKGROUND">
	<rect style="fill:#FFFFFF;" width="500" height="500"/>
</g>
<g id="OBJECTS">
	<g>
		<g style="opacity:0.3;">
			<g>
				<g>
					<path style="fill:#D7F6F9;" d="M64.905,318.458c-7.931-12.511-14.526-25.906-19.787-39.81
						c-5.228-13.918-9.219-28.306-12.009-42.912c-1.357-7.31-2.51-14.659-3.343-22.043c-0.799-7.388-1.407-14.801-1.614-22.231
						c-0.245-7.428-0.106-14.866,0.368-22.275c0.27-3.703,0.618-7.399,1.08-11.079c0.414-3.685,1.034-7.344,1.705-10.984
						c-1.571,14.731-1.675,29.522-0.814,44.231c0.483,7.353,1.138,14.694,2.096,22c0.91,7.312,2.076,14.588,3.467,21.818
						c1.334,7.242,2.991,14.421,4.878,21.537c1.852,7.126,4.021,14.167,6.38,21.147C52.158,291.769,57.978,305.365,64.905,318.458z"
						/>
				</g>
				<g>
					<path style="fill:#D7F6F9;" d="M454.698,241.925c7.022,5.867,12.619,13.312,17.081,21.297
						c4.469,8.004,7.848,16.603,10.295,25.453c2.378,8.875,3.691,18.022,4.115,27.203c0.301,4.594,0.085,9.196-0.087,13.793
						l-0.652,6.876c-0.074,1.151-0.303,2.281-0.485,3.418l-0.568,3.409c-3.045,18.167-10.713,35.652-22.356,50.043
						c-11.608,14.446-27.032,25.557-43.867,33.058c-16.905,7.468-35.143,11.414-53.326,13.407
						c-18.182,2.138-36.494,3.356-54.807,3.12c-18.307-0.169-36.607-1.568-54.69-4.359c-18.061-2.893-35.931-7.084-53.201-13.039
						c17.473,5.305,35.347,9.193,53.414,11.584c18.051,2.485,36.276,3.618,54.483,3.506c9.104-0.05,18.203-0.394,27.288-0.954
						c9.084-0.587,18.15-1.449,27.183-2.569c4.521-0.551,9.024-1.199,13.491-1.936c4.459-0.806,8.912-1.661,13.297-2.788
						c8.798-2.143,17.391-5.068,25.652-8.712c16.507-7.259,31.586-18.018,42.966-32.036c5.727-6.961,10.429-14.738,14.157-22.947
						c1.877-4.102,3.422-8.352,4.782-12.656l0.513-1.614l0.43-1.638l0.848-3.281l0.849-3.282c0.258-1.099,0.42-2.22,0.635-3.329
						l0.608-3.337c0.196-1.113,0.439-2.221,0.527-3.35l0.742-6.747c0.235-4.516,0.518-9.045,0.288-13.574
						c-0.276-9.051-1.455-18.094-3.645-26.906c-2.203-8.802-5.337-17.395-9.574-25.441c-0.972-2.061-2.232-3.957-3.395-5.912
						c-1.112-1.992-2.543-3.767-3.844-5.634l-0.992-1.391l-1.105-1.301l-2.214-2.603c-0.702-0.904-1.58-1.638-2.382-2.448
						L454.698,241.925z"/>
				</g>
				<g>
					<path style="fill:#D7F6F9;" d="M98.738,47.755c3.692-1.909,7.501-3.607,11.398-5.083c3.892-1.491,7.862-2.797,11.893-3.891
						c4.035-1.08,8.12-1.979,12.24-2.701c4.122-0.709,8.277-1.211,12.444-1.591c4.169-0.354,8.352-0.547,12.536-0.579l6.276,0.087
						l1.569,0.023l1.564,0.087l3.128,0.174c2.085,0.124,4.172,0.215,6.253,0.401l6.237,0.647c1.039,0.114,2.081,0.202,3.118,0.338
						l3.104,0.465c2.068,0.318,4.141,0.603,6.205,0.948c8.226,1.572,16.378,3.589,24.315,6.321
						c7.883,2.869,15.566,6.325,22.782,10.604c7.26,4.207,13.943,9.342,20.113,14.962c6.116,5.688,11.766,11.847,16.801,18.464
						c-5.558-6.181-11.388-12.099-17.769-17.357c-6.334-5.297-13.09-10.087-20.312-14.04c-7.215-3.957-14.756-7.289-22.54-9.948
						c-7.808-2.597-15.817-4.556-23.918-6.056c-8.127-1.355-16.313-2.464-24.565-2.923l-3.09-0.225l-1.545-0.113l-1.545-0.048
						l-6.182-0.191c-4.122-0.02-8.246,0.057-12.364,0.284C130.43,37.795,114.035,41.206,98.738,47.755z"/>
				</g>
			</g>
			<path style="fill:#D7F6F9;" d="M38.916,218.824C21.862,96.351,81.965,38.624,166.708,42.387
				c84.742,3.762,113.161,45.711,148.669,115.426s88.192,49.977,134.797,89.453c41.537,35.185,53.02,165.091-78.938,183.35
				C210.067,452.917,62.47,387.981,38.916,218.824z"/>
			<path style="fill:#D7F6F9;" d="M452.958,230.984c0,2.999-2.431,5.429-5.429,5.429c-2.999,0-5.429-2.431-5.429-5.429
				c0-2.999,2.431-5.429,5.429-5.429C450.527,225.554,452.958,227.985,452.958,230.984z"/>
			<circle style="fill:#D7F6F9;" cx="435.119" cy="215.894" r="10.288"/>
			<circle style="fill:#D7F6F9;" cx="298.207" cy="100.061" r="8.737"/>
			<path style="fill:#D7F6F9;" d="M299.403,84.029c0,2.918-2.365,5.283-5.283,5.283s-5.283-2.365-5.283-5.283
				c0-2.918,2.365-5.283,5.283-5.283S299.403,81.112,299.403,84.029z"/>
			<path style="fill:#D7F6F9;" d="M315.6,85.851c0,3.489-2.828,6.317-6.317,6.317s-6.317-2.828-6.317-6.317
				c0-3.488,2.828-6.316,6.317-6.316S315.6,82.363,315.6,85.851z"/>
		</g>
		<g>
			<g>
				<path style="fill:#5BBECB;" d="M99.202,140.066h-0.46L63.78,175.028c0.007,0.146,0.01,0.294,0.022,0.438L99.202,140.066z"/>
				<polygon style="fill:#5BBECB;" points="93.332,140.066 92.872,140.066 63.753,169.185 63.753,169.645 				"/>
				<path style="fill:#5BBECB;" d="M105.072,140.066h-0.46l-39.583,39.583c0.053,0.1,0.108,0.198,0.164,0.296L105.072,140.066z"/>
				<polygon style="fill:#5BBECB;" points="87.463,140.066 87.002,140.066 63.753,163.315 63.753,163.775 				"/>
				<polygon style="fill:#5BBECB;" points="75.723,140.066 75.263,140.066 63.753,151.576 63.753,152.036 				"/>
				<polygon style="fill:#5BBECB;" points="81.593,140.066 81.133,140.066 63.753,157.445 63.753,157.906 				"/>
				<path style="fill:#5BBECB;" d="M116.812,140.066h-0.46l-44.958,44.958c0.117,0.038,0.235,0.072,0.354,0.107L116.812,140.066z"/>
				<path style="fill:#5BBECB;" d="M110.942,140.066h-0.46l-42.845,42.845c0.083,0.071,0.165,0.142,0.25,0.211L110.942,140.066z"/>
				<polygon style="fill:#5BBECB;" points="129.771,168.195 129.771,167.735 111.931,185.575 112.392,185.575 				"/>
				<polygon style="fill:#5BBECB;" points="129.771,162.326 129.771,161.865 106.061,185.575 106.522,185.575 				"/>
				<polygon style="fill:#5BBECB;" points="129.771,156.456 129.771,155.996 100.192,185.575 100.652,185.575 				"/>
				<polygon style="fill:#5BBECB;" points="129.771,174.066 129.771,173.605 117.801,185.575 118.261,185.575 				"/>
				<path style="fill:#5BBECB;" d="M128.496,145.992c-0.053-0.1-0.108-0.198-0.164-0.296l-39.88,39.88h0.46L128.496,145.992z"/>
				<path style="fill:#5BBECB;" d="M125.887,142.73c-0.083-0.071-0.165-0.142-0.25-0.211l-43.056,43.056h0.46L125.887,142.73z"/>
				<path style="fill:#5BBECB;" d="M129.744,150.613c-0.007-0.146-0.01-0.294-0.022-0.438l-35.4,35.4h0.46L129.744,150.613z"/>
				<path style="fill:#5BBECB;" d="M122.131,140.617c-0.117-0.038-0.235-0.072-0.354-0.107l-45.065,45.065h0.46L122.131,140.617z"/>
			</g>
			<g>
				<path style="fill:#5BBECB;" d="M413.413,249.845h-0.46l-34.962,34.962c0.007,0.146,0.01,0.294,0.022,0.438L413.413,249.845z"/>
				<polygon style="fill:#5BBECB;" points="407.543,249.845 407.082,249.845 377.963,278.963 377.963,279.424 				"/>
				<path style="fill:#5BBECB;" d="M419.282,249.845h-0.46l-39.583,39.583c0.053,0.1,0.108,0.198,0.164,0.297L419.282,249.845z"/>
				<polygon style="fill:#5BBECB;" points="401.673,249.845 401.212,249.845 377.963,273.094 377.963,273.554 				"/>
				<polygon style="fill:#5BBECB;" points="389.933,249.845 389.473,249.845 377.963,261.354 377.963,261.815 				"/>
				<polygon style="fill:#5BBECB;" points="395.803,249.845 395.343,249.845 377.963,267.224 377.963,267.684 				"/>
				<path style="fill:#5BBECB;" d="M431.022,249.845h-0.46l-44.958,44.958c0.117,0.038,0.235,0.072,0.354,0.107L431.022,249.845z"/>
				<path style="fill:#5BBECB;" d="M425.152,249.845h-0.46l-42.845,42.845c0.083,0.071,0.165,0.142,0.25,0.211L425.152,249.845z"/>
				<polygon style="fill:#5BBECB;" points="443.981,277.974 443.981,277.514 426.141,295.353 426.602,295.353 				"/>
				<polygon style="fill:#5BBECB;" points="443.981,272.104 443.981,271.644 420.271,295.353 420.732,295.353 				"/>
				<polygon style="fill:#5BBECB;" points="443.981,266.235 443.981,265.774 414.402,295.353 414.862,295.353 				"/>
				<polygon style="fill:#5BBECB;" points="443.981,283.844 443.981,283.384 432.011,295.353 432.472,295.353 				"/>
				<path style="fill:#5BBECB;" d="M442.706,255.77c-0.053-0.1-0.108-0.198-0.164-0.296l-39.88,39.88h0.46L442.706,255.77z"/>
				<path style="fill:#5BBECB;" d="M440.098,252.508c-0.083-0.071-0.165-0.142-0.25-0.211l-43.055,43.055h0.46L440.098,252.508z"/>
				<path style="fill:#5BBECB;" d="M443.954,260.392c-0.007-0.146-0.009-0.294-0.022-0.438l-35.4,35.4h0.461L443.954,260.392z"/>
				<path style="fill:#5BBECB;" d="M436.341,250.395c-0.117-0.038-0.235-0.072-0.354-0.107l-45.065,45.065h0.46L436.341,250.395z"/>
			</g>
			<path style="fill:none;stroke:#5BBECB;stroke-width:0.75;stroke-linecap:round;stroke-linejoin:round;stroke-miterlimit:10;" d="
				M107.45,83.801c0,3.864-3.132,6.996-6.996,6.996c-3.864,0-6.996-3.132-6.996-6.996c0-3.864,3.132-6.996,6.996-6.996
				C104.318,76.805,107.45,79.937,107.45,83.801z"/>
			
				<circle style="fill:none;stroke:#5BBECB;stroke-width:0.75;stroke-linecap:round;stroke-linejoin:round;stroke-miterlimit:10;" cx="444.706" cy="307.899" r="6.996"/>
			<g>
				
					<path style="fill:none;stroke:#5BBECB;stroke-width:0.75;stroke-linecap:round;stroke-linejoin:round;stroke-miterlimit:10;" d="
					M460.672,320.267c-5.471,0-9.905,4.435-9.905,9.906c0,9.389,9.905,17.66,9.905,17.66s9.905-8.271,9.905-17.66
					C470.578,324.702,466.143,320.267,460.672,320.267z M460.672,333.439c-2.539,0-4.598-2.059-4.598-4.598
					c0-2.539,2.059-4.598,4.598-4.598s4.598,2.059,4.598,4.598C465.271,331.38,463.212,333.439,460.672,333.439z"/>
			</g>
			<g>
				<g>
					
						<rect x="142.234" y="78.29" style="fill:none;stroke:#5BBECB;stroke-width:0.75;stroke-linecap:round;stroke-linejoin:round;stroke-miterlimit:10;" width="36.686" height="22.046"/>
					
						<polyline style="fill:none;stroke:#5BBECB;stroke-width:0.75;stroke-linecap:round;stroke-linejoin:round;stroke-miterlimit:10;" points="
						142.234,78.29 160.578,89.313 178.921,78.29 					"/>
				</g>
				<g>
					
						<line style="fill:none;stroke:#5BBECB;stroke-width:0.75;stroke-linecap:round;stroke-linejoin:round;stroke-miterlimit:10;" x1="136.227" y1="92.71" x2="123.699" y2="92.71"/>
					
						<line style="fill:none;stroke:#5BBECB;stroke-width:0.75;stroke-linecap:round;stroke-linejoin:round;stroke-miterlimit:10;" x1="136.227" y1="96.523" x2="119.137" y2="96.523"/>
					
						<line style="fill:none;stroke:#5BBECB;stroke-width:0.75;stroke-linecap:round;stroke-linejoin:round;stroke-miterlimit:10;" x1="136.227" y1="100.336" x2="114.371" y2="100.336"/>
				</g>
			</g>
			<g>
				
					<path style="fill:none;stroke:#5BBECB;stroke-width:0.75;stroke-linecap:round;stroke-linejoin:round;stroke-miterlimit:10;" d="
					M322.578,408.432c0.577-0.246,1.126-0.529,1.651-0.842l1.943,1.902l4.957-5.064l-1.941-1.902
					c0.61-1.077,1.074-2.232,1.379-3.432l2.717-0.029l-0.075-7.086l-2.718,0.029c-0.163-0.589-0.363-1.174-0.609-1.751
					c-0.247-0.577-0.531-1.126-0.843-1.651l1.902-1.943l-5.065-4.957l-1.901,1.942c-1.078-0.611-2.232-1.074-3.433-1.379
					l-0.029-2.718l-7.087,0.076l0.03,2.718c-0.589,0.163-1.174,0.363-1.751,0.609c-0.577,0.246-1.127,0.531-1.651,0.843
					l-1.943-1.902l-4.957,5.064l1.942,1.901c-0.61,1.077-1.075,2.232-1.379,3.433l-2.718,0.029l0.075,7.086l2.719-0.029
					c0.163,0.589,0.363,1.174,0.609,1.751c0.247,0.578,0.53,1.126,0.842,1.652l-1.901,1.942l5.064,4.957l1.901-1.942
					c1.078,0.611,2.233,1.075,3.432,1.379l0.029,2.717l7.086-0.075l-0.029-2.718C321.415,408.879,322.001,408.679,322.578,408.432z
					 M312.993,397.463c-0.977-2.291,0.087-4.94,2.378-5.918c2.29-0.977,4.94,0.087,5.918,2.378c0.977,2.291-0.087,4.94-2.378,5.917
					C316.621,400.818,313.971,399.753,312.993,397.463z"/>
				
					<path style="fill:none;stroke:#5BBECB;stroke-width:0.75;stroke-linecap:round;stroke-linejoin:round;stroke-miterlimit:10;" d="
					M346.986,416.776c0.417-0.049,0.823-0.126,1.22-0.228l0.887,1.589l4.142-2.312l-0.886-1.589
					c0.596-0.576,1.113-1.229,1.536-1.942l1.75,0.496l1.295-4.564l-1.751-0.497c0.007-0.409-0.011-0.823-0.059-1.24
					c-0.049-0.418-0.128-0.824-0.228-1.22l1.589-0.887l-2.312-4.142l-1.588,0.886c-0.577-0.596-1.23-1.113-1.943-1.536l0.497-1.75
					l-4.565-1.295l-0.496,1.751c-0.409-0.007-0.822,0.011-1.24,0.059c-0.417,0.049-0.824,0.127-1.22,0.228l-0.887-1.589
					l-4.143,2.312l0.887,1.589c-0.596,0.576-1.113,1.229-1.536,1.943l-1.751-0.497l-1.295,4.564l1.751,0.497
					c-0.007,0.409,0.011,0.822,0.059,1.24c0.049,0.418,0.127,0.824,0.228,1.22l-1.589,0.887l2.312,4.143l1.589-0.887
					c0.576,0.596,1.23,1.113,1.942,1.536l-0.496,1.75l4.564,1.295l0.497-1.751C346.154,416.843,346.569,416.825,346.986,416.776z
					 M342.911,407.917c-0.193-1.656,0.992-3.155,2.649-3.349c1.656-0.193,3.155,0.992,3.349,2.648
					c0.193,1.656-0.992,3.155-2.648,3.349C344.604,410.759,343.105,409.573,342.911,407.917z"/>
				
					<path style="fill:none;stroke:#5BBECB;stroke-width:0.75;stroke-linecap:round;stroke-linejoin:round;stroke-miterlimit:10;" d="
					M344.683,391.796c0.314-0.037,0.62-0.095,0.919-0.172l0.668,1.197l3.121-1.742l-0.668-1.197
					c0.449-0.434,0.838-0.926,1.157-1.463l1.319,0.374l0.976-3.439l-1.319-0.374c0.005-0.308-0.008-0.62-0.045-0.934
					c-0.037-0.314-0.096-0.621-0.172-0.919l1.198-0.668l-1.742-3.121l-1.197,0.668c-0.434-0.449-0.926-0.839-1.464-1.157
					l0.374-1.319l-3.439-0.975l-0.374,1.319c-0.308-0.005-0.62,0.008-0.934,0.045c-0.314,0.037-0.621,0.096-0.919,0.172
					l-0.668-1.197l-3.121,1.742l0.668,1.197c-0.449,0.434-0.839,0.926-1.157,1.464l-1.319-0.374l-0.976,3.439l1.319,0.374
					c-0.005,0.308,0.008,0.62,0.045,0.934c0.037,0.315,0.096,0.621,0.172,0.919l-1.197,0.668l1.742,3.121l1.197-0.668
					c0.434,0.449,0.926,0.839,1.463,1.157l-0.374,1.319l3.439,0.976l0.374-1.319C344.057,391.846,344.369,391.833,344.683,391.796z
					 M341.613,385.121c-0.145-1.248,0.748-2.377,1.996-2.523c1.248-0.146,2.377,0.748,2.523,1.996
					c0.146,1.248-0.748,2.377-1.995,2.523C342.889,387.262,341.759,386.369,341.613,385.121z"/>
			</g>
			<g>
				
					<path style="fill:none;stroke:#5BBECB;stroke-width:0.75;stroke-linecap:round;stroke-linejoin:round;stroke-miterlimit:10;" d="
					M127.839,71.364l-6.533-4.932c-0.956-0.721-1.146-2.081-0.425-3.038l0,0c0.722-0.956,2.082-1.146,3.038-0.425l0,0l4.897,3.697
					l6.842-8.075c0.774-0.914,2.142-1.027,3.057-0.253l0,0c0.914,0.774,1.027,2.142,0.253,3.057l0,0l-8.166,9.639
					c-0.428,0.505-1.039,0.768-1.655,0.768l0,0C128.69,71.802,128.23,71.659,127.839,71.364L127.839,71.364z"/>
			</g>
			<g>
				
					<polygon style="fill:none;stroke:#5BBECB;stroke-width:0.75;stroke-linecap:round;stroke-linejoin:round;stroke-miterlimit:10;" points="
					107.45,125.144 101.139,118.833 107.45,112.521 103.074,108.144 96.762,114.456 90.451,108.144 86.074,112.521 92.385,118.833 
					86.074,125.144 90.451,129.521 96.762,123.21 103.073,129.521 				"/>
			</g>
		</g>
		<g>
			<g>
				<path style="opacity:0.7;fill:#D7F6F9;" d="M411.014,111.826h-46.02v-5.511c0-2.597-2.105-4.703-4.703-4.703h-0.116
					c-2.597,0-4.703,2.105-4.703,4.703v5.511H189.853v-5.511c0-2.597-2.105-4.703-4.703-4.703h-0.116
					c-2.597,0-4.703,2.105-4.703,4.703v5.511h-46.231c-5.242,0-9.492,4.25-9.492,9.492v239.618c0,5.242,4.25,9.492,9.492,9.492
					h276.914c5.242,0,9.492-4.25,9.492-9.492V121.318C420.507,116.076,416.257,111.826,411.014,111.826z"/>
				<g>
					<path style="fill:#FF7F6A;" d="M127.101,366.803c-5.441,0-9.867-4.427-9.867-9.867V126.318c0-5.441,4.426-9.868,9.867-9.868
						h276.914c5.441,0,9.868,4.427,9.868,9.868v230.617c0,5.441-4.427,9.867-9.868,9.867H127.101z"/>
					<path style="fill:#FF7F6A;" d="M404.014,116.826c5.242,0,9.492,4.25,9.492,9.492v230.618c0,5.242-4.25,9.492-9.492,9.492
						H127.101c-5.243,0-9.492-4.25-9.492-9.492V126.318c0-5.242,4.25-9.492,9.492-9.492H404.014 M404.014,116.076H127.101
						c-5.648,0-10.242,4.595-10.242,10.242v230.618c0,5.648,4.595,10.242,10.242,10.242h276.914c5.648,0,10.242-4.595,10.242-10.242
						V126.318C414.257,120.671,409.662,116.076,404.014,116.076L404.014,116.076z"/>
				</g>
				<g>
					<rect x="210.197" y="129.521" style="fill:#FFFFFF;" width="110.722" height="3.776"/>
					<rect x="195.846" y="139.992" style="fill:#FFFFFF;" width="139.423" height="3.776"/>
				</g>
				<g>
					<g>
						<rect x="117.608" y="155.072" style="fill:#FFFFFF;" width="42.271" height="42.271"/>
						<circle style="fill:#CEB2C7;" cx="127.425" cy="164.964" r="5"/>
						<g>
							
								<line style="fill:none;stroke:#5E334F;stroke-width:0.75;stroke-linecap:round;stroke-linejoin:round;stroke-miterlimit:10;" x1="131.615" y1="176.622" x2="151.456" y2="176.622"/>
							
								<line style="fill:none;stroke:#5E334F;stroke-width:0.75;stroke-linecap:round;stroke-linejoin:round;stroke-miterlimit:10;" x1="126.031" y1="176.622" x2="129.122" y2="176.622"/>
							
								<line style="fill:none;stroke:#5E334F;stroke-width:0.75;stroke-linecap:round;stroke-linejoin:round;stroke-miterlimit:10;" x1="131.615" y1="183.402" x2="151.456" y2="183.402"/>
							
								<line style="fill:none;stroke:#5E334F;stroke-width:0.75;stroke-linecap:round;stroke-linejoin:round;stroke-miterlimit:10;" x1="126.031" y1="183.402" x2="129.122" y2="183.402"/>
						</g>
					</g>
					<g>
						<rect x="202.151" y="155.072" style="fill:#FFFFFF;" width="42.271" height="42.271"/>
						<circle style="fill:#CEB2C7;" cx="211.967" cy="164.964" r="5"/>
					</g>
					<g>
						<rect x="244.422" y="155.072" style="fill:#FFFFFF;" width="42.271" height="42.271"/>
						<circle style="fill:#CEB2C7;" cx="254.239" cy="164.964" r="5"/>
					</g>
					<g>
						<rect x="286.693" y="155.072" style="fill:#FFFFFF;" width="42.271" height="42.271"/>
						<circle style="fill:#CEB2C7;" cx="296.51" cy="164.964" r="5"/>
						<g>
							
								<line style="fill:none;stroke:#5E334F;stroke-width:0.75;stroke-linecap:round;stroke-linejoin:round;stroke-miterlimit:10;" x1="300.7" y1="176.622" x2="320.541" y2="176.622"/>
							
								<line style="fill:none;stroke:#5E334F;stroke-width:0.75;stroke-linecap:round;stroke-linejoin:round;stroke-miterlimit:10;" x1="295.117" y1="176.622" x2="298.207" y2="176.622"/>
							
								<line style="fill:none;stroke:#5E334F;stroke-width:0.75;stroke-linecap:round;stroke-linejoin:round;stroke-miterlimit:10;" x1="300.7" y1="183.402" x2="320.541" y2="183.402"/>
							
								<line style="fill:none;stroke:#5E334F;stroke-width:0.75;stroke-linecap:round;stroke-linejoin:round;stroke-miterlimit:10;" x1="295.117" y1="183.402" x2="298.207" y2="183.402"/>
						</g>
						<g>
							
								<line style="fill:none;stroke:#5E334F;stroke-width:0.75;stroke-linecap:round;stroke-linejoin:round;stroke-miterlimit:10;" x1="300.7" y1="190.182" x2="320.541" y2="190.182"/>
							
								<line style="fill:none;stroke:#5E334F;stroke-width:0.75;stroke-linecap:round;stroke-linejoin:round;stroke-miterlimit:10;" x1="295.117" y1="190.182" x2="298.207" y2="190.182"/>
						</g>
					</g>
					<g>
						<rect x="328.964" y="155.072" style="fill:#FFFFFF;" width="42.271" height="42.271"/>
						<circle style="fill:#CEB2C7;" cx="338.781" cy="164.964" r="5"/>
					</g>
					<g>
						<rect x="371.236" y="155.072" style="fill:#FFFFFF;" width="42.271" height="42.271"/>
						<circle style="fill:#CEB2C7;" cx="381.052" cy="164.964" r="5"/>
					</g>
					<g>
						<rect x="117.608" y="197.343" style="fill:#FFFFFF;" width="42.271" height="42.271"/>
						<circle style="fill:#CEB2C7;" cx="127.425" cy="207.236" r="5"/>
					</g>
					<g>
						<rect x="328.964" y="197.343" style="fill:#FFFFFF;" width="42.271" height="42.271"/>
						<circle style="fill:#CEB2C7;" cx="338.781" cy="207.236" r="5"/>
					</g>
					<g>
						<rect x="371.236" y="197.343" style="fill:#FFFFFF;" width="42.271" height="42.271"/>
						<circle style="fill:#CEB2C7;" cx="381.052" cy="207.236" r="5"/>
					</g>
					<g>
						<rect x="117.608" y="239.614" style="fill:#FFFFFF;" width="42.271" height="42.271"/>
						<circle style="fill:#CEB2C7;" cx="127.425" cy="249.507" r="5"/>
					</g>
					<g>
						<rect x="202.151" y="239.614" style="fill:#FFFFFF;" width="42.271" height="42.271"/>
						<circle style="fill:#CEB2C7;" cx="211.967" cy="249.507" r="5"/>
					</g>
					<g>
						<rect x="244.422" y="239.614" style="fill:#FFFFFF;" width="42.271" height="42.271"/>
						<circle style="fill:#CEB2C7;" cx="254.239" cy="249.507" r="5"/>
					</g>
					<g>
						<rect x="286.693" y="239.614" style="fill:#FFFFFF;" width="42.271" height="42.271"/>
						<circle style="fill:#CEB2C7;" cx="296.51" cy="249.507" r="5"/>
					</g>
					<g>
						<rect x="328.964" y="239.614" style="fill:#FFFFFF;" width="42.271" height="42.271"/>
						<circle style="fill:#CEB2C7;" cx="338.781" cy="249.507" r="5"/>
						<g>
							
								<line style="fill:none;stroke:#5E334F;stroke-width:0.75;stroke-linecap:round;stroke-linejoin:round;stroke-miterlimit:10;" x1="342.971" y1="261.165" x2="362.812" y2="261.165"/>
							
								<line style="fill:none;stroke:#5E334F;stroke-width:0.75;stroke-linecap:round;stroke-linejoin:round;stroke-miterlimit:10;" x1="337.388" y1="261.165" x2="340.479" y2="261.165"/>
							
								<line style="fill:none;stroke:#5E334F;stroke-width:0.75;stroke-linecap:round;stroke-linejoin:round;stroke-miterlimit:10;" x1="342.971" y1="267.945" x2="362.812" y2="267.945"/>
							
								<line style="fill:none;stroke:#5E334F;stroke-width:0.75;stroke-linecap:round;stroke-linejoin:round;stroke-miterlimit:10;" x1="337.388" y1="267.945" x2="340.479" y2="267.945"/>
						</g>
					</g>
					<g>
						<rect x="371.236" y="239.614" style="fill:#FFFFFF;" width="42.271" height="42.271"/>
						<circle style="fill:#CEB2C7;" cx="381.052" cy="249.507" r="5"/>
					</g>
					<g>
						<rect x="117.608" y="281.885" style="fill:#FFFFFF;" width="42.271" height="42.271"/>
						<circle style="fill:#CEB2C7;" cx="127.425" cy="291.778" r="5"/>
					</g>
					<g>
						<rect x="202.151" y="281.885" style="fill:#FFFFFF;" width="42.271" height="42.271"/>
						<circle style="fill:#CEB2C7;" cx="211.967" cy="291.778" r="5"/>
						<g>
							
								<line style="fill:none;stroke:#5E334F;stroke-width:0.75;stroke-linecap:round;stroke-linejoin:round;stroke-miterlimit:10;" x1="216.157" y1="303.436" x2="235.999" y2="303.436"/>
							
								<line style="fill:none;stroke:#5E334F;stroke-width:0.75;stroke-linecap:round;stroke-linejoin:round;stroke-miterlimit:10;" x1="210.574" y1="303.436" x2="213.665" y2="303.436"/>
							
								<line style="fill:none;stroke:#5E334F;stroke-width:0.75;stroke-linecap:round;stroke-linejoin:round;stroke-miterlimit:10;" x1="216.157" y1="310.216" x2="235.999" y2="310.216"/>
							
								<line style="fill:none;stroke:#5E334F;stroke-width:0.75;stroke-linecap:round;stroke-linejoin:round;stroke-miterlimit:10;" x1="210.574" y1="310.216" x2="213.665" y2="310.216"/>
						</g>
					</g>
					<g>
						<rect x="286.693" y="281.885" style="fill:#FFFFFF;" width="42.271" height="42.271"/>
						<circle style="fill:#CEB2C7;" cx="296.51" cy="291.778" r="5"/>
					</g>
					<g>
						<rect x="328.964" y="281.885" style="fill:#FFFFFF;" width="42.271" height="42.271"/>
						<circle style="fill:#CEB2C7;" cx="338.781" cy="291.778" r="5"/>
					</g>
					<g>
						<rect x="371.236" y="281.885" style="fill:#FFFFFF;" width="42.271" height="42.271"/>
						<circle style="fill:#CEB2C7;" cx="381.052" cy="291.778" r="5"/>
					</g>
					<g>
						<path style="fill:#FFFFFF;" d="M159.879,366.428h-33.118c-5.055,0-9.153-4.098-9.153-9.153v-33.118h42.271V366.428z"/>
						<circle style="fill:#CEB2C7;" cx="127.425" cy="334.049" r="5"/>
					</g>
					<g>
						<rect x="159.879" y="197.343" style="fill:#FFFFFF;" width="42.271" height="42.271"/>
						<circle style="fill:#CEB2C7;" cx="169.696" cy="207.236" r="5"/>
					</g>
					<g>
						<rect x="159.879" y="155.072" style="fill:#FFFFFF;" width="42.271" height="42.271"/>
						<circle style="fill:#CEB2C7;" cx="169.696" cy="164.964" r="5"/>
					</g>
					<g>
						<rect x="159.879" y="239.614" style="fill:#FFFFFF;" width="42.271" height="42.271"/>
						<circle style="fill:#CEB2C7;" cx="169.696" cy="249.507" r="5"/>
					</g>
					<g>
						<rect x="159.879" y="281.885" style="fill:#FFFFFF;" width="42.271" height="42.271"/>
						<circle style="fill:#CEB2C7;" cx="169.696" cy="291.778" r="5"/>
					</g>
					<g>
						<rect x="159.879" y="324.157" style="fill:#FFFFFF;" width="42.271" height="42.271"/>
						<circle style="fill:#CEB2C7;" cx="169.696" cy="334.049" r="5"/>
					</g>
					<g>
						<rect x="202.151" y="324.157" style="fill:#FFFFFF;" width="42.271" height="42.271"/>
						<circle style="fill:#CEB2C7;" cx="211.967" cy="334.049" r="5"/>
					</g>
					<g>
						<rect x="244.422" y="324.157" style="fill:#FFFFFF;" width="42.271" height="42.271"/>
						<circle style="fill:#CEB2C7;" cx="254.239" cy="334.049" r="5"/>
					</g>
					<g>
						<rect x="286.693" y="324.157" style="fill:#FFFFFF;" width="42.271" height="42.271"/>
						<circle style="fill:#CEB2C7;" cx="296.51" cy="334.049" r="5"/>
					</g>
					<g>
						<rect x="328.964" y="324.157" style="fill:#FFFFFF;" width="42.271" height="42.271"/>
						<path style="opacity:0.3;fill:#FF7F6A;" d="M364.589,363.227h-28.977c-1.903,0-3.446-1.543-3.446-3.446v-22.286
							c0-1.903,1.543-3.446,3.446-3.446h28.977c1.903,0,3.446,1.543,3.446,3.446v22.286
							C368.034,361.684,366.492,363.227,364.589,363.227z"/>
						<circle style="fill:#CEB2C7;" cx="338.781" cy="334.049" r="5"/>
						<g>
							
								<line style="fill:none;stroke:#5E334F;stroke-width:0.75;stroke-linecap:round;stroke-linejoin:round;stroke-miterlimit:10;" x1="342.971" y1="345.708" x2="362.812" y2="345.708"/>
							
								<line style="fill:none;stroke:#5E334F;stroke-width:0.75;stroke-linecap:round;stroke-linejoin:round;stroke-miterlimit:10;" x1="337.388" y1="345.708" x2="340.479" y2="345.708"/>
						</g>
					</g>
					<g>
						<path style="fill:#FFFFFF;" d="M404.317,366.428h-33.081v-42.271h42.271v33.081
							C413.507,362.314,409.392,366.428,404.317,366.428z"/>
						<circle style="fill:#CEB2C7;" cx="381.052" cy="334.049" r="5"/>
					</g>
					<g>
						<rect x="244.422" y="197.343" style="fill:#FFFFFF;" width="42.271" height="42.271"/>
						<path style="opacity:0.3;fill:#FF7F6A;" d="M280.046,236.413h-28.977c-1.903,0-3.446-1.543-3.446-3.446v-22.286
							c0-1.903,1.543-3.446,3.446-3.446h28.977c1.903,0,3.446,1.543,3.446,3.446v22.286
							C283.492,234.87,281.949,236.413,280.046,236.413z"/>
						<circle style="fill:#CEB2C7;" cx="254.239" cy="207.236" r="5"/>
						<g>
							
								<line style="fill:none;stroke:#5E334F;stroke-width:0.75;stroke-linecap:round;stroke-linejoin:round;stroke-miterlimit:10;" x1="258.429" y1="218.894" x2="278.27" y2="218.894"/>
							
								<line style="fill:none;stroke:#5E334F;stroke-width:0.75;stroke-linecap:round;stroke-linejoin:round;stroke-miterlimit:10;" x1="252.845" y1="218.894" x2="255.936" y2="218.894"/>
						</g>
					</g>
					<g>
						<rect x="286.693" y="197.343" style="fill:#FFFFFF;" width="42.271" height="42.271"/>
						<path style="opacity:0.3;fill:#FF7F6A;" d="M322.317,236.413H293.34c-1.903,0-3.446-1.543-3.446-3.446v-22.286
							c0-1.903,1.543-3.446,3.446-3.446h28.977c1.903,0,3.446,1.543,3.446,3.446v22.286
							C325.763,234.87,324.22,236.413,322.317,236.413z"/>
						<circle style="fill:#CEB2C7;" cx="296.51" cy="207.236" r="5"/>
						<g>
							
								<line style="fill:none;stroke:#5E334F;stroke-width:0.75;stroke-linecap:round;stroke-linejoin:round;stroke-miterlimit:10;" x1="300.7" y1="218.894" x2="320.541" y2="218.894"/>
							
								<line style="fill:none;stroke:#5E334F;stroke-width:0.75;stroke-linecap:round;stroke-linejoin:round;stroke-miterlimit:10;" x1="295.117" y1="218.894" x2="298.207" y2="218.894"/>
						</g>
					</g>
					<g>
						<rect x="244.422" y="281.885" style="fill:#FFFFFF;" width="42.271" height="42.271"/>
						<path style="opacity:0.7;fill:#DEF9E5;" d="M280.046,320.955h-28.977c-1.903,0-3.446-1.543-3.446-3.446v-22.286
							c0-1.903,1.543-3.446,3.446-3.446h28.977c1.903,0,3.446,1.543,3.446,3.446v22.286
							C283.492,319.413,281.949,320.955,280.046,320.955z"/>
						<circle style="fill:#CEB2C7;" cx="254.239" cy="291.778" r="5"/>
					</g>
					<g>
						<rect x="202.151" y="197.343" style="fill:#FFFFFF;" width="42.271" height="42.271"/>
						<path style="opacity:0.3;fill:#FF7F6A;" d="M237.775,236.413h-28.977c-1.903,0-3.446-1.543-3.446-3.446v-22.286
							c0-1.903,1.543-3.446,3.446-3.446h28.977c1.903,0,3.446,1.543,3.446,3.446v22.286
							C241.221,234.87,239.678,236.413,237.775,236.413z"/>
						<circle style="fill:#CEB2C7;" cx="211.967" cy="207.236" r="5"/>
						<g>
							
								<line style="fill:none;stroke:#5E334F;stroke-width:0.75;stroke-linecap:round;stroke-linejoin:round;stroke-miterlimit:10;" x1="216.157" y1="218.894" x2="235.999" y2="218.894"/>
							
								<line style="fill:none;stroke:#5E334F;stroke-width:0.75;stroke-linecap:round;stroke-linejoin:round;stroke-miterlimit:10;" x1="210.574" y1="218.894" x2="213.665" y2="218.894"/>
						</g>
						<g>
							
								<line style="fill:none;stroke:#5E334F;stroke-width:0.75;stroke-linecap:round;stroke-linejoin:round;stroke-miterlimit:10;" x1="216.157" y1="218.894" x2="235.999" y2="218.894"/>
							
								<line style="fill:none;stroke:#5E334F;stroke-width:0.75;stroke-linecap:round;stroke-linejoin:round;stroke-miterlimit:10;" x1="210.574" y1="218.894" x2="213.665" y2="218.894"/>
							
								<line style="fill:none;stroke:#5E334F;stroke-width:0.75;stroke-linecap:round;stroke-linejoin:round;stroke-miterlimit:10;" x1="216.157" y1="225.674" x2="235.999" y2="225.674"/>
							
								<line style="fill:none;stroke:#5E334F;stroke-width:0.75;stroke-linecap:round;stroke-linejoin:round;stroke-miterlimit:10;" x1="210.574" y1="225.674" x2="213.665" y2="225.674"/>
						</g>
						<g>
							
								<line style="fill:none;stroke:#5E334F;stroke-width:0.75;stroke-linecap:round;stroke-linejoin:round;stroke-miterlimit:10;" x1="216.157" y1="232.454" x2="235.999" y2="232.454"/>
							
								<line style="fill:none;stroke:#5E334F;stroke-width:0.75;stroke-linecap:round;stroke-linejoin:round;stroke-miterlimit:10;" x1="210.574" y1="232.454" x2="213.665" y2="232.454"/>
						</g>
					</g>
				</g>
				<g>
					
						<line style="fill:none;stroke:#FF7F6A;stroke-width:0.75;stroke-miterlimit:10;" x1="117.608" y1="197.335" x2="413.507" y2="197.335"/>
					
						<line style="fill:none;stroke:#FF7F6A;stroke-width:0.75;stroke-miterlimit:10;" x1="117.608" y1="239.606" x2="413.507" y2="239.606"/>
					
						<line style="fill:none;stroke:#FF7F6A;stroke-width:0.75;stroke-miterlimit:10;" x1="159.879" y1="155.063" x2="159.879" y2="366.464"/>
					
						<line style="fill:none;stroke:#FF7F6A;stroke-width:0.75;stroke-miterlimit:10;" x1="202.151" y1="155.063" x2="202.151" y2="366.464"/>
					
						<line style="fill:none;stroke:#FF7F6A;stroke-width:0.75;stroke-miterlimit:10;" x1="244.422" y1="155.063" x2="244.422" y2="366.464"/>
					
						<line style="fill:none;stroke:#FF7F6A;stroke-width:0.75;stroke-miterlimit:10;" x1="286.693" y1="155.063" x2="286.693" y2="366.464"/>
					
						<line style="fill:none;stroke:#FF7F6A;stroke-width:0.75;stroke-miterlimit:10;" x1="328.964" y1="155.063" x2="328.964" y2="366.464"/>
					
						<line style="fill:none;stroke:#FF7F6A;stroke-width:0.75;stroke-miterlimit:10;" x1="371.236" y1="155.063" x2="371.236" y2="366.464"/>
					
						<line style="fill:none;stroke:#FF7F6A;stroke-width:0.75;stroke-miterlimit:10;" x1="117.608" y1="281.877" x2="413.507" y2="281.877"/>
					
						<line style="fill:none;stroke:#FF7F6A;stroke-width:0.75;stroke-miterlimit:10;" x1="117.608" y1="324.148" x2="413.507" y2="324.148"/>
				</g>
				<g>
					<path style="opacity:0.6;fill:#B2B2B2;" d="M171.148,116.826v18.195c0,3.789,3.071,6.86,6.86,6.86h0.169
						c3.789,0,6.86-3.071,6.86-6.86v-18.195H171.148z"/>
					<g>
						<g>
							<path style="fill:#F1BA68;" d="M178.15,137.703h-0.116c-2.597,0-4.703-2.105-4.703-4.703v-21.685
								c0-2.597,2.105-4.703,4.703-4.703h0.116c2.597,0,4.703,2.105,4.703,4.703V133
								C182.853,135.597,180.747,137.703,178.15,137.703z"/>
						</g>
						<path style="opacity:0.5;fill:#F1BA68;" d="M178.15,133.816h-0.116c-2.597,0-4.703-2.105-4.703-4.703V133
							c0,2.597,2.105,4.703,4.703,4.703h0.116c2.597,0,4.703-2.105,4.703-4.703v-3.887
							C182.853,131.71,180.747,133.816,178.15,133.816z"/>
					</g>
				</g>
				<g>
					<path style="opacity:0.6;fill:#B2B2B2;" d="M346.29,116.826v18.195c0,3.789,3.071,6.86,6.86,6.86h0.169
						c3.789,0,6.86-3.071,6.86-6.86v-18.195H346.29z"/>
					<g>
						<g>
							<path style="fill:#F1BA68;" d="M353.292,137.703h-0.116c-2.597,0-4.703-2.105-4.703-4.703v-21.685
								c0-2.597,2.105-4.703,4.703-4.703h0.116c2.597,0,4.703,2.105,4.703,4.703V133
								C357.995,135.597,355.889,137.703,353.292,137.703z"/>
						</g>
						<path style="opacity:0.5;fill:#F1BA68;" d="M353.292,133.816h-0.116c-2.597,0-4.703-2.105-4.703-4.703V133
							c0,2.597,2.105,4.703,4.703,4.703h0.116c2.597,0,4.703-2.105,4.703-4.703v-3.887
							C357.995,131.71,355.889,133.816,353.292,133.816z"/>
					</g>
				</g>
				<g style="opacity:0.3;">
					<path style="opacity:0.7;fill:#B2B2B2;" d="M275.424,330.006c0.004-0.038,0.013-0.076,0.017-0.114
						c0.001-0.012-0.004-0.025-0.015-0.032c-0.016-0.01-0.037-0.006-0.047,0.01l-0.009,0.014c-0.028,0.043-0.048,0.085-0.075,0.129
						c-0.014,0.001-0.032,0.003-0.032,0.003c0.2-5.03-4.484-4.77-4.484-4.77c-0.008-0.025-0.017-0.043-0.025-0.067
						c-0.004-0.048-0.004-0.096-0.008-0.143c-0.001-0.013-0.01-0.025-0.023-0.029c-0.012-0.004-0.02,0.006-0.028,0.014
						c-1.19-3.456-3.557-2.859-4.361-2.822c0.265-0.778,0.484-1.571,0.612-2.384c0.002-0.014-0.004-0.029-0.018-0.036
						c-0.006-0.003-0.011,0.005-0.017,0.005c0.57-1.536,1.326-3.607,1.917-5.349c1.423-4.196-2.924-7.509-5.834-0.381
						c-0.612,1.499-9.417,19.596-10.089,19.91c-0.672,0.314-2.197-1.478-4.115-7.074c-1.77-5.163-5.281-1.572-4.67,1.682
						c0.566,3.015,2.379,12.581,2.643,13.975c-0.006-0.002-0.012-0.004-0.018-0.006c0.022,0.115,0.035,0.182,0.035,0.182
						c-0.248,0.565-0.504,1.116-0.762,1.665c-0.078,0.166-0.154,0.335-0.233,0.499c-0.135,0.282-0.276,0.556-0.414,0.833
						c-2.466-0.96-3.992-1.428-3.992-1.428c-5.907,6.865-5.145,11.713-5.145,11.713c0.445,0.571,0.954,1.142,1.505,1.711
						c-0.178,0.223-0.355,0.457-0.534,0.676c-0.018,0.022-0.037,0.044-0.055,0.066c-0.476,0.577-0.954,1.136-1.434,1.678
						c-2.188,2.473-4.398,4.568-6.512,6.293h38.371c1.872-3.397,2.035-6.572,2.035-6.572c-1.021-0.887-2.068-1.73-3.129-2.538
						c5.259-8.154,9.449-15.537,10.789-19.913C279.44,330.316,276.19,329.989,275.424,330.006z"/>
					<path style="opacity:0.7;fill:#B2B2B2;" d="M204.828,362.59c-0.264-0.226-0.532-0.462-0.798-0.694
						c-2.96-2.576-6.095-5.478-9.259-8.508c-0.957-0.917-1.917-1.845-2.874-2.778c-0.037-0.036-0.073-0.072-0.11-0.107
						c-4.943-4.82-9.824-9.771-14.072-14.074c-0.338-0.343-0.668-0.677-0.998-1.01c-5.082-8.911-8.772-15.583-10.996-21.683
						c-0.204-0.559-0.395-1.113-0.574-1.663c-0.09-0.278-0.168-0.553-0.253-0.829c30.062,3.812,23.439-26.43,23.439-26.43
						s4.772-1.938,2.257-5.729c-2.563-3.864-4.461-5.838-5.44-10.183c-0.2-0.886-0.334-1.928-0.425-3.02
						c-0.185-2.21-0.183-4.633-0.139-6.461c0.416-0.301,0.833-0.613,1.248-0.948c0.805-0.649,1.6-1.361,2.358-2.14
						c1.515-1.558,2.879-3.38,3.863-5.487c0.985-2.106,1.59-4.496,1.59-7.188c0-0.2-0.02-0.412-0.051-0.629
						c-0.01-0.066-0.024-0.135-0.037-0.203c-0.029-0.159-0.064-0.321-0.108-0.488c-0.02-0.077-0.041-0.154-0.065-0.232
						c-0.054-0.181-0.118-0.367-0.189-0.556c-0.023-0.061-0.043-0.121-0.067-0.183c-0.103-0.257-0.218-0.52-0.35-0.791
						c-0.012-0.026-0.028-0.053-0.041-0.078c-0.122-0.245-0.256-0.496-0.401-0.752c-0.04-0.071-0.084-0.143-0.126-0.215
						c-0.131-0.223-0.27-0.45-0.418-0.68c-0.045-0.069-0.088-0.138-0.135-0.208c-0.188-0.286-0.387-0.575-0.6-0.869
						c-0.005-0.007-0.01-0.014-0.015-0.021c-0.237-0.326-0.489-0.657-0.755-0.993c-0.006-0.008-0.013-0.016-0.02-0.024
						c-0.249-0.313-0.513-0.63-0.787-0.95c-0.038-0.044-0.077-0.089-0.115-0.133c-0.265-0.306-0.54-0.614-0.827-0.925
						c-0.023-0.025-0.045-0.05-0.068-0.075c-0.964-1.04-2.049-2.102-3.239-3.167c-0.02-0.018-0.04-0.035-0.06-0.053
						c-1.204-1.074-2.514-2.148-3.921-3.204c-0.001,0-0.001-0.001-0.001-0.001l0,0c-15.666-11.76-43.065-21.086-63.641,1.26v127.449
						c0,5.242,4.25,9.492,9.492,9.492h82.409C208.026,365.281,206.457,363.99,204.828,362.59z"/>
				</g>
				<path style="opacity:0.2;fill:#B2B2B2;" d="M404.014,116.826h-5.442v225.71c0,5.242-4.25,9.492-9.492,9.492H117.608v4.908
					c0,5.242,4.25,9.492,9.492,9.492h276.914c5.242,0,9.492-4.25,9.492-9.492V126.318
					C413.507,121.076,409.257,116.826,404.014,116.826z"/>
			</g>
			<g>
				
					<ellipse transform="matrix(0.7071 -0.7071 0.7071 0.7071 -128.3601 383.13)" style="fill:#F1BA68;" cx="398.299" cy="346.509" rx="47.158" ry="47.158"/>
				
					<ellipse transform="matrix(0.7071 -0.7071 0.7071 0.7071 -130.5721 386.8657)" style="opacity:0.7;fill:#D7F6F9;" cx="401.702" cy="351.047" rx="47.158" ry="47.158"/>
				
					<ellipse transform="matrix(0.7071 -0.7071 0.7071 0.7071 -128.3601 383.13)" style="fill:#F1BA68;" cx="398.299" cy="346.509" rx="47.158" ry="47.158"/>
				<path style="opacity:0.5;fill:#FFFFFF;" d="M398.299,301.186c25.737,0,46.644,20.621,47.135,46.24
					c0.006-0.306,0.023-0.61,0.023-0.917c0-26.044-21.113-47.158-47.158-47.158c-26.044,0-47.158,21.113-47.158,47.158
					c0,0.308,0.017,0.611,0.023,0.917C351.655,321.807,372.562,301.186,398.299,301.186z"/>
				<circle style="opacity:0.5;fill:#F1BA68;" cx="398.299" cy="346.509" r="43.087"/>
				<circle style="fill:#FFFFFF;" cx="398.299" cy="346.509" r="41.108"/>
				<path style="opacity:0.2;fill:#B2B2B2;" d="M398.299,382.826c-21.899,0-39.792-17.125-41.033-38.712
					c-0.046,0.793-0.075,1.591-0.075,2.396c0,22.703,18.405,41.108,41.108,41.108c22.703,0,41.108-18.405,41.108-41.108
					c0-0.805-0.029-1.602-0.075-2.396C438.09,365.701,420.197,382.826,398.299,382.826z"/>
				<g>
					<g>
						
							<line style="fill:none;stroke:#5E334F;stroke-width:0.75;stroke-linecap:round;stroke-linejoin:round;stroke-miterlimit:10;" x1="398.299" y1="307.899" x2="398.299" y2="310.193"/>
						
							<line style="fill:none;stroke:#5E334F;stroke-width:0.75;stroke-linecap:round;stroke-linejoin:round;stroke-miterlimit:10;" x1="398.299" y1="382.826" x2="398.299" y2="385.12"/>
						
							<line style="fill:none;stroke:#5E334F;stroke-width:0.75;stroke-linecap:round;stroke-linejoin:round;stroke-miterlimit:10;" x1="436.909" y1="346.509" x2="434.616" y2="346.509"/>
						
							<line style="fill:none;stroke:#5E334F;stroke-width:0.75;stroke-linecap:round;stroke-linejoin:round;stroke-miterlimit:10;" x1="361.982" y1="346.509" x2="359.689" y2="346.509"/>
					</g>
					<polygon style="fill:#FF7F6A;" points="412.972,339.077 398.329,345.437 384.557,322.027 397.946,347.895 					"/>
					<path style="fill:#5E334F;" d="M400.134,346.509c0,1.013-0.822,1.835-1.835,1.835c-1.013,0-1.835-0.822-1.835-1.835
						s0.822-1.835,1.835-1.835C399.312,344.674,400.134,345.496,400.134,346.509z"/>
				</g>
			</g>
		</g>
		<g>
			<g>
				<path style="fill:#184456;" d="M187.355,500c1.676-23.847-0.66-42.536-14.367-55.491l-92.457-3.268
					c0,0-20.862,19.344-14.235,58.759H187.355z"/>
			</g>
			<g>
				<g>
					<path style="fill:#5BBECB;" d="M185.702,455.919c0,0-18.792-18.057-9.676-57.749c1.27-5.531,11.385-16.859,12.567-28.709
						c1.182-11.851-27.011-49.842-32.307-57.361c-9.317-13.229-52.061-5.37-52.061-5.37s-16.097,13.065-11.379,59.725
						c1.844,18.242,1.901,37.017,0.76,45.009c-1.142,7.991-15.949,32.145-15.949,32.145S115.047,487.46,185.702,455.919z"/>
				</g>
				<g style="opacity:0.5;">
					<path style="fill:#FFFFFF;" d="M94.056,406.87c-0.023,0.338-0.046,0.667-0.071,0.989h80.301
						c0.042-0.327,0.091-0.658,0.137-0.989H94.056z"/>
					<path style="fill:#FFFFFF;" d="M89.42,422.42c-0.16,0.327-0.324,0.658-0.488,0.989h84.735
						c-0.019-0.325-0.031-0.659-0.046-0.989H89.42z"/>
					<path style="fill:#FFFFFF;" d="M89.531,453.522c0.495,0.328,1.008,0.658,1.533,0.989h93.382
						c-0.233-0.284-0.495-0.617-0.775-0.989H89.531z"/>
					<path style="fill:#FFFFFF;" d="M94.322,391.319c0.006,0.333,0.011,0.66,0.015,0.989h84.432c0.188-0.326,0.373-0.65,0.572-0.989
						H94.322z"/>
					<path style="fill:#FFFFFF;" d="M81.004,437.971c-0.198,0.341-0.391,0.671-0.576,0.989h96.007
						c-0.103-0.328-0.207-0.651-0.306-0.989H81.004z"/>
					<path style="fill:#FFFFFF;" d="M92.334,360.217c0.022,0.33,0.041,0.655,0.065,0.989h94.41c-0.127-0.328-0.25-0.652-0.388-0.989
						H92.334z"/>
					<path style="fill:#FFFFFF;" d="M93.634,375.768c0.023,0.33,0.046,0.66,0.068,0.989h93.133c0.119-0.329,0.24-0.657,0.35-0.989
						H93.634z"/>
					<path style="fill:#FFFFFF;" d="M99.256,313.565c-0.171,0.319-0.342,0.643-0.514,0.989h59.294
						c-0.252-0.351-0.489-0.682-0.708-0.989H99.256z"/>
					<path style="fill:#FFFFFF;" d="M93.924,329.116c-0.066,0.323-0.129,0.657-0.193,0.989h75.194
						c-0.225-0.333-0.448-0.66-0.671-0.989H93.924z"/>
					<path style="fill:#FFFFFF;" d="M92.104,344.666c-0.014,0.326-0.026,0.657-0.037,0.989h86.796
						c-0.195-0.329-0.395-0.659-0.593-0.989H92.104z"/>
				</g>
				<path style="opacity:0.4;fill:#5BBECB;" d="M185.702,455.919c0,0-18.792-18.057-9.676-57.749
					c1.27-5.531,11.385-16.859,12.567-28.709c0.396-3.976-2.52-10.898-6.763-18.621c-17.347,0.74-33.763,3.533-21.059,12.291
					c23.097,15.925,16.811,26.965,12.896,28.186c-3.914,1.221-12.599,0-7.982,3.693c4.617,3.693,6.392,15.04-0.233,12.846
					c-6.625-2.193-14.247,0-4.03,10.45c10.217,10.45,9.049,26.147-25.753,27.574c-27.263,1.118-45.645-7.99-52.332-11.99
					c-3.094,5.494-5.681,9.717-5.681,9.717S115.047,487.46,185.702,455.919z"/>
			</g>
			<g>
				<g>
					<path style="fill:#FFCCB1;" d="M271.263,324.015c0.2-5.03-4.483-4.77-4.483-4.77c-1.474-4.736-5.065-2.413-4.699-3.246
						c0,0,1.658-4.35,2.748-7.565c1.423-4.196-2.923-7.509-5.834-0.381c-0.612,1.499-9.417,19.596-10.089,19.91
						c-0.672,0.314-2.197-1.478-4.115-7.074c-1.77-5.163-5.281-1.572-4.67,1.682c0.611,3.254,2.677,14.151,2.677,14.151
						c-7.393,16.866-19.7,26.725-26.309,29.026c-6.609,2.301-33.184-25.726-47.258-39.846
						c-14.074-14.12-34.221,10.415-21.439,23.988c12.782,13.574,34.49,34.991,53.581,46.385
						c17.529,10.461,34.563-8.019,43.863-20.366c11.243-14.927,25.352-35.743,28.034-44.505
						C275.717,323.409,271.263,324.015,271.263,324.015z"/>
					<path style="opacity:0.4;fill:#FFCCB1;" d="M242.781,336.723c-4.84,11.042-11.78,19.059-17.855,23.939
						c5.507,3.775,13.207,8.543,22.195,12.703c5.908-7.965,12.358-17.212,17.426-25.329c-8.535-6.387-16.676-9.796-21.802-11.496
						C242.768,336.655,242.781,336.723,242.781,336.723z"/>
					<g>
						<g>
							<path style="fill:#9B717B;" d="M259.577,321.621c0.342-1.457,0.893-2.735,1.45-4.013c0.58-1.275,1.146-2.493,1.85-3.806
								l0.006-0.011c0.009-0.017,0.03-0.023,0.047-0.014c0.013,0.007,0.02,0.022,0.018,0.036c-0.223,1.416-0.703,2.774-1.267,4.085
								c-0.597,1.298-1.277,2.556-2.043,3.761c-0.01,0.016-0.032,0.021-0.048,0.011c-0.013-0.008-0.018-0.023-0.015-0.037
								L259.577,321.621z"/>
						</g>
						<g>
							<path style="fill:#9B717B;" d="M264.452,324.762c0.338-0.468,0.564-0.935,0.789-1.369c0.208-0.446,0.393-0.885,0.543-1.345
								c0.169-0.454,0.28-0.934,0.427-1.429c0.125-0.499,0.27-1.017,0.465-1.577l0.005-0.015c0.006-0.018,0.026-0.027,0.043-0.021
								c0.013,0.005,0.022,0.016,0.023,0.029c0.045,0.543,0.066,1.088,0.023,1.633c-0.048,0.543-0.137,1.087-0.31,1.609
								c-0.366,1.027-1.016,1.993-1.977,2.549c-0.016,0.009-0.036,0.004-0.045-0.012c-0.007-0.012-0.006-0.026,0.002-0.036
								L264.452,324.762z"/>
						</g>
						<g>
							<path style="fill:#9B717B;" d="M269.295,329.054c0.221-0.462,0.329-0.907,0.484-1.322l0.416-1.26
								c0.312-0.837,0.59-1.698,1.175-2.588l0.009-0.014c0.01-0.016,0.031-0.02,0.047-0.01c0.011,0.007,0.016,0.02,0.015,0.032
								c-0.099,0.951-0.266,1.901-0.572,2.814c-0.159,0.454-0.358,0.895-0.604,1.309c-0.249,0.411-0.533,0.81-0.933,1.1
								c-0.014,0.01-0.034,0.007-0.045-0.007c-0.007-0.01-0.008-0.022-0.003-0.033L269.295,329.054z"/>
						</g>
					</g>
				</g>
				<path style="fill:#5BBECB;" d="M237.724,346.178c-7.126,11.113-15.98,17.74-21.235,19.57
					c-6.609,2.301-33.184-25.726-47.258-39.846c-14.074-14.12-34.221,10.415-21.439,23.988
					c12.782,13.574,34.49,34.991,53.581,46.385c17.529,10.461,34.563-8.019,43.863-20.366c3.867-5.134,8.073-10.965,12.036-16.762
					L237.724,346.178z"/>
				<g style="opacity:0.5;">
					<path style="fill:#FFFFFF;" d="M188.425,345.126c-0.26-0.252-0.519-0.506-0.778-0.759l-11.786,32.764
						c0.266,0.232,0.534,0.463,0.801,0.694L188.425,345.126z"/>
					<path style="fill:#FFFFFF;" d="M176.259,333.006c-0.259-0.262-0.515-0.521-0.77-0.78l-12.049,33.496
						c0.259,0.249,0.52,0.499,0.782,0.749L176.259,333.006z"/>
					<path style="fill:#FFFFFF;" d="M163.593,322.275c-0.317-0.106-0.635-0.196-0.952-0.274l-11.353,31.56
						c0.253,0.262,0.508,0.527,0.766,0.793L163.593,322.275z"/>
					<path style="fill:#FFFFFF;" d="M200.828,356.59c-0.264-0.227-0.533-0.463-0.801-0.696l-11.397,31.683
						c0.276,0.209,0.552,0.413,0.828,0.62L200.828,356.59z"/>
					<path style="fill:#FFFFFF;" d="M250.987,354.978l-0.848-0.563l-10.018,27.847c0.632-0.729,1.242-1.456,1.834-2.177
						L250.987,354.978z"/>
					<path style="fill:#FFFFFF;" d="M237.51,346.499c-0.715,1.101-1.447,2.154-2.189,3.165l-17.602,48.931
						c0.393-0.105,0.784-0.215,1.173-0.339L237.51,346.499z"/>
					<path style="fill:#FFFFFF;" d="M214.104,365.624c-0.296-0.089-0.607-0.201-0.931-0.334l-11.254,31.285
						c0.293,0.165,0.586,0.331,0.878,0.48L214.104,365.624z"/>
				</g>
				<path style="opacity:0.4;fill:#5BBECB;" d="M231.628,354.238c6.526,7.707,15.649,11.052,15.649,11.052
					s-16.485,22.056-31.393,26.029c-12.814,3.415-32.041-7.484-32.041-7.484c5.872,4.726,11.818,9.032,17.53,12.441
					c17.529,10.461,34.563-8.019,43.863-20.366c3.867-5.134,8.073-10.965,12.036-16.762l-19.548-12.97
					C235.785,349.203,233.716,351.884,231.628,354.238z"/>
				<path style="fill:#296B8D;" d="M237.379,338.291c0,0,15.941,4.888,28.231,15.565c0,0-0.413,8.736-8.421,12.735
					c0,0-18.523-8.347-24.955-16.587C232.234,350.004,231.472,345.156,237.379,338.291z"/>
				<g>
					
						<path style="fill:none;stroke:#5BBECB;stroke-width:0.7148;stroke-linecap:round;stroke-linejoin:round;stroke-miterlimit:10;" d="
						M235.041,350.441c0.884-6.297,4.548-8.898,4.548-8.898"/>
					
						<path style="fill:none;stroke:#5BBECB;stroke-width:0.7148;stroke-linecap:round;stroke-linejoin:round;stroke-miterlimit:10;" d="
						M238.347,353.456c0,0,0.953-7.137,5.811-10.864"/>
					
						<path style="fill:none;stroke:#5BBECB;stroke-width:0.7148;stroke-linecap:round;stroke-linejoin:round;stroke-miterlimit:10;" d="
						M242.471,356.425c0,0,1.35-7.895,6.451-11.607"/>
					
						<path style="fill:none;stroke:#5BBECB;stroke-width:0.7148;stroke-linecap:round;stroke-linejoin:round;stroke-miterlimit:10;" d="
						M246.25,359.259c0,0,4.724-6.208,6.546-12.214"/>
					
						<path style="fill:none;stroke:#5BBECB;stroke-width:0.7148;stroke-linecap:round;stroke-linejoin:round;stroke-miterlimit:10;" d="
						M250.501,362.228c0,0,5.579-4.343,6.771-11.787"/>
					
						<path style="fill:none;stroke:#5BBECB;stroke-width:0.7148;stroke-linecap:round;stroke-linejoin:round;stroke-miterlimit:10;" d="
						M255.563,364.185c0,0,5.331-3.239,6.343-10.257"/>
				</g>
				<g>
					
						<line style="fill:none;stroke:#5E334F;stroke-width:0.7148;stroke-linecap:round;stroke-linejoin:round;stroke-miterlimit:10;" x1="262.67" y1="298.409" x2="269.105" y2="286.129"/>
					
						<line style="fill:none;stroke:#5E334F;stroke-width:0.7148;stroke-linecap:round;stroke-linejoin:round;stroke-miterlimit:10;" x1="266.374" y1="301.561" x2="274.805" y2="293.886"/>
					
						<line style="fill:none;stroke:#5E334F;stroke-width:0.7148;stroke-linecap:round;stroke-linejoin:round;stroke-miterlimit:10;" x1="268.438" y1="305.625" x2="276.316" y2="303.181"/>
				</g>
			</g>
			<path style="opacity:0.5;fill:#5BBECB;" d="M169.231,325.903c-1.833-1.839-3.77-3.017-5.723-3.654
				c-3.264-4.648-5.929-8.311-7.223-10.148c-9.317-13.229-52.061-5.37-52.061-5.37s-16.097,13.065-11.379,59.725
				c0.886,8.762,1.358,17.643,1.485,25.397c9.775,2.494,32.115,4.87,53.795,0.454c27.584-5.618,49.897-18.605,42.648-44.917
				C182.984,339.932,175.042,331.733,169.231,325.903z"/>
			<g>
				<g>
					<path style="fill:#FFCCB1;" d="M186.59,273.084c-2.563-3.864-4.461-5.838-5.44-10.183c-0.979-4.345-0.446-12.366-0.446-12.366
						c-36.026-1.716-70.227,40.46-30.034,52.464c41.689,12.45,33.662-24.185,33.662-24.185S189.104,276.875,186.59,273.084z"/>
				</g>
				<path style="opacity:0.7;fill:#FFCCB1;" d="M180.704,250.535c-7.775-0.37-15.464,1.307-22.34,4.281
					c5.337,4.147,10.562,6.946,10.562,6.946s5.506,0.296,11.799-1.875C180.368,255.62,180.704,250.535,180.704,250.535z"/>
				<g>
					<path style="fill:#5E334F;" d="M162.229,277.059c0,0,10.616,1.293,10.178-19.285c0,0,17.241-5.759,17.238-20.117
						c-0.003-11.068-47.939-49.247-78.399-11.445c0,0-18.754,2.098-18.361,30.567c0.179,12.975-2.833,39.238-19.212,68.603
						c-14.935,26.776,0,55.011,23.054,60.484c37.302,8.855,104.848-5.473,82.27-45.427
						C161.071,308.719,154.908,301.642,162.229,277.059z"/>
					<g style="opacity:0.4;">
						<g>
							<path style="fill:#FFFFFF;" d="M150.371,289.336c-0.158,3.68-0.09,7.364,0.074,11.038c0.146,3.676,0.425,7.345,0.83,10.999
								c0.827,7.302,2.085,14.566,4.092,21.632c0.995,3.531,2.122,7.03,3.5,10.431c1.385,3.397,2.971,6.71,4.772,9.907
								c1.84,3.173,3.914,6.21,6.241,9.052c2.361,2.813,4.98,5.408,7.836,7.739c-2.926-2.238-5.637-4.757-8.102-7.512
								c-2.397-2.813-4.536-5.838-6.449-9.002c-3.75-6.381-6.477-13.318-8.485-20.423c-1.962-7.125-3.235-14.425-3.948-21.768
								C150.046,304.084,149.853,296.687,150.371,289.336z"/>
						</g>
						<g>
							<path style="fill:#FFFFFF;" d="M140.037,307.228c-0.477,3.263-0.82,6.541-1.049,9.826c-0.109,1.643-0.21,3.286-0.286,4.93
								c-0.038,1.646-0.115,3.29-0.121,4.935c-0.079,6.581,0.235,13.167,1.021,19.697c0.288,3.278,0.893,6.515,1.379,9.767
								c0.693,3.214,1.244,6.462,2.131,9.632c0.422,1.589,0.784,3.197,1.257,4.772l1.501,4.703c0.255,0.782,0.465,1.581,0.758,2.351
								l0.881,2.307l1.763,4.62c-2.629-6.04-5.083-12.199-6.691-18.615l-0.663-2.388c-0.226-0.795-0.359-1.612-0.543-2.417
								l-1.033-4.848c-0.51-3.263-1.141-6.512-1.449-9.805c-0.73-6.566-1.056-13.183-0.859-19.787
								c0.038-1.651,0.148-3.299,0.219-4.948c0.111-1.647,0.239-3.293,0.389-4.936C138.986,313.741,139.446,310.471,140.037,307.228
								z"/>
						</g>
						<g>
							<path style="fill:#FFFFFF;" d="M113.839,388.386c1.129-2.525,2.075-5.125,2.966-7.738c0.44-1.309,0.894-2.612,1.289-3.936
								c0.421-1.315,0.813-2.638,1.175-3.97c1.49-5.314,2.775-10.687,3.757-16.119c0.976-5.43,1.823-10.891,2.312-16.392
								c0.581-5.493,0.839-11.013,1.034-16.542c-0.011,2.764,0.056,5.533-0.02,8.3c-0.142,2.763-0.191,5.535-0.466,8.292
								l-0.36,4.139l-0.521,4.122c-0.157,1.377-0.364,2.746-0.596,4.112c-0.229,1.366-0.423,2.739-0.68,4.1
								c-1.045,5.442-2.325,10.841-3.934,16.142C118.175,378.192,116.289,383.422,113.839,388.386z"/>
						</g>
						<g>
							<path style="fill:#FFFFFF;" d="M87.224,382.068c3.192-2.572,5.893-5.689,8.335-8.956c1.287-1.588,2.357-3.335,3.523-5.01
								c1.099-1.721,2.099-3.504,3.152-5.251c3.971-7.144,7.013-14.771,9.444-22.562c2.591-7.758,4.145-15.808,5.608-23.847
								c0.614-4.041,1.095-8.105,1.635-12.161l1.012-12.24l-0.663,12.273c-0.469,4.07-0.891,8.15-1.44,12.213l-1.063,6.06
								l-0.541,3.029c-0.186,1.008-0.463,1.998-0.69,2.998l-1.433,5.986c-0.508,1.987-1.167,3.935-1.745,5.904
								c-2.499,7.809-5.55,15.487-9.648,22.616c-1.088,1.742-2.121,3.518-3.253,5.23c-1.201,1.665-2.298,3.405-3.625,4.976
								C93.289,376.536,90.489,379.587,87.224,382.068z"/>
						</g>
						<g>
							<path style="fill:#FFFFFF;" d="M71.758,365.367c2.414-1.546,4.562-3.461,6.572-5.484c2.047-1.992,3.884-4.187,5.646-6.428
								c3.487-4.52,6.441-9.431,8.977-14.54l1.864-3.854l1.639-3.957c1.168-2.611,1.937-5.371,2.932-8.05
								c0.901-2.711,1.603-5.487,2.419-8.229l1.97-8.36l-1.63,8.443l-1.087,4.163c-0.389,1.38-0.669,2.794-1.148,4.148l-1.348,4.091
								c-0.235,0.678-0.437,1.368-0.701,2.036l-0.804,1.999l-1.619,3.994l-1.849,3.895c-2.606,5.117-5.577,10.077-9.186,14.561
								C80.781,358.233,76.687,362.41,71.758,365.367z"/>
						</g>
						<g>
							<path style="fill:#FFFFFF;" d="M68.081,345.942c2.226-1.873,4.207-4.01,6.092-6.211c0.929-1.114,1.873-2.214,2.727-3.387
								l1.312-1.733l1.225-1.796c3.261-4.791,6.064-9.883,8.415-15.179l1.645-4.022c0.263-0.674,0.568-1.334,0.798-2.021l0.693-2.06
								c0.45-1.377,0.951-2.739,1.36-4.129l1.14-4.197l0.575-2.099l0.441-2.13l0.884-4.263c0.532-2.853,0.885-5.739,1.338-8.613
								c-0.336,2.885-0.574,5.791-0.993,8.672l-0.787,4.297l-0.395,2.15l-0.529,2.12l-1.08,4.238
								c-0.401,1.401-0.894,2.775-1.337,4.164l-0.682,2.079c-0.226,0.693-0.528,1.359-0.788,2.04l-1.628,4.062
								c-2.421,5.309-5.239,10.447-8.619,15.205C76.502,337.866,72.656,342.334,68.081,345.942z"/>
						</g>
					</g>
					<path style="opacity:0.2;fill:#5E334F;" d="M177.249,222.227c4.98,6.59,7.761,13.949,6.018,18.723
						c-3.495,9.574-16.357,15.9-16.357,15.9c1.942,14.834-6.96,20.078-6.96,20.078c-13.634,8.365-5.461,35.647,1.745,56.906
						c7.206,21.259-3.247,39.055-49.356,35.096c-29.855-2.563-39.601-21.152-42.763-33.94c-7.146,23.583,6.848,46.057,27.15,50.876
						c37.302,8.855,104.848-5.473,82.27-45.427c-17.925-31.72-24.087-38.797-16.767-63.381c0,0,10.616,1.293,10.178-19.285
						c0,0,17.241-5.76,17.238-20.117C189.644,234.145,184.812,227.904,177.249,222.227z"/>
				</g>
				<g>
					<path style="fill:#FFCCB1;" d="M166.116,284.255c-2.732,1.242-7.782,1.882-9.919-2.106c-3.676-6.862,1.816-13.993,7.453-13.012
						c2.35,0.409,4.696,3.41,5.276,5.988"/>
					<g>
						<path style="fill:#9B717B;" d="M158.49,272.555c0.467-0.574,1.134-0.976,1.853-1.223c0.73-0.224,1.524-0.241,2.279-0.099
							c0.749,0.156,1.492,0.423,2.124,0.936c0.619,0.516,1.108,1.274,1.053,2.209c-0.011,0.188-0.172,0.331-0.359,0.32
							c-0.054-0.003-0.104-0.019-0.148-0.044l-0.029-0.017c-0.654-0.376-1.428-0.648-2.188-0.794
							c-0.767-0.146-1.556-0.132-2.302,0.071c-0.744,0.211-1.427,0.645-1.978,1.222c-0.572,0.563-1.014,1.261-1.402,1.989
							c0.245-0.79,0.631-1.541,1.148-2.214c0.524-0.666,1.245-1.202,2.065-1.507c0.823-0.309,1.726-0.346,2.579-0.218
							c0.862,0.133,1.665,0.414,2.446,0.843l-0.536,0.259c0.028-0.544-0.29-1.193-0.79-1.595c-0.485-0.443-1.153-0.705-1.811-0.908
							C161.171,271.391,159.649,271.646,158.49,272.555z"/>
					</g>
					<path style="fill:#FFFFFF;" d="M164.592,283.26c0,0.487-0.394,0.881-0.881,0.881c-0.487,0-0.881-0.395-0.881-0.881
						s0.395-0.881,0.881-0.881C164.197,282.379,164.592,282.774,164.592,283.26z"/>
					<path style="fill:#FFFFFF;" d="M161.717,282.741c0,0.774-0.627,1.401-1.401,1.401c-0.774,0-1.401-0.627-1.401-1.401
						c0-0.774,0.627-1.401,1.401-1.401C161.089,281.34,161.717,281.967,161.717,282.741z"/>
				</g>
			</g>
			<g>
				<path style="opacity:0.4;fill:#184456;" d="M182.79,458.457c-6.487,2.67-31.278,11.907-57.243,8.905
					c-30.233-3.495-48.785-21.121-48.785-21.121c-0.191,0.067-0.36,0.147-0.539,0.22c-1.47,2.097-3.142,4.829-4.745,8.203
					c1.665,4.635,10.796,22.618,53.195,27.202c36.665,3.964,55.892-6.505,61.875-10.626
					C185.745,466.668,184.527,462.403,182.79,458.457z"/>
				<path style="fill:#296B8D;" d="M76.762,441.241c0,0,18.552,17.626,48.785,21.121c30.233,3.495,58.898-9.612,58.898-9.612
					s5.606,3.181,4.184,11.905c0,0-18.694,17.104-63.956,12.211c-48.792-5.275-53.529-28.299-53.529-28.299
					S71.003,443.255,76.762,441.241z"/>
				<g>
					
						<path style="fill:none;stroke:#5BBECB;stroke-width:0.7148;stroke-linecap:round;stroke-linejoin:round;stroke-miterlimit:10;" d="
						M72.91,449.561c0,0,0.565-2.966,3.813-4.943"/>
					
						<path style="fill:none;stroke:#5BBECB;stroke-width:0.7148;stroke-linecap:round;stroke-linejoin:round;stroke-miterlimit:10;" d="
						M76.723,455.066c0,0,0.997-5.182,6.039-7.283"/>
					
						<path style="fill:none;stroke:#5BBECB;stroke-width:0.7148;stroke-linecap:round;stroke-linejoin:round;stroke-miterlimit:10;" d="
						M84.233,461.999c0,0,0.7-5.462,6.022-9.593"/>
					
						<path style="fill:none;stroke:#5BBECB;stroke-width:0.7148;stroke-linecap:round;stroke-linejoin:round;stroke-miterlimit:10;" d="
						M95.367,468.581c0,0-0.981-6.582,3.851-10.924"/>
					
						<path style="fill:none;stroke:#5BBECB;stroke-width:0.7148;stroke-linecap:round;stroke-linejoin:round;stroke-miterlimit:10;" d="
						M112.033,462.478c0,0-4.777,3.379-2.214,10.654"/>
					
						<path style="fill:none;stroke:#5BBECB;stroke-width:0.7148;stroke-linecap:round;stroke-linejoin:round;stroke-miterlimit:10;" d="
						M124.266,464.226c0,0-2.524,5.417-0.777,10.835"/>
					
						<path style="fill:none;stroke:#5BBECB;stroke-width:0.7148;stroke-linecap:round;stroke-linejoin:round;stroke-miterlimit:10;" d="
						M136.988,465.274c0,0,2.19,5.346,0,11.185"/>
					
						<path style="fill:none;stroke:#5BBECB;stroke-width:0.7148;stroke-linecap:round;stroke-linejoin:round;stroke-miterlimit:10;" d="
						M148.149,464.226c0,0,4.194,6.395,1.514,12.233"/>
					
						<path style="fill:none;stroke:#5BBECB;stroke-width:0.7148;stroke-linecap:round;stroke-linejoin:round;stroke-miterlimit:10;" d="
						M159.916,462.478c0,0,3.379,7.165,0.466,12.582"/>
					
						<path style="fill:none;stroke:#5BBECB;stroke-width:0.7148;stroke-linecap:round;stroke-linejoin:round;stroke-miterlimit:10;" d="
						M169.819,460.032c0,0,3.848,4.544,2.33,11.651"/>
					
						<path style="fill:none;stroke:#5BBECB;stroke-width:0.7148;stroke-linecap:round;stroke-linejoin:round;stroke-miterlimit:10;" d="
						M178.907,456.653c0,0,4.893,3.379,4.893,9.903"/>
				</g>
			</g>
		</g>
	</g>
</g>
</svg>
