<svg width="72" height="51" viewBox="0 0 72 51" fill="none" xmlns="http://www.w3.org/2000/svg">
<g clip-path="url(#clip0_5_3665)">
<path d="M22.378 0.4157C22.3814 0.342879 22.3851 0.270712 22.3891 0.199219C22.3857 0.271606 22.382 0.343766 22.378 0.4157C22.0401 7.83785 25.7079 22.0514 43.163 21.2025C36.0333 21.7022 21.9045 26.7677 22.3875 43.0291C22.1659 35.9367 17.5749 21.9221 1.00683 21.8442C0.856728 21.8465 0.709534 21.8469 0.56543 21.8454C0.713499 21.8439 0.86063 21.8435 1.00683 21.8442C8.04005 21.7355 21.4537 17.3609 22.378 0.4157Z" fill="#7083F5"></path>
<path d="M59.3487 24.4888C59.3506 24.4451 59.3528 24.4018 59.3552 24.3589C59.3532 24.4023 59.351 24.4456 59.3487 24.4888C59.1459 28.942 61.3466 37.4702 71.8196 36.9608C67.5418 37.2606 59.0645 40.3 59.3543 50.0568C59.2213 45.8014 56.4667 37.3926 46.5259 37.3459C46.4359 37.3473 46.3475 37.3475 46.261 37.3466C46.3499 37.3457 46.4382 37.3454 46.5259 37.3459C50.7458 37.2807 58.794 34.6559 59.3487 24.4888Z" fill="#19DEBB"></path>
</g>
<defs>
<clipPath id="clip0_5_3665">
<rect width="71.2541" height="49.8779" fill="white" transform="translate(0.56543 0.199219)"></rect>
</clipPath>
</defs>
</svg>