<?xml version="1.0" encoding="utf-8"?>
<!-- Generator: Adobe Illustrator 27.5.0, SVG Export Plug-In . SVG Version: 6.00 Build 0)  -->
<svg version="1.1" id="Layer_1" xmlns="http://www.w3.org/2000/svg" xmlns:xlink="http://www.w3.org/1999/xlink" x="0px" y="0px"
	 viewBox="0 0 450 450" style="enable-background:new 0 0 450 450;" xml:space="preserve">
<rect style="fill:#F0FFFE;" width="450" height="450"/>
<g>
	<g>
		<path style="fill:#655353;" d="M373.31,131.698c4.432,3.45,1.268,14.915-7.061,25.605c-8.329,10.692-18.673,16.563-23.1,13.112
			c-4.43-3.45-1.268-14.915,7.063-25.605C358.541,134.119,368.885,128.248,373.31,131.698z"/>
		<path style="fill:#362C2C;" d="M356.906,147.614c-7.082,9.088-10.41,18.721-8.532,23.526c5.101-1.15,11.985-6.278,17.875-13.837
			c7.083-9.089,10.41-18.719,8.53-23.526C369.68,134.927,362.793,140.056,356.906,147.614z"/>
	</g>
	<g>
		<path style="fill:#655353;" d="M323.304,88.706c3.789,4.142-1.248,14.916-11.25,24.06c-10.002,9.148-21.183,13.205-24.971,9.061
			c-3.788-4.142,1.249-14.916,11.253-24.062C308.337,88.62,319.515,84.563,323.304,88.706z"/>
		<path style="fill:#362C2C;" d="M285.838,117.638c5.114,0.679,13.663-4.908,20.766-14.022c4.297-5.517,7.204-11.23,8.419-15.952
			c-4.884,1.324-10.976,4.878-16.687,10.102C290.816,104.639,286.106,112.432,285.838,117.638z"/>
	</g>
	<path d="M324.564,101.595c0,6.236-5.508,11.291-12.303,11.291c-6.792,0-12.301-5.055-12.301-11.291
		c0-6.236,5.509-11.293,12.301-11.293C319.057,90.302,324.564,95.358,324.564,101.595z"/>
	<path d="M372.864,147.251c0,6.772-5.98,12.263-13.36,12.263c-7.377,0-13.358-5.491-13.358-12.263
		c0-6.773,5.982-12.263,13.358-12.263C366.884,134.988,372.864,140.479,372.864,147.251z"/>
	<path style="fill:#8C675E;" d="M221.092,191.682c-0.446,1.535-1.292,5.49-1.656,7.216l-1.115,1.871
		c-0.571,0.951-0.255,2.186,0.695,2.752c0.953,0.565,2.184,0.256,2.752-0.7l0.371-0.619c0.158,0.131,0.332,0.273,0.497,0.409
		l-0.737,1.687c-0.444,1.014,0.019,2.201,1.033,2.644c1.02,0.443,2.202-0.02,2.645-1.037l0.325-0.756
		c0.267-0.339,0.527-0.278,0.701-0.134c0.14,0.104,0.385,0.342,0.24,0.912l-0.844,1.927c-0.445,1.014,0.011,2.2,1.029,2.644
		c1.021,0.447,2.204-0.016,2.646-1.031l0.565-1.282c0.161-0.294,0.436-0.737,0.784-0.855c0.456-0.157,0.841,0.41,1.027,0.926
		l-0.199,1.958c-0.113,1.103,0.684,2.091,1.791,2.203c1.102,0.115,2.089-0.686,2.204-1.787l0.216-2.116
		c0.032-0.045,0.084-0.105,0.099-0.145c0.816-2.536,1.818-5.252,4.197-7.768l0.181,0.666l-0.263,0.884l-0.3,0.968l-0.141,0.456
		l-0.058,0.185c0.016-0.052,0.084-0.142,0.179-0.237c-0.141,0.173-0.268,0.365-0.347,0.588c-0.049,0.158-0.122,0.38-0.11,0.757
		c0.002,0.358,0.198,0.946,0.607,1.311c0.899,0.696,1.397,0.51,1.591,0.496c0.548-0.048,1.282-0.737,1.376-1.004l0.194-0.264
		l0.326-0.462l0.614-0.877l1.191-1.742c0.27-0.396,0.377-0.91,0.241-1.41l-0.086-0.315l-1.971-7.314
		c0.146-2.959-0.407-6.099-1.288-7.929c-0.037-0.083-0.088-0.168-0.141-0.251c-0.345-0.535,0.057-2.189-0.746-2.776
		c-4.343-3.174-15.057-5.678-15.057-5.678S222.191,187.856,221.092,191.682z M240.27,203.261c-0.031,0.025-0.064,0.045-0.095,0.068
		C240.209,203.306,240.236,203.283,240.27,203.261z M243.139,205.328c0.083-0.234,0.105-0.476,0.095-0.708
		c-0.002,0.007,0.002,0.015,0.002,0.017C243.249,204.99,243.185,205.192,243.139,205.328z"/>
	<path style="fill:#8C675E;" d="M389.771,157.086c0,0-7.181-5.223-11.411-6.199c-0.781-0.181-1.579,0.936-2.09,1.009
		c-0.078,0.011-0.154,0.025-0.227,0.045c-1.583,0.428-3.792,1.748-5.522,3.397l-5.505,2.656l-0.237,0.113
		c-0.376,0.181-0.634,0.518-0.735,0.891l-0.433,1.646l-0.214,0.837l-0.107,0.443l-0.064,0.259c-0.111,0.198-0.144,1.009,0.114,1.369
		c0.094,0.128,0.244,0.529,1.143,0.71c0.44,0.059,0.901-0.132,1.121-0.321c0.238-0.191,0.334-0.353,0.405-0.467
		c0.096-0.165,0.148-0.344,0.175-0.52c-0.008,0.108-0.027,0.196-0.051,0.235l0.083-0.133l0.203-0.327l0.435-0.694l0.401-0.627
		l0.502-0.241c-0.281,2.78-1.412,4.826-2.529,6.662c-0.017,0.03-0.024,0.094-0.038,0.138l-1.177,1.247
		c-0.61,0.651-0.58,1.676,0.072,2.29c0.652,0.616,1.675,0.582,2.289-0.068l1.091-1.157c0.411-0.157,0.961-0.22,1.109,0.138
		c0.11,0.278-0.016,0.679-0.11,0.934l-0.483,1.018c-0.388,0.807-0.045,1.775,0.766,2.16c0.808,0.388,1.772,0.043,2.158-0.765
		l0.729-1.532c0.273-0.389,0.547-0.365,0.684-0.334c0.179,0.032,0.355,0.158,0.288,0.498l-0.289,0.598
		c-0.388,0.808-0.045,1.774,0.762,2.163c0.808,0.386,1.777,0.042,2.159-0.763l0.642-1.339c0.171,0.028,0.349,0.059,0.513,0.087
		l-0.184,0.554c-0.282,0.849,0.177,1.766,1.027,2.049c0.846,0.281,1.768-0.178,2.048-1.028l0.554-1.667
		c0.859-1.132,2.829-3.737,3.531-4.818C385.127,165.539,389.771,157.086,389.771,157.086z M366.188,162.721
		c-0.002-0.031-0.007-0.063-0.008-0.094C366.184,162.66,366.185,162.688,366.188,162.721z M363.776,161.54
		c0.003,0,0.007-0.002,0.011-0.006c-0.146,0.117-0.281,0.258-0.383,0.431C363.463,161.864,363.552,161.719,363.776,161.54z"/>
	<g>
		<path style="fill:#465E8F;" d="M300.409,89.437c3.491,11.915,12.306,26.75,25.043,40.744
			c12.739,13.993,26.687,24.158,38.22,28.749c6.902,16.546,11.275,27.171,21.784,17.601c15.708-14.302,12.662-44.128-5.608-71.468
			c-3.248-4.862-8.391-8.353-12.579-12.952c-4.192-4.606-7.192-10.06-11.729-13.742c-25.51-20.748-54.914-26.567-70.621-12.267
			C274.408,75.669,284.58,81.016,300.409,89.437z"/>
		<g>
			<path style="fill:#8C675E;" d="M315.585,95.415c3.404-3.097,6.947-4.74,7.917-3.671c0.971,1.064-0.996,4.44-4.396,7.533
				c-3.4,3.096-6.945,4.741-7.914,3.672C310.217,101.883,312.191,98.507,315.585,95.415z"/>
			<path style="fill:#8C675E;" d="M359.14,143.252c3.401-3.094,5.368-6.467,4.397-7.533c-0.973-1.069-4.515,0.575-7.916,3.671
				c-3.399,3.095-5.369,6.468-4.397,7.535C352.194,147.992,355.741,146.348,359.14,143.252z"/>
			<path style="fill:#190F28;" d="M314.643,98.743c14.577-13.271,35.6-13.925,46.945-1.463c11.352,12.462,8.722,33.331-5.854,46.604
				c-9.113,8.296-20.737,11.667-30.946,9.98c-3.038-0.499-5.096-4.725-7.781-6.121c-2.728-1.42-6.073-0.034-8.221-2.391
				c-2.185-2.4-1.022-5.198-2.185-8.106c-1.025-2.566-4.492-5.194-4.743-7.989C300.91,118.764,305.343,107.21,314.643,98.743z"/>
		</g>
		<g>
			<g>
				<path style="fill:#465E8F;" d="M312.286,93.552l-49.345,35.045l3.201-4.837l-20.935,61.896l-21.497-7.271l20.935-61.896
					c0.467-1.381,1.193-2.602,2.107-3.626l1.094-1.212l40.499-44.979L312.286,93.552z"/>
			</g>
		</g>
	</g>
	<g>
		
			<rect x="233.442" y="169.684" transform="matrix(0.3171 -0.9484 0.9484 0.3171 -11.372 346.4001)" style="fill:#C9C9C9;" width="2.79" height="22.824"/>
	</g>
</g>
<g>
	<g>
		<g>
			<path style="fill:#655353;" d="M69.346,180.191c-0.644-3.893,8.653-11.278,20.76-16.496c12.107-5.216,22.441-6.289,23.08-2.395
				c0.642,3.894-8.656,11.278-20.761,16.495C80.318,183.012,69.983,184.085,69.346,180.191z"/>
			<path style="fill:#362C2C;" d="M89.926,173.669c10.294-4.435,18.533-10.43,20.382-14.522c-3.989-0.744-11.643,0.861-20.202,4.548
				c-10.294,4.435-18.532,10.43-20.381,14.523C73.714,178.962,81.369,177.358,89.926,173.669z"/>
		</g>
		<path style="fill:#A87C71;" d="M86.095,172.032c-0.849-1.925,1.595-4.865,5.459-6.568c3.864-1.702,7.684-1.521,8.532,0.401
			c0.848,1.925-1.596,4.864-5.459,6.566C90.763,174.136,86.942,173.956,86.095,172.032z"/>
	</g>
	<g>
		<g>
			<path style="fill:#655353;" d="M82.688,225.033c0.216,3.94,10.893,9.135,23.843,11.604c12.95,2.467,23.272,1.273,23.05-2.666
				c-0.217-3.939-10.894-9.134-23.843-11.602C92.788,219.9,82.466,221.092,82.688,225.033z"/>
			<path style="fill:#362C2C;" d="M104.192,226.939c11.011,2.096,20.353,6.164,23.045,9.758c-3.733,1.59-11.553,1.684-20.708-0.061
				c-11.011-2.1-20.351-6.166-23.045-9.762C87.219,225.285,95.039,225.192,104.192,226.939z"/>
		</g>
		<path style="fill:#A87C71;" d="M100.808,229.365c-0.411,2.064,2.612,4.404,6.753,5.229c4.14,0.824,7.83-0.178,8.241-2.24
			c0.411-2.061-2.612-4.402-6.753-5.227C104.908,226.303,101.218,227.307,100.808,229.365z"/>
	</g>
	<g>
		<g>
			<path style="fill:#A87C71;" d="M70.747,142.648c0,0,7.221-2.425,9.695-3.015c1.284-0.308,5.225-0.876,5.225-0.876
				s1.811,2.422,3.723,5.269c-0.287,0.184-0.207,0.408-0.103,0.563c0.073,0.108,0.238,0.322,0.626,0.229
				c0.585,0.886,1.152,1.783,1.646,2.615c-0.154,0.08-0.574,0.303-0.657,0.607c-0.137,0.516,0.854,1.048,1.074,0.952
				c1.582,0.369,0.277,2.802-0.271,2.962c-1.863,0.52-3.883,1.113-5.628,3.328c-1.744,2.227-6.991,1.289-9.263-0.151
				c-0.056-0.035-0.112-0.075-0.168-0.122c-0.358-0.292-1.43-0.093-1.832-0.731C72.637,150.831,70.747,142.648,70.747,142.648z"/>
		</g>
		<g>
			<path style="fill:#A87C71;" d="M85.541,141.772c-0.476,0-0.94-0.242-1.204-0.68c-0.399-0.664-0.185-1.526,0.479-1.925
				l1.487-0.895c0.665-0.399,1.526-0.185,1.925,0.479c0.399,0.664,0.185,1.525-0.479,1.925l-1.486,0.894
				C86.037,141.708,85.787,141.772,85.541,141.772z"/>
		</g>
		<g>
			<path style="fill:#A87C71;" d="M86.421,145.026c-0.551,0-1.074-0.327-1.297-0.868c-0.295-0.716,0.045-1.537,0.761-1.832
				l2.856-1.179c0.715-0.295,1.536,0.045,1.832,0.762c0.296,0.715-0.045,1.536-0.761,1.832l-2.856,1.179
				C86.78,144.992,86.599,145.026,86.421,145.026z"/>
		</g>
		<g>
			<path style="fill:#A87C71;" d="M88.848,148.321c-0.551,0-1.073-0.326-1.297-0.866c-0.296-0.715,0.043-1.537,0.76-1.833
				l2.851-1.181c0.715-0.296,1.536,0.044,1.833,0.76c0.296,0.715-0.043,1.536-0.76,1.833l-2.851,1.181
				C89.208,148.287,89.026,148.321,88.848,148.321z"/>
		</g>
		<g>
			<path style="fill:#A87C71;" d="M90.525,151.813c-0.759,0-1.383-0.606-1.402-1.368c-0.019-0.775,0.594-1.417,1.368-1.437
				l2.466-0.06c0.772,0.016,1.418,0.594,1.437,1.369c0.019,0.774-0.594,1.417-1.368,1.436l-2.467,0.06
				C90.548,151.813,90.536,151.813,90.525,151.813z"/>
		</g>
		<g>
			<path style="fill:#A87C71;" d="M81.62,152.616c1.071,0.34,2.115,0.75,3.156,1.167c1.042,0.415,2.068,0.869,3.089,1.335
				l-1.364,0.031c0.403-0.152,0.811-0.297,1.228-0.414c0.207-0.064,0.418-0.115,0.624-0.163l0.299-0.058
				c0.05-0.01,0.082-0.014,0.11-0.011c-0.001,0.006-0.021,0.022-0.029,0.034l-0.015,0.02c0.02-0.014-0.038,0.027-0.101,0.083
				c-0.056,0.05-0.112,0.109-0.163,0.176c-0.102,0.133-0.182,0.296-0.222,0.456c-0.031,0.194-0.072,0.199-0.015,0.629
				c0.038,0.193,0.153,0.471,0.386,0.688c0.229,0.219,0.526,0.323,0.731,0.345c0.104,0.013,0.193,0.012,0.267,0.006l0.114-0.015
				l0.01-0.003l0.021-0.007c0.027-0.009,0.054-0.021,0.079-0.034c-0.688,0.211-1.416-0.175-1.627-0.863
				c-0.211-0.688,0.175-1.417,0.864-1.628l0.159-0.054l0.041-0.012l0.02-0.006l0.119-0.015c0.076-0.005,0.166-0.006,0.273,0.007
				c0.208,0.022,0.508,0.126,0.741,0.346c0.236,0.216,0.355,0.495,0.396,0.688c0.069,0.429,0.017,0.44-0.017,0.64
				c-0.046,0.163-0.129,0.332-0.237,0.47c-0.054,0.069-0.112,0.13-0.171,0.183l-0.108,0.089l-0.05,0.042l-0.098,0.078l-0.18,0.146
				l-0.288,0.238c-0.187,0.145-0.372,0.283-0.563,0.408c-0.376,0.256-0.766,0.479-1.161,0.688c-0.379,0.2-0.805,0.221-1.18,0.094
				l-0.185-0.063c-1.062-0.365-2.119-0.743-3.16-1.159c-1.042-0.413-2.081-0.835-3.093-1.326c-0.873-0.423-1.239-1.474-0.816-2.348
				C79.891,152.727,80.8,152.354,81.62,152.616z"/>
		</g>
	</g>
	<path style="fill:#A87C71;" d="M234.535,199.468c-0.349-1.004-1.444-1.539-2.452-1.188l-0.656,0.228
		c-0.035-0.197-0.072-0.4-0.11-0.607l1.583-0.785c0.953-0.473,1.342-1.628,0.869-2.581c-0.472-0.954-1.626-1.344-2.582-0.87
		l-0.755,0.375c-0.374,0.065-0.506-0.149-0.549-0.357c-0.036-0.156-0.069-0.483,0.384-0.813l1.816-0.898
		c0.953-0.472,1.344-1.627,0.872-2.58c-0.473-0.954-1.626-1.344-2.581-0.873l-1.272,0.629c-0.307,0.108-0.746,0.224-1.038,0.109
		c-0.416-0.164-0.38-0.796-0.215-1.285l1.391-1.346c0.765-0.74-1.934-2.649-2.699-1.91l-1.413,0.528
		c-0.076,0.021-0.142,0.046-0.192,0.077c-2.188,1.37-4.567,2.82-7.913,3.186l0.312-0.672l0.738-0.485l0.82-0.529l0.393-0.249
		c0.055-0.035,0.11-0.07,0.14-0.094c0.116-0.04,0.23-0.091,0.34-0.156c0.052-0.028,0.061-0.028,0.146-0.081l0.063-0.041
		c0.018-0.013,0.023-0.01,0.145-0.112c0.045-0.04,0.088-0.081,0.13-0.125l0.061-0.065c0.039-0.076-0.047,0.129,0.26-0.399
		c0.105-0.219,0.196-0.544,0.171-0.902c-0.021-0.358-0.168-0.705-0.332-0.929c-0.16-0.226-0.348-0.373-0.45-0.443
		c-0.056-0.038-0.115-0.074-0.18-0.107c-0.253-0.136-0.578-0.214-0.867-0.21c-0.071,0.001-0.142,0.005-0.208,0.014l-0.035,0.004
		l-0.041,0.006l-0.08,0.014l-0.134,0.029l-0.104,0.027l-0.121,0.032l-0.311,0.08l-0.52,0.134l-0.991,0.266l-1.953,0.543h0
		c-0.501,0.23-0.93,0.634-1.18,1.173l-3.041,6.536c-1.947,2.088-3.485,4.771-3.973,6.669c-0.022,0.085-0.04,0.178-0.052,0.271
		c-0.078,0.609-1.394,1.575-1.164,2.504c1.229,5.011,7.556,13.462,7.556,13.462s9.975-5.659,13.142-7.79
		c1.269-0.852,4.331-3.23,5.671-4.278l1.974-0.685C234.352,201.571,234.884,200.473,234.535,199.468z M217.856,183.285l0.037-0.024
		c0.051-0.029,0.023-0.008,0.041-0.015c-0.097,0.058-0.184,0.126-0.266,0.197c0.022-0.021,0.043-0.045,0.067-0.065
		C217.848,183.284,217.846,183.292,217.856,183.285z M217.542,183.575c-0.005,0.005-0.009,0.01-0.014,0.015
		C217.534,183.582,217.539,183.577,217.542,183.575z M216.42,188.435l0.001-0.001L216.42,188.435L216.42,188.435z"/>
	<g>
		<g>
			<path style="fill:#A8E1FE;" d="M102.111,247.371l50.908-13.904l-2.892,1.463l55.167-39.371l12.479,17.486l-55.168,39.369
				c-0.71,0.508-1.461,0.91-2.238,1.215l-0.654,0.25l-49.254,18.945L102.111,247.371z"/>
		</g>
	</g>
	<g>
		<path style="fill:#A8E1FE;" d="M103.673,241.719c3.225-5.598,6.045-12.256,6.14-20.042c0.095-8.522-2.401-11.314-4.825-21.328
			c-2.14-10.071-1.096-13.666-4.864-21.31c-3.228-6.537-8.367-11.923-13.373-15.576c2.184-18.788,4.65-31.271-9.339-28.091
			c-19.602,4.455-24.806,29.042-22.505,60.087c0.425,5.516,3.025,10.792,4.329,16.528c1.306,5.751,1.244,11.636,3.257,16.792
			c11.339,28.982,26.648,48.912,46.25,44.455C123.354,269.914,114.403,258.945,103.673,241.719z"/>
		<g>
			<g>
				<path style="fill:#A87C71;" d="M97.145,234.775c-4.248,0.965-7.926,0.674-8.23-0.664c-0.3-1.324,2.887-3.186,7.135-4.154
					c4.247-0.965,7.934-0.664,8.235,0.66C104.588,231.955,101.391,233.811,97.145,234.775z"/>
				<path style="fill:#A87C71;" d="M83.574,175.066c-4.247,0.964-7.437,2.817-7.134,4.155c0.301,1.322,3.982,1.629,8.229,0.665
					c4.249-0.965,7.441-2.836,7.14-4.159C91.506,174.392,87.82,174.1,83.574,175.066z"/>
				<path style="fill:#6F3533;" d="M99.479,232.473c-18.2,4.141-35.824-5.121-39.361-20.685
					c-3.536-15.555,8.355-31.523,26.554-35.659c14.852-3.375,29.314,2.165,36.058,12.766c1.523,2.402-0.748,8.832-0.748,8.832
					s4.854,6.887,3.947,10.638C123.225,219.615,113.132,229.373,99.479,232.473z"/>
			</g>
		</g>
		<path style="fill:#42201E;" d="M68.568,220.618c-4.83,1.1-9.923-3.112-11.354-9.413c-1.429-6.288,1.342-12.283,6.173-13.382
			c4.84-1.1,9.92,3.113,11.349,9.403C76.167,213.523,73.409,219.518,68.568,220.618z"/>
		<path style="fill:#5E2D2B;" d="M66.731,221.035c-4.829,1.098-9.908-3.116-11.339-9.414c-1.43-6.29,1.329-12.282,6.159-13.38
			c4.843-1.1,9.921,3.111,11.35,9.401C74.332,213.94,71.575,219.935,66.731,221.035z"/>
	</g>
	<g>
		
			<rect x="209.191" y="194.221" transform="matrix(0.8132 -0.582 0.582 0.8132 -79.9601 160.8476)" style="fill:#C9C9C9;" width="2.789" height="21.527"/>
	</g>
</g>
<g>
	<g>
		<g>
			<path style="fill:#F1BFBE;" d="M319.42,332.893c0,0-4.901-1.549-6.465-2.275c-0.811-0.379-3.119-1.84-3.119-1.84
				s0.249-2.869,0.649-6.133c0.238-0.014,0.302-0.232,0.326-0.41c0.017-0.125,0.034-0.381-0.211-0.496
				c0.131-1.012,0.273-2.023,0.425-2.947c0.119,0.014,0.445,0.035,0.636-0.174c0.321-0.355,0.069-1.275-0.092-1.303
				c-0.635-1.074,1.223-2.434,1.585-2.293c1.212,0.486,2.541,0.992,4.521,0.027c1.982-0.967,4.231,2.367,4.702,4.656
				c0.011,0.057,0.019,0.117,0.026,0.182c0.042,0.414,0.69,0.775,0.587,1.496C322.432,325.268,319.42,332.893,319.42,332.893z"/>
			<g>
				<path style="fill:#F6BFBA;" d="M309.484,328.665c-0.627,0-1.137-0.507-1.14-1.134c-0.003-0.63,0.505-1.143,1.134-1.146
					l1.204-0.006c0.002,0,0.004,0,0.006,0c0.627,0,1.137,0.507,1.14,1.134c0.003,0.63-0.505,1.143-1.134,1.146l-1.204,0.006
					C309.488,328.665,309.486,328.665,309.484,328.665z"/>
			</g>
			<g>
				<path style="fill:#F6BFBA;" d="M311.819,325.565c-0.077,0-0.156-0.008-0.235-0.024l-2.045-0.43
					c-0.616-0.13-1.01-0.733-0.881-1.35c0.13-0.615,0.732-1.012,1.35-0.881l2.045,0.43c0.616,0.13,1.01,0.733,0.881,1.35
					C312.82,325.197,312.347,325.565,311.819,325.565z"/>
			</g>
			<g>
				<path style="fill:#F6BFBA;" d="M312.175,321.681c-0.076,0-0.154-0.008-0.232-0.023l-2.047-0.424
					c-0.616-0.128-1.012-0.731-0.885-1.348c0.127-0.615,0.726-1.01,1.348-0.885l2.047,0.424c0.616,0.128,1.012,0.732,0.885,1.348
					C313.179,321.31,312.704,321.681,312.175,321.681z"/>
			</g>
			<g>
				<path style="fill:#F6BFBA;" d="M313.009,318.007c-0.271,0-0.541-0.096-0.759-0.289l-1.301-1.16
					c-0.47-0.419-0.511-1.14-0.092-1.609c0.421-0.469,1.139-0.51,1.609-0.092l1.301,1.16c0.47,0.419,0.511,1.14,0.092,1.609
					C313.634,317.878,313.322,318.007,313.009,318.007z"/>
			</g>
			<g>
				<g>
					<path style="fill:#F6BFBA;" d="M318.473,318.922c-0.397-0.826-0.732-1.674-1.067-2.525c-0.165-0.426-0.31-0.857-0.465-1.287
						c-0.148-0.434-0.319-0.855-0.446-1.297l1.084,0.871c-0.284-0.068-0.567-0.15-0.845-0.24c-0.139-0.051-0.277-0.092-0.407-0.15
						l-0.177-0.078c-0.03-0.014-0.038-0.021-0.041-0.035l0.065-0.012l0.049-0.01c0.205-0.022,0.466-0.143,0.622-0.318
						c0.077-0.102,0.124-0.109,0.248-0.416c0.122-0.271,0.024-0.81-0.21-1.029c-0.097-0.113-0.222-0.195-0.264-0.219l-0.013-0.004
						l-0.027-0.014c-0.036-0.016-0.075-0.031-0.113-0.039c0.551,0.195,0.839,0.801,0.643,1.352
						c-0.196,0.551-0.801,0.838-1.352,0.643c-0.057-0.018-0.111-0.037-0.165-0.063l-0.039-0.018l-0.021-0.01
						c-0.042-0.023-0.17-0.107-0.267-0.221c-0.237-0.225-0.338-0.766-0.219-1.041c0.118-0.31,0.171-0.322,0.252-0.422
						c0.167-0.18,0.436-0.305,0.649-0.328l0.077-0.012l0.121-0.014l0.184-0.021l0.269-0.031c0.167-0.023,0.326-0.027,0.484-0.037
						c0.315-0.008,0.623-0.002,0.93,0.021c0.434,0.035,0.794,0.295,0.978,0.656l0.107,0.215c0.207,0.41,0.369,0.836,0.556,1.254
						c0.178,0.42,0.366,0.836,0.536,1.26c0.333,0.852,0.665,1.703,0.936,2.576c0.232,0.754-0.19,1.553-0.943,1.787
						C319.497,319.877,318.774,319.549,318.473,318.922z"/>
				</g>
			</g>
		</g>
		<g>
			<g>
				<path style="fill:#655353;" d="M361.287,253.174c-2.652,2.922-14.215,0.219-25.82-6.031
					c-11.607-6.254-18.866-13.688-16.208-16.607c2.652-2.92,14.215-0.217,25.821,6.033
					C356.685,242.82,363.943,250.256,361.287,253.174z"/>
				<path style="fill:#362C2C;" d="M343.395,241.09c-9.867-5.316-19.682-8.053-24.037-6.961c1.891,3.588,7.904,8.592,16.108,13.014
					c9.868,5.314,19.682,8.049,24.037,6.959C357.611,250.512,351.601,245.508,343.395,241.09z"/>
			</g>
			<path style="fill:#F1BFBE;" d="M344.822,242.082c-0.837,1.93-4.654,2.133-8.527,0.451c-3.874-1.682-6.333-4.609-5.497-6.537
				c0.837-1.928,4.653-2.129,8.527-0.449C343.199,237.229,345.659,240.154,344.822,242.082z"/>
		</g>
		<g>
			<g>
				<path style="fill:#655353;" d="M346.069,305.67c-1.126,3.781-12.72,6.352-25.888,5.74c-13.169-0.611-22.931-4.17-21.799-7.951
					c1.127-3.783,12.719-6.35,25.888-5.74C337.439,298.33,347.2,301.891,346.069,305.67z"/>
				<path style="fill:#362C2C;" d="M324.71,302.522c-11.196-0.52-21.228,1.264-24.683,4.133c3.261,2.416,10.845,4.324,20.154,4.756
					c11.197,0.521,21.228-1.262,24.683-4.133C341.603,304.863,334.02,302.953,324.71,302.522z"/>
			</g>
			<path style="fill:#F1BFBE;" d="M327.438,305.672c-0.08,2.102-3.564,3.676-7.783,3.516c-4.22-0.162-7.573-1.996-7.494-4.098
				c0.079-2.102,3.564-3.674,7.782-3.514C324.162,301.738,327.519,303.57,327.438,305.672z"/>
		</g>
		<path style="fill:#F6BFBA;" d="M238.61,188.477c-1.406-0.469-5.11-1.422-6.596-1.8l-3.661-2.01
			c-0.879-0.482-1.985-0.161-2.47,0.72c-0.483,0.881-0.161,1.987,0.72,2.471l2.342,1.285c-0.103,0.113-0.207,0.229-0.314,0.347
			l-3.84-1.816c-0.91-0.429-1.993-0.041-2.423,0.867c-0.429,0.909-0.041,1.993,0.867,2.423l3.137,1.483
			c0.156,0.207,0.071,0.393-0.042,0.525c-0.102,0.122-0.331,0.353-0.872,0.175c-0.03,0.036-0.057,0.071-0.087,0.106l-4.134-1.732
			c-0.928-0.39-1.993,0.048-2.381,0.975c-0.388,0.927,0.048,1.993,0.975,2.381l4.037,1.691c0.092,0.101,0.169,0.207,0.201,0.319
			c0.107,0.368-0.29,0.676-0.709,0.85l-4.269-0.824c-0.985-0.193-1.941,0.455-2.131,1.442c-0.19,0.986,0.455,1.941,1.442,2.131
			l4.255,0.821c0.102,0.092,0.198,0.163,0.282,0.194c2.283,0.842,4.739,1.784,6.943,4.073l-0.685,0.155l-0.787-0.27l-0.867-0.309
			l-0.412-0.148c-0.057-0.021-0.115-0.042-0.15-0.05c-0.099-0.065-0.204-0.123-0.319-0.168c-0.052-0.022-0.056-0.029-0.148-0.063
			l-0.069-0.023l-0.035-0.01l-0.148-0.035c-0.059-0.011-0.116-0.019-0.176-0.023l-0.087-0.006l-0.085-0.001
			c-0.166,0.005-0.391,0.03-0.66,0.149c-0.268,0.113-0.564,0.351-0.742,0.637c-0.183,0.284-0.248,0.571-0.266,0.78
			c-0.009,0.104-0.007,0.2-0.002,0.272l0.01,0.092c0.009,0.061,0.02,0.126,0.037,0.189c0.063,0.258,0.2,0.521,0.367,0.712
			c0.35,0.359,0.299,0.267,0.371,0.337l0.094,0.073l0.238,0.185l0.399,0.311l0.77,0.588l1.533,1.144h0.001
			c0.46,0.242,1.01,0.329,1.556,0.206l6.648-1.5c2.683,0.25,5.576-0.15,7.275-0.881c0.078-0.031,0.155-0.071,0.234-0.117
			c0.497-0.294,1.982,0.131,2.542-0.575c3.035-3.813,5.702-13.425,5.702-13.425S242.034,189.619,238.61,188.477z M225.532,207.977
			l-0.021-0.007l-0.041-0.015c-0.055-0.022-0.023-0.014-0.038-0.022c0.098,0.039,0.198,0.064,0.297,0.083
			c-0.021-0.003-0.042-0.004-0.062-0.008L225.532,207.977z"/>
		<path style="fill:#4A848F;" d="M355.811,202.354c-14.643-4.313-12.137,9.886-11.161,30.555
			c-5.655,3.371-11.478,7.885-15.43,14.758c-4.323,7.531-3.494,11.26-6.319,21.367c-3.104,10.023-5.823,12.701-6.272,21.377
			c-0.385,7.416,1.52,14.729,4.162,20.482c-11.306,15.625-19.716,25.504-5.688,29.639c19.657,5.791,36.503-13.488,49.899-42.236
			c2.378-5.115,2.682-11.102,4.378-16.857c1.699-5.762,4.692-10.967,5.459-16.551C379.168,233.469,375.463,208.143,355.811,202.354z
			"/>
		<g>
			<g>
				<path style="fill:#E8BAAB;" d="M347,242.316c4.253,1.252,7.379,3.35,6.989,4.686c-0.395,1.332-4.159,1.402-8.412,0.148
					c-4.253-1.254-7.381-3.352-6.989-4.686C338.982,241.127,342.748,241.064,347,242.316z"/>
				<path style="fill:#E8BAAB;" d="M329.366,302.174c4.252,1.252,8.019,1.188,8.411-0.148c0.392-1.336-2.735-3.434-6.988-4.684
					c-4.255-1.254-8.018-1.191-8.412,0.147C321.983,298.82,325.112,300.92,329.366,302.174z"/>
				<path style="fill:#EBC584;" d="M343.778,243.201c18.245,5.373,29.313,22.379,24.718,37.975
					c-4.596,15.594-23.112,23.881-41.357,18.504c-14.882-4.385-24.984-16.508-25.712-29.289c-0.163-2.887,5.06-7.484,5.06-7.484
					s-0.889-8.537,1.777-11.42C316.264,242.826,330.1,239.17,343.778,243.201z"/>
			</g>
		</g>
		<g>
			<g>
				<g>
					<path style="fill:#4A848F;" d="M353.857,230.215l-12.534-4.141l-12.555-4.066l-25.142-8.013l2.085,0.346l-29.749-2.925
						l-14.879-1.402L246.2,208.69l1.263-18.619l14.925,0.696l14.934,0.619l29.871,1.116c0.389,0.014,0.769,0.062,1.137,0.139
						l0.948,0.207l25.787,5.594l16.47,3.143l7.922,3.811L353.857,230.215z"/>
				</g>
			</g>
		</g>
		<g>
			<path style="fill:#BD9E6A;" d="M367.884,272.74c4.667,1.742,6.626,8.086,4.354,14.172c-2.264,6.076-7.898,9.586-12.565,7.848
				c-4.673-1.744-6.622-8.084-4.357-14.16C357.586,274.516,363.211,270.998,367.884,272.74z"/>
			<path style="fill:#D9B67A;" d="M369.657,273.402c4.663,1.74,6.611,8.082,4.341,14.164c-2.267,6.076-7.887,9.592-12.554,7.853
				c-4.678-1.744-6.622-8.084-4.358-14.158C359.356,275.174,364.979,271.658,369.657,273.402z"/>
		</g>
	</g>
	<g>
		
			<rect x="238.659" y="198.067" transform="matrix(0.0487 -0.9988 0.9988 0.0487 36.7825 437.5419)" style="fill:#C9C9C9;" width="18.859" height="2.788"/>
	</g>
</g>
<g>
	<g>
		<g>
			<g>
				<path style="fill:#655353;" d="M146.528,81.602c4.887-2.763,14.256,4.561,20.924,16.359c6.671,11.799,8.118,23.605,3.229,26.366
					c-4.887,2.763-14.255-4.563-20.925-16.362C143.087,96.168,141.641,84.364,146.528,81.602z"/>
				<path style="fill:#362C2C;" d="M166.32,124.601c1.809-4.831-1.717-14.416-9.007-23.38c-4.412-5.426-9.329-9.54-13.657-11.784
					c0.195,5.057,2.291,11.79,6.101,18.528C154.77,116.834,161.306,123.173,166.32,124.601z"/>
			</g>
			<path d="M159.342,83.392c6.012,1.383,9.665,7.815,8.157,14.366c-1.508,6.551-7.604,10.738-13.617,9.354
				c-6.013-1.383-9.665-7.815-8.158-14.366C147.233,86.195,153.329,82.007,159.342,83.392z"/>
		</g>
		<g>
			<g>
				<path style="fill:#655353;" d="M200.892,46.326c-4.08,3.857,0.163,14.968,9.476,24.813c9.313,9.85,20.167,14.706,24.246,10.847
					c4.08-3.856-0.164-14.966-9.476-24.814C215.826,47.325,204.971,42.468,200.892,46.326z"/>
				<path style="fill:#362C2C;" d="M236.158,77.898c-5.147,0.307-13.269-5.885-19.691-15.49c-3.887-5.814-6.372-11.724-7.241-16.521
					c4.775,1.674,10.595,5.661,15.911,11.285C232.137,64.573,236.27,72.688,236.158,77.898z"/>
			</g>
			<path d="M198.391,59.066c-0.464,6.377,4.791,11.956,11.739,12.461c6.946,0.505,12.954-4.256,13.417-10.632
				c0.463-6.377-4.791-11.956-11.739-12.46C204.861,47.93,198.854,52.689,198.391,59.066z"/>
		</g>
		<g>
			<path style="fill:#F1BFBE;" d="M235.776,35.053c0,0,5.895,7.322,7.662,9.905c0.921,1.341,3.357,5.574,3.357,5.574
				s-1.646,2.791-3.683,5.825c-0.325-0.262-0.517-0.103-0.628,0.063c-0.079,0.116-0.221,0.368,0.057,0.774
				c-0.64,0.934-1.298,1.85-1.923,2.665c-0.155-0.146-0.584-0.546-0.934-0.543c-0.598,0.008-0.681,1.287-0.477,1.502
				c0.362,1.888-2.761,1.191-3.181,0.628c-1.411-1.922-2.972-3.998-6.076-5.254c-3.115-1.253-4.612-7.422-4.194-10.418
				c0.009-0.074,0.024-0.149,0.046-0.226c0.132-0.494-0.576-1.629-0.106-2.28C228.229,39.743,235.776,35.053,235.776,35.053z"/>
			<g>
				<path style="fill:#F6BFBA;" d="M246.695,53.88c-0.367,0-0.737-0.126-1.038-0.384l-1.62-1.384
					c-0.673-0.574-0.752-1.584-0.178-2.256c0.573-0.672,1.584-0.753,2.256-0.177l1.62,1.384c0.673,0.574,0.752,1.584,0.178,2.256
					C247.597,53.69,247.147,53.88,246.695,53.88z"/>
			</g>
			<g>
				<path style="fill:#F6BFBA;" d="M244.691,57.332c-0.436,0-0.871-0.178-1.186-0.527l-2.557-2.827
					c-0.594-0.656-0.543-1.668,0.113-2.261c0.656-0.593,1.67-0.54,2.26,0.113l2.557,2.827c0.594,0.656,0.543,1.668-0.113,2.261
					C245.459,57.195,245.074,57.332,244.691,57.332z"/>
			</g>
			<g>
				<path style="fill:#F6BFBA;" d="M242.435,61.08c-0.436,0-0.87-0.177-1.186-0.526l-2.557-2.821
					c-0.594-0.655-0.544-1.667,0.111-2.261c0.652-0.592,1.667-0.544,2.26,0.111l2.557,2.821c0.594,0.655,0.544,1.667-0.111,2.261
					C243.203,60.943,242.818,61.08,242.435,61.08z"/>
			</g>
			<g>
				<path style="fill:#F6BFBA;" d="M238.288,63.979c-0.613,0-1.198-0.354-1.463-0.95l-1.221-2.743
					c-0.359-0.808,0.004-1.753,0.812-2.113c0.806-0.358,1.754,0.004,2.112,0.811l1.221,2.743c0.359,0.808-0.004,1.753-0.811,2.113
					C238.727,63.934,238.506,63.979,238.288,63.979z"/>
			</g>
			<g>
				<g>
					<path style="fill:#F6BFBA;" d="M230.624,50.052c0.287,2.585,0.354,5.181,0.363,7.779l-0.553-1.288
						c0.344,0.406,0.685,0.817,0.997,1.252c0.159,0.213,0.309,0.437,0.453,0.656c0.067,0.113,0.142,0.222,0.198,0.327
						c0.033,0.056,0.054,0.098,0.066,0.135c0,0.007-0.023-0.005-0.033-0.006l-0.021-0.005c0.056,0.042-0.159-0.119-0.315-0.173
						c-0.173-0.07-0.373-0.108-0.561-0.105c-0.093,0.001-0.183,0.011-0.266,0.027l-0.135,0.033c-0.073,0.02-0.161,0.048-0.263,0.097
						c-0.198,0.092-0.494,0.295-0.684,0.66c-0.195,0.362-0.195,0.783-0.131,1.029c0.03,0.128,0.07,0.228,0.107,0.307
						c0.045,0.088,0.081,0.143,0.068,0.123l0.006,0.007l0.013,0.015l0.056,0.052c-0.499-0.651-0.377-1.584,0.274-2.084
						c0.65-0.5,1.584-0.377,2.083,0.274l0.115,0.135l0.027,0.035l0.014,0.018c-0.012-0.02,0.025,0.038,0.069,0.128
						c0.039,0.081,0.08,0.183,0.111,0.313c0.065,0.25,0.066,0.675-0.129,1.041c-0.188,0.369-0.482,0.577-0.679,0.673
						c-0.216,0.104-0.335,0.122-0.4,0.133c-0.087,0.015-0.181,0.023-0.277,0.022c-0.193-0.001-0.403-0.043-0.583-0.118
						c-0.164-0.058-0.387-0.222-0.337-0.186l-0.06-0.036l-0.111-0.072l-0.232-0.138l-0.383-0.238
						c-0.239-0.16-0.471-0.32-0.689-0.491c-0.446-0.334-0.856-0.7-1.26-1.073c-0.318-0.296-0.498-0.685-0.535-1.086l-0.018-0.202
						c-0.233-2.588-0.411-5.179-0.367-7.779c0.018-1.107,0.93-1.99,2.037-1.973C229.684,48.285,230.515,49.063,230.624,50.052z"/>
				</g>
			</g>
		</g>
		<path style="fill:#F6BFBA;" d="M235.695,198.062l-1.545-1.123c-0.032-0.068-0.066-0.127-0.104-0.169
			c-1.652-1.838-3.41-3.844-4.308-6.939l0.686,0.184l0.581,0.616l0.631,0.685l0.299,0.327c0.04,0.044,0.082,0.089,0.107,0.113
			c0.059,0.108,0.127,0.212,0.211,0.308c0.036,0.044,0.037,0.053,0.103,0.125l0.05,0.053c0.02,0.018,0.011,0.018,0.13,0.117
			c0.045,0.036,0.093,0.071,0.141,0.103l0.073,0.046l0.038,0.021l0.018,0.01c0.059,0.032,0.145,0.072,0.238,0.105
			c0.188,0.066,0.452,0.121,0.759,0.09c0.306-0.028,0.631-0.161,0.857-0.335c0.231-0.172,0.37-0.361,0.46-0.513
			c0.052-0.09,0.071-0.134,0.079-0.152l0.039-0.093c0.102-0.253,0.145-0.575,0.105-0.858c-0.069-0.379-0.07-0.288-0.075-0.333
			l-0.026-0.077l-0.054-0.131l-0.043-0.097l-0.051-0.113l-0.127-0.282l-0.212-0.47l-0.416-0.893l-0.837-1.754v0
			c-0.3-0.432-0.749-0.768-1.297-0.916l-6.67-1.799c-2.289-1.493-5.071-2.501-6.941-2.649c-0.086-0.007-0.174-0.008-0.266-0.003
			c-0.585,0.026-1.713-1.056-2.549-0.688c-4.527,1.984-11.46,9.342-11.46,9.342s6.981,8.478,9.511,11.119
			c1.013,1.058,3.759,3.553,4.969,4.645l0.973,1.751c0.337,0.607,0.966,0.949,1.614,0.949c0.303,0,0.611-0.075,0.895-0.233
			c0.891-0.495,1.211-1.618,0.716-2.508l-0.322-0.58c0.18-0.065,0.365-0.133,0.554-0.203l0.998,1.362
			c0.361,0.493,0.921,0.754,1.489,0.754c0.379,0,0.761-0.116,1.089-0.357c0.822-0.602,1-1.756,0.398-2.578l-0.476-0.649
			c-0.129-0.344,0.052-0.505,0.244-0.582c0.145-0.059,0.449-0.148,0.837,0.239l1.138,1.555c0.361,0.494,0.922,0.755,1.49,0.755
			c0.378,0,0.759-0.116,1.088-0.356c0.822-0.602,1.001-1.756,0.398-2.578l-0.804-1.098c-0.15-0.272-0.331-0.667-0.273-0.96
			c0.086-0.421,0.692-0.491,1.183-0.415l1.494,1.087c0.327,0.238,0.707,0.353,1.083,0.353c0.57,0,1.133-0.263,1.494-0.759
			C236.701,199.815,236.52,198.661,235.695,198.062z M234.79,189.75l0.03,0.032c0.037,0.044,0.014,0.023,0.023,0.039
			c-0.071-0.083-0.15-0.154-0.233-0.22c0.024,0.017,0.05,0.034,0.073,0.052C234.794,189.747,234.779,189.739,234.79,189.75z"/>
		<g>
			<path style="fill:#437356;" d="M139.792,105.769c12.743-0.844,29.608-6.382,46.502-16.05
				c16.899-9.671,30.219-21.405,37.405-31.964c18.152-3.239,29.797-5.253,22.537-17.947c-10.855-18.964-41.484-22.568-73.022-10.323
				c-5.604,2.175-10.258,6.564-15.814,9.742c-5.558,3.181-11.705,4.975-16.417,8.712c-26.525,20.983-38.937,49.212-28.085,68.172
				C120.158,128.805,127.797,119.786,139.792,105.769z"/>
			<g>
				<path style="fill:#E8BAAB;" d="M149.184,91.862c-2.351-4.107-3.208-8.028-1.922-8.767c1.29-0.738,4.237,1.991,6.587,6.097
					c2.346,4.103,3.208,8.028,1.918,8.766C154.477,98.696,151.528,95.967,149.184,91.862z"/>
				<path style="fill:#E8BAAB;" d="M206.944,58.804c-2.35-4.103-5.297-6.833-6.585-6.096c-1.291,0.737-0.429,4.665,1.917,8.768
					c2.352,4.103,5.301,6.835,6.59,6.096C210.153,66.839,209.291,62.91,206.944,58.804z"/>
				<path style="fill:#190F28;" d="M152.315,93.555c-10.075-17.602,9.07-47.364,9.07-47.364s35.359-1.426,45.434,16.176
					c6.295,11.002,7.086,23.43,3.112,33.311c-1.179,2.935-9.273,12.531-12.121,14.164c-2.9,1.659-5.447-0.135-8.627,0.387
					c-2.807,0.457-6.222,3.346-9.081,2.976C169.354,111.816,158.737,104.782,152.315,93.555z"/>
			</g>
		</g>
		<g>
			<g>
				<polygon style="fill:#437356;" points="143.789,93.58 175.068,147.862 172.995,145.858 217.67,178.39 205.396,195.247 
					160.72,162.714 158.646,160.711 113.482,117.292 				"/>
			</g>
		</g>
	</g>
	<g>
		
			<rect x="199.964" y="184.616" transform="matrix(0.5857 -0.8105 0.8105 0.5857 -63.5629 247.6641)" style="fill:#C9C9C9;" width="21.05" height="2.789"/>
	</g>
</g>
<g>
	<g>
		<path style="fill:#655353;" d="M135.646,295.555c5.227-2.051,13.476,6.518,18.422,19.135c4.948,12.617,4.722,24.51-0.504,26.557
			c-5.226,2.049-13.474-6.518-18.421-19.137C130.196,309.494,130.422,297.602,135.646,295.555z"/>
		<path style="fill:#362C2C;" d="M140.97,317.781c4.205,10.728,10.792,18.504,15.884,19.34c1.612-4.973,0.713-13.512-2.786-22.432
			c-4.205-10.729-10.792-18.502-15.884-19.338C136.572,300.324,137.472,308.865,140.97,317.781z"/>
	</g>
	<g>
		<path style="fill:#655353;" d="M231.583,293.441c-5.227-2.051-13.475,6.518-18.421,19.135c-4.947,12.617-4.722,24.51,0.506,26.557
			c5.226,2.051,13.473-6.518,18.419-19.137C237.035,307.381,236.809,295.488,231.583,293.441z"/>
		<path style="fill:#362C2C;" d="M226.261,315.67c-4.206,10.727-10.792,18.502-15.884,19.34c-1.613-4.975-0.713-13.514,2.785-22.434
			c4.206-10.729,10.792-18.502,15.883-19.336C230.658,298.211,229.758,306.75,226.261,315.67z"/>
	</g>
	<ellipse cx="220.678" cy="321.531" rx="11.409" ry="10.473"/>
	<ellipse cx="144.606" cy="324.211" rx="13.031" ry="11.961"/>
	<path style="fill:#8C675E;" d="M242.965,210.838c-0.208,0.086-0.444,0.139-0.715,0.139c-2.335,0-2.335-3.621,0-3.621
		c0.064,0,0.121,0.013,0.183,0.018c-0.566-3.619-1.269-7.891-1.742-9.991c-0.353-1.583-1.495-5.428-2.021-7.176l0.078-2.175
		c0.001-1.65-1.29-2.99-2.929-3.049l-0.147-0.003c-0.793,0-1.514,0.304-2.052,0.806c-0.44-1.156-1.553-1.954-2.857-1.954
		c-0.085,0-0.17,0.004-0.263,0.011c-0.896,0.08-1.668,0.533-2.169,1.198c-0.307-1.367-1.543-2.389-2.971-2.389
		c-0.091,0-0.183,0.004-0.273,0.012c-1.585,0.14-2.781,1.444-2.782,3.034c0,0.051,0.002,0.102,0.004,0.153l-0.973-3.114
		c-0.548,0.169-1.17,0.075-1.7-0.457c-0.222-0.223-0.672-0.438-1.195-0.564c-0.585-0.141-0.96-0.186-1.608-0.156
		c-0.622,0.029-1.072-0.21-1.361-0.574c-0.277,0.461-0.439,0.995-0.44,1.563c0,0.309,0.047,0.615,0.139,0.912l1.9,6.082
		c-0.025,0.14-0.037,0.271-0.037,0.394c0.001,0.106,0.01,0.204,0.027,0.297c0.22,1.154,0.483,2.54,0.57,4.005l-0.019-0.031
		c-0.206-0.324-0.454-0.59-0.751-0.809c-0.436-0.327-1.025-0.537-1.56-0.561c-0.058-0.003-0.115-0.005-0.171-0.005
		c-0.537,0-0.966,0.147-1.226,0.268c-0.171,0.079-0.309,0.161-0.452,0.259l-0.127,0.094c-0.08,0.064-0.16,0.133-0.235,0.206
		c-0.326,0.314-0.594,0.741-0.754,1.228c-0.098,0.364-0.129,0.529-0.138,0.665l-0.25,2.188l-0.222,2.226l0.005,0.079
		c0.05,0.844,0.399,1.645,0.983,2.254l5.202,5.429c0.49,0.996,1.089,1.989,1.74,2.914c0.52-0.263,1.01-0.579,1.514-0.873
		c0.853-0.498,1.978-0.202,2.477,0.649c0.21,0.357,0.271,0.762,0.218,1.15c1.233,0.669,1.173,2.749-0.182,3.279
		c0.066,0.1,0.138,0.215,0.195,0.307c0.427,0.688,1.012,1.63,2.096,1.771c0.597,0.078,1.279,0.118,2.025,0.118
		c0.001,0,0.001,0,0.002,0c5.794,0,14.28-2.346,14.639-2.445l0.849-0.236l-0.128-0.872
		C243.34,213.353,243.189,212.328,242.965,210.838z"/>
	<g>
		<path style="fill:#F1BFBE;" d="M116.849,328.164c0,0,0.1-7.541,0.36-10.051c0.133-1.305,0.885-5.193,0.885-5.193
			s2.827-0.98,6.078-1.932c0.077,0.328,0.31,0.318,0.485,0.266c0.125-0.033,0.376-0.125,0.418-0.523
			c1.009-0.287,2.021-0.551,2.95-0.766c0.025,0.168,0.093,0.633,0.349,0.801c0.432,0.285,1.246-0.492,1.227-0.727
			c0.852-1.381,2.682,0.578,2.648,1.143c-0.124,1.914-0.232,3.998,1.251,6.311c1.49,2.314-1.079,6.984-3.145,8.695
			c-0.05,0.041-0.108,0.082-0.167,0.119c-0.385,0.252-0.549,1.324-1.271,1.51C125.024,328.836,116.849,328.164,116.849,328.164z"/>
		<g>
			<path style="fill:#F6BFBA;" d="M119.542,314.906c-0.641,0-1.216-0.449-1.351-1.102l-0.346-1.672
				c-0.155-0.746,0.326-1.478,1.072-1.632c0.748-0.155,1.477,0.326,1.632,1.073l0.346,1.672c0.155,0.746-0.326,1.478-1.072,1.632
				C119.729,314.897,119.635,314.906,119.542,314.906z"/>
		</g>
		<g>
			<path style="fill:#F6BFBA;" d="M122.833,315.051c-0.729,0-1.339-0.571-1.378-1.308l-0.162-3.047
				c-0.041-0.762,0.544-1.412,1.306-1.452c0.769-0.022,1.412,0.545,1.452,1.306l0.162,3.047c0.041,0.762-0.544,1.412-1.306,1.452
				C122.883,315.05,122.858,315.051,122.833,315.051z"/>
		</g>
		<g>
			<path style="fill:#F6BFBA;" d="M126.666,313.75c-0.729,0-1.337-0.569-1.378-1.306l-0.166-3.045
				c-0.042-0.762,0.542-1.412,1.304-1.454c0.775-0.027,1.412,0.542,1.454,1.304l0.167,3.045c0.042,0.762-0.542,1.412-1.304,1.454
				C126.717,313.749,126.691,313.75,126.666,313.75z"/>
		</g>
		<g>
			<path style="fill:#F6BFBA;" d="M130.436,313.215c-0.139,0-0.28-0.021-0.419-0.065c-0.727-0.23-1.128-1.008-0.897-1.734
				l0.747-2.346c0.231-0.727,1.008-1.131,1.735-0.896c0.727,0.23,1.128,1.008,0.897,1.734l-0.746,2.346
				C131.565,312.84,131.021,313.215,130.436,313.215z"/>
		</g>
		<g>
			<g>
				<path style="fill:#F6BFBA;" d="M129.559,320.887c0.661-0.91,1.379-1.771,2.102-2.627c0.722-0.857,1.475-1.689,2.239-2.512
					l-0.396,1.256c-0.011-0.426-0.012-0.855,0.014-1.283c0.009-0.213,0.03-0.426,0.052-0.635l0.044-0.299
					c0.008-0.051,0.014-0.082,0.026-0.107c0.005,0.002,0.014,0.025,0.021,0.037l0.013,0.02c-0.006-0.023,0.013,0.047,0.044,0.123
					c0.029,0.072,0.067,0.143,0.113,0.215c0.092,0.141,0.222,0.27,0.36,0.359c0.169,0.088,0.17,0.135,0.599,0.215
					c0.197,0.025,0.498-0.002,0.769-0.154c0.273-0.15,0.454-0.393,0.536-0.57c0.168-0.461,0.085-0.32,0.106-0.352v-0.02
					c0-0.027-0.002-0.055-0.005-0.082c-0.028,0.709-0.624,1.26-1.332,1.23c-0.708-0.027-1.259-0.623-1.231-1.33l0.001-0.162
					l0.002-0.043c0.022-0.035-0.061,0.096,0.111-0.369c0.083-0.182,0.266-0.428,0.54-0.58c0.272-0.156,0.574-0.185,0.772-0.164
					c0.433,0.068,0.437,0.127,0.609,0.221c0.14,0.096,0.273,0.23,0.368,0.379c0.047,0.072,0.087,0.148,0.117,0.223l0.047,0.131
					l0.022,0.061l0.039,0.117l0.077,0.213l0.127,0.344c0.073,0.223,0.141,0.439,0.193,0.658c0.116,0.432,0.195,0.867,0.261,1.303
					c0.061,0.406-0.05,0.799-0.28,1.102l-0.116,0.154c-0.68,0.893-1.372,1.777-2.094,2.633c-0.721,0.859-1.448,1.713-2.231,2.52
					c-0.665,0.685-1.761,0.701-2.447,0.037C129.127,322.537,129.06,321.572,129.559,320.887z"/>
			</g>
		</g>
	</g>
	<path style="fill:#D6A6A2;" d="M238.61,188.477c-1.004-0.335-3.172-0.914-4.875-1.357l-0.232-0.484v0
		c-0.3-0.432-0.749-0.768-1.297-0.916l-3.809-1.027l-0.045-0.024c-0.268-0.148-0.558-0.211-0.845-0.215l-1.972-0.532
		c-0.82-0.535-1.704-1.004-2.586-1.397c-0.2,0.15-0.815-0.339-0.815-0.339c-1.296-0.507-2.547-0.834-3.54-0.913
		c-0.086-0.007-0.174-0.008-0.266-0.003c-0.585,0.026-1.713-1.056-2.549-0.688c-0.475,0.208-0.98,0.486-1.498,0.798
		c-0.115,0.374-0.181,0.769-0.181,1.178c0.001,0.403,0.062,0.801,0.181,1.182c0,0,1.837,6.528,1.872,6.704
		c0.098,0.518,0.206,1.091,0.302,1.698c-0.368-0.134-0.76-0.214-1.153-0.232l-0.176-0.004c-0.706,0-1.27,0.194-1.613,0.353
		c-0.221,0.101-0.399,0.206-0.619,0.358l-0.143,0.107c-0.108,0.085-0.213,0.177-0.309,0.27c-0.445,0.428-0.788,0.983-1.008,1.658
		c-0.132,0.496-0.162,0.693-0.168,0.836l-0.126,1.058l-0.122,1.111l-0.02,0.214c1.119,1.296,2.142,2.454,2.83,3.173
		c1.013,1.058,3.759,3.553,4.969,4.645l0.973,1.751c0.337,0.607,0.966,0.949,1.614,0.949c0.303,0,0.611-0.075,0.895-0.233
		c0.891-0.495,1.211-1.618,0.716-2.508l-0.322-0.58c0.18-0.065,0.365-0.133,0.554-0.203l0.998,1.362
		c0.005,0.007,0.012,0.011,0.017,0.018c-0.004,0.081-0.005,0.16-0.001,0.218l0.01,0.092c0.009,0.061,0.02,0.126,0.037,0.189
		c0.063,0.258,0.2,0.521,0.367,0.712c0.35,0.359,0.299,0.267,0.371,0.337l0.094,0.073l0.238,0.185l0.399,0.311l0.77,0.588
		l1.533,1.144h0.001c0.46,0.242,1.01,0.329,1.556,0.206l6.648-1.5c2.643,0.246,5.485-0.14,7.193-0.851
		c-0.593-3.816-1.36-8.53-1.863-10.77c-0.325-1.454-1.254-4.626-1.995-7.093l0.044-1.245
		C239.26,188.701,238.909,188.577,238.61,188.477z M225.666,208.008l-0.135-0.031l-0.021-0.007l-0.041-0.015
		c-0.055-0.022-0.023-0.014-0.038-0.022c0.098,0.039,0.198,0.064,0.297,0.083C225.708,208.014,225.686,208.012,225.666,208.008z
		 M229.199,205.731l-0.787-0.27l-0.856-0.305c0.005-0.386-0.105-0.775-0.351-1.11l-0.476-0.649
		c-0.038-0.101-0.044-0.182-0.035-0.254c1.089,0.606,2.167,1.371,3.189,2.434L229.199,205.731z"/>
	<path style="fill:#F6BFBA;" d="M239.715,197.601c-0.354-1.585-1.527-5.526-2.052-7.265l0.083-2.232
		c0.04-1.131-0.844-2.082-1.975-2.123c-1.163-0.055-2.081,0.843-2.123,1.974l-0.027,0.738c-0.208-0.042-0.424-0.083-0.644-0.126
		l-0.166-1.869c-0.1-1.127-1.093-1.953-2.224-1.86c-1.127,0.101-1.96,1.096-1.858,2.223l0.078,0.886
		c-0.076,0.405-0.342,0.454-0.563,0.417c-0.174-0.026-0.508-0.119-0.659-0.694l-0.19-2.148c-0.101-1.128-1.097-1.963-2.221-1.861
		c-1.128,0.1-1.961,1.094-1.861,2.222l0.132,1.5c-0.012,0.344-0.065,0.829-0.294,1.076c-0.263,0.285-0.719,0.149-1.107-0.102
		l-2.004-6.414c-0.338-1.081-1.484-1.681-2.567-1.346c-1.081,0.337-1.683,1.486-1.346,2.567l1.98,6.338
		c-0.061,0.221-0.087,0.413-0.063,0.546c0.513,2.693,1.033,5.611,0.104,9.071l-0.547-0.571l-0.197-0.917l-0.207-1.016l-0.096-0.484
		c-0.014-0.067-0.026-0.137-0.038-0.175c0.006-0.133,0-0.269-0.023-0.406c-0.009-0.064-0.004-0.071-0.025-0.181l-0.018-0.08
		l-0.009-0.04l-0.055-0.164c-0.023-0.062-0.05-0.124-0.079-0.184l-0.046-0.088l-0.039-0.067c-0.098-0.154-0.246-0.353-0.506-0.544
		c-0.254-0.191-0.643-0.346-1.02-0.363c-0.379-0.023-0.703,0.073-0.921,0.174c-0.112,0.051-0.202,0.105-0.277,0.157l-0.095,0.07
		c-0.055,0.044-0.11,0.091-0.164,0.143c-0.215,0.208-0.391,0.493-0.482,0.766c-0.152,0.569-0.088,0.452-0.116,0.568l-0.015,0.133
		l-0.042,0.339l-0.067,0.567l-0.119,1.085l-0.214,2.146v0.001c0.035,0.585,0.27,1.165,0.707,1.621l5.311,5.542
		c1.318,2.736,3.386,5.296,5.078,6.509c0.076,0.056,0.161,0.108,0.253,0.157c0.568,0.311,1.02,1.987,2.027,2.119
		c5.445,0.715,16.267-2.299,16.267-2.299S240.606,201.567,239.715,197.601z M239.715,197.601c-0.354-1.585-1.527-5.526-2.052-7.265
		l0.083-2.232c0.04-1.131-0.844-2.082-1.975-2.123c-1.163-0.055-2.081,0.843-2.123,1.974l-0.027,0.738
		c-0.208-0.042-0.424-0.083-0.644-0.126l-0.166-1.869c-0.1-1.127-1.093-1.953-2.224-1.86c-1.127,0.101-1.96,1.096-1.858,2.223
		l0.078,0.886c-0.076,0.405-0.342,0.454-0.563,0.417c-0.174-0.026-0.508-0.119-0.659-0.694l-0.19-2.148
		c-0.101-1.128-1.097-1.963-2.221-1.861c-1.128,0.1-1.961,1.094-1.861,2.222l0.132,1.5c-0.012,0.344-0.065,0.829-0.294,1.076
		c-0.263,0.285-0.719,0.149-1.107-0.102l-2.004-6.414c-0.338-1.081-1.484-1.681-2.567-1.346c-1.081,0.337-1.683,1.486-1.346,2.567
		c0,0,1.893,6.751,1.917,6.884c0.513,2.693,1.033,5.611,0.104,9.071l-0.547-0.571l-0.197-0.917l-0.207-1.016l-0.096-0.484
		c-0.014-0.067-0.026-0.137-0.038-0.175c0.006-0.133,0-0.269-0.023-0.406c-0.009-0.064-0.004-0.071-0.025-0.181l-0.018-0.08
		l-0.009-0.04l-0.055-0.164c-0.023-0.062-0.05-0.124-0.079-0.184l-0.046-0.088l-0.039-0.067c-0.098-0.154-0.246-0.353-0.506-0.544
		c-0.254-0.191-0.643-0.346-1.02-0.363c-0.379-0.023-0.703,0.073-0.921,0.174c-0.112,0.051-0.202,0.105-0.277,0.157l-0.095,0.07
		c-0.055,0.044-0.11,0.091-0.164,0.143c-0.215,0.208-0.391,0.493-0.482,0.766c-0.152,0.569-0.088,0.452-0.116,0.568l-0.015,0.133
		l-0.042,0.339l-0.067,0.567l-0.119,1.085l-0.214,2.146v0.001c0.035,0.585,0.27,1.165,0.707,1.621l5.311,5.542
		c1.318,2.736,3.386,5.296,5.078,6.509c0.076,0.056,0.161,0.108,0.253,0.157c0.568,0.311,1.02,1.987,2.027,2.119
		c5.445,0.715,16.267-2.299,16.267-2.299S240.606,201.567,239.715,197.601z M213.301,196.311l-0.006-0.024l-0.01-0.047
		c-0.011-0.067,0-0.031,0-0.051c0.021,0.12,0.054,0.233,0.095,0.342c-0.01-0.023-0.022-0.047-0.031-0.07L213.301,196.311z"/>
	<g>
		<path style="fill:#8A5430;" d="M232.793,318.668c-11.392-5.555-28.65-9.096-47.97-9.096c-19.319,0-36.577,3.541-47.971,9.096
			c-17.238-6.162-28.26-10.166-28.26,4.346c0,21.689,24.608,39.889,57.808,44.889c5.902,0.887,12.072-0.596,18.423-0.596
			c6.357,0,12.537,1.482,18.436,0.592c33.194-5.002,57.796-23.205,57.796-44.885C261.055,308.502,250.031,312.506,232.793,318.668z"
			/>
		<g>
			<path style="fill:#E8BAAB;" d="M217.846,326.02c0,4.695-1.193,8.496-2.665,8.496c-1.473,0-2.669-3.801-2.669-8.496
				c0-4.693,1.196-8.496,2.669-8.496C216.653,317.523,217.846,321.326,217.846,326.02z"/>
			<path style="fill:#E8BAAB;" d="M151.8,326.02c0,4.695,1.195,8.496,2.667,8.496c1.472,0,2.665-3.801,2.665-8.496
				c0-4.693-1.194-8.496-2.665-8.496C152.996,317.523,151.8,321.326,151.8,326.02z"/>
			<path style="fill:#341E11;" d="M215.982,323.014c0,20.131-13.952,36.451-31.16,36.451c-17.208,0-31.157-16.32-31.157-36.451
				c0-20.127,13.949-36.447,31.157-36.447C202.03,286.566,215.982,302.887,215.982,323.014z"/>
		</g>
		<g>
			<g>
				<path style="fill:#8A5430;" d="M225.996,322.701l10.904-51.561l0.325,4.109l-15.857-60.132l22.402-5.907l15.858,60.131
					c0.199,0.756,0.3,1.514,0.311,2.262l0.013,1.848l1.103,49.965L225.996,322.701z"/>
			</g>
		</g>
	</g>
	<g>
		
			<rect x="221.265" y="211.738" transform="matrix(0.9682 -0.25 0.25 0.9682 -45.8863 64.9946)" style="fill:#C9C9C9;" width="23.297" height="2.789"/>
	</g>
</g>
<g>
	<path style="fill:#190F28;" d="M166.115,398.413h-7.128v28.248h-1.364v-28.248h-7.084v-1.408h15.576V398.413z"/>
	<path style="fill:#190F28;" d="M169.767,398.413v12.76h9.284v1.364h-9.284v12.804h9.284v1.364h-10.648v-29.656h10.648v1.364
		H169.767z"/>
	<path style="fill:#190F28;" d="M183.142,426.705h-1.408l2.332-10.296v-0.132l4.488-19.229h1.1l6.776,29.656h-1.408l-2.024-9.065
		h-7.832L183.142,426.705z M189.082,400.789l-3.564,15.488h7.172L189.082,400.789z"/>
	<path style="fill:#190F28;" d="M200.214,426.705h-1.364v-29.656h1.188l7.612,26.444l7.568-26.444h1.232v29.656h-1.408v-24.024
		l-6.864,24.024h-1.056l-6.908-24.024V426.705z"/>
	<path style="fill:#465E8F;" d="M246.99,396.97l-6.576,29.735h-3.066l-4.155-19.003l-4.196,19.003h-3.066l-6.576-29.735h3.914
		l4.196,18.963l4.196-18.963h3.066l4.155,18.963l4.196-18.963H246.99z"/>
	<path style="fill:#465E8F;" d="M255.463,426.665c-1.426,0-2.569-0.256-3.43-0.767c-0.861-0.511-1.507-1.035-1.936-1.574
		c-1.13-1.452-1.694-3.496-1.694-6.132v-12.79c0-2.636,0.564-4.68,1.694-6.133c0.215-0.268,0.477-0.537,0.787-0.807
		c0.309-0.269,0.686-0.518,1.13-0.746c0.443-0.228,0.948-0.417,1.513-0.565c0.564-0.147,1.21-0.222,1.936-0.222
		c1.452,0,2.603,0.256,3.449,0.767c0.848,0.512,1.486,1.036,1.917,1.573c1.13,1.453,1.694,3.497,1.694,6.133v12.79
		c0,2.636-0.564,4.68-1.694,6.132c-0.431,0.539-1.069,1.064-1.917,1.574C258.065,426.409,256.915,426.665,255.463,426.665z
		 M255.463,400.763c-0.296,0-0.625,0.027-0.988,0.081c-0.363,0.054-0.72,0.222-1.069,0.504c-0.35,0.282-0.64,0.74-0.867,1.372
		c-0.23,0.632-0.343,1.526-0.343,2.683v12.79c0,1.184,0.113,2.092,0.343,2.723c0.227,0.633,0.518,1.09,0.867,1.372
		c0.35,0.282,0.706,0.451,1.069,0.505c0.363,0.054,0.692,0.08,0.988,0.08c0.269,0,0.592-0.026,0.969-0.08
		c0.376-0.054,0.739-0.223,1.089-0.505c0.35-0.282,0.639-0.739,0.867-1.372c0.228-0.631,0.343-1.539,0.343-2.723v-12.79
		c0-1.156-0.114-2.051-0.343-2.683c-0.229-0.632-0.518-1.09-0.867-1.372c-0.35-0.282-0.713-0.45-1.089-0.504
		C256.055,400.79,255.731,400.763,255.463,400.763z"/>
	<path style="fill:#465E8F;" d="M276.281,412.06c0.727,0.699,1.284,1.533,1.674,2.501c0.39,0.969,0.585,2.072,0.585,3.309v8.796
		h-3.832v-8.796c0-2.608-1.265-3.913-3.793-3.913h-1.896h-0.483v12.709h-3.793V396.93h6.173c2.555,0,4.479,0.754,5.77,2.26
		c1.184,1.371,1.775,3.443,1.775,6.213c0,2.743-0.592,4.828-1.775,6.254c-0.054,0.054-0.114,0.121-0.182,0.201
		C276.435,411.939,276.362,412.006,276.281,412.06z M270.915,410.123c1.021,0,1.728-0.121,2.118-0.363
		c0.39-0.242,0.639-0.43,0.746-0.564c0.592-0.753,0.888-2.018,0.888-3.793c0-0.995-0.08-1.795-0.242-2.4
		c-0.161-0.605-0.397-1.075-0.706-1.412c-0.31-0.336-0.699-0.558-1.17-0.666c-0.471-0.107-1.016-0.161-1.634-0.161h-2.38v9.36h0.483
		H270.915z"/>
	<path style="fill:#465E8F;" d="M293.751,426.665l-6.778-12.185l-1.573,2.461v9.724h-3.793v-10.772h-0.04l0.04-0.081V396.93h3.793
		v12.991l8.433-12.991h4.559l-9.037,13.92l8.755,15.815H293.751z"/>
</g>
</svg>
