<svg xmlns="http://www.w3.org/2000/svg" width="844" height="563" fill="none" viewBox="0 0 844 563">
  <path fill="#fff" d="M844 563H0V0h844v563Z"/>
  <path fill="#EBF3FA" d="M169.249 488.498s-71.097-81.5-41.409-177.3c26.646-85.981 147.12-141.628 211.136-99.043 30.969 20.6 55.988-62.2 158.767-92.509C573.748 97.23 686.135 147.5 657.591 301.441c-21.702 117.043 85.948 58.69 62.439 187.986l-550.781-.929Z"/>
  <path fill="#599DAD" d="M545.944 195.555s-15.448-16.721-1.972-28.217c0 0 9.914-6.528 18.205-6.34 0 0-10.983 20.108-7.118 21.921 3.866 1.813 10.624-23.289 10.624-23.289s23.001-3.108 30.564.186c0 0-19.131 16.904-14.936 17.709 4.192.805 24.912-15.857 24.912-15.857s21.626 2.852 20.97 16.009c-.652 13.157-7.902 17.487-11.171 17.262-3.267-.228-22.575-6.782-22.89-4.099-.315 2.683 11.47 10.97 19.511 11.077 0 0-14.523 17.284-24.772 12.839-10.249-4.445-11.394-12.059-17.777-14.694-6.384-2.632-11.74-2.424-9.039.405 2.7 2.83 14.165 5.245 17.991 11.46 3.829 6.219 7.21 10.382-3.266 9.205-10.474-1.176-27.692-8.166-28.764-16.873l-1.072-8.704Z"/>
  <path fill="#599DAD" d="M616.649 178.429s-58.442-.056-70.705 17.126c0 0-2.529 8.648-11.006 16.755l-1.229 3.781s9.712-11.049 13.307-11.832c0 0-6.434-20.476 69.633-25.83Z"/>
  <path fill="#599DAD" d="M534.939 212.31s-12.179 9.743-12.43 26.337l2.282.119s3.359-17.276 10.339-24.246c6.98-6.967-.191-2.21-.191-2.21Z"/>
  <path fill="#86D1CD" d="M511.025 175.628s-34.725-7.837-27.548-34.608c0 0 6.991-17.205 17.839-24.319 0 0 3.666 35.652 10.255 34.56 6.586-1.092-6.949-39.429-6.949-39.429s26.884-24.412 39.544-26.878c0 0-9.669 38.748-3.553 36.069 6.116-2.683 18.05-42.535 18.05-42.535s30.387-15.51 41.204 2.021c10.82 17.535 5.312 29.546.901 32.15-4.409 2.61-35.097 11.291-33.122 15.029 1.972 3.736 24.501 3.958 34.953-3.037 0 0-3.393 35.154-20.537 38.52-17.145 3.364-25.371-5.43-35.929-3.158-10.556 2.272-17.274 7.291-11.288 8.538 5.984 1.25 22.898-5.81 33.338-1.194 10.441 4.614 18.487 6.979 3.948 14.757-14.54 7.777-42.918 14.046-52.013 3.78l-9.093-10.266Z"/>
  <path fill="#6BB7BF" d="M586.948 90.832s-75.352 51.776-75.923 84.796c0 0 4.406 13.388.664 31.356l1.767 5.959s2.723-22.854 6.662-27.049c0 0-26.437-20.673 66.83-95.062Z"/>
  <path fill="#6BB7BF" d="M511.689 206.984s-7.058 23.353 7.326 44.956l3.044-1.872s-10.983-25.237-8.164-40.407c2.816-15.173-2.206-2.677-2.206-2.677Z"/>
  <path fill="#86D1CD" d="M318.129 374.992s34.725-7.837 27.548-34.608c0 0-6.991-17.202-17.839-24.316 0 0-3.666 35.649-10.255 34.557-6.586-1.092 6.949-39.43 6.949-39.43s-26.884-24.411-39.544-26.874c0 0 9.669 38.748 3.553 36.065-6.116-2.679-18.049-42.534-18.049-42.534s-30.388-15.511-41.206 2.024c-10.819 17.532-5.31 29.543-.9 32.15 4.41 2.607 35.095 11.291 33.123 15.026-1.973 3.736-24.502 3.958-34.954-3.034 0 0 3.393 35.153 20.538 38.517 17.144 3.364 25.37-5.43 35.928-3.158 10.556 2.272 17.274 7.294 11.287 8.541-5.984 1.247-22.897-5.813-33.338-1.197-10.441 4.614-18.486 6.979-3.947 14.757 14.54 7.777 42.918 14.046 52.013 3.78l9.093-10.266Z"/>
  <path fill="#6BB7BF" d="M242.206 290.196s75.352 51.779 75.923 84.796c0 0-4.406 13.388-.664 31.356l-1.77 5.959s-2.72-22.852-6.659-27.049c0 0 26.437-20.673-66.83-95.062Z"/>
  <path fill="#6BB7BF" d="M317.465 406.348s7.059 23.356-7.326 44.956l-3.044-1.87s10.983-25.239 8.165-40.409c-2.817-15.173 2.205-2.677 2.205-2.677Z"/>
  <path fill="#739AF0" d="M548.358 489.427H295.642V134.332h252.716v355.095Z"/>
  <path fill="#DDEBFD" d="M539.476 482.851H304.523V144.165h234.953v338.686Z"/>
  <path fill="#A8C3F7" d="M520.534 196.701H328.718v-10.979h191.816v10.979Zm0 61.052H328.718v-5.036h191.816v5.036Zm0 11.845H328.718v-5.033h191.816v5.033Zm0 11.849H328.718v-5.036h191.816v5.036Zm0 11.848H328.718v-5.036h191.816v5.036Zm0 11.845H328.718v-5.033h191.816v5.033Zm0 11.849H328.718v-5.036h191.816v5.036ZM384.887 380.76c0 8.18-6.626 14.809-14.801 14.809-8.173 0-14.801-6.629-14.801-14.809 0-8.178 6.628-14.81 14.801-14.81 8.175 0 14.801 6.632 14.801 14.81Zm61.966 14.238c-.042 0-.084-.006-.126-.011a.74.74 0 0 1-.605-.853c.138-.814 3.505-19.973 14.125-26.495.757-.464 1.233-.222 1.449-.037.931.797.223 2.832-2.976 10.503-1.272 3.06-2.783 6.683-3.407 8.887 1.134-1.483 2.824-4.022 4.169-6.044 4.2-6.308 5.019-7.338 5.838-7.338.304 0 .577.14.748.388.445.642.107 1.712-1.052 4.856-.444 1.205-1.125 3.051-1.322 4.042.602-.543 1.488-1.697 2.023-2.392 1.454-1.898 2.191-2.801 3.06-2.666.183.028.625.157.839.746.087.242.126.518.171.811.116.757.242 1.618 1.157 2.133 1.842 1.039 7.157.98 21.997-5.21a.739.739 0 1 1 .571 1.365c-12.533 5.227-20.152 6.908-23.294 5.135-1.531-.862-1.758-2.306-1.891-3.181-.422.444-1.007 1.207-1.437 1.767-1.607 2.092-2.662 3.353-3.739 3.263a1.012 1.012 0 0 1-.785-.476c-.512-.81-.011-2.404 1.26-5.849a76.97 76.97 0 0 0 .642-1.774c-1.027 1.405-2.423 3.502-3.554 5.202-4.703 7.066-5.556 8.091-6.504 7.832-.146-.04-.622-.223-.661-.91-.096-1.652 1.446-5.489 3.806-11.155 1.199-2.88 2.771-6.652 3.16-8.31-9.661 6.494-12.902 24.966-12.933 25.155a.741.741 0 0 1-.729.616Z"/>
  <path fill="#F99746" d="M432.559 128.823a5.922 5.922 0 0 1-5.922-5.923 5.923 5.923 0 0 1 5.922-5.925 5.923 5.923 0 0 1 5.919 5.925 5.921 5.921 0 0 1-5.919 5.923Zm44.793-.245h-29.798a16.002 16.002 0 0 0 1.038-5.678c0-8.862-7.18-16.043-16.033-16.043-8.857 0-16.036 7.181-16.036 16.043 0 1.999.368 3.91 1.038 5.678h-29.799a4.341 4.341 0 0 0-4.341 4.344v12.042a4.343 4.343 0 0 0 4.341 4.346h89.59c2.4 0 4.344-1.945 4.344-4.346v-12.042a4.342 4.342 0 0 0-4.344-4.344Z"/>
  <path fill="#ED7D2B" d="M387.762 149.31h89.59c2.4 0 4.344-1.945 4.344-4.346v-12.042l-93.934 16.388Z"/>
  <path fill="#D39E7A" d="M148.416 488.031c5.973-6.106 16.494-10.306 28.648-10.801v-17.997h-20.967c-.465 0-.881-.405-1.144-1.03a4.15 4.15 0 0 1-.294-1.576v-.91c0-1.435.647-2.606 1.438-2.606h20.967v-50.268a2.42 2.42 0 0 1 2.412-2.415 2.421 2.421 0 0 1 2.413 2.415v50.268h20.967c.79 0 1.437 1.171 1.437 2.606v.91c0 .611-.117 1.174-.313 1.618-.263.603-.67.988-1.124.988h-20.967v17.997c12.154.495 22.675 4.695 28.648 10.801.434.442.842.895 1.226 1.357H147.19a21.45 21.45 0 0 1 1.226-1.357Z"/>
  <path fill="#E0B594" d="M177.064 477.32c8.48.785 15.768 4.881 19.987 10.711.322.445.623.895.908 1.357h5.974a21.663 21.663 0 0 0-.908-1.357c-4.707-6.506-13.235-10.849-22.973-10.849-1.011 0-2.008.045-2.988.138Z"/>
  <path fill="#163560" d="M243.163 477.407s.731 11.789 3.01 11.958c.304.023 11.562.023 11.562.023l14.373-.082s-.094-3.465-4.296-4.197c-4.201-.735-11.232-3.688-13.777-9.245-2.678-5.844-10.872 1.543-10.872 1.543Z"/>
  <path fill="#233862" d="M186.241 390.784c2.052 3.482 4.425 6.745 6.871 9.836 7.559 9.548 15.788 17.422 17.222 24.864.285 1.484.737 3.08 1.329 4.763a61.793 61.793 0 0 0 2.193 5.352c3.208 6.972 8.005 14.784 12.795 21.886 8.28 12.277 15.057 20.513 15.057 20.513s2.171 1.695 8.381 1.692c1.728 0 7.546-.946 7.546-.946-.571-1.433-7.439-17.731-15.77-38.444l-10.451-25.983c-.462-1.151-.925-2.297-1.382-3.434-1.062-2.64-2.106-5.239-3.125-7.769-7.823-19.452-14.054-34.94-14.054-34.94s-31.266-11.851-34.512-4.172c-2.678 6.331-.497 12.535 7.9 26.782Z"/>
  <path fill="#D39E7A" d="M286.797 489.388h-47.352v-131.12h47.352v131.12Z"/>
  <path fill="#F2C7AA" d="M284.828 489.388H318.7v-131.12h-33.872v131.12Z"/>
  <path fill="#AF7D5B" d="M285.157 358.268h-48.924v-2.643h48.924v2.643Z"/>
  <path fill="#E2B291" d="M322.203 358.268h-37.046v-2.643h37.046v2.643Z"/>
  <path fill="#ED975D" d="M235.492 337.977s6.786 3.863 8.685 3.86c1.899 0 9.355-1.442 11.433-.377 2.079 1.061 5.841 5.337 6.546 6.733 1.27 2.511-5.109 1.402-8.124-.738-.438-.309-.982-.425-1.506-.309-1.562.34-4.806.929-6.373.349-2.106-.78-13.202-1.647-13.202-1.647l2.541-7.871Z"/>
  <path fill="#82B378" d="M183.87 285.399s7.034 50.02 18.681 54.501c5.746 2.21 31.144 7.223 38.657 7.724 0 0 1.841-1.492 1.392-7.572 0 0-26.609-9.776-30.389-15.091-5.626-7.913 3.492-32.322-3.567-39.754-7.06-7.428-18.95-10.623-24.774.192Z"/>
  <path fill="#163560" d="M210.099 443.726s-9.931 6.387-8.968 8.461c.129.276 5.617 10.112 5.617 10.112l7.079 12.515s2.978-1.773 1.569-5.798c-1.408-4.029-2.259-11.612 1.349-16.544 3.795-5.188-6.646-8.746-6.646-8.746Z"/>
  <path fill="#2B478B" d="M215.742 455.971s-6.991-6.497-8.085-10.517c0 0 25.576-30.661 31.124-37.535.255-.316.19-.662-.146-1.042-4.189-4.723-50.724-14.331-56.806-23.798-2.097-3.262-3.284-6.362-3.931-9.067-1.378-5.776-.288-9.768-.288-9.768l46.475-1.346s38.696 24.111 43.078 40.548c4.38 16.439-51.421 52.525-51.421 52.525Z"/>
  <path fill="#233862" d="M238.635 406.877c-4.189-4.723-50.724-14.331-56.806-23.798-2.097-3.262-3.284-6.362-3.931-9.067v-5.883l19.753-3.111s5.602 17.248 22.192 23.714c15.539 6.058 18.482 16.808 18.792 18.145Z"/>
  <path fill="#FFB27D" d="M211.368 282.246c-9.402 2.432-24.988-6.283-24.988-6.283s6.052-4.071 8.295-13.011c.114-.45.215-.912.308-1.385.984-.208 2.842-.605 4.828-1.025l7.181 6.438s-.163 2.672-1.062 7.266a85.698 85.698 0 0 1-.54 2.578c3.854 2.39 5.978 5.422 5.978 5.422Z"/>
  <path fill="#A8D29F" d="M176.425 321.242c1.346 18.123-.425 45.688 1.103 50.459 1.318 4.121 16.341 1.672 22.338.296 2.219-.507 4.907-1.236 7.684-2.095 7.745-2.401 16.183-5.827 17.089-8.369a2.328 2.328 0 0 0 .067-1.359c-.302-1.295-1.465-2.7-1.602-5.909-.153-3.586-.13-7.806-.264-12.344-.007-.512-.014-1.07-.07-1.579l-.002-.183a28.641 28.641 0 0 1-.007-.293c-.13-5.061-.395-10.382-.702-15.66-.194-3.316-.42-6.598-.68-9.742-.675-8.119-1.586-15.339-2.79-19.902-1.969-7.44-6.31-12.293-10.261-15.852l-2.858-2.452c-3.19.699-6.96.234-10.371-1.382-3.691-1.753-4.965-3.009-5.608-2.536-8.525 6.581-14.656 26.745-13.066 48.902Z"/>
  <path fill="#82B378" d="M207.55 369.902c7.745-2.401 16.183-5.827 17.089-8.369.035-.101.065-.197.083-.293-.004-.354-.009-.712-.016-1.066-.302-1.295-1.465-2.7-1.602-5.909-.153-3.586-.13-7.806-.264-12.344-.007-.512-.014-1.07-.07-1.579l-.002-.183a28.641 28.641 0 0 1-.007-.293l-31.31-39.911s-21.046 43.852 16.099 69.947Z"/>
  <path fill="#ED975D" d="M206.992 266.98s-.164 2.672-1.062 7.266c-7.013-2.266-10.193-8.606-11.255-11.294.114-.45.215-.912.308-1.385.984-.208 2.842-.605 4.828-1.025l7.181 6.438Z"/>
  <path fill="#FFB27D" d="M207.935 271.031s-15.292-2.553-13.556-12.059c1.735-9.504.931-16.235 10.768-15.007 9.838 1.23 11.068 5.202 11.259 8.515.192 3.313-4.448 18.97-8.471 18.551Z"/>
  <path fill="#1C468A" d="m241.432 353.291 38.193-.006 10.379-33.574 1.353.419-10.97 35.495h-38.971l.016-2.334Z"/>
  <path fill="#FFB27D" d="M231.306 354.262s12.517 3.302 17.211 2.956c4.694-.346 8.598-2.582 9.188-3.747.591-1.165 1.832-3.234-1.364-2.852-3.196.381-7.558 1.062-7.694.448-.135-.616 2.605-.557 2.605-.557s.829-1.205-.215-1.25c-1.042-.042-4.085-.867-5.215-.304-1.13.566-2.173 2.654-2.999 2.567-.825-.087-10.474-4.349-10.474-4.349l-1.043 7.088Z"/>
  <path fill="#A8D29F" d="M186.975 287.89s1.479 50.493 12.561 56.23c5.468 2.832 30.159 10.612 37.571 11.941 0 0 1.994-1.281 2.218-7.375 0 0-25.37-12.648-28.542-18.351-4.72-8.482 7.033-31.737.835-39.9-6.198-8.166-17.664-12.651-24.643-2.545Z"/>
  <path fill="#233862" d="M194.675 262.952s-.175-3.26 1.836-5.129c0 0-.701-3.268.592-3.809 1.293-.537 1.562 2.21 2.155 1.779.592-.43 3.231-2.48 4.362-5.497 1.131-3.018 11.484.636 12.691 1.182 1.206.543 5.084-1.453 5.838-3.068 0 0-2.154-1.726-3.124-3.018-.969-1.295-7.756-10.024-17.236-7.547-9.48 2.48-10.773 7.006-10.234 10.888.539 3.879-.763 12.918 3.12 14.219Z"/>
  <path fill="#912F2F" d="M212.283 384.264c-14.374 0-28.6-2.91-41.82-8.557l-8.58-3.665c-7.788-3.328-16.441 2.39-16.441 10.863v16.386a2.908 2.908 0 0 0 2.897 2.899h63.944a2.908 2.908 0 0 0 2.897-2.899v-12.127c0-1.593-1.304-2.9-2.897-2.9Z"/>
  <path fill="#C65447" d="M462.236 396.881c-13.467 2.311-26.541 2.815-36.483 2.036-10.047-.789-15.918-3.891-16.526-7.432-.548-3.206 3.171-6.886 10.759-10.632-7.273 3.592-10.795 7.637-10.294 10.553.554 3.237 6.414 5.529 16.078 6.289 9.908.78 22.765-.065 36.199-2.37 13.436-2.309 25.838-5.805 34.919-9.844 8.859-3.939 13.619-8.054 13.065-11.291-.588-3.429-6.912-6.731-16.506-8.614-10.904-2.143-23.772-1.422-36.449.754-23.801 4.087-33.122 8.552-41.024 13.495 7.936-4.965 16.933-10.593 40.818-14.694 12.728-2.187 25.77-2.204 36.728-.054 9.796 1.926 16.267 5.385 16.894 9.031.608 3.541-4.13 7.747-13.338 11.843-9.115 4.053-21.37 8.616-34.84 10.93Z"/>
  <path fill="#FFB27D" d="M619.111 352.72s-.782 7.592-1.638 9.03c-.858 1.436-4.504 6.027-6.057 6.925-1.555.901.948-6.047.63-7.398-.315-1.354-1.277 2.466-1.963 2.556-.684.09-.507-3.347-.532-4.6-.025-1.249 3.331-4.337 4.515-7.003 1.182-2.663 5.045.49 5.045.49Zm-93.245-70.043-1.745-3.294s.864-5.866-6.484-9.579c0 0-2.684-1.095-4.201 1.098-1.398 2.018 2.662 1.655 2.442 5.106-.216 3.454 1.421 5.481 3.703 6.607l1.885 2.184 4.4-2.122Z"/>
  <path fill="#4A75CB" d="M595.31 274.806s-6.311 30.99-41.039 41.116c-10.839 3.161-35.467-32.55-35.467-32.55s.866-3.291 6.29-2.536c0 0 23.981 15.885 27 17.61 2.678 1.532 20.295-19.682 28.325-23.105 8.029-3.42 14.891-.535 14.891-.535Z"/>
  <path fill="#C65447" d="m535.152 273.666-.984 6.415-32.25-4.957.985-6.415 32.249 4.957Z"/>
  <path fill="#FFB27D" d="m494.913 270.764 7.005 4.36.985-6.415-7.99 2.055Zm43.66 5.607-.309 2.027a2.285 2.285 0 0 1-2.605 1.911l-1.492-.228.985-6.415 1.623.25a2.15 2.15 0 0 1 1.798 2.455Z"/>
  <path fill="#233862" d="M636.77 469.626s4.307 3.933 3.466 6.728c-.838 2.796-4.726 4.659-5.253 8.076-.526 3.415-2.627 5.279-4.518 5.279h-9.017s-1.392-2.404 1.97-3.128c3.362-.723 4.631-4.74 4.42-8.465-.209-3.727.315-8.698.315-8.698l7.145-1.655 1.472 1.863ZM583.916 479.8s.773 8.954-1.117 9.886l-24.206-.051s0-2.795 3.888-3.417c3.888-.619 10.719-2.897 11.875-7.969 1.156-5.073 9.56 1.551 9.56 1.551Z"/>
  <path fill="#2B478B" d="M563.482 353.336s1.275 15.691 2.777 34.557c2.04 25.625 4.49 57.102 4.735 63.064.419 10.354 2.102 26.917 2.102 26.917s3.992 3.936 11.979 2.278c0 0 7.117-23.646 9.149-48.66.033-.411.064-.825.095-1.239 1.891-25.465 4.834-79.093 4.834-79.093l-35.671 2.176Z"/>
  <path fill="#233862" d="M563.482 353.336s1.275 15.691 2.777 34.557l27.965 43.599c.033-.411.064-.825.095-1.239 1.891-25.464 4.834-79.093 4.834-79.093l-35.671 2.176Z"/>
  <path fill="#2B478B" d="M569.312 355.199s23.01 56.835 38.143 83.544c15.13 26.709 19.859 34.163 19.859 34.163s8.668-3.418 9.456-5.746c0 0-5.787-51.565-15.918-64.134-5.728-7.102-12.452-28.417-12.767-35.871-.315-7.454-2.051-22.205-2.051-22.205l-36.722 10.249Z"/>
  <path fill="#FFB27D" d="M599.589 267.611s-15.572 7.519-24.547 4.729c0 0 2.209-2.79 6.077-4.864-.312-1.802-.554-3.367-.692-4.693-.38-3.063-.38-4.797-.38-4.797l6.007-4.729 5.697-4.524c-.447 12.721 7.838 18.878 7.838 18.878Z"/>
  <path fill="#699DEE" d="M607.793 347.861c.033.951-2.004 2.041-2.901 2.449-6.662 2.925-12.877 4.966-19.918 5.647-8.322.85-18.16-1.022-21.542-.955-.346 0-.658-.135-.934-.371-.242-.172-.414-10.205-.242-22.824 0-.51 0-1.022.036-1.531v-.169c.068-4.932.242-10.103.482-15.272.484-11.361 1.381-22.314 2.9-28.369 1.832-7.142 5.973-11.871 9.737-15.305l3.106-2.723c3.109.614 6.386.445 9.667-1.154 3.589-1.737 7.458-3.606 8.079-3.13 4.693 3.434 7.869 11.156 9.563 21.02.965 5.68 1.449 12.042 1.415 18.708 0 2.449-.07 4.966-.208 7.449-.827 13.469 0 25.168.484 31.939.138 1.973.242 3.501.276 4.591Z"/>
  <path fill="#4A75CB" d="M607.517 347.241c-54.522-.109-10.055-59.196-10.055-59.196l8.831-2.871c.701 6.069 1.05 12.864 1.024 19.986 0 2.618-.05 5.306-.149 7.958-.599 14.39 0 26.892.349 34.123Z"/>
  <path fill="#ED985F" d="M591.855 253.598s-3.936 7.178-11.428 9.185c-.38-3.063-.38-4.797-.38-4.797l6.007-4.729 5.801.341Z"/>
  <path fill="#FFB27D" d="M577.307 257.778s14.854 2.432 16.25-6.705c1.392-9.135 4.251-14.976-5.174-16.913-9.425-1.939-11.805 1.273-13.023 4.211-1.218 2.939-1.879 18.54 1.947 19.407Z"/>
  <path fill="#2C3A64" d="M598.956 233.065c.135-.155.444-.279 1.136-.318 0 0-.554-.346-1.291-.363-.146-.963-.658-2.669-2.315-3.082 0 0 .891.475 1.007 1.497-1.919-1.97-6.029-3.406-17.412-2.505-15.003 1.182-10.058 10.795-8.116 11.941 1.944 1.146 6.83-1.996 10.448-1.709 3.621.287 4.308 5.52 5.537 6.238 1.227.718.743-.551 2.405-1.303 1.66-.752 1.818 2.001 1.34 3.792-.482 1.79 1.8 4.152 1.8 4.152l2.307-2.483c2.307-2.486 4.479-13.014 3.432-15.257a57.785 57.785 0 0 1-.278-.6Z"/>
  <path fill="#699DEE" d="M596.255 264.078s9.399 4.453 13.904 11.299c6.991 10.619 15.09 49.316 15.242 52.9.149 3.583-5.913 28.885-5.913 28.885s-6.15-.406-7.737-3.513c0 0 1.229-25.994.45-27.664-.779-1.672-25.635-34.869-22.839-41.954 2.794-7.086 6.893-19.953 6.893-19.953Z"/>
  <path fill="#FFB27D" d="M524.088 279.228s.512-2.021-.889-2.927c-1.402-.91-2.687-3.378-3.278-3.043-1.224.692.67 2.848.324 5.534-.121.94 2.067 3.406 3.843.436Z"/>
  <path fill="#283250" d="M106.789 490.843h630.423c.309 0 .562-.326.562-.726 0-.397-.253-.724-.562-.724H106.789c-.309 0-.562.327-.562.724 0 .4.253.726.562.726Z"/>
</svg>
