<svg xmlns="http://www.w3.org/2000/svg" baseProfile="basic" viewBox="0 0 100 100"><circle cx="51" cy="50" r="35" fill="#f15b6c"/><path d="M67.327,76.267c-0.165,0-0.327-0.082-0.422-0.232c-0.148-0.233-0.079-0.542,0.154-0.69 c1.546-0.982,3.011-2.113,4.354-3.361c0.203-0.188,0.519-0.177,0.707,0.026c0.188,0.202,0.177,0.519-0.025,0.707 c-1.389,1.29-2.902,2.458-4.5,3.472C67.512,76.242,67.419,76.267,67.327,76.267z M74.92,69.426c-0.109,0-0.219-0.035-0.311-0.108 c-0.217-0.172-0.253-0.486-0.081-0.703C78.762,63.271,81,56.834,81,50c0-0.276,0.224-0.5,0.5-0.5S82,49.724,82,50 c0,7.062-2.312,13.713-6.688,19.236C75.213,69.361,75.067,69.426,74.92,69.426z"/><path d="M22.795,62.127c-0.196,0-0.383-0.116-0.462-0.309C20.785,58.069,20,54.093,20,50c0-6.592,2.042-12.887,5.905-18.204 c0.163-0.225,0.477-0.272,0.698-0.11c0.224,0.162,0.272,0.475,0.11,0.698C22.976,37.528,21,43.62,21,50 c0,3.961,0.76,7.809,2.257,11.436c0.105,0.255-0.016,0.548-0.271,0.653C22.924,62.115,22.858,62.127,22.795,62.127z M29.401,28.965 c-0.128,0-0.256-0.049-0.354-0.146c-0.195-0.195-0.195-0.512-0.001-0.707c1.522-1.526,3.208-2.898,5.012-4.078 c0.229-0.15,0.54-0.087,0.691,0.145s0.087,0.541-0.145,0.692c-1.745,1.142-3.377,2.47-4.85,3.947 C29.658,28.917,29.529,28.965,29.401,28.965z"/><path d="M51,86c-0.72,0-0.922-0.451-0.979-1.017l-0.021,0c0.001-0.026,0.001-0.151,0.001-0.367 c-0.002-0.108-0.002-0.217-0.002-0.326L49.993,50l0.006-34.29c0-0.109,0-0.218,0.002-0.326c0-0.216,0-0.34-0.001-0.367l0.021,0 C50.078,14.451,50.28,14,51,14s0.922,0.451,0.979,1.017l0.021,0c-0.001,0.026-0.001,0.151-0.001,0.367 c0.002,0.108,0.002,0.217,0.002,0.326L52.007,50l-0.006,34.29c0,0.109,0,0.218-0.002,0.326c0,0.216,0,0.34,0.001,0.367l-0.021,0 C51.922,85.549,51.72,86,51,86z"/><path fill="#fff" d="M57,85.013c-0.579,0-1.049-0.47-1.049-1.049v-4.057c0-0.579,0.47-1.049,1.049-1.049 s1.049,0.47,1.049,1.049v4.057C58.049,84.543,57.579,85.013,57,85.013z M57,75.883c-0.579,0-1.049-0.47-1.049-1.049v-4.058 c0-0.579,0.47-1.049,1.049-1.049s1.049,0.47,1.049,1.049v4.058C58.049,75.414,57.579,75.883,57,75.883z M57,66.754 c-0.579,0-1.049-0.47-1.049-1.049v-4.058c0-0.579,0.47-1.049,1.049-1.049s1.049,0.47,1.049,1.049v4.058 C58.049,66.284,57.579,66.754,57,66.754z M57,57.625c-0.579,0-1.049-0.47-1.049-1.049v-4.058c0-0.579,0.47-1.049,1.049-1.049 s1.049,0.47,1.049,1.049v4.058C58.049,57.155,57.579,57.625,57,57.625z M57,48.495c-0.579,0-1.049-0.47-1.049-1.049v-4.058 c0-0.579,0.47-1.049,1.049-1.049s1.049,0.47,1.049,1.049v4.058C58.049,48.025,57.579,48.495,57,48.495z M57,39.365 c-0.579,0-1.049-0.47-1.049-1.049v-4.058c0-0.579,0.47-1.049,1.049-1.049s1.049,0.47,1.049,1.049v4.058 C58.049,38.896,57.579,39.365,57,39.365z M57,30.236c-0.579,0-1.049-0.47-1.049-1.049v-4.058c0-0.579,0.47-1.049,1.049-1.049 s1.049,0.47,1.049,1.049v4.058C58.049,29.766,57.579,30.236,57,30.236z M57,21.106c-0.579,0-1.049-0.47-1.049-1.049V16 c0-0.579,0.47-1.049,1.049-1.049s1.049,0.47,1.049,1.049v4.058C58.049,20.637,57.579,21.106,57,21.106z"/><path fill="#fff" d="M45,85.013c-0.579,0-1.049-0.47-1.049-1.049v-4.057c0-0.579,0.47-1.049,1.049-1.049 s1.049,0.47,1.049,1.049v4.057C46.049,84.543,45.579,85.013,45,85.013z M45,75.883c-0.579,0-1.049-0.47-1.049-1.049v-4.058 c0-0.579,0.47-1.049,1.049-1.049s1.049,0.47,1.049,1.049v4.058C46.049,75.414,45.579,75.883,45,75.883z M45,66.754 c-0.579,0-1.049-0.47-1.049-1.049v-4.058c0-0.579,0.47-1.049,1.049-1.049s1.049,0.47,1.049,1.049v4.058 C46.049,66.284,45.579,66.754,45,66.754z M45,57.625c-0.579,0-1.049-0.47-1.049-1.049v-4.058c0-0.579,0.47-1.049,1.049-1.049 s1.049,0.47,1.049,1.049v4.058C46.049,57.155,45.579,57.625,45,57.625z M45,48.495c-0.579,0-1.049-0.47-1.049-1.049v-4.058 c0-0.579,0.47-1.049,1.049-1.049s1.049,0.47,1.049,1.049v4.058C46.049,48.025,45.579,48.495,45,48.495z M45,39.365 c-0.579,0-1.049-0.47-1.049-1.049v-4.058c0-0.579,0.47-1.049,1.049-1.049s1.049,0.47,1.049,1.049v4.058 C46.049,38.896,45.579,39.365,45,39.365z M45,30.236c-0.579,0-1.049-0.47-1.049-1.049v-4.058c0-0.579,0.47-1.049,1.049-1.049 s1.049,0.47,1.049,1.049v4.058C46.049,29.766,45.579,30.236,45,30.236z M45,21.106c-0.579,0-1.049-0.47-1.049-1.049V16 c0-0.579,0.47-1.049,1.049-1.049s1.049,0.47,1.049,1.049v4.058C46.049,20.637,45.579,21.106,45,21.106z"/><path fill="#fff" d="M41.049,83.548v-3.641c0-0.579-0.47-1.049-1.049-1.049s-1.049,0.47-1.049,1.049v2.948 C39.64,83.108,40.34,83.338,41.049,83.548z"/><path fill="#fff" d="M38.951,47.446c0,0.579,0.47,1.049,1.049,1.049s1.049-0.47,1.049-1.049v-4.058 c0-0.579-0.47-1.049-1.049-1.049s-1.049,0.47-1.049,1.049V47.446z"/><path fill="#fff" d="M40,30.236c0.579,0,1.049-0.47,1.049-1.049v-4.058c0-0.579-0.47-1.049-1.049-1.049 s-1.049,0.47-1.049,1.049v4.058C38.951,29.766,39.421,30.236,40,30.236z"/><path fill="#fff" d="M40,21.106c0.579,0,1.049-0.47,1.049-1.049v-3.606c-0.708,0.211-1.409,0.44-2.098,0.693v2.913 C38.951,20.637,39.421,21.106,40,21.106z"/><path fill="#fff" d="M38.951,38.316c0,0.579,0.47,1.049,1.049,1.049s1.049-0.47,1.049-1.049v-4.058 c0-0.579-0.47-1.049-1.049-1.049s-1.049,0.47-1.049,1.049V38.316z"/><path fill="#fff" d="M38.951,56.576c0,0.579,0.47,1.049,1.049,1.049s1.049-0.47,1.049-1.049v-4.058 c0-0.579-0.47-1.049-1.049-1.049s-1.049,0.47-1.049,1.049V56.576z"/><path fill="#fff" d="M38.951,74.834c0,0.579,0.47,1.049,1.049,1.049s1.049-0.47,1.049-1.049v-4.058 c0-0.579-0.47-1.049-1.049-1.049s-1.049,0.47-1.049,1.049V74.834z"/><path fill="#fff" d="M38.951,65.705c0,0.579,0.47,1.049,1.049,1.049s1.049-0.47,1.049-1.049v-4.058 c0-0.579-0.47-1.049-1.049-1.049s-1.049,0.47-1.049,1.049V65.705z"/><g><path fill="#fff" d="M62,69.728c-0.579,0-1.049,0.47-1.049,1.049v4.058c0,0.579,0.47,1.049,1.049,1.049 s1.049-0.47,1.049-1.049v-4.058C63.049,70.198,62.579,69.728,62,69.728z"/><path fill="#fff" d="M63.049,52.518c0-0.579-0.47-1.049-1.049-1.049s-1.049,0.47-1.049,1.049v4.058 c0,0.579,0.47,1.049,1.049,1.049s1.049-0.47,1.049-1.049V52.518z"/><path fill="#fff" d="M63.049,61.647c0-0.579-0.47-1.049-1.049-1.049s-1.049,0.47-1.049,1.049v4.058 c0,0.579,0.47,1.049,1.049,1.049s1.049-0.47,1.049-1.049V61.647z"/><path fill="#fff" d="M63.049,43.389c0-0.579-0.47-1.049-1.049-1.049s-1.049,0.47-1.049,1.049v4.058 c0,0.579,0.47,1.049,1.049,1.049s1.049-0.47,1.049-1.049V43.389z"/><path fill="#fff" d="M63.049,25.129c0-0.579-0.47-1.049-1.049-1.049s-1.049,0.47-1.049,1.049v4.058 c0,0.579,0.47,1.049,1.049,1.049s1.049-0.47,1.049-1.049V25.129z"/><path fill="#fff" d="M62,78.858c-0.579,0-1.049,0.47-1.049,1.049v3.649c0.71-0.211,1.407-0.451,2.098-0.705v-2.944 C63.049,79.328,62.579,78.858,62,78.858z"/><path fill="#fff" d="M63.049,34.259c0-0.579-0.47-1.049-1.049-1.049s-1.049,0.47-1.049,1.049v4.058 c0,0.579,0.47,1.049,1.049,1.049s1.049-0.47,1.049-1.049V34.259z"/><path fill="#fff" d="M60.951,16.444v3.613c0,0.579,0.47,1.049,1.049,1.049s1.049-0.47,1.049-1.049v-2.909 C62.358,16.895,61.661,16.655,60.951,16.444z"/></g><g><path d="M51,86c-19.851,0-36-16.149-36-36s16.149-36,36-36s36,16.149,36,36S70.851,86,51,86z M51,16c-18.748,0-34,15.252-34,34 s15.252,34,34,34s34-15.252,34-34S69.748,16,51,16z"/></g></svg>